<?xml version="1.0" encoding="utf-8"?>
<!-- Generator: Adobe Illustrator 22.1.0, SVG Export Plug-In . SVG Version: 6.00 Build 0)  -->
<svg version="1.1" id="Layer_1" xmlns="http://www.w3.org/2000/svg" xmlns:xlink="http://www.w3.org/1999/xlink" x="0px" y="0px"
	 viewBox="0 0 241.9 217.6" style="enable-background:new 0 0 241.9 217.6;" xml:space="preserve">
<style type="text/css">
	.st0{fill:none;stroke:#85c1fd;stroke-width:0.2;stroke-linecap:round;stroke-linejoin:round;stroke-dasharray:0.32;}
	.st1{fill:none;stroke:#85c1fd;stroke-width:0.2;stroke-linecap:round;stroke-linejoin:round;stroke-dasharray:0.32;}
	.st2{fill:#85c1fd;stroke:#85c1fd;stroke-width:0.5;}
</style>
<title>bangladesh</title>
<polyline class="st0" points="178.6,178.8 178.8,179.3 179.1,180.6 179.2,181.8 178.9,182.7 178.7,184.5 178.7,188.8 178.8,189.5 
	179.4,194.6 179.7,196.3 180.1,197.6 180.3,198.3 180.6,199.3 181,199.9 180.9,200.1 179.1,201.4 178.6,201 177.1,197.5 
	172.5,194.6 171.9,194.6 169,196.4 168,198.2 167.4,200.1 167.5,202.6 167.8,205.1 168.4,205.8 169.2,207.6 "/>
<polyline class="st0" points="76.5,175.1 77.4,174.4 76.7,172.8 76.3,172.4 75.2,170.8 74.9,170.1 74.5,168.6 74.4,166.3 
	72.8,151.7 70.9,148.7 70.9,147.8 71.3,144.9 71.9,144.3 72.4,143.9 74.4,141.4 70,140.2 69.3,140.6 67.1,140 66.6,139.2 66.6,138 
	67.4,136.8 68.8,133.7 68.8,132.4 67.9,133.1 63.1,128.9 62.6,127.5 62.9,123.8 63.7,121 64.4,120.6 66.1,120 67.4,119.2 68,115.4 
	67.2,114.8 66.6,114.1 66.7,112.8 66.6,112.1 67,111.1 67.7,110.8 68,109.9 67.8,109.1 67.5,108.5 67.2,107.9 66.6,107.1 65.7,107 
	65.2,107.5 61.1,106.8 59.9,106 57.1,103.8 54.9,102.6 53.5,102 50.5,100.8 50,100.2 48.1,95.2 50.8,91 51.7,90.1 51.6,88.9 51,88 
	53.2,87 54.4,88.2 54.8,89 55.6,89.4 56.5,89.6 58.2,87.4 59.4,84.9 60,83.3 60,80.8 60,79.8 60.7,79.4 64.6,79.5 65.3,79.5 
	67,79.6 72.2,80.2 73.4,80.6 73.8,80.4 75.6,76.7 75.1,76.1 73.5,76.1 71.8,75.3 70.9,74.4 70.3,73.1 70.8,72.4 70.9,71.4 
	70.7,70.8 69.7,69.8 68.8,69.6 67.3,70.5 65.6,70.4 62.9,69.9 60,67.2 59.9,66.5 60,65.1 55,60.5 54.5,60.2 53.7,60.5 53.1,60.7 
	52,61.3 51.4,61.1 50.5,59.5 50.1,57 52,51.4 52.7,49.7 55.6,48.4 57.3,47.7 57.6,46.8 57.6,45.8 58.7,44.5 60.8,43.5 62.2,43.1 
	62.1,42 61.1,40.2 60.1,39.9 58.1,39.4 57.7,40.4 57.1,39.5 58.2,36.5 59.2,35.1 59.4,36.3 59.8,37.3 63.7,40.1 64.6,40 66.6,41.5 
	67.1,42.4 67.3,44.3 68.1,45.5 71.6,47.2 76.1,47.4 76.7,46.1 74.7,44.2 73.4,43.6 73,42.5 73.5,41.5 74.1,40.9 77.5,42.8 
	78.1,45.4 78.9,49.2 79.3,49.9 82.5,52.6 84.5,54 85.1,54.2 89.6,54.6 90.8,54.3 92.4,52.6 92.1,51.7 91.7,50.9 91.2,50 92.4,47.7 
	93.3,47.6 93.7,48.8 94.7,49.8 96.1,49.9 97.3,52 98.7,54.8 99.2,57.7 98.7,58.7 98.4,59.3 98.1,60.3 99.2,64.3 99.7,65.8 
	99.7,67.1 99.6,68 99.3,69.8 98.6,72.4 98.3,74.5 98.8,76.3 99.2,76.8 100.2,76.7 101,76.2 102.5,76.7 104.6,77.7 108.3,79.1 
	114.3,81 115.1,81.2 116.1,81.2 116.6,80.8 118.4,80.4 120.2,80.6 127.2,81.2 128,81.1 130.8,80.7 131.7,80.4 132.7,80 133.7,79.7 
	134.6,79.6 136.5,79.6 139.1,79.2 140.4,79.9 145.3,81.2 151.5,80.8 152.8,80.3 157.9,79.8 160.9,79.6 162.5,79.8 163.1,80 
	165.3,81 169.3,82.8 171.5,84.4 171.6,84.8 171.6,85.4 171.8,86.3 172.5,86.4 173.8,87.8 173.9,89 173.4,89.3 172.4,89.9 171,89.9 
	169.6,88.9 168.1,88.2 167,88.6 167,89.9 167.4,90.7 167.4,91.4 167.2,92.3 167.1,93.3 165.5,98.9 165.1,99.4 164.2,100 164,100.2 
	163.8,101.1 164.1,102.8 164,103.7 163.6,104.3 159.7,106.5 158.7,105.6 158,106.3 158.3,107.6 157.7,111 157,111.8 153.3,111.7 
	148.8,113.5 148.1,113.8 147.5,113.9 146.7,113.8 145.6,113.8 143.9,113.2 142.7,113.4 139.6,117.6 138.7,119.7 138.8,120.4 
	139.1,121.6 138.1,124.3 137.5,124.4 136.8,124.6 136.5,125.2 136.7,128.1 138,131.9 139.3,133.7 140.1,136.1 140.6,138.4 
	141.1,140.3 141.2,141.2 141.3,141.8 141.7,143.8 142,144.6 142.4,145.1 142.9,145.6 143.6,145.5 143.7,144.7 143.3,143.6 
	143,142.1 143,140.8 143.6,139.4 144.3,139.5 144.9,139.9 145.7,140.8 146.2,142.6 147.8,147.6 148.3,148 149.7,149.3 152.9,147.7 
	154.4,146.4 155.6,144.7 155.1,142.6 154.9,141.4 154.4,140.4 154.1,139.6 154.2,138.9 154.5,137.8 154.9,137 156.2,134.8 
	157.3,134 158.4,133.8 159.6,131.8 159.5,130 159.4,129.1 158.9,127.5 158.7,126.4 159.4,124.9 159.9,125.7 161.5,127.4 
	162.4,127.3 163.7,126 165.5,124.6 166.3,125.4 168.1,125 168.4,125.2 168.8,125.8 169.1,129.6 169.9,133.2 170.9,135.9 
	171.2,136.7 171.8,138.4 171.2,139.6 170.7,140.2 170.9,141.8 171.6,149.2 174.6,155 175.6,155.7 176.2,160.2 176.1,161.1 
	177.5,167.1 177.8,168.2 178.4,172.7 178.3,173.9 178.1,176.1 178.6,178.8 "/>
<polyline class="st1" points="149.2,0.1 149.2,0.4 149.2,1.2 148.8,1.9 148.2,2.4 147.7,3 147.7,4.4 148.2,6.1 148.5,6.9 149.9,8.4 
	152.5,10 154.8,9.9 157.7,9.2 158.6,8.6 161,11.9 161.3,12.5 162.1,14.2 160.1,17.5 159.4,18.1 159.2,20.2 159.4,20.8 159.4,20.9 
	160.2,21.7 160.9,22.2 161.4,22.9 161.8,24 162.2,25.4 161.9,26.6 161.6,27.1 161.4,27.4 "/>
<polyline class="st1" points="161.4,27.4 160.9,27.6 160,27.9 158.8,27.9 154.6,27.6 152,29.1 151.2,29.7 146.4,29.6 145.6,28.5 
	145.2,27.6 142.9,27.5 142.5,28.3 142.1,29.1 141.8,29.7 140.8,30.2 139.8,30.5 139.2,30.5 138.6,29.9 137.7,29.6 134.6,29.6 
	132.7,30.2 130.3,30.4 130.1,30.4 129.6,30.4 128.6,30.4 124.2,30.6 123.2,30.7 122.6,30.7 121.3,30.5 119.2,29.8 117.9,29.1 
	116.2,28.2 115.1,27 114.3,26.8 113.6,26.9 109.5,28.4 108.9,28.9 108.6,29.6 108.4,30.8 107.6,31.3 106.9,31.6 105.7,31.9 
	99.4,32.8 98.1,32.8 97.7,32.8 97,32.9 93.5,32.6 93,32.3 93.6,31.4 93.5,31.1 92,30.2 91.3,29.9 90.3,29.6 89.1,29.9 85.9,28.1 
	85.7,28.1 84,28.4 83.3,29 81.8,29.4 81.2,29.5 79.8,29.3 79.2,29.1 78.7,28.9 78.3,28.1 78.1,27.2 76.7,26.1 74.3,24.6 72.8,24.4 
	72.1,21.6 71.9,20.7 70.9,19.9 70,19.2 68.9,19 69.2,17.9 70.5,15.7 71.5,15.4 72.8,15.1 73.3,14.5 73.5,13.8 73.5,13.6 "/>
<polyline class="st1" points="73.5,13.6 73.7,12.9 74,12.2 74.4,11.7 74.6,10.3 74.9,9.2 75.4,8.5 76.3,7.8 77.4,7.4 78.2,7 
	78.8,6.6 79.4,6 79.4,4.3 80.4,2.7 80.9,2.1 81.4,0.8 81.8,0.1 "/>
<polyline class="st1" points="178.6,178.8 178.8,178.7 180.7,177.4 181.2,175.1 181.6,173.3 184.2,174.7 186.1,176.4 186.5,177 
	186.8,177.6 187.9,177.8 189,177.2 189.9,176.5 190.5,174.4 191.3,171.5 192.1,171.4 193,171.5 193.7,172.1 194.5,172 195.6,169.6 
	195.6,168 195.5,166.7 195.3,165.9 194.9,164.1 193.9,163.4 193.2,161.4 192.5,157.3 192.3,155.7 192.6,153.1 192.9,150.9 
	193.5,148.3 193.1,146.4 193.4,145.4 194.8,145 195.5,145.2 195.9,146.2 196.5,146.5 197.3,146.6 198.2,146.2 199.4,144.5 
	200.4,139.5 199.9,135.6 200.6,133.5 201.2,128 201.1,126.1 200.8,124.8 199.9,120.4 198.8,117.2 198.2,116.3 198.1,114.6 
	198.4,113.5 199.2,112.8 199.8,112.9 200.4,113.4 200.8,114.2 202.3,116.5 203.1,116.7 203.9,116.7 205.8,116.4 206.2,115.7 
	206.7,114.9 208.4,114.9 210.6,115.4 211.1,116.1 211.6,117 212.3,117.3 213.3,117.2 214.7,116.6 218.2,117.7 220.1,118.7 
	221.2,120 221.6,119.7 223.5,114.7 224.1,112.5 224.7,109.4 225.9,106.1 227.1,103.3 230.1,96.7 230.9,96 233.5,92.2 234.1,91.1 
	235.4,87.7 237,82.6 237,79.8 236.6,79.2 235.6,78.8 234.9,78.5 233.6,78.3 232.9,78 232.5,77.2 232.4,76.4 232.5,74.7 233.7,71.2 
	234.6,70.3 234.8,69.7 235.3,69.1 236.7,68.2 237.5,68.2 238.2,68 240.7,65.4 241.8,63.7 "/>
<polyline class="st1" points="234.4,0.1 229.5,3.1 221.7,4.1 210.2,16.6 210.9,20.7 206.7,22.7 200,24.6 189.8,26.1 181.5,25.7 
	176.9,24 171.3,26 165.5,27.1 161.4,27.4 "/>
<polyline class="st1" points="53.2,0.1 52.4,2.3 51.6,4.4 50.8,5.2 49.8,6.9 49.5,8 49,14.5 48.4,16.5 48.4,17.4 48.4,18.7 
	47.9,19.9 49,21.8 50,22.5 51.2,23.9 52.8,27.2 53.3,30.9 53.2,32 52.8,33.2 52.6,33.8 51.2,36.9 50.6,37.9 50.7,39.3 50.2,40.9 
	48.2,43 46.2,41.9 45.6,41.2 45.1,40.5 44.8,39.8 41.8,40 39,41 37.9,41.8 37.7,42.1 35.3,41.5 34.5,41.2 33.3,40.7 32.5,40.7 
	31,41.1 30.1,41.6 27.3,42.4 24.5,41.5 22.2,38.8 20,37.3 18.9,37.5 18.4,37.4 17.1,38.3 16.8,39 14.8,40.2 12.3,40.7 10.3,39.5 
	5.3,36.6 1.4,34.6 0.1,34.8 "/>
<polyline class="st1" points="72.1,0.1 71.9,1.1 71.2,3.3 70.7,4 70.4,4.5 69.4,6.8 69.8,9.9 70.2,10.7 70.9,11.6 72.9,13.3 
	73.5,13.6 "/>
<path class="st2" d="M59.8,37.3l3.9,2.8l1-0.2l2,1.6l0.4,0.9l0.2,1.8l0.8,1.2l3.4,1.7l4.6,0.2l0.6-1.2l-2-1.9l-1.3-0.6l-0.4-1
	l0.4-1.1l0.6-0.5l3.4,1.9l0.5,2.6l0.9,3.8l0.4,0.7l3.2,2.7l1.9,1.3l0.6,0.3l4.5,0.3l1.2-0.3l1.6-1.7l-0.3-1l-0.4-0.8L91.2,50
	l1.2-2.3l0.9-0.1l0.4,1.2l1,1l1.4,0.1l1.2,2.1l1.4,2.8l0.5,2.8l-0.5,1l-0.3,0.6l-0.3,1l1.1,4l0.5,1.4V67l-0.1,0.9l-0.3,1.8l-0.7,2.6
	l-0.3,2l0.5,1.8l0.4,0.5l1-0.2l0.8-0.4l1.5,0.4l2.1,1l3.7,1.4l6,1.8l0.9,0.2h1l0.5-0.3l1.8-0.4l1.8,0.3l7,0.5l0.8-0.1l2.8-0.4
	l0.9-0.3l1.1-0.3l1-0.4l1-0.1h1.9l2.6-0.4l1.4,0.7l4.8,1.3l6.2-0.4l1.2-0.5l5.2-0.5l3-0.2l1.6,0.2l0.6,0.2l2.2,1l3.9,1.8l2.2,1.6
	l0.1,0.4v0.6l0.3,0.9l0.7,0.2l1.2,1.3l0.1,1.2l-0.4,0.3l-1,0.5H171l-1.4-1l-1.6-0.7l-1.1,0.4v1.3l0.4,0.8l0.1,0.7l-0.2,1l-0.2,1
	l-1.6,5.6l-0.4,0.4l-0.9,0.6l-0.2,0.3l-0.2,0.9l0.3,1.7l-0.1,0.9l-0.4,0.6l-3.9,2.2l-1-0.9l-0.7,0.7l0.2,1.3l-0.6,3.3l-0.7,0.8
	l-3.7-0.1l-4.5,1.8l-0.7,0.3l-0.6,0.1l-0.8-0.1h-1.1l-1.7-0.6l-1.1,0.2l-3.2,4.2l-0.9,2.1l0.1,0.7l0.4,1.2l-1,2.6l-0.6,0.2l-0.7,0.1
	l-0.3,0.6l0.2,3l1.3,3.7l1.3,1.9l0.8,2.4l0.5,2.4l0.4,1.9l0.1,0.9l0.1,0.6l0.4,2l0.4,0.8l0.4,0.5l0.5,0.4l0.7-0.1l0.1-0.8l-0.4-1.1
	L143,142v-1.2l0.6-1.4l0.7,0.1l0.6,0.4l0.8,0.9l0.5,1.8l1.6,5l0.4,0.4l1.4,1.2l3.3-1.6l1.5-1.3l1.1-1.7l-0.4-2.1l-0.3-1.1l-0.4-1.1
	l-0.3-0.8l0.1-0.7l0.4-1l0.3-0.8l1.3-2.3l1.1-0.8l1.1-0.2l1.2-2l-0.1-1.8l-0.2-0.9l-0.4-1.6l-0.2-1.1l0.6-1.5l0.5,0.8l1.6,1.7l1-0.1
	l1.2-1.3l1.9-1.4l0.8,0.9l1.9-0.4l0.2,0.3l0.4,0.5l0.4,3.8l0.8,3.6l1,2.7l0.3,0.8l0.5,1.7l-0.5,1.2l-0.5,0.6l0.2,1.6l0.8,7.4l3,5.8
	l1,0.7l0.6,4.5l-0.1,0.9l1.3,6l0.4,1.1l0.6,4.5l-0.1,1.2l-0.3,2.2l0.5,2.6l0.2,0.5l0.3,1.3l0.2,1.2l-0.3,0.9l-0.3,1.8v4.3l0.1,0.7
	l0.6,5.1l0.4,1.7l0.3,1.3l0.2,0.7l0.4,1l0.4,0.6l-0.1,0.2l-1.8,1.3l-0.5-0.4l-1.5-3.5l-4.6-2.9H172l-3,1.8l-1,1.8l-0.5,1.9l0.1,2.6
	l0.3,2.5l0.6,0.7l0.8,1.8l-0.1,0.8v1.7l0.2,1.2l0.2,0.7l0.7,1.4l0.5,1.1l0.7,1.8l-0.1,0.9l-0.8-0.4l-2.4-4.4l-0.4-1l-2.6-4.1
	l-1.5-1.9l-0.7-1.1l-0.1-0.6l0.1-1.3l0.1-0.8l-0.1-1l-0.7-1.3l-0.7-1.2l-0.8-1.1l-0.6-1.4l0.5-0.5l0.9-0.9l0.9-4.3l0.1-0.8l-0.4-1.3
	l-0.3,1l-1,0.6l-0.6-0.9l-0.4-1.6l0.3-0.7l-0.2-1.1l-1.4,0.5l0.4-2.7l-0.4-1.9l-1.6-5.8l-0.5-0.4l-0.4-0.7l-0.2-1.5l-0.8-1.1
	l-0.4-0.9l-0.3-1.8l-0.1-1.1l-0.2-0.7l-0.4-0.9l-1.1-2.4l-1-1.8l-0.4-0.4l-2.6-3.7l-0.7-0.9l-2.6-2.7l-3.4,2.5l-2.3,1.8l0.1,0.8
	l-0.8,1.3l-3.2,0.3l-2.2-0.4l-1,0.4L132,161l-0.9,0.1l-0.5-0.4l-3.3-3.2l-0.9-1.4l-0.6-0.9l-0.8-1.9l-0.2-1.3l-0.7-1.8l-0.4-0.8
	L123,148l-1.2-1.4l-0.3-0.6l0.4-4.4l-0.5-3.9l-0.9-1.6l0.3-2.8l1.1-0.6l1.6,0.3l0.6-1l-0.2-1.3h-0.5l0.1,1.1l-0.8-0.1l-0.6,0.3
	l-1.3,0.5l-0.3-1.6l0.6-1.2l-0.4-0.5l-1,0.4l-2.5,0.2l0.4,0.5l0.5,0.3l2,0.4l-0.1,2.9l-0.7,1.9l-1.8-0.4l-2.5-0.5l-0.7-0.2l-1.1-0.4
	l-0.7-0.2v0.6l3.3,2.8l1.3,0.5l0.8,0.3l0.8,0.1l1.1,0.2l1.1,1.5l0.3,0.7l0.1,0.9l-0.5,2.3l-0.5,0.9l-0.5,0.4l-1.9,0.1l-1.1,0.2
	l-0.1,0.7l0.9,2.5l-0.4,2.6l-1.2,3.3l0.9,0.7l1.2,1.7l2.5,5.2l0.5,1.7l-0.3,1.2l0.7,1.9l0.1,0.8l-0.2,1.3l-0.3,0.9l-1.2,2.1l-1,0.6
	l-0.9,0.4l-0.2,0.9l-1.6,2.3l-1.3-0.9l0.5-1.6v-1.7l-0.1-0.8l-0.1-0.9l-0.3,1.5l0.2,1.5l-0.8,2.7l-0.8,0.9l-0.6,1.4l-0.4,0.9
	l-0.4,2.2l-0.3,1l-0.3,0.7l-1.9,1.3l-0.9,0.2l-0.5-0.1l-1.1-0.4l-2.6-1.6l0.2-2.4l1.8-2.9l0.7-0.9l1.3-1.3l0.7-0.1l0.9-0.3l0.6-2
	l-2.6,2l-1.5,1.8l-0.5,0.9l-0.3,1.1l-0.5,0.5l-1.3-0.4l-0.3-1l1.4-3.2l0.5-0.4l0.4-0.5l-1.1,0.5l-1.7,3.6l0.1,1.4l-0.6,0.4l-0.7-0.7
	l-0.5-1.3l-0.2-0.8l0.1-1.2v-1.1l-0.5-2l-0.3-0.5l-0.3-0.8l-0.1-1l1.2-2.6l0.5-0.9l0.3-0.4l0.8-0.9l0.3-0.6l0.4-1l-0.5,0.4l-0.1,0.1
	l-1,1l-1,1.3l-1.5,2.4l-0.3,0.9l-0.2,0.8l0.4,1.6l0.2,0.9l0.2,0.8l0.1,1.7l-0.2,0.6l-0.5,3.1l0.2,1.1l0.5,0.7l0.3,1l-1.9,1.8
	l-0.7,0.3l-2.7,1.3l-3.4,2.6l-0.5-0.3l-0.5-0.7l-0.5-2.3l0.1-0.9l1-1.1l0.3-0.6l0.9-6.1l0.2-5.4l0.4-1.9l-1.1,1.8l-0.8,1.7l-0.1,0.6
	l0.4,0.8l0.4,0.7l0.1,0.7l-1,3.8l-0.6,0.2l0.2-2.3l-0.3-1l-0.4-1.3l-0.7-1.8l0.1-0.9l0.2-1.1l-0.6-0.9L88,172l0.9,2.7l0.3,0.7
	l0.2,0.6l0.2,0.8l-0.9,1l0.9,2.5l-0.1,1.3l-1.6,4.4l-1.2,1.7l-0.8,0.1l-0.5-0.6l-0.3-1.1l-0.1-1.2l0.2-1.1l0.4-0.6l0.1-1l-0.3-1.2
	l-0.5-1.1l-1.7,6.3l-0.2,2.9l-1.3,0.8l-1.1-0.3l0.4-1.3l-0.1-0.9l-0.7-2l-1.1,0.1l-1.5-0.8l-0.7-2.7l0.3-2v-1.6l-0.9-1.5v-0.7l0.2-1
	l0.9-0.8l-0.6-1.6l-0.4-0.4l-1.1-1.7l-0.3-0.6l-0.4-1.5l-0.1-2.4l-1.6-14.5l-1.9-3.1v-0.9l0.4-2.9l0.6-0.5l0.5-0.4l1.9-2.6l-4.4-1.2
	l-0.7,0.4l-2.2-0.6l-0.4-0.8V138l0.8-1.2l1.4-3.1v-1.3l-0.9,0.7l-4.8-4.2l-0.5-1.3l0.3-3.7l0.7-2.8l0.8-0.4l1.7-0.6l1.3-0.8l0.6-3.8
	l-0.8-0.6l-0.7-0.7l0.2-1.2l-0.2-0.8l0.4-1l0.7-0.3l0.3-0.9l-0.3-0.8l-0.3-0.6l-0.3-0.6l-0.5-0.8l-1-0.1l-0.4,0.4l-4.1-0.7l-1.2-0.7
	l-2.7-2.2l-2.3-1.2l-1.4-0.6l-3-1.2l-0.5-0.5l-1.9-5.1l2.7-4.1l0.9-0.9l-0.1-1.2L51,88l2.2-1l1.2,1.2l0.3,0.8l0.8,0.4l1,0.2l1.7-2.2
	l1.2-2.6l0.5-1.6v-2.5l-0.1-1l0.8-0.4l3.9,0.1h0.7l1.7,0.1l5.2,0.6l1.2,0.4l0.3-0.2l1.8-3.8L75,76.2h-1.5l-1.7-0.8l-0.9-1l-0.6-1.2
	l0.4-0.7l0.1-1.1l-0.2-0.6l-1-1l-0.9-0.2l-1.5,0.9l-1.8-0.1l-2.6-0.5L60,67.2l-0.2-0.8l0.2-1.3l-5-4.7l-0.5-0.3l-0.8,0.3l-0.6,0.3
	L52,61.3l-0.5-0.2l-1-1.6L50.1,57l1.9-5.6l0.7-1.7l2.9-1.3l1.8-0.7l0.2-1v-1l1.2-1.3l2.1-1l1.4-0.4l-0.2-1l-1-1.8l-1-0.4l-2-0.4
	l-0.4,1L57,39.6l1.1-3l1-1.4l0.2,1.2L59.8,37.3z M125.7,176.7l-2.8,2.6l-1-0.2l-1-1.2l0.5-3.2l0.1-0.6l0.2-0.5l0.6-1.5l0.3-0.4
	l0.3-0.5l0.1-0.5l0.2-2.2l0.1-1.6l-0.3-1.7l-0.3-1.8l-0.1-0.3l-0.4-1l-0.1-0.3l-0.3-0.2l-0.6-0.2l-0.3-0.2l-1.3-1.1l-0.2-0.6
	l-0.1-0.4l0.1-0.6l0.1-0.6l0.5-2.3l0.3-0.5l0.2-0.2l0.4-0.2l1-0.1l0.6-0.1l0.3,0.1l0.3,0.3l0.3,1l0.1,0.4l0.2,1v0.3l0.1,0.4l0.2,0.6
	l2.4,3l1.1,1.1l0.8,0.5l0.3,0.4l0.3,1v0.6l-0.3,3.7l-0.4,2.2l-0.1,0.5l-0.5,2.3l-0.2,0.6L125.7,176.7z M133.3,176.1h-0.2l0.6-2.7
	l0.1-0.4l0.3-3.1v-3.3l0.3-3.6l0.1-0.4l0.4-0.1l0.4,0.4l1.2,3.2l0.9,2.7l0.2,1v1.3l-0.1,0.9l-0.1,0.5L137,173l-0.2,0.3l-0.4,0.5
	l-0.2,0.2l-1.5,1.2l-0.3,0.2l-0.8,0.5L133.3,176.1z M158.5,194.7l-0.3,0.1l-0.3-0.1l-0.3-0.2l-0.2-0.3l-0.2-0.2l-0.1-0.4l-0.4-5.5
	v-0.4l0.4-0.8l0.2-0.4l0.1-0.3l0.4-0.1l1.6,0.6l0.4,1.6l0.9,1.2l0.1,0.5v1.1l-0.4,2.3l-0.2,0.3L160,194L158.5,194.7z M147.6,167.8
	l-0.5,0.1l-0.4-0.1l-0.4-0.2l-0.2-0.3l-0.9-1.3l-0.4-0.9l-0.6-1.2l-0.2-0.3v-1.3l0.8-3.1l0.4,0.1l0.4,0.4l1.9,3l0.2,0.4l0.7,1.6
	l0.1,0.4l0.2,0.4l0.1,0.5v0.5l-0.2,0.5l-0.2,0.3l-0.3,0.2L147.6,167.8z M119.2,156.5l-0.8,1l-0.7-1.8l-0.3-0.4l-0.5-0.1l-0.3-0.2
	l0.4-3.2l2.3-0.4h1.1l1.6,0.4l0.5,0.2l0.7,0.4l0.2,0.3v0.4l-0.4,0.8l-0.6,0.4l-0.3,0.1l-0.5,0.2l-1.8,0.1l-0.7,0.1l0.1,1
	L119.2,156.5z M118.6,179.1l-0.2,0.1l-0.1-0.1l-0.3-0.3l-0.2-0.3l-0.4-1l0.2-1.1l0.2-0.4l2-1.6l0.5-0.5l0.3-0.1l0.6-0.2l-1.4,4
	l-0.2,0.4l-0.3,0.6L118.6,179.1z"/>
</svg>
