<?xml version="1.0" encoding="utf-8"?>
<!-- Generator: Adobe Illustrator 23.0.3, SVG Export Plug-In . SVG Version: 6.00 Build 0)  -->
<svg version="1.1" id="Layer_1" xmlns="http://www.w3.org/2000/svg" xmlns:xlink="http://www.w3.org/1999/xlink" x="0px" y="0px"
	 viewBox="0 0 220.2 220.3" style="enable-background:new 0 0 220.2 220.3;" xml:space="preserve">
<style type="text/css">
	.st0{fill:none;stroke:#85C1FD;stroke-linecap:round;stroke-linejoin:round;}
	.st1{fill:none;stroke:#85C1FD;stroke-width:0.2122;stroke-linecap:round;stroke-linejoin:round;}
	.st2{fill:#85C1FD;stroke:#FFFFFF;stroke-width:0.5304;}
	.st3{fill:none;stroke:#FFFFFF;stroke-width:0.4712;stroke-linecap:round;stroke-linejoin:round;stroke-miterlimit:10;}
	.st4{fill:#B0DBFF;stroke:#FFFFFF;stroke-width:0.5304;}
</style>
<g>
	<title>ssd</title>
	<g id="moz">
		<polyline class="st0" points="101,24.1 100.9,23.6 100.4,22.1 100.3,21.8 100,21.2 99.8,20.9 99.5,20.4 99,19.8 98.4,19 
			98.3,18.8 98,18.1 97.8,17.7 97.7,17.6 97.6,17.2 97.6,16.8 97.6,16.5 97.5,16.2 97.5,15.9 97.3,15.6 97,14.6 96.8,14 96.6,13.7 
			96.3,13.2 95.7,12.2 95.4,11.9 95,11.4 94.9,11.2 94.5,10.9 93.7,10.2 93.4,10 93.1,9.8 92.9,9.6 92.5,9.5 92.1,9.3 91.8,9.3 
			90.5,8.2 90.3,8 90.1,7.8 89.9,7.5 89,5.6 88.5,4.9 88.3,4.5 88.2,4.2 87.8,2.1 87.8,1.6 87.8,1.2 87.9,0.9 87.9,0.6 88.2,0.3 
			88.5,0 		"/>
		<polyline class="st1" points="106.5,206.6 106.8,207 107.5,207.4 107.7,208.6 107.3,209.7 107.3,211 107.4,211.3 107.7,212.1 
			107.6,215.1 107.5,215.5 		"/>
		<polyline class="st1" points="107.5,215.5 107.2,215.2 106.4,215.2 105.8,217.6 105.6,218.2 105.6,218.6 105.6,219.3 105.6,219.8 
			105.8,220 105.7,220.3 105.2,220.3 103.5,220.3 102.8,220.3 101.1,220.3 100.1,220 98.8,219.5 98.3,219.4 97.6,219.2 96.7,217.9 
			95.9,216.8 95.5,215.2 95.4,214.9 95.1,215 94.5,215.2 94.4,214.6 94.4,214.2 94.4,213.9 94.4,213.2 94.5,212.5 94.6,211.8 
			94.6,211.6 94.9,211 95.7,210.2 96.3,209.5 96.8,209 97.3,208.2 97.4,208 97.6,207.7 97.8,207.3 97.9,207 98.2,206.3 100.2,204.6 
			101.2,204.3 102.8,205.3 104.2,206.2 104.6,206.4 105,206.6 105.6,207 106.5,206.6 		"/>
		<polyline class="st1" points="101.9,170.8 102,170.9 103.8,177.2 104.1,178.6 104.1,179 104,179.8 103.8,180.9 103.9,181.5 
			104.6,182.2 104.8,182.6 105.2,182.9 105.2,183.2 105.2,183.6 105.4,184.3 105.9,185.4 106.6,185.9 106.9,186.4 106.9,186.5 
			106.8,188.3 106.8,188.5 107.3,189.6 107.5,189.9 107.9,191.2 108,191.5 107.6,194 107.6,194.9 107.6,196.2 107.6,197.3 
			107.5,198.1 107.3,200.5 107.1,201.2 107,202.1 107.2,202.4 107.1,203.2 106.8,203.8 106.1,205.2 106.5,206.6 		"/>
		<polyline class="st1" points="107.5,215.5 107.8,215.5 108,215.6 109.7,215.7 110.1,215.7 113.1,215.6 113.8,215.6 115.1,215.5 		
			"/>
		<polyline class="st0" points="20.7,199.9 21.6,200 22.3,200.6 23,201.1 23.5,201.4 23.7,201.5 24.1,201.7 24.4,201.8 25.7,203 
			25.8,203.2 26,203.4 27,203.8 27.4,203.7 28.1,203.5 28.9,203.4 29.3,203.7 29.4,203.9 29.7,204.4 30.5,204.7 30.9,204.8 
			31.4,204.6 31.7,204.6 32,204.8 32.2,204.9 33.2,205.3 33.4,205.4 33.8,205.5 34.9,205.5 36,205.2 36.5,204.9 37.1,204.6 
			37.3,204.5 37.9,204.6 38.2,204.7 38.5,204.8 38.7,204.8 40.6,204.7 41.2,204.5 42.1,203.9 42.8,203.4 42.9,203.3 43.2,202.6 
			43.8,201.9 43.9,201.5 44.9,199.2 45.5,197.5 46,196.2 46,195.3 46,194.6 46.5,194.5 47.5,194.3 49,193.7 50,193.5 50.9,193.3 
			51.3,193.4 51.4,193.4 51.5,193.4 51.8,193.1 52,192.9 52.2,192.6 52.2,192.3 52.3,192.2 52.6,191.9 53,191.5 54.8,190.2 
			55.1,190.1 55.4,190 55.8,189.8 56.1,189.6 56.4,187.9 56.8,186.3 57.4,184.6 57.5,183.9 57.8,183.4 58.1,183.5 58.5,183.3 
			58.8,182.8 59.3,182.2 61.3,180.9 62,180.8 62.5,180.8 63,180.7 63.2,180.7 63.5,180.4 63.6,180.1 63.7,179.6 64,179.1 
			65.1,178.9 65.9,178.6 67.6,177.2 67.9,176.4 68.7,175.5 69.3,174.9 69.8,174.5 69.9,174.3 69.9,174.1 70,173.8 70.1,173.6 
			70.3,173.6 71.3,172.9 71.9,172.5 73,172.5 74.8,172.4 76.8,171.7 77.7,171.3 77.9,171.1 78.1,170.9 78.2,170.6 78.2,170.4 
			78.2,170 78.8,169 79.1,169 79.4,168.9 81.4,168.6 82.5,168.6 		"/>
		<polyline class="st1" points="82.5,168.6 83.2,168.4 85.5,168 86,168 86.9,168.3 87.2,168.5 87.9,168.6 88.2,168.5 89.2,169.1 
			91.8,170.1 92.5,170.1 93,170 93.5,169.9 93.7,169.8 94,169.8 94.4,169.8 95.2,169.9 95.9,169.8 96.7,169.6 97.3,169.5 98,169.5 
			98.3,169.6 98.7,169.8 99.6,169.9 99.8,170 99.9,170 100.2,169.8 100.5,169.8 101.6,170.4 101.8,170.6 101.9,170.8 		"/>
		<polyline class="st1" points="41.5,124 41.2,124.7 41.2,125.1 41.2,125.3 41.6,126.1 42,126.9 42.5,127.3 42.8,127.4 43.3,128.4 
			43.7,128.9 43.8,129.4 43.9,129.7 44,129.9 44.1,130.2 44.9,131 45.5,131.6 46.1,132.1 46.9,133.3 47.6,134.7 48.3,135.2 
			48.4,135.4 48.7,135.8 48.8,136.2 48.8,136.2 48.5,136.9 48.5,137.4 48.9,137.9 49,138.2 49.4,139 49.8,140.1 50.3,141.4 
			50.5,141.7 50.8,141.9 51.3,142.1 51.5,142.1 52.4,142.6 52.9,143.2 54.2,144 54.6,144.3 54.8,144.4 54.8,144.7 55,145 
			55.2,145.1 55.9,145.2 56.1,145.7 58.7,146.6 59.8,146.7 61.1,147.3 61.3,147.5 61.8,148.6 61.9,148.9 61.9,149.6 61.9,150.4 
			61.8,151 61.8,151.5 61.8,151.4 62.2,151.2 62.5,151.1 63.2,151.2 64.1,151.2 65.1,151.2 65.9,151.4 66.1,151.6 66.3,152 
			66.2,154 66.2,154.4 65.9,155 65.8,155.2 65.8,155.9 65.7,157.3 66,157.9 66.3,158.2 66.5,158.3 67.2,158.8 67.8,159.7 
			68.2,160.5 68.4,161 68.8,162.1 68.8,162.3 68.9,162.3 69.2,162.4 70.4,162.6 70.8,162.7 71.1,162.7 71.6,162.6 72.3,162.7 
			72.6,162.8 72.9,163 73.4,163.2 73.8,163.3 74.1,163.2 74.5,163 75.3,163.2 77.5,164.1 78.1,164.4 78.3,164.4 78.7,164.4 
			79.5,164.7 79.5,165 79.3,165.4 79.1,165.7 79.1,166 79.1,166.3 79.2,166.6 79.3,166.9 79.5,167.1 79.6,167.2 79.9,167.3 
			80.2,167.4 80.6,167.5 80.9,167.5 81.3,167.4 81.4,167.5 82.3,168.5 82.5,168.6 		"/>
		<polyline class="st0" points="20.7,126.1 21,126.1 21.1,126.1 21.2,126.3 21.3,126.6 21.4,127 21.8,127.5 22.1,127.9 22.4,128.1 
			22.6,128.3 23.1,128.7 23.3,128.9 23.7,129.5 23.7,129.9 23.7,130.6 24,131.1 24.3,131.1 24.7,131 25.4,130.5 26.2,129.8 
			26.5,129.4 26.7,129.1 26.9,128.8 27.1,128.9 27.4,128.5 28,128 28.4,127.9 31.1,126.3 32.1,125.6 32.4,125.6 32.7,125.7 
			32.9,125.9 33,126.1 33.3,126.5 33.5,126.7 33.8,126.7 34.2,126.6 35.4,125.5 37,124.5 38.1,124.2 38.5,124.3 38.7,124.3 
			39.4,124.4 39.8,124.3 40.2,124 40.6,123.9 41.4,124 41.5,124 		"/>
		<polyline class="st0" points="23,122.3 26.5,121.6 28.8,121.3 30.9,120.8 32.4,120.7 33,120.8 33.6,121.1 34.1,121.3 34.3,121.4 
			34.6,121.4 34.8,121.1 35.1,121 35.4,120.9 35.8,121 36.9,121.2 38,121.4 38.5,121.6 38.6,121.9 39.1,122.1 39.5,122.2 
			41.4,123.9 41.5,124 		"/>
		<polyline class="st1" points="95.7,101.4 95.7,101.5 95.7,105.3 99.8,105.2 102.4,105.3 103.2,105 104.5,105.3 104.8,105.4 
			105.2,105.8 105.2,106 105.8,106.6 106.1,106.7 106.9,107 107.3,107.1 107.6,107 108.5,107.1 109,107.2 109.7,107.7 110.9,108.7 
			111,109.2 111.7,109.5 112.5,109.6 112.7,109.6 113.5,109.5 114.3,109.5 114.5,109.5 114.9,109.6 115.6,109.7 115.7,109.8 
			116.1,109.8 117.8,110.5 119.1,111.2 119.3,112 119.7,112.3 120.1,112.3 121.4,112.1 121.9,112.2 121.8,112.6 121.7,112.9 
			121.6,113.1 121.6,113.3 121.5,113.6 121.3,113.7 121.1,113.9 121,114.1 120.7,114.3 121.1,115.7 121.3,116.1 121.6,116.7 
			121.7,117 121.8,117.5 121.8,117.7 121.7,117.9 121.8,118.3 122.1,118.5 122.2,118.7 122.3,118.8 121.4,120.4 121.6,120.9 
			122.1,121.1 122.2,121.4 122.2,121.6 121.8,122.8 121.4,123.6 121.1,124.2 121,125.2 121,125.9 121.1,126.3 121.3,126.5 
			121.4,126.7 121.5,127.4 121.2,128 121.6,128.5 121.9,128.8 122.2,129.1 121.6,130.2 121.3,130.4 120.8,130.7 120.4,130.7 
			120.2,130.9 120.2,131.3 120.3,131.7 120.7,132.5 120.3,133.5 120.1,133.6 119.8,133.6 119.5,133.5 119,133.6 118.1,134.1 
			118,135.2 118.1,136 118.4,136 118.9,136 119.4,136 119.8,136.9 119.5,138.6 119.3,138.9 118.8,139.5 118.6,140.6 118.9,140.6 
			119.2,140.7 119.3,140.8 119.2,142 120.6,142.8 121.3,143.7 120.8,145.4 120.3,146.2 119.5,147.2 119.4,147.7 119.2,148.4 
			119.1,148.8 118.4,149.8 116.9,151.7 115.7,151.7 115.1,152.2 114.9,152.9 115.1,154.4 115.1,154.9 115.1,155.4 114.7,156.2 
			113.6,157.4 113.4,157.6 113.9,158.5 114.5,159.5 114.6,159.8 114.4,159.6 113.8,159.4 113.8,159.5 108.6,164.6 106.1,167.1 
			103,170.1 102.5,170.4 102,170.7 101.9,170.8 		"/>
		<polyline class="st1" points="41.5,124 42.1,124.4 42.3,124.5 43.1,124.6 43.2,124.7 44.1,124.7 45.2,124.4 45.6,124.2 
			45.9,124.1 46.9,124.7 47.7,125.3 47.5,125.4 47.7,125.8 48.1,125.9 48.8,126.1 50.1,125.7 50.4,125.3 51.1,125.1 51.6,125.1 
			52.9,125.3 53.5,125.5 55,126 55.4,126.5 56.3,126.8 56.7,126.6 56.8,126.4 57.9,126 58.3,125.9 58.9,125.8 59.4,125.7 
			59.8,125.6 61.1,124.5 61.1,124 63.2,121.6 65,120.1 66,119.2 66.3,118 67.1,117 68.1,115.6 68.4,115.3 70.4,114.3 71.7,113.8 
			72.9,112.8 76.3,111.4 78.1,111.1 78.8,110.2 79.2,109.4 79.2,109.1 79.1,108.8 79,108.5 79.2,107 79.4,105.9 79.4,105.7 
			80.1,105 80.2,104.9 80.7,104.8 81.7,104.1 83.4,103 84.5,102.6 86.9,101.8 87.2,101.8 87.4,101.9 87.8,101.9 88.5,101.6 
			89.2,101.4 89.6,101.3 93,101.4 94.1,101.5 94.4,101.5 95,101.6 95.4,101.5 95.7,101.4 		"/>
		<polyline class="st1" points="95.7,101.4 95.5,101 95.4,99.8 95.2,98.3 94.9,98.1 94.6,97.9 94.3,97.6 94.1,97.1 93.8,96.3 
			93.7,95.8 93.7,94.7 95.1,94.5 96.9,93.7 97,93.6 97.9,93.3 100.1,92.5 101.1,92.2 102.5,91.8 103,91.8 103.3,91.8 105.3,91.3 
			106.9,90.8 107.2,90.8 107.3,90.7 107.7,90.5 109.4,89.5 109.8,89.4 110.3,89.3 110.6,89.3 110.9,89.2 111.1,89.2 111.2,89.1 
			112.1,88.7 113.6,88.2 115.1,87.8 116.2,87.5 116.5,87.4 122.9,85.2 125.5,84.2 		"/>
		<polyline class="st1" points="125.5,84.2 125.9,84.5 126.3,85.6 126.8,86.2 127.6,87.4 128.6,88.6 129.6,89.6 130.2,89.6 
			131.1,89.4 132.3,89.1 134.8,88.6 137.2,87.9 137.5,87.9 137.8,88.4 137.9,88.7 138.1,89.1 138.3,89.3 138.5,89.6 138.8,89.8 
			139,90 139.1,90.3 139.1,91.8 139.4,93.8 139.1,94.9 139.1,95.5 139.1,96.4 139.2,96.6 139.3,96.7 139.3,96.9 139.2,97.2 
			139,97.6 138.8,97.7 138.6,97.8 137.6,99.1 137.5,99.5 137.6,99.7 137.6,100 137.5,100.6 137.4,101 136.8,101.7 136.5,101.9 
			136.3,102 136,102.1 135.8,102.3 135.7,102.5 135.5,103 135.5,103.5 135.6,103.7 135.8,104 136.1,104.1 136.3,104.2 137.2,105.2 
			137.2,105.3 137.2,105.6 137,106 137,106.7 137.2,107.3 137.3,107.5 137.5,107.7 137.8,107.7 138.1,107.7 138.4,107.7 138.6,108 
			138.8,108.5 139.5,109.2 140,109.8 140.5,110.2 141.2,111 142.8,112.8 143,113 143.2,113.1 143.6,113.1 144.1,113 144.3,113.1 
			144.3,114.2 144.1,114.5 143.7,114.7 143.4,114.9 143.2,115.1 143.6,116.2 143.9,116.2 145.5,116.3 145.6,116.3 145.8,116 
			145.8,115.5 145.7,115 145.6,114.5 145.7,113.5 145.9,112.9 145.7,111.8 145.5,111.5 145.2,111.1 144.9,111.1 144.7,111 
			144.5,110.7 144.3,110.2 144.9,109.8 145.5,109.4 145.6,108.6 145.9,107.7 146.1,106.8 147.4,105.8 147.7,105.7 148.1,105.9 
			148.7,106.1 150.5,105.6 151.2,105.2 151.4,105 151.6,104.6 151.9,102.9 152.4,98.9 152.4,98.8 152.5,98.3 152.3,97.9 152.2,97.4 
			151.9,96 152.7,94.2 153.3,92.9 152.8,92.8 152.8,91.7 152.9,90.9 152.9,90.5 152.3,89.9 149.6,86.5 149.5,86.3 149.2,85.7 
			149.1,85.3 146.2,82.1 145.9,81.6 145.1,80.5 143.2,78.9 142.9,78.7 142.4,78.6 140.7,78.6 139.9,77.4 139.7,77 139.7,76.7 
			139.7,76.5 139.7,73.9 139.7,73.6 139.7,73.1 139.7,72.7 139.6,71.8 139.6,71.2 139.6,71 139.6,70.5 139.4,69.9 139.3,69.7 
			139.1,69.2 139,69 138.8,68.4 138.6,67.3 138.5,66.4 138.1,65.7 138.1,65.4 138.1,65 138.2,64.7 138.3,64.5 138.5,64 139.2,62.9 
			139.7,62.2 140.1,61.7 140.7,60.8 140.8,60.5 141,60.1 141,59.8 141.1,59.6 141,59.1 141,58.9 141,58.7 141.7,58.6 143.7,58.5 
			144.4,58.5 144.5,58.5 		"/>
		<polyline class="st1" points="144.5,58.5 145,58.5 147.4,58.5 149.5,58.6 150.8,58.8 151.6,58.5 152,58.3 152.6,57.4 153.6,56.7 
			154.7,56.9 157.1,58.4 157.2,59 157.2,59.3 157.3,59.6 158.1,59.6 158.4,59.6 158.9,59.5 159.2,59.4 160.7,59.7 161.1,59.9 
			162.4,59.6 162.9,59.3 163.1,59 163.3,58.9 163.6,58.6 164,58.1 165.7,58.3 167,59 167.7,59.2 168.6,59.4 169.9,59.6 170.7,59.5 
			172.1,58.6 173,58.2 174.1,57.7 174.3,57.5 174.4,57.2 174.3,57 174.4,56.6 174.9,55.3 175.3,55.1 175.7,54.8 176,54.7 
			176.7,54.5 177.3,54.4 178.1,54.7 179.8,55.3 180,55.5 180.3,55.7 180.6,55.8 181.4,56 181.8,55.6 182.3,55.2 183,54.7 
			183.2,54.5 183.4,54.4 185.8,53.3 186.1,53.2 188.3,53 188.7,53.1 189,53.3 189.2,53.3 189.6,53.2 189.9,53.1 190.2,52.9 
			191,52.2 192.2,51.3 192.3,51.2 193.8,50.7 194.2,50.7 194.9,50.5 195.2,50.3 195.4,50.1 195.7,49.9 196,49.7 196.3,49.5 
			196.8,49.3 197,49.3 197.6,48.9 199.1,47.8 201.1,46.6 201.4,46.3 202,45.8 202,45.6 		"/>
		<polyline class="st1" points="123.7,36.4 123.8,36.3 124.1,36.1 124.4,36 124.6,36.3 124.8,36.4 125.7,37.2 126.5,37.4 127,37.2 
			127.6,37.1 128.6,37.7 128.7,38.1 128.8,38.3 129.5,38.5 130,38.4 130.1,38.2 130.5,38.1 132.4,38 133.5,38.8 133.8,39 134,39.3 
			134.3,39 134.5,38.4 134.5,38.2 134.4,37.9 134.4,37.7 134.5,37.4 134.9,37 135.3,37 135.7,37.1 136.3,37.8 136.7,38.2 
			137.1,38.3 138.3,39.6 138.8,40.2 139.3,41 139.9,41.7 140.1,41.9 140.3,42.3 140.4,42.7 140.7,45.8 140.7,46 140.6,46.4 
			140.7,47.6 140.8,47.8 140.8,48 141.1,48.6 141.5,48.9 141.6,49.1 141.6,49.8 141.6,50.1 141.4,51.5 141.3,51.9 141.1,52.1 
			140.9,52.5 140.8,52.9 141,53.8 141.2,54 141.9,54.7 142.9,56 143.5,56.3 143.8,56.5 144.4,57.6 144.5,57.8 144.5,58.5 		"/>
		<polyline class="st1" points="125.5,84.2 125.3,84 125.2,83.9 124.9,83.4 124,84 123.1,83.4 122.2,82.3 121.5,81.1 121,80.4 
			120.7,80.5 120.3,80.3 120,80.2 120.2,79.7 120.8,79.6 121.4,79.4 121.6,79.3 122.2,78.3 122.5,77.8 123.2,76.2 123.3,75.2 
			123.3,74.8 123.4,74.2 123.6,73.8 123.6,73.6 123.7,73.4 123.8,73.1 123.9,72.9 123.8,72.5 123.3,72.3 123.2,71.2 124.1,69.7 
			124.3,69.4 125.1,69.4 125.4,69.5 126.1,69.4 127.4,68.9 128.7,67.9 128.7,67.6 129,67.3 129.2,67.2 129.3,67.1 129.4,66.7 
			128.7,66.6 128.3,66.8 128,66.8 127.8,66.8 127.5,66.7 127.4,66.6 126.6,64.7 126.7,63.9 127.1,63.3 127.3,62.2 127.4,60.7 
			127.3,59.3 127.1,58.9 126.8,58.9 126.6,58.3 126.6,57.2 127,56.7 127.5,56 128.1,55.1 128.2,54.9 128.3,54.6 128.1,54.1 
			127.7,53.8 126.7,51.8 126.8,51.5 127.7,51 128.2,50.8 128.5,50.8 128.9,50.8 129.4,50.5 129.8,50.2 129.9,49.9 130.5,49.2 
			130.8,48.9 131.3,48.6 131.4,48.4 131.5,48.2 131.3,48.1 131,47.6 130.1,46.5 130,45.9 130,45.5 130,45.3 130.1,45 130,44.8 
			129.9,44.6 129.1,44.1 127.7,43.1 127.8,42.4 128.1,41.7 127.7,40.5 127.5,40.3 126.8,39.6 126.7,39.4 126.8,39.1 126.8,38.9 
			126.8,38.7 126.5,38.3 125.8,38.3 125.5,38.6 125.1,38.7 124.5,38.7 124.3,38.6 123.8,37.1 123.8,36.9 123.7,36.4 123.7,36.4 		
			"/>
		<polyline class="st0" points="101,24.1 101.3,24.8 101.7,25.8 101.9,26.1 102.5,27 103,27.6 103.2,27.8 103.8,28.1 104.1,28.3 
			104.2,28.4 104.6,28.5 104.9,28.4 105.2,28.2 105.5,28 105.8,28 106.6,28.5 107.8,28.6 108.6,28.9 109.3,29.8 109.4,30.5 
			109.6,30.7 110.6,31.4 110.8,31.5 111.2,31.4 111.7,31.2 112.2,31.2 112.9,31.4 113.4,31.7 113.2,31.9 113.2,32 113.2,32.5 
			113.2,32.6 113.7,33.1 113.9,33 114.2,32.8 114.5,32.7 114.8,32.8 114.9,32.9 115.6,33 116,33.3 116.3,33.5 116.6,33.7 
			117.1,33.7 117.7,33.6 118.4,33.6 119,34 119.2,34.4 119.6,34.9 120.5,35.1 121.3,35.1 122,35.7 122.8,36 123.1,36.1 123.5,36.2 
			123.7,36.4 		"/>
		<polyline class="st0" points="29,52.8 29.1,52.8 29.7,52.9 30.1,53 30.5,53.2 30.6,53.9 31.1,54.4 32.5,54.6 33.1,55 33.4,55.2 
			33.5,56.4 33.4,57 32.9,57.7 33,58.3 33.8,58.9 34.7,58.9 35.3,58.6 35.4,58.3 36.4,57.6 36.9,57.4 39.4,56.8 39.9,56.8 
			40.4,56.8 41,56.8 41.7,56.6 42.4,56.4 42.7,56.2 43.1,56 43.3,56.2 43.3,56.9 43.1,57.4 42.7,57.8 43,59.4 43.1,59.7 43.5,60.7 
			44.9,61.4 47,62 48.5,62.3 50,63.3 50.2,63.3 50.6,63.4 50.9,63.4 52.2,63.3 54.8,63.4 55,63.4 55.2,63.5 56.5,64 57.3,64.1 
			58.1,64.1 59.3,64 59.7,63.8 60.3,63.4 60.5,63.2 60.6,62.9 60.7,62.5 60.7,61.7 61.1,60.1 63,59.8 63.1,60.1 63.2,60.9 
			63.2,61.3 63.2,61.5 63.2,61.9 63.2,62.1 63.5,62.2 64.5,62.8 64.6,63 65.1,63.3 65.5,63.5 65.8,63.9 65.8,64.1 65.8,64.4 
			65.8,64.7 66.3,65.9 66.3,66 66.4,66 66.6,66.4 66.8,66.5 67,66.6 67.2,66.7 67.4,66.9 67.6,67.2 67.8,67.3 69.1,67.3 69.3,67.1 
			69.5,66.8 69.7,66.7 70,66.9 70.3,67 70.5,67.2 70.8,67.3 71.7,68 72.9,68.6 73.6,68.5 74.5,68.6 74.8,68.6 75.8,69.5 76.7,70.9 
			76.7,71.2 76.5,71.4 76.3,71.6 76.3,71.8 77.1,73.3 77.4,73.3 77.5,73 77.8,72.7 78.2,72.7 78.8,73.4 79.7,74.6 80.7,76 81,77 
			81,77.2 81,77.8 81.2,78.1 81.6,78.5 81.9,78.4 82.1,78.3 82.5,78.3 83.5,78.9 84.7,78.2 86.4,77.5 86.6,77.3 86.9,77 87.2,76.7 
			87.5,76.6 87.8,76.6 88.6,77 88.6,77.4 88.3,77.6 87.9,78.3 88.1,78.6 88.3,78.8 89.1,79 89.8,78.9 89.8,78.6 89.9,76 90,72 
			90.1,69.5 90.1,68.8 90.2,66.2 90.2,65.6 90.2,65.5 89.8,65.5 87.7,65.9 86.6,66.5 86.4,67.4 86.8,68 87.2,68 87.2,68.3 
			87.1,68.6 86.7,68.7 86.6,68.6 85.9,68.5 84.4,67.8 83.5,67.8 83.3,67.9 82.7,68 82.3,68 82,67.9 82,67.7 81.7,67.2 81,66 
			80.8,65.9 80,65 78.6,63.9 78.3,63.9 77.9,63.6 76.5,62.8 76,61.7 76,61.2 75.7,60.6 75.6,60.2 75.5,59.9 75.3,59.7 75.1,59.5 
			75,59.1 75.1,58.6 75.2,58.3 75.6,57.6 76.2,56.3 76.3,56 76.5,55.4 76.9,53.2 77.2,52.2 77.3,51.9 77.5,51.5 78,50.7 78.4,50.6 
			78.8,50 78.4,49.1 78.2,48.6 77.8,45.9 78.1,44.8 78.1,43.1 78.2,42.8 78.2,42.5 78.5,41.7 78.9,41.1 78.7,40.7 77.3,37.8 
			77.1,36.6 76.8,36.4 76.2,36.3 75.7,36.1 75.6,35.8 75.6,35.5 75.8,35.3 76,35.1 76.3,35.1 76.6,34.9 77.1,34.6 78,34 78.2,33.8 
			79.1,33.1 79.4,32.8 80.1,31.9 80.6,31.3 80.8,31.1 81.4,30.1 81.8,29.6 81.9,29.3 81.9,29.1 81.8,28.6 81.5,28 81.2,27.4 
			81.3,27.4 81.4,27.4 82.2,27.3 84.4,26.9 84.7,26.8 86.5,26.6 88.3,26.2 88.4,26.2 88.5,26.2 92.1,25.6 93.7,25.4 95.6,25 
			97.5,24.7 98.3,24.6 98.9,24.5 100.7,24.1 100.9,24.1 101,24.1 		"/>
		<polygon class="st2" points="202.6,50.6 202.6,51.4 202.8,51.2 203.2,51.3 203.2,51.8 202.5,53 202.1,53.4 201.5,54.1 201.3,54.4 
			202.1,55.3 201.8,56.6 201.5,57.1 201.5,57.9 201.7,58.9 201.9,59.6 202.2,61.1 202.1,64.9 202,66.1 201.6,66.9 201.9,67.1 
			202.5,67.3 203,69 203.3,69.5 203.3,69.7 201.9,70.9 201.4,70.9 201.2,71.1 200.8,71.4 200.7,71.8 201.3,72.3 201.6,72.4 
			201.8,72.2 201.8,71.9 201.6,71.6 201.9,71.6 202.6,71.8 202.3,74.2 202,75.4 202.1,75.6 202.4,76 201.9,77 201.7,77.5 
			201.9,77.7 202.2,78 202.1,78.3 201.8,78.8 201.8,79.3 202.3,81.5 202.5,81.7 202.6,82 202.7,82.8 202.6,83.3 202.3,84 202,84.1 
			201.6,84.2 201.4,84.3 201.7,84.7 202,85.1 202.3,84.9 202.6,84.6 202.8,84.5 203.1,84.5 203.3,84.7 203.5,85.3 203.3,86.1 
			202.8,86.4 202.4,86.7 202.3,87.6 202.6,87.6 202.9,87.1 203.1,87 203.8,86.7 204.1,86.7 204.2,86.9 204.3,87.3 204.4,89.8 
			204.3,90.2 204.1,90.7 204,91 203,91.8 203.3,92.3 203.4,92.8 202.6,93.8 201.6,94.3 201.3,94.4 200.9,94.4 200.7,95 200.9,95 
			201.3,95 201.6,94.7 201.9,94.7 202.2,95 202.4,95.7 202.2,96 201.2,98.1 201.1,98.3 200.9,98.5 200.7,98.6 200,99 199.6,99.4 
			199.3,99.8 198.9,100.3 198.7,100.7 198.5,100.8 197.5,101.8 196.2,102.9 196.2,103.4 196.2,103.5 195.8,104.5 195,105.4 
			194.4,106 194,106.1 193.7,106.1 193.5,106.1 192.7,106.6 192.4,106.8 192.6,107.5 192.7,108 191.4,109.2 191.1,109.4 
			189.4,110.5 188.6,110.9 187.3,111.6 187,111.8 186,112.4 185.3,112.9 185.3,113 185.2,113.6 184.9,114 182.8,114.6 182.1,114.9 
			180.6,115 179.8,115.3 177.5,116.2 176.9,116.4 176,116.7 175.7,116.9 175.5,117.1 174.4,117.6 173.9,117.8 173.4,117.9 173,118 
			172.8,118.1 172.5,118.2 172.1,118.3 171.9,118.4 171.1,118.8 169.3,119.9 167.3,121 165.1,122.3 163.7,123.6 163.5,123.8 
			163.4,124 163.1,124.4 162.8,124.8 162.6,124.9 161.9,124.4 161.8,124 161.8,123.8 161.5,123.6 161.2,123.6 161,123.9 
			161.7,124.7 162.3,125.3 162.5,125.5 162.1,126 161.6,126.7 160.3,128 158.5,129.7 157.3,130.7 157.1,131 156.4,131.9 
			156.1,132.6 155.3,133.2 154.6,134.3 153.5,134.3 153.3,134.3 153.3,133.7 153.3,133.4 153.3,133.3 153,133.5 152.6,134 
			151.7,134.6 150.7,135.1 150,135.6 149.3,136.1 148.4,136.7 148.2,137 148.1,137.4 147.4,138.2 146,139.8 145,140.6 144.3,141.3 
			142.3,142.8 140,144.4 139.6,144.3 139.4,143.9 139.2,143.5 137.4,141.9 137.5,142.2 137.6,142.5 137.9,143.2 138.4,143.4 
			138.5,143.4 138.7,143.7 138.9,144 138.7,144.7 138.6,145.2 138.5,145.5 138.5,146.2 138.5,146.6 138.5,147.7 137.7,149.8 
			137.4,149.8 138,151.6 139.3,152.5 140.1,153 140.4,153.2 140.7,153.7 140.6,154.1 141.2,155.1 141.6,155.4 141.5,155.6 
			141.6,155.7 141.1,156.9 140.9,157 141,159.4 141.5,160.5 141.9,161.4 142.2,161.7 142.3,161.9 142.5,162 142.7,162.7 142.7,163 
			142.6,163.3 142.6,164.4 142.9,165.1 143,166.2 143,167 143,167.3 142.9,168.6 142.6,169.4 142.5,169.7 142.5,169.9 142.5,170.4 
			143.1,171 143.4,171 143.6,170.4 143.4,169.8 143.5,169.3 143.5,169 143.6,168.5 143.8,168 144.2,167.5 144.5,167.2 145,168.6 
			144.9,170.2 144.9,170.4 144.8,170.9 144.7,171.1 144.5,171.4 144.3,172.1 144.2,172.7 144.3,174.8 144.3,175.5 144.4,176 
			145.1,175.6 144.7,176.6 144.5,176.8 144.3,177.1 144.2,177.3 143.7,178.2 143.6,178.7 143.7,179 143.7,179.4 143.6,179.6 
			143.5,180 143.3,180.3 142.9,181.4 142.8,181.8 142.7,182.7 142.6,183.2 142,183.5 141.7,185.7 141.7,186.4 141.9,186.2 
			142.2,185.2 142.8,185.4 143.1,184.9 143.3,184.6 143.6,184.6 143.7,185.3 143.5,185.9 143.3,186.3 143,187.2 143,187.4 
			143.1,187.7 142.7,188.4 142.1,189.1 141.9,189.3 141.1,190.4 140.8,190.6 140.5,190.8 139.8,191.7 139.7,192 139.2,192.4 
			139,192.7 138.7,192.8 138.5,192.9 138.3,193.1 137.8,193.3 137.4,193.6 135.8,194.3 134.6,194.7 134.2,194.9 133.8,194.9 
			132.4,195.4 132,195.6 131.3,195.7 130.8,196 130.6,196.2 130,196.3 128.6,196.8 127.4,197.1 124.6,198 121,199.6 119.7,200.2 
			119.5,200.4 118.5,200.7 118.3,200.9 117.7,201.3 116.2,202.2 115.9,202.4 115.1,203.1 114.7,203.9 114.6,204 114.3,204.7 
			114.3,205.1 113.9,205.2 113.8,205.5 113.8,205.8 113.6,206 113.3,206.3 112.9,206.6 112.6,206.8 112.8,207.3 113.8,208.9 
			114.6,209.8 115,210 115.3,209.7 115.3,209.4 115.2,209.1 115.6,208.3 115.7,208.1 116.2,207.9 116.1,208.5 116,209 115.8,209.8 
			115.7,210.6 115.2,214.2 115,215.3 115.1,215.5 113.8,215.6 113.1,215.6 110.1,215.7 109.7,215.7 108,215.6 107.8,215.5 
			107.5,215.5 107.6,215.1 107.7,212.1 107.4,211.3 107.3,211 107.3,209.7 107.7,208.6 107.5,207.4 106.8,207 106.5,206.6 
			106.1,205.2 106.8,203.8 107.1,203.2 107.2,202.4 107,202.1 107.1,201.2 107.3,200.5 107.5,198.1 107.6,197.3 107.6,196.2 
			107.6,194.9 107.6,194 108,191.5 107.9,191.2 107.5,189.9 107.3,189.6 106.8,188.5 106.8,188.3 106.9,186.5 106.9,186.4 
			106.6,185.9 105.9,185.4 105.4,184.3 105.2,183.6 105.2,183.2 105.2,182.9 104.8,182.6 104.6,182.2 103.9,181.5 103.8,180.9 
			104,179.8 104.1,179 104.1,178.6 103.8,177.2 102,170.9 101.9,170.8 102,170.7 102.5,170.4 103,170.1 106.1,167.1 108.6,164.6 
			113.8,159.5 113.8,159.4 114.4,159.6 114.6,159.8 114.5,159.5 113.9,158.5 113.4,157.6 113.6,157.4 114.7,156.2 115.1,155.4 
			115.1,154.9 115.1,154.4 114.9,152.9 115.1,152.2 115.7,151.7 116.9,151.7 118.4,149.8 119.1,148.8 119.2,148.4 119.4,147.7 
			119.5,147.2 120.3,146.2 120.8,145.4 121.3,143.7 120.6,142.8 119.2,142 119.3,140.8 119.2,140.7 118.9,140.6 118.6,140.6 
			118.8,139.5 119.3,138.9 119.5,138.6 119.8,136.9 119.4,136 118.9,136 118.4,136 118.1,136 118,135.2 118.1,134.1 119,133.6 
			119.5,133.5 119.8,133.6 120.1,133.6 120.3,133.5 120.7,132.5 120.3,131.7 120.2,131.3 120.2,130.9 120.4,130.7 120.8,130.7 
			121.3,130.4 121.6,130.2 122.2,129.1 121.9,128.8 121.6,128.5 121.2,128 121.5,127.4 121.4,126.7 121.3,126.5 121.1,126.3 
			121,125.9 121,125.2 121.1,124.2 121.4,123.6 121.8,122.8 122.2,121.6 122.2,121.4 122.1,121.1 121.6,120.9 121.4,120.4 
			122.3,118.8 122.2,118.7 122.1,118.5 121.8,118.3 121.7,117.9 121.8,117.7 121.8,117.5 121.7,117 121.6,116.7 121.3,116.1 
			121.1,115.7 120.7,114.3 121,114.1 121.1,113.9 121.3,113.7 121.5,113.6 121.6,113.3 121.6,113.1 121.7,112.9 121.8,112.6 
			121.9,112.2 121.4,112.1 120.1,112.3 119.7,112.3 119.3,112 119.1,111.2 117.8,110.5 116.1,109.8 115.7,109.8 115.6,109.7 
			114.9,109.6 114.5,109.5 114.3,109.5 113.5,109.5 112.7,109.6 112.5,109.6 111.7,109.5 111,109.2 110.9,108.7 109.7,107.7 
			109,107.2 108.5,107.1 107.6,107 107.3,107.1 106.9,107 106.1,106.7 105.8,106.6 105.2,106 105.2,105.8 104.8,105.4 104.5,105.3 
			103.2,105 102.4,105.3 99.8,105.2 95.7,105.3 95.7,101.5 95.7,101.4 95.5,101 95.4,99.8 95.2,98.3 94.9,98.1 94.6,97.9 94.3,97.6 
			94.1,97.1 93.8,96.3 93.7,95.8 93.7,94.7 95.1,94.5 96.9,93.7 97,93.6 97.9,93.3 100.1,92.5 101.1,92.2 102.5,91.8 103,91.8 
			103.3,91.8 105.3,91.3 106.9,90.8 107.2,90.8 107.3,90.7 107.7,90.5 109.4,89.5 109.8,89.4 110.3,89.3 110.6,89.3 110.9,89.2 
			111.1,89.2 111.2,89.1 112.1,88.7 113.6,88.2 115.1,87.8 116.2,87.5 116.5,87.4 122.9,85.2 125.5,84.2 125.9,84.5 126.3,85.6 
			126.8,86.2 127.6,87.4 128.6,88.6 129.6,89.6 130.2,89.6 131.1,89.4 132.3,89.1 134.8,88.6 137.2,87.9 137.5,87.9 137.8,88.4 
			137.9,88.7 138.1,89.1 138.3,89.3 138.5,89.6 138.8,89.8 139,90 139.1,90.3 139.1,91.8 139.4,93.8 139.1,94.9 139.1,95.5 
			139.1,96.4 139.2,96.6 139.3,96.7 139.3,96.9 139.2,97.2 139,97.6 138.8,97.7 138.6,97.8 137.6,99.1 137.5,99.5 137.6,99.7 
			137.6,100 137.5,100.6 137.4,101 136.8,101.7 136.5,101.9 136.3,102 136,102.1 135.8,102.3 135.7,102.5 135.5,103 135.5,103.5 
			135.6,103.7 135.8,104 136.1,104.1 136.3,104.2 137.2,105.2 137.2,105.3 137.2,105.6 137,106 137,106.7 137.2,107.3 137.3,107.5 
			137.5,107.7 137.8,107.7 138.1,107.7 138.4,107.7 138.6,108 138.8,108.5 139.5,109.2 140,109.8 140.5,110.2 141.2,111 
			142.8,112.8 143,113 143.2,113.1 143.6,113.1 144.1,113 144.3,113.1 144.3,114.2 144.1,114.5 143.7,114.7 143.4,114.9 
			143.2,115.1 143.6,116.2 143.9,116.2 145.5,116.3 145.6,116.3 145.8,116 145.8,115.5 145.7,115 145.6,114.5 145.7,113.5 
			145.9,112.9 145.7,111.8 145.5,111.5 145.2,111.1 144.9,111.1 144.7,111 144.5,110.7 144.3,110.2 144.9,109.8 145.5,109.4 
			145.6,108.6 145.9,107.7 146.1,106.8 147.4,105.8 147.7,105.7 148.1,105.9 148.7,106.1 150.5,105.6 151.2,105.2 151.4,105 
			151.6,104.6 151.9,102.9 152.4,98.9 152.4,98.8 152.5,98.3 152.3,97.9 152.2,97.4 151.9,96 152.7,94.2 153.3,92.9 152.8,92.8 
			152.8,91.7 152.9,90.9 152.9,90.5 152.3,89.9 149.6,86.5 149.5,86.3 149.2,85.7 149.1,85.3 146.2,82.1 145.9,81.6 145.1,80.5 
			143.2,78.9 142.9,78.7 142.4,78.6 140.7,78.6 139.9,77.4 139.7,77 139.7,76.7 139.7,76.5 139.7,73.9 139.7,73.6 139.7,73.1 
			139.7,72.7 139.6,71.8 139.6,71.2 139.6,71 139.6,70.5 139.4,69.9 139.3,69.7 139.1,69.2 139,69 138.8,68.4 138.6,67.3 
			138.5,66.4 138.1,65.7 138.1,65.4 138.1,65 138.2,64.7 138.3,64.5 138.5,64 139.2,62.9 139.7,62.2 140.1,61.7 140.7,60.8 
			140.8,60.5 141,60.1 141,59.8 141.1,59.6 141,59.1 141,58.9 141,58.7 141.7,58.6 143.7,58.5 144.4,58.5 144.5,58.5 145,58.5 
			147.4,58.5 149.5,58.6 150.8,58.8 151.6,58.5 152,58.3 152.6,57.4 153.6,56.7 154.7,56.9 157.1,58.4 157.2,59 157.2,59.3 
			157.3,59.6 158.1,59.6 158.4,59.6 158.9,59.5 159.2,59.4 160.7,59.7 161.1,59.9 162.4,59.6 162.9,59.3 163.1,59 163.3,58.9 
			163.6,58.6 164,58.1 165.7,58.3 167,59 167.7,59.2 168.6,59.4 169.9,59.6 170.7,59.5 172.1,58.6 173,58.2 174.1,57.7 174.3,57.5 
			174.4,57.2 174.3,57 174.4,56.6 174.9,55.3 175.3,55.1 175.7,54.8 176,54.7 176.7,54.5 177.3,54.4 178.1,54.7 179.8,55.3 
			180,55.5 180.3,55.7 180.6,55.8 181.4,56 181.8,55.6 182.3,55.2 183,54.7 183.2,54.5 183.4,54.4 185.8,53.3 186.1,53.2 188.3,53 
			188.7,53.1 189,53.3 189.2,53.3 189.6,53.2 189.9,53.1 190.2,52.9 191,52.2 192.2,51.3 192.3,51.2 193.8,50.7 194.2,50.7 
			194.9,50.5 195.2,50.3 195.4,50.1 195.7,49.9 196,49.7 196.3,49.5 196.8,49.3 197,49.3 197.6,48.9 199.1,47.8 201.1,46.6 
			201.4,46.3 202,45.8 202,45.6 202.2,45.5 202.9,45.6 203.4,46.8 203.5,47.4 203.6,47.8 202.6,48.9 203.2,49 203.7,49.2 
			203.8,49.3 203.7,49.6 203.3,49.8 202.9,50 202.6,50.3 		"/>
	</g>
	<polygon class="st2" points="94.4,101.5 95,101.6 95.4,101.5 95.7,101.3 95.7,101.4 95.6,105.2 99.8,105.1 102.4,105.2 103.2,105 
		104.5,105.2 104.9,105.3 105.2,105.8 105.2,106 105.8,106.5 106,106.7 106.9,106.9 107.4,107 107.6,107 108.5,107 109,107.1 
		109.7,107.7 110.9,108.7 111,109.2 111.7,109.4 112.5,109.5 112.7,109.5 113.5,109.5 114.2,109.4 114.5,109.5 114.9,109.5 
		115.5,109.7 115.8,109.7 116.1,109.8 117.9,110.5 119.1,111.1 119.3,112 119.7,112.3 120.1,112.3 121.4,112.1 121.9,112.1 
		121.9,112.6 121.8,112.8 121.7,113 121.5,113.3 121.5,113.5 121.3,113.7 121.2,113.8 120.9,114.1 120.7,114.3 121.1,115.7 
		121.3,116 121.6,116.7 121.7,117 121.8,117.5 121.8,117.7 121.8,117.9 121.8,118.3 122.1,118.5 122.3,118.6 122.3,118.8 
		121.3,120.3 121.5,120.9 122.1,121.1 122.2,121.3 122.2,121.6 121.8,122.8 121.4,123.5 121.1,124.2 121,125.2 121,125.9 
		121.2,126.2 121.3,126.5 121.4,126.7 121.5,127.3 121.2,128 121.6,128.5 121.9,128.8 122.1,129 121.5,130.1 121.3,130.4 
		120.8,130.7 120.4,130.7 120.2,130.9 120.1,131.3 120.3,131.7 120.7,132.5 120.4,133.4 120.1,133.6 119.9,133.5 119.5,133.5 
		119,133.6 118.1,134 118,135.2 118.1,135.9 118.4,136 118.8,135.9 119.4,136 119.9,136.8 119.5,138.5 119.3,138.8 118.8,139.5 
		118.7,140.5 118.9,140.6 119.2,140.6 119.3,140.9 119.2,142.1 120.6,142.8 121.3,143.7 120.8,145.4 120.4,146.2 119.5,147.3 
		119.4,147.7 119.3,148.3 119.1,148.8 118.3,149.7 116.9,151.7 115.7,151.7 115.1,152.1 114.9,152.9 115,154.4 115.1,154.8 
		115.2,155.4 114.7,156.2 113.6,157.3 113.4,157.7 113.9,158.5 114.5,159.5 114.6,159.8 114.4,159.6 113.9,159.4 113.8,159.5 
		108.6,164.6 106.1,167.1 103,170.1 102.5,170.4 102,170.7 101.9,170.8 101.8,170.7 101.6,170.3 100.5,169.9 100.2,169.9 
		99.9,169.9 99.9,170 99.6,169.9 98.6,169.7 98.2,169.6 98,169.5 97.3,169.5 96.7,169.6 95.9,169.7 95.2,169.9 94.5,169.9 94,169.8 
		93.7,169.8 93.4,169.9 93,170 92.5,170.1 91.8,170.1 89.1,169 88.2,168.6 87.8,168.6 87.1,168.4 86.9,168.3 86,168.1 85.5,168 
		83.2,168.3 82.4,168.6 82.3,168.5 81.4,167.5 81.2,167.4 80.9,167.5 80.5,167.5 80.2,167.4 79.8,167.3 79.7,167.2 79.5,167.1 
		79.3,166.9 79.2,166.6 79.1,166.3 79.1,166 79.1,165.7 79.2,165.4 79.6,165 79.6,164.7 78.7,164.3 78.4,164.3 78,164.3 77.4,164.2 
		75.3,163.1 74.5,162.9 74,163.1 73.8,163.3 73.4,163.2 72.8,162.9 72.6,162.8 72.2,162.7 71.6,162.5 71.1,162.6 70.8,162.6 
		70.3,162.6 69.2,162.4 68.8,162.3 68.8,162.3 68.8,162.1 68.4,161 68.2,160.5 67.8,159.7 67.2,158.9 66.6,158.3 66.2,158.1 
		66,157.9 65.7,157.3 65.7,155.9 65.8,155.2 66,155 66.2,154.5 66.2,154 66.2,152 66.2,151.6 65.9,151.4 65.1,151.2 64.1,151.3 
		63.2,151.2 62.5,151.1 62.2,151.2 61.8,151.4 61.8,151.5 61.8,151 61.9,150.3 61.9,149.6 61.9,148.9 61.8,148.7 61.3,147.5 
		61.1,147.3 59.8,146.7 58.7,146.5 56.2,145.7 55.8,145.2 55.2,145.1 55,144.9 54.8,144.7 54.8,144.4 54.6,144.3 54.2,144 
		52.9,143.1 52.4,142.5 51.5,142.1 51.3,142.1 50.8,141.8 50.5,141.7 50.4,141.4 49.8,140.1 49.4,138.9 49.1,138.2 48.8,137.9 
		48.5,137.3 48.5,136.9 48.8,136.2 48.8,136.1 48.7,135.8 48.5,135.4 48.3,135.2 47.6,134.7 46.8,133.3 46.1,132.1 45.5,131.5 
		44.9,130.9 44.1,130.1 44,129.9 43.9,129.7 43.9,129.4 43.7,128.9 43.4,128.3 42.8,127.4 42.5,127.2 42,126.8 41.6,126.1 
		41.3,125.3 41.2,125.1 41.3,124.6 41.5,124.1 42.1,124.4 42.3,124.5 43,124.6 43.3,124.6 44.1,124.7 45.2,124.4 45.6,124.1 
		45.9,124.1 46.9,124.7 47.6,125.2 47.5,125.4 47.7,125.8 48.1,125.9 48.8,126.1 50.1,125.7 50.4,125.3 51.1,125 51.5,125 
		52.9,125.3 53.6,125.5 55,126 55.4,126.4 56.4,126.7 56.6,126.5 56.8,126.3 57.8,126 58.3,125.8 58.9,125.7 59.4,125.6 59.8,125.6 
		61.1,124.5 61,124 63.2,121.6 65,120 66,119.2 66.3,118 67,117 68.1,115.5 68.3,115.2 70.4,114.3 71.6,113.8 72.9,112.8 
		76.3,111.4 78.1,111 78.8,110.2 79.2,109.3 79.2,109 79.1,108.8 79,108.4 79.2,106.9 79.3,105.9 79.4,105.7 80.1,105 80.2,104.9 
		80.7,104.8 81.7,104.1 83.4,102.9 84.5,102.5 86.9,101.7 87.2,101.7 87.5,101.8 87.7,101.8 88.5,101.6 89.2,101.3 89.6,101.2 
		93,101.3 94,101.4 	"/>
	<g>
		<line class="st3" x1="151.7" y1="103.6" x2="151.8" y2="103.5"/>
		<path class="st3" d="M152.5,90.3l-0.1-0.2l-3.4-4.2l-0.3-0.9l-2.7-3l-1.4-1.9l-1.7-1.6l-0.6-0.6 M151.8,103.5l0.1-1l0.1-1v-0.2
			V101v-0.3l0.2-1.6v-0.6V98l-0.1-0.5l-0.6-2.1l0.9-2l0.4-0.9"/>
		<polyline class="st3" points="142.2,77.8 139.3,77.8 139.3,77.7 139.2,77.5 139.1,77.3 138.9,77 138.9,76.8 138.8,76.5 
			138.8,76.2 138.8,76 138.8,75.9 138.9,75.8 138.9,75.6 138.9,75.5 138.9,75.3 138.9,75.1 138.9,74.7 138.9,74.5 139,74.3 
			139,74.1 139,73.8 139,73.7 139,73.2 139,73.1 139,73.1 139,72.8 138.9,72.6 138.8,72.3 138.7,71.9 138.7,71.6 138.5,71.1 
			138.5,70.7 138.5,70.4 138.4,69.9 138.3,69.7 138.2,69.4 138.2,69.1 138.1,68.9 138.1,68.8 138.1,68.6 138,68.3 138,68.1 
			137.9,67.9 137.7,67.7 137.6,67.6 137.5,67.4 137.5,67.2 137.5,67.1 137.5,66.9 137.5,66.7 137.5,66.6 137.4,66.5 137.2,66.2 
			137.1,65.9 137,65.7 136.9,65.5 136.9,65.3 136.8,65.2 136.8,65 136.8,64.8 136.9,64.6 136.9,64.4 136.9,64.3 136.9,64.2 137,64 
			137.1,63.9 137.2,63.7 137.3,63.6 137.5,63.4 137.6,63.2 137.7,63.1 137.8,63 137.8,62.9 138,62.7 138,62.6 138.1,62.5 
			138.2,62.3 138.3,62.2 138.3,62.2 138.3,62.1 138.4,62 138.5,61.9 138.6,61.8 138.7,61.7 138.8,61.6 138.8,61.4 138.8,61.3 
			138.8,61.1 138.8,61 138.8,60.9 138.9,60.7 139,60.6 139,60.5 139.1,60.4 139.3,60.3 139.4,60.2 139.5,60.1 139.5,59.9 
			139.7,59.7 139.7,59.6 139.8,59.4 139.8,59.3 139.9,59.1 139.9,59 139.9,58.7 139.8,58.4 139.6,57.8 143.1,57.8 		"/>
		<polyline class="st3" points="152.5,90.3 152.4,92.6 152.9,92.6 		"/>
		<polyline class="st3" points="125.3,83.3 125.4,83.5 125.6,83.7 125.8,83.7 125.9,83.8 126,84 126.1,84.3 126,84.4 125.9,84.8 
			126.1,85.1 126.3,85.3 126.3,85.4 126.2,85.5 126.3,85.5 126.4,85.6 126.5,85.7 126.5,85.6 126.5,85.6 126.6,85.5 126.7,85.6 
			126.7,85.7 126.8,85.9 126.8,85.9 126.9,86 126.9,86.1 127,86.2 127,86.3 127.1,86.3 127.1,86.3 127.1,86.4 127.2,86.5 
			127.2,86.6 127.2,86.7 127.4,86.7 127.4,86.8 127.4,87 127.4,87 127.4,87.1 127.4,87.1 127.4,87.1 127.4,87.2 127.5,87.2 
			127.5,87.2 127.5,87.2 127.5,87.3 127.6,87.3 127.6,87.4 127.6,87.4 127.6,87.5 127.7,87.5 127.8,87.6 127.8,87.6 127.9,87.6 
			127.9,87.7 128,87.7 128.1,87.8 128.2,87.8 128.3,87.8 128.4,87.8 128.5,87.9 128.5,88 128.5,88.1 128.6,88.2 128.6,88.3 
			128.6,88.3 128.7,88.4 128.9,88.4 128.9,88.4 129,88.5 129.1,88.6 129.1,88.6 129.1,88.7 129.2,88.8 129.3,88.9 129.3,89 
			129.2,89.1 129.3,89.2 129.3,89.3 129.4,89.4 129.4,89.5 129.5,89.5 129.5,89.6 129.6,89.6 129.7,89.8 129.7,89.8 129.8,89.8 
			129.9,89.7 129.9,89.6 129.9,89.5 130,89.4 130.1,89.4 130.2,89.4 130.2,89.3 130.2,89.2 130.1,89.2 130.1,89.1 130,89 130,89 
			130.1,88.9 130.1,88.8 130.1,88.8 130.1,88.7 130.1,88.7 130.1,88.6 130.1,88.6 130.2,88.6 130.3,88.5 130.3,88.5 130.4,88.5 
			130.4,88.6 130.5,88.7 130.7,88.8 130.8,88.9 130.9,88.9 131,89 131.1,89.1 131.1,89.1 131.2,89 131.4,88.9 131.5,88.9 
			131.6,88.7 131.7,88.6 131.7,88.6 131.8,88.7 131.8,88.7 131.9,88.7 131.9,88.6 132,88.4 132.1,88.4 132.2,88.3 132.2,88.3 
			132.3,88.3 132.4,88.3 132.5,88.3 		"/>
		<path class="st3" d="M144.4,116.1h0.2h0.8h0.4h0.2h0.5 M132.5,88.3l1.5,0.1v-0.3l0.3-0.1l0.8-0.1"/>
		<polyline class="st3" points="135,87.8 135,87.9 135.1,87.9 135.2,87.9 135.3,87.9 135.4,87.8 135.4,87.8 135.4,87.7 135.5,87.7 
			135.6,87.7 135.6,87.7 135.6,87.7 135.7,87.8 135.7,87.8 135.7,87.8 135.8,87.8 135.8,87.8 135.9,87.7 135.9,87.7 135.9,87.7 
			135.9,87.7 135.9,87.6 135.9,87.6 136,87.6 136,87.5 136,87.6 136.1,87.6 136.1,87.5 136.1,87.5 136.1,87.5 136.1,87.4 
			136.2,87.4 136.2,87.4 136.3,87.5 136.3,87.5 136.3,87.5 136.3,87.5 136.3,87.5 136.4,87.5 136.4,87.5 136.4,87.4 136.4,87.4 
			136.5,87.4 136.6,87.4 136.6,87.4 136.6,87.4 136.7,87.4 136.7,87.4 136.8,87.3 136.8,87.3 136.9,87.3 136.9,87.3 136.9,87.4 
			137,87.4 137.1,87.4 137.2,87.5 137.2,87.5 137.2,87.6 137.3,87.7 137.3,87.7 137.3,87.7 137.4,87.8 137.4,87.8 137.4,87.9 
			137.5,88.1 137.5,88.1 137.5,88.1 137.6,88.1 137.6,88.1 137.7,88.2 137.7,88.3 137.7,88.3 137.7,88.3 137.7,88.4 137.8,88.5 
			137.8,88.5 137.8,88.6 137.9,88.7 137.9,88.7 138,88.8 138,88.8 138.1,88.8 138.1,88.9 138.2,88.9 138.2,89 138.2,89 138.2,89 
			138.3,89 138.3,89 138.3,89 138.4,89 138.5,89.2 138.5,89.2 138.5,89.3 138.5,89.3 138.5,89.4 138.6,89.4 138.6,89.4 138.7,89.5 
			138.7,89.6 138.7,89.6 138.7,89.7 138.7,89.8 138.7,89.8 138.7,89.9 138.7,89.9 138.7,89.9 138.8,90 138.8,90 138.8,90 
			138.7,90.1 138.7,90.1 138.7,90.1 138.7,90.1 138.6,90.2 138.6,90.2 138.6,90.3 138.6,90.3 138.6,90.3 138.6,90.4 138.5,90.4 
			138.5,90.4 138.4,90.4 138.4,90.4 138.5,90.6 138.5,90.7 138.5,90.7 138.6,90.8 138.7,90.9 138.7,90.9 138.7,91 138.7,91.1 
			138.7,91.1 138.8,91.2 138.8,91.2 138.9,91.3 138.9,91.4 138.9,91.4 138.9,91.4 139,91.4 139,91.5 139,91.5 139.1,91.7 
			139.1,91.8 139.1,91.8 139,91.8 139,91.8 139,91.9 139,91.9 139,91.9 139,92 139,92.1 139,92.1 139,92.2 139,92.2 139,92.3 
			139,92.3 139,92.3 139,92.4 139,92.4 139,92.4 139,92.5 138.9,92.5 138.9,92.6 138.9,92.6 138.9,92.6 138.9,92.7 139,92.7 
			139.1,92.8 139.1,92.9 139.1,92.9 139.1,93 139.2,93.1 139.2,93.1 139.1,93.1 139.2,93.2 139.2,93.3 139.2,93.3 139.3,93.4 
			139.3,93.5 139.4,93.5 139.4,93.5 139.4,93.5 139.4,93.6 139.4,93.6 139.4,93.6 139.5,93.7 139.5,93.7 139.5,93.7 139.5,93.8 
			139.5,93.8 139.5,93.8 139.5,93.9 139.4,93.9 139.4,93.9 139.3,93.9 139.3,94.1 139.3,94.1 139.3,94.1 139.3,94.1 139.3,94.1 
			139.3,94.2 139.2,94.2 139.2,94.2 139.1,94.3 139,94.3 139,94.4 139,94.4 139,94.6 139,94.6 139,94.6 139,94.6 139.1,94.6 
			139.1,94.6 139.2,94.7 139.2,94.7 139.2,94.8 139.1,94.8 139.1,94.9 139,94.9 139,94.9 139,94.9 139,94.9 139,95 139,95 139,95 
			139,95.1 139,95.1 139,95.1 139.1,95.4 139,95.5 139,95.5 139,95.5 139.1,95.6 139.1,95.6 139.1,95.7 139.1,95.7 139.1,95.8 
			139,95.8 139,95.8 139.1,95.9 139.2,96 139.2,96 139.2,96 139.2,96.1 139.2,96.2 139.3,96.2 139.3,96.2 139.3,96.3 139.3,96.3 
			139.3,96.3 139.3,96.3 139.3,96.5 139.3,96.5 139.3,96.5 139.3,96.5 139.3,96.6 139.3,96.7 139.3,96.7 139.2,96.8 139.1,96.9 
			139,97 139,97 139,97 139,97.1 139,97.1 139,97.1 139,97.1 138.9,97.1 138.9,97.1 138.8,97.2 138.8,97.2 138.9,97.2 138.9,97.3 
			138.8,97.3 138.8,97.3 138.8,97.3 138.8,97.2 138.7,97.2 138.7,97.2 138.7,97.2 138.6,97.2 138.6,97.2 138.6,97.3 138.6,97.3 
			138.5,97.4 138.5,97.4 138.4,97.4 138.4,97.5 138.4,97.6 138.4,97.7 138.4,97.7 138.5,97.8 138.4,97.8 138.4,97.9 138.4,98 
			138.4,98 138.4,98.1 138.4,98 138.3,98 138.3,98 138.3,98 138.2,98 138.2,98 138.1,98.1 138.1,98.1 138.1,98.1 138.1,98.1 
			138,98.2 137.9,98.2 137.9,98.2 137.9,98.2 137.8,98.2 137.7,98.2 137.7,98.2 137.6,98.2 137.6,98.2 137.6,98.3 137.6,98.3 
			137.6,98.3 137.6,98.4 137.7,98.4 137.7,98.5 137.7,98.5 137.6,98.6 137.5,98.7 137.5,98.7 137.5,98.8 137.5,98.8 137.5,98.8 
			137.5,98.9 137.5,98.9 137.5,98.9 137.5,99 137.5,99 137.5,99.1 137.6,99.1 137.6,99.1 137.6,99.2 137.6,99.2 137.6,99.3 
			137.6,99.4 137.7,99.4 137.6,99.5 137.6,99.6 137.6,99.6 137.7,99.7 137.7,99.7 137.7,99.7 137.6,99.8 137.6,99.8 137.6,99.8 
			137.6,99.8 137.6,99.9 137.7,99.9 137.8,99.9 137.8,100 137.8,100.1 137.8,100.1 137.7,100.1 137.7,100.1 137.6,100.1 
			137.6,100.2 137.5,100.3 137.5,100.3 137.5,100.4 137.6,100.4 137.5,100.4 137.5,100.5 137.5,100.5 137.6,100.6 137.6,100.7 
			137.6,100.7 137.5,100.7 137.5,100.7 137.4,100.7 137.4,100.8 137.4,100.8 137.2,100.9 137.1,100.9 137.1,100.9 137.1,101 
			137.1,101 137.1,101.1 137.1,101.1 137.1,101.2 137.1,101.2 137,101.2 137,101.3 137,101.3 136.9,101.4 136.9,101.5 136.8,101.5 
			136.7,101.5 136.7,101.6 136.6,101.5 136.5,101.5 136.3,101.7 136.2,101.7 136.2,101.7 136.2,101.8 136.2,101.9 136.1,102 
			136,102.1 135.9,102.1 135.9,102.1 135.9,102.2 135.9,102.2 135.9,102.3 135.9,102.3 135.9,102.3 135.9,102.3 135.9,102.3 
			135.8,102.3 135.7,102.4 135.7,102.4 135.7,102.5 135.8,102.5 135.8,102.5 135.7,102.5 135.7,102.6 135.7,102.6 135.7,102.7 
			135.8,102.7 135.8,102.8 135.8,102.8 135.8,102.9 135.8,102.9 135.7,102.9 135.7,103 135.7,103 135.8,103.1 135.8,103.1 
			135.7,103.1 135.7,103.1 135.8,103.2 135.8,103.2 135.8,103.3 135.8,103.3 135.8,103.3 135.8,103.4 135.8,103.4 135.9,103.4 
			135.9,103.4 136,103.4 136,103.5 136,103.5 136,103.5 136.2,103.5 136.2,103.5 136.3,103.5 136.3,103.5 136.4,103.6 136.5,103.7 
			136.5,103.8 136.5,103.8 136.7,104 136.8,104.1 136.9,104.2 136.9,104.2 137,104.3 137,104.4 137.1,104.4 137.2,104.5 
			137.3,104.5 137.3,104.5 137.5,104.6 137.5,104.7 137.5,104.7 137.5,104.8 137.5,104.8 137.5,104.9 137.5,104.9 137.5,104.9 
			137.5,104.9 137.5,104.9 137.4,105 137.4,105 137.4,105 137.4,105.1 137.4,105.1 137.4,105.2 137.4,105.3 137.4,105.3 
			137.3,105.4 137.3,105.4 137.3,105.5 137.2,105.5 137.1,105.7 137.2,105.8 137.3,105.9 137.3,106 137.2,106 137.2,106.1 
			137.2,106.2 137.3,106.2 137.3,106.2 137.3,106.3 137.3,106.4 137.3,106.4 137.3,106.4 137.3,106.5 137.4,106.5 137.4,106.6 
			137.4,106.6 137.4,106.7 137.5,106.7 137.5,106.8 137.5,106.9 137.6,107 137.6,107 137.7,107.1 137.8,107.2 137.8,107.2 
			137.9,107.2 137.9,107.2 137.9,107.2 138,107.2 138,107.2 138.1,107.3 138.2,107.3 138.2,107.3 138.3,107.3 138.3,107.3 
			138.3,107.2 138.4,107.2 138.5,107.2 138.5,107.2 138.6,107.2 138.6,107.3 138.6,107.3 138.6,107.3 138.7,107.3 138.7,107.3 
			138.7,107.4 138.7,107.4 138.8,107.5 138.9,107.5 139,107.5 139,107.5 139,107.6 139,107.6 139,107.7 139,107.7 139,107.7 
			139,107.8 139,107.8 139,107.8 139.1,107.9 139.1,108 139.1,108 139.2,108 139.2,108 139.2,108.1 139.2,108.1 139.2,108.2 
			139.1,108.2 139.1,108.3 139.2,108.4 139.2,108.5 139.2,108.6 139.3,108.6 139.3,108.7 139.4,108.7 139.4,108.6 139.4,108.6 
			139.5,108.7 139.6,108.7 139.6,108.7 139.6,108.8 139.7,108.8 139.7,108.8 139.7,108.8 139.7,108.8 139.8,108.9 139.8,108.9 
			139.8,108.9 139.8,108.9 139.8,108.9 139.9,109 139.9,108.9 140,108.9 140,108.8 140,108.8 140.1,108.9 140.1,109 140.2,109.1 
			140.1,109.2 140.1,109.2 140.1,109.2 140.1,109.3 140.1,109.4 140.2,109.4 140.2,109.5 140.2,109.5 140.3,109.5 140.3,109.5 
			140.4,109.4 140.4,109.4 140.5,109.4 140.7,109.5 140.7,109.5 140.7,109.6 140.8,109.6 140.8,109.6 140.9,109.7 140.9,109.8 
			141,109.8 141,109.9 141,109.9 141,109.9 141.1,109.9 141.1,110 141.1,110 141.1,110.1 141.1,110.2 141.1,110.2 141.1,110.2 
			141.1,110.3 141.1,110.3 141.1,110.3 141.1,110.3 141.1,110.3 141.2,110.3 141.2,110.3 141.3,110.3 141.3,110.4 141.3,110.4 
			141.4,110.5 141.5,110.5 141.5,110.5 141.5,110.5 141.6,110.6 141.7,110.6 141.7,110.5 141.7,110.5 141.8,110.7 141.8,110.7 
			141.9,110.9 141.9,110.9 141.9,111 141.9,111 141.9,111.1 141.9,111.1 141.9,111.2 141.9,111.2 141.9,111.3 141.9,111.3 
			142,111.3 142,111.3 142.1,111.3 142.1,111.4 142.1,111.4 142.2,111.4 142.3,111.5 142.4,111.5 142.4,111.5 142.5,111.5 
			142.5,111.6 142.5,111.6 142.5,111.7 142.5,111.7 142.5,111.8 142.5,111.8 142.5,111.9 142.6,111.9 142.6,112 142.6,112 
			142.6,112 142.6,112 142.7,112 142.9,112 142.9,112 143.1,112 143.1,112 143.1,112 143.1,112.1 143.1,112.1 143.2,112.1 
			143.2,112.1 143.2,112.1 143.2,112.2 143.3,112.2 143.3,112.2 143.3,112.3 143.3,112.3 143.3,112.3 143.3,112.3 143.3,112.4 
			143.3,112.4 143.3,112.5 143.3,112.5 143.3,112.5 143.4,112.6 143.5,112.6 143.5,112.6 143.6,112.6 143.7,112.7 143.7,112.7 
			143.7,112.7 143.7,112.8 143.7,112.8 143.7,112.8 143.7,112.9 143.8,112.9 143.8,112.9 143.9,112.9 143.9,112.9 144,113 
			144,112.9 144,112.9 144.1,112.8 144.1,112.8 144.3,112.8 144.4,112.8 144.5,112.8 144.5,112.8 144.5,112.8 144.6,112.8 
			144.6,112.8 144.7,112.8 144.8,112.8 144.8,112.8 144.8,112.8 144.8,112.8 144.9,112.9 144.9,112.9 145,113 145,113 145,113.1 
			145,113.2 145,113.2 145,113.2 144.9,113.3 144.9,113.3 144.9,113.4 144.9,113.4 144.9,113.4 145,113.6 145,113.6 145,113.7 
			145,113.7 145,113.8 145.1,113.8 145.1,113.8 145.1,113.9 145.1,113.9 145.1,114 145.1,114 145.1,114 145.1,114 145.1,114 
			145,114.1 145,114 145,114 144.9,114 144.9,114 144.9,114.1 144.8,114.2 144.8,114.3 144.8,114.3 144.8,114.4 144.7,114.4 
			144.7,114.4 144.6,114.4 144.5,114.4 144.5,114.4 144.4,114.5 144.4,114.5 144.3,114.5 144.3,114.5 144.3,114.5 144.2,114.5 
			144,114.6 144,114.7 143.9,114.8 144,114.8 144,114.8 144,114.9 144.1,114.9 144,114.9 144,115 144,115.1 144,115.1 144,115.2 
			144,115.2 144,115.2 144,115.2 144.1,115.2 144.1,115.3 144.1,115.4 144.2,115.4 144.2,115.4 144.2,115.4 144.2,115.4 
			144.2,115.5 144.2,115.5 144.3,115.5 144.3,115.5 144.4,115.5 144.5,115.6 144.5,115.6 144.4,115.7 144.4,115.7 144.3,115.7 
			144.3,115.6 144.3,115.7 144.2,115.8 144.2,115.8 144.2,115.9 144.2,115.9 144.3,115.9 144.3,115.9 144.3,115.9 144.3,116 
			144.3,116 144.4,116 144.4,116.1 		"/>
		<path class="st3" d="M140.7,63.7L140.7,63.7L140.7,63.7h-0.1l0,0l-0.1-0.1l0,0l0,0v-0.1l0,0l0,0l0,0l0,0l0,0l0,0l0,0l0,0l0,0l0,0
			l0,0l0,0l0,0l0,0l0,0l0,0l0,0l0,0l0,0v-0.1v-0.1l0,0l0,0l0,0l0,0l0,0l0,0l0,0l0,0l0,0l0,0l0,0l0,0l0,0l0,0l0,0l0,0l0,0l0,0l0,0
			l0,0l0,0h0.1l0,0l0,0l0,0l0.1,0.1l0,0l0,0l0,0l0,0l0,0l0,0l0,0l0,0l0,0l0,0l0,0l0,0l0,0l0,0l0,0l0,0l0,0l0,0l0,0v0.1l0,0
			 M139.5,62L139.5,62L139.5,62h0.1h0.1l0,0l0,0l0,0l0,0l0,0l0,0l0,0l0,0l0,0l0,0l0,0l0,0l0,0v0.1l0,0l0,0l0,0v0.1l0,0l0,0l0,0l0,0
			v0.1l0,0l0,0l0,0l-0.1,0.1l0,0l0,0l0,0l0,0l0,0l0,0l0,0l0,0l0,0l0,0l0,0l0,0l0,0l0,0l0,0l0,0l0,0l0,0l0,0l0,0l0,0l0,0l0,0l0,0l0,0
			l0,0l0,0l0,0v-0.2l0,0l0,0l0,0l0,0l0,0l0,0l0,0l0,0l0,0l0,0l0,0l0,0l0,0l0,0l0,0l0,0l0,0l0,0l0,0l0,0l0,0L139.5,62L139.5,62
			L139.5,62L139.5,62"/>
		<polyline class="st3" points="140.7,63.7 140.8,63.6 141,63.4 141.1,63.3 141.1,63.2 141.2,63.1 		"/>
		<polyline class="st3" points="143.1,57.8 143.1,57.8 143.1,57.5 143,57.4 143,57.3 143.1,57.2 142.9,56.8 142.9,56.5 142.8,56.3 
			142.8,56.1 142.8,56 142.6,55.7 142.5,55.6 142.5,55.6 142.4,55.5 142.2,55.4 141.9,55.2 141.6,55.2 141.5,55.1 141.3,55.2 
			141.4,55.1 141.3,55.1 141.2,54.9 141.2,54.9 141.3,54.9 141.3,54.8 141.4,54.8 141.4,54.8 141.4,54.7 141.4,54.7 141.4,54.6 
			141.3,54.5 141.2,54.5 141.2,54.5 141.1,54.5 141.1,54.3 141,54.2 141,54.1 140.9,54 140.8,53.9 140.8,53.8 140.7,53.7 
			140.6,53.6 140.5,53.4 140.5,53.4 140.4,53.3 140.1,53.2 139.9,53.1 139.9,53.1 139.8,53 139.8,53 139.8,53 139.8,52.9 
			139.7,52.9 139.8,52.8 139.8,52.7 139.8,52.6 139.8,52.6 139.8,52.5 139.8,52.5 139.8,52.5 139.9,52.5 139.8,52.3 139.7,52.3 
			139.7,52.3 139.6,52.3 139.6,52.3 139.5,52.3 139.5,52.1 139.5,51.9 139.5,51.7 139.5,51.6 139.6,51.5 139.7,51.4 139.8,51.2 
			139.9,51.1 139.9,51.1 139.9,51 140,51 140,50.9 140,50.9 140,50.8 139.9,50.7 139.9,50.5 139.9,50.3 139.9,50.1 140,50 140,49.8 
			140,49.8 140,49.5 140,49.4 140,49.4 140,49.2 140,49.1 139.9,48.9 139.8,48.9 139.7,48.8 139.7,48.7 139.7,48.6 139.8,48.4 
			139.7,48.4 139.7,48.2 139.6,48.1 139.6,48 139.6,47.9 139.5,47.9 139.4,47.7 139.4,47.5 139.4,47.5 139.4,47.5 139.5,47.5 
			139.5,47.4 139.2,47.2 139.1,47.2 139.1,47.1 139.1,46.9 139,46.9 139,46.8 139.1,46.8 139.1,46.7 139.1,46.7 139,46.7 139,46.6 
			139,46.5 139.2,46.3 139.3,46.3 139.3,46.2 139.3,46.2 139.2,46.1 139.2,46.1 139.2,46 139.2,46 139.2,45.9 139,46 139,46 
			139,45.7 138.9,45.7 138.9,45.6 138.9,45.4 139,45.3 139,45 139.1,44.9 139.1,44.7 139.2,44.5 139.2,44.5 139.2,44.4 139.2,44.4 
			139.2,44.2 139.2,44.1 139.1,44 139.1,43.7 139.1,43.5 139.1,43.3 139.1,43.1 139,43.1 139,43 138.9,42.8 138.9,42.7 138.8,42.6 
			138.8,42.5 138.8,42.5 138.7,42.4 138.7,42.4 138.7,42.3 138.7,42.3 138.9,42.2 138.9,42 138.9,42 138.9,41.9 138.9,41.9 
			138.9,41.8 138.8,41.5 138.7,41.3 138.6,41.2 138.6,41.2 138.6,41.1 138.5,41 138.4,41 138.4,40.9 138.3,40.9 138.2,40.8 
			138.1,40.7 138.1,40.6 137.8,40.3 137.5,39.9 137.4,39.9 137.1,39.4 136.9,39.3 136.8,39.2 136.8,39.1 136.8,38.9 136.7,38.9 
			136.7,38.8 136.6,38.6 136.2,38.3 135.9,38 135.9,38 135.9,38 135.8,37.9 135.5,37.6 135.4,37.6 135.2,37.3 135.1,37.2 135,37.1 
			134.9,37 134.8,37 134.8,37 134.5,36.7 134.4,36.6 134.3,36.6 134.1,36.4 134.1,36.3 134,36.3 133.9,36.2 133.9,36.2 133.9,36.2 
			133.8,36.1 133.7,36 133.5,36.1 133.2,36.2 133,36.4 132.9,36.6 132.9,36.6 132.8,36.9 132.8,36.9 132.9,37.1 132.9,37.1 
			132.9,37.2 133,37.4 133,37.4 132.9,37.6 132.9,37.8 132.9,37.9 132.8,38 132.7,38.3 132.7,38.3 132.6,38.3 132.5,38.3 
			132.4,38.2 132.5,38.1 132.5,38.1 132.3,38 132.2,38 131.9,37.8 131.8,37.8 131.7,37.6 131.7,37.6 131.6,37.6 131.5,37.5 
			131.4,37.5 131.4,37.4 131.3,37.2 131.2,37.2 131.2,37.2 131,37 130.9,37 130.8,37 130.6,37 130.5,37 130.4,37.1 130.4,37.2 
			130.2,37.4 130.1,37.3 130.1,37.3 130,37.2 129.9,37.3 129.9,37.3 129.8,37.3 129.7,37.2 129.6,37.2 129.4,37.2 129.4,37.2 
			129.3,37.2 129.2,37.1 129.1,37 129.1,37 129,37 129,37 128.9,37.1 128.9,37.1 128.6,37.1 128.6,37.3 128.4,37.4 128.4,37.4 
			128.4,37.4 128.3,37.5 128.2,37.5 128.1,37.4 128,37.5 127.8,37.4 127.7,37.4 127.7,37.4 127.5,37.3 127.4,37.2 127.3,37.2 
			127.3,37.1 127.2,37.1 127.3,37 127.3,37 127.2,36.9 127.2,36.8 127,36.6 127,36.6 127,36.6 127,36.5 126.9,36.5 126.7,36.4 
			126.7,36.4 126.6,36.4 126.6,36.3 126.5,36.2 126.4,36.2 126.3,36.1 126.3,36 126.2,36.1 126.2,36 126.1,36 126,36.1 125.9,36 
			125.9,36.2 125.8,36.2 125.7,36.1 125.6,36 125.5,36 125.5,36 125.4,36.1 125.4,36.1 125.3,36.1 125.2,36.1 125.2,36.2 
			125.1,36.3 125,36.3 124.9,36.2 124.8,36.1 124.7,36.1 124.7,36.1 124.5,36.1 124.4,36.1 124.3,36 124.2,36 124.2,35.9 
			124.1,35.9 124,35.8 124,35.8 123.9,35.7 123.7,35.7 123.7,35.6 123.6,35.5 123.4,35.3 123.2,35.3 123.2,35.2 123.1,35.2 
			123.1,35.1 123,35 123,34.9 122.9,34.8 122.8,34.8 122.8,34.8 122.8,34.8 122.5,35 122.5,35.1 122.4,35.2 		"/>
		<polyline class="st3" points="122.4,35.2 122.3,35.3 122.3,35.4 122.3,36.1 122.4,36.1 122.5,36 122.6,36 122.7,36 122.8,36.1 
			122.8,36.1 123,36.1 123.1,36.2 123.1,36.3 123.2,36.4 123.1,36.6 123,36.8 123,36.8 123,37 122.9,37.1 122.9,37.1 122.9,37.2 
			122.9,37.4 122.9,37.6 123.2,37.8 123.3,37.7 123.3,37.7 123.4,37.6 123.5,37.6 123.5,37.6 123.6,37.7 123.7,37.9 123.8,38.1 
			123.8,38.1 123.9,38.1 123.9,38.1 123.9,38 124,37.9 124,37.8 124,37.7 124.1,37.7 124,37.6 124,37.5 124,37.5 124.1,37.3 
			124.1,37.2 124.2,37.2 124.2,37.3 124.3,37.3 124.4,37.3 124.5,37.4 124.7,37.3 124.8,37.3 124.9,37.3 125.1,37.4 125.1,37.5 
			125.1,37.7 125.3,37.8 125.2,38.1 125.2,38.3 125.2,38.4 125.3,38.6 125.6,38.8 125.7,39 125.8,39.3 125.8,39.3 125.9,39.4 
			126,39.4 126.1,39.4 126.3,39.5 126.4,39.5 126.5,39.6 126.5,39.7 126.6,39.8 126.6,39.9 126.7,39.9 126.7,40.1 126.7,40.2 
			126.8,40.4 126.8,40.5 126.8,40.5 126.7,40.6 126.6,40.7 126.5,40.8 126.5,40.9 126.4,41.1 126.4,41.3 126.3,41.4 126.3,41.4 
			126.2,41.8 126.1,42 126.2,42.1 126.3,42.3 126.5,42.4 126.5,42.4 126.5,42.4 126.6,42.4 126.6,42.5 126.8,42.4 126.9,42.5 
			127.1,42.7 127.2,42.7 127.4,42.9 127.5,43.1 127.6,43.2 127.8,43.2 128,43.2 128.1,43.3 128.2,43.5 128.4,43.6 128.4,43.6 
			128.6,43.7 128.7,43.8 128.7,43.8 128.6,44.2 128.6,44.3 128.5,44.5 128.5,44.5 128.4,44.6 128.5,44.7 128.4,44.8 128.5,44.9 
			128.5,45 128.5,45.3 128.6,45.3 128.6,45.4 128.7,45.6 128.7,45.6 128.7,45.6 128.8,45.9 129,46 129.1,46 129.3,46 129.4,46.3 
			129.4,46.4 129.3,46.5 129.3,46.6 129.4,46.6 129.5,46.7 129.5,46.8 129.7,46.9 129.8,46.9 129.8,47 129.8,47.1 129.9,47.1 
			129.9,47.3 129.9,47.4 130,47.4 130.2,47.3 130.2,47.4 130.1,47.5 130,47.6 130,47.7 130,47.7 129.7,47.9 129.6,47.9 129.6,48 
			129.5,48.1 129.3,48.3 129.2,48.3 129.1,48.2 129,48.3 129,48.4 129,48.4 128.9,48.5 128.7,48.8 128.6,48.9 128.5,49 128.5,49.1 
			128.4,49.1 128.3,49.1 128.3,49.1 128.4,49.3 128.3,49.4 128.3,49.4 128.2,49.5 128.1,49.5 128,49.6 128,49.6 127.8,49.7 
			127.7,49.8 127.6,49.9 127.5,50 127.4,50 127.2,49.9 127.1,49.9 127,49.9 126.9,49.9 126.7,50 126.6,50.1 126.3,50.1 126.1,50.3 
			126.1,50.4 126.1,50.4 126,50.5 125.9,50.5 125.7,50.6 125.7,50.5 125.7,50.5 125.6,50.4 125.6,50.5 125.4,50.7 125.4,50.8 
			125.3,50.8 125.4,50.9 125.5,50.9 125.5,50.9 125.6,50.9 125.7,50.8 125.7,50.8 125.9,51 125.9,51.1 126,51.2 126,51.3 126,51.8 
			126,52 126.1,52.2 126.1,52.3 126.1,52.3 126.2,52.4 126.2,52.6 126.3,52.6 126.4,52.7 126.5,52.8 126.6,52.9 126.7,53.1 
			126.7,53.2 126.6,53.3 126.7,53.4 126.9,53.4 127,53.4 127,53.5 127,53.5 127,53.6 126.9,53.7 126.9,53.8 126.8,54 126.7,54.2 
			126.7,54.3 126.7,54.3 126.5,54.5 126.5,54.6 126.4,54.7 126.4,54.8 126.4,54.9 126.3,55.1 126.2,55.2 126,55.3 126,55.4 
			126,55.5 126.1,55.6 126.1,55.7 126,55.7 125.9,55.8 125.8,55.7 125.8,55.7 125.7,55.8 125.7,55.9 125.8,56 125.8,56.3 
			125.8,56.4 125.7,56.4 125.7,56.5 125.6,56.4 125.4,56.3 125.4,56.2 125.4,56.1 125.3,56.1 125.3,56.1 125.2,56.2 125.2,56.2 
			125.1,56.3 125.1,56.4 125.2,56.5 125.3,56.6 125.3,56.7 125.3,56.8 125.3,57 125.4,57.2 125.4,57.3 125.3,57.4 125.3,57.5 
			125.2,57.5 125.2,57.6 125.1,57.7 125.1,58.1 125.3,58 125.3,58 125.5,57.9 125.6,58 125.7,57.9 125.8,57.9 125.8,58 125.8,58 
			125.9,58.1 126,58.1 126,58.3 126.1,58.5 126.1,58.5 126,58.9 126.1,59.3 126,59.4 126.1,59.8 126.1,59.9 126.1,59.9 126.2,60.1 
			126.2,60.1 126.2,60.2 126.2,60.4 126.2,60.5 126,60.7 125.9,60.9 125.9,60.9 126,61 126,61.1 126.1,61.1 126.1,61.3 126.1,61.5 
			126.1,61.7 126,61.9 126,62 125.9,62.1 126,62.2 126,62.3 126,62.4 125.9,62.5 125.8,62.7 125.7,62.8 125.7,62.8 125.7,62.9 
			125.6,63.2 125.5,63.5 125.5,63.6 125.5,63.7 125.4,63.8 125.5,64 125.6,64 125.7,64 125.9,64.1 126,64.1 125.9,64.3 126,64.5 
			125.9,64.8 126,64.8 126,65 126.1,65 126.1,65 126.2,65.2 126.2,65.3 126.3,65.4 126.4,65.5 126.4,65.6 126.5,65.6 126.5,65.7 
			126.5,66 126.6,66 126.7,65.9 126.8,65.9 127,65.9 127.2,65.9 127.2,65.9 127.4,65.8 127.5,65.7 127.7,65.7 127.8,65.8 128,65.9 
			128.1,65.9 128.1,65.9 128.2,65.8 128.3,65.8 128.4,65.9 128.4,66.1 128.4,66.2 128.4,66.2 128.1,66.4 128.1,66.4 128,66.5 
			127.9,66.6 127.9,66.6 127.8,66.6 127.8,66.7 127.7,66.7 127.7,66.7 127.6,66.8 127.7,67 127.7,67 127.7,67.1 127.6,67.2 
			127.5,67.1 127.4,67.2 127.4,67.3 127.3,67.4 127,67.6 127,67.8 127,67.8 126.9,67.9 126.8,67.9 126.7,68 126.6,68.1 126.5,68.1 
			126.4,68.1 126.4,68.1 126.3,68.1 126.2,68 126.2,68 126.1,67.9 126,67.9 125.9,67.9 125.8,67.9 125.8,68 125.7,68 125.5,68 
			125.5,68 125.5,68.2 125.2,68.5 125.2,68.6 125,68.7 125,68.7 124.9,68.7 124.8,68.8 124.8,68.8 124.8,69 124.7,69.1 124.6,69.1 
			124.6,69.1 124.6,69 124.6,68.9 124.6,68.8 124.5,68.7 124.3,68.6 124.2,68.6 124.1,68.6 124.1,68.7 123.9,68.8 123.9,68.8 
			123.8,68.8 123.7,68.6 123.6,68.6 123.6,68.6 123.5,68.7 123.4,68.8 123.3,68.8 123.2,69 123.1,69.1 123,69.2 123,69.2 
			122.9,69.3 122.9,69.4 122.8,69.7 122.8,69.8 122.7,70 122.5,70.2 122.5,70.1 122.4,70.3 122.4,70.3 122.3,70.6 122.3,71.2 
			122.3,71.2 122.3,71.3 122.4,71.3 122.5,71.4 122.8,71.6 122.9,71.7 123,71.8 123,71.9 123,71.9 123,72 122.9,72.2 122.9,72.3 
			122.9,72.4 122.9,72.5 122.9,72.7 122.9,72.8 122.8,72.9 122.7,72.9 122.7,73.1 122.6,73.2 122.6,73.2 122.7,73.4 122.7,73.5 
			122.7,73.5 122.7,73.6 122.5,73.7 122.6,73.9 122.6,74 122.5,74.1 122.5,74.2 122.6,74.5 122.7,74.7 122.8,74.7 122.8,74.8 
			122.9,75 122.9,75 122.9,75.1 122.9,75.1 122.8,75.2 122.7,75.2 122.6,75.3 122.5,75.4 122.5,75.5 122.5,75.6 122.4,75.6 
			122.3,75.6 122.3,75.6 122.3,75.7 122.2,75.8 122.2,76 122.1,76 122.1,76.1 122.1,76.2 122.1,76.3 122,76.6 122,76.9 122,77 
			122,77.1 121.9,77.2 121.6,77.6 121.6,77.7 121.5,77.7 121.3,77.7 121.2,77.7 121.2,77.7 121.1,77.8 121.2,78 121.2,78.1 
			121.2,78.2 121.1,78.3 121.1,78.4 121,78.5 120.8,78.6 120.7,78.6 120.6,78.7 120.6,78.7 120.5,78.7 120.4,78.7 120.3,78.8 
			120.2,79 120.2,79 120,79 120,79 119.9,79 119.9,79 119.8,78.8 119.6,78.9 119.6,78.9 119.6,78.9 119.5,79 119.5,79 119.5,79.2 
			119.4,79.3 119.4,79.4 119.5,79.4 119.6,79.5 119.7,79.6 119.9,79.6 120,79.6 120.1,79.7 120.2,79.7 120.2,79.7 120.3,79.7 
			120.3,79.6 120.4,79.6 120.6,79.6 120.7,79.8 120.7,80 121,80.2 121.1,80.3 121.1,80.4 121.2,80.4 121.1,80.5 121,80.5 
			120.9,80.5 120.8,80.6 120.8,80.6 120.7,80.8 120.5,80.8 120.5,81 120.4,81 120.5,81.1 120.5,81.1 120.6,81.1 120.6,81.1 
			120.7,81.2 120.8,81.2 120.8,81.3 120.8,81.3 120.9,81.1 121.1,81.1 121.2,81.3 121.4,81.2 121.4,81.3 121.4,81.3 121.4,81.3 
			121.5,81.3 121.7,81.4 121.7,81.6 121.7,81.7 121.8,81.8 121.9,81.9 122,82 122.1,82 122.1,82.1 122.3,82.3 122.3,82.4 
			122.2,82.5 122.2,82.6 122.3,82.7 122.3,82.8 122.4,82.7 122.5,82.7 122.7,82.7 122.8,82.9 122.8,82.9 122.8,83 122.8,83 
			122.8,83.1 122.7,83.2 122.7,83.4 122.7,83.5 122.8,83.6 122.9,83.7 123.1,83.9 123.2,83.9 123.2,83.9 123.3,83.8 123.3,83.7 
			123.5,83.6 123.5,83.5 123.5,83.3 123.6,83.1 123.9,83 123.9,83 124.1,83 124.2,82.9 124.3,82.7 124.4,82.7 124.6,82.9 
			124.7,82.9 124.8,83 124.7,83.1 124.8,83.3 125.3,83.3 		"/>
		<polyline class="st3" points="146.4,116 146.4,116 146.4,116 146.5,116 146.5,116 146.5,116 146.5,115.8 146.5,115.8 146.5,115.7 
			146.4,115.7 146.4,115.7 146.4,115.6 146.4,115.6 146.5,115.6 146.5,115.6 146.5,115.5 146.5,115.5 146.5,115.5 146.5,115.5 
			146.5,115.4 146.5,115.4 146.5,115.4 146.6,115.4 146.6,115.3 146.5,115.3 146.5,115.3 146.5,115.3 146.4,115.3 146.4,115.3 
			146.4,115.3 146.4,115.2 146.4,115.2 146.4,115.2 146.4,115.2 146.4,115.1 146.4,115.1 146.4,115.1 146.3,115 146.3,115 
			146.4,115 146.4,114.9 146.4,114.9 146.4,114.9 146.4,114.8 146.4,114.8 146.4,114.7 146.4,114.7 146.4,114.7 146.5,114.6 
			146.5,114.6 146.5,114.5 146.5,114.5 146.4,114.4 146.4,114.4 146.4,114.4 146.4,114.4 146.4,114.4 146.4,114.3 146.4,114.3 
			146.4,114.3 146.4,114.3 146.3,114.3 146.3,114.3 146.2,114.3 146.2,114.3 146.1,114.1 146.1,114.1 146,114 146.1,114 146.1,114 
			146.1,113.9 146.2,113.8 146.2,113.8 146.3,113.6 146.3,113.6 146.3,113.6 146.2,113.6 146.2,113.6 146.2,113.6 146.2,113.6 
			146.2,113.6 146.2,113.5 146.2,113.5 146.2,113.5 146.3,113.5 146.3,113.5 146.2,113.4 146.2,113.4 146.2,113.4 146.2,113.3 
			146.3,113.3 146.3,113.4 146.4,113.3 146.5,113.2 146.5,113.1 146.5,113.1 146.5,113.1 146.5,113 146.5,113 146.5,113 146.5,113 
			146.6,112.9 146.6,112.9 146.5,112.7 146.4,112.6 146.4,112.6 146.3,112.6 146.3,112.5 146.3,112.4 146.3,112.3 146.3,112.3 
			146.4,112.3 146.4,112.2 146.4,112.2 146.4,112.2 146.4,112.1 146.3,112.1 146.3,112.1 146.3,112 146.3,112 146.3,111.9 
			146.3,111.9 146.3,111.9 146.3,111.8 146.3,111.8 146.3,111.8 146.3,111.7 146.3,111.7 146.3,111.7 146.3,111.6 146.3,111.6 
			146.2,111.6 146.2,111.6 146.2,111.6 146.1,111.5 146.1,111.5 146,111.3 146,111.3 145.9,111.3 145.9,111.3 145.9,111.3 
			145.8,111.3 145.8,111.3 145.8,111.2 145.7,111.1 145.7,111.1 145.7,111.1 145.7,111 145.7,111 145.7,110.9 145.7,111 145.6,111 
			145.6,111.1 145.5,111.1 145.5,111 145.5,111 145.5,110.9 145.5,110.9 145.5,110.9 145.5,110.9 145.4,110.9 145.3,110.8 
			145.3,110.8 145.2,110.7 145.2,110.7 145.1,110.7 145.1,110.7 145.1,110.7 145.1,110.7 145.1,110.6 145.1,110.6 145.1,110.5 
			145,110.6 145,110.6 145,110.5 145,110.5 145,110.4 145,110.4 144.9,110.3 144.9,110.3 144.9,110.2 144.8,110.1 144.8,110 
			144.9,110 145,109.9 145.1,109.9 145.2,109.9 145.2,109.8 145.2,109.8 145.2,109.8 145.2,109.7 145.2,109.7 145.3,109.6 
			145.4,109.6 145.4,109.6 145.5,109.5 145.5,109.5 145.5,109.5 145.6,109.4 145.6,109.4 145.6,109.4 145.7,109.4 145.7,109.4 
			145.8,109.3 145.8,109.3 145.9,109.3 145.9,109.3 146,109.2 146,109.2 146,109.2 146,109.1 146,109 146.1,108.9 146.1,108.8 
			146.1,108.8 146.1,108.7 146,108.5 146,108.4 146,108.4 146.1,108.3 146.1,108.3 146.1,108.3 146.2,108.2 146.2,108.1 
			146.3,108.1 146.3,108.1 146.3,108 146.5,107.8 146.4,107.8 146.4,107.8 146.4,107.8 146.4,107.7 146.3,107.7 146.2,107.6 
			146.2,107.6 146.2,107.5 146.3,107.5 146.3,107.4 146.3,107.4 146.3,107.3 146.3,107.3 146.3,107.2 146.3,107.2 146.4,107.2 
			146.4,106.9 146.4,106.9 146.4,106.9 146.4,106.9 146.4,106.8 146.4,106.8 146.4,106.7 146.4,106.7 146.4,106.6 146.4,106.6 
			146.4,106.6 146.5,106.6 146.5,106.5 146.5,106.5 146.5,106.5 146.5,106.4 146.6,106.3 146.7,106.3 146.7,106.2 146.8,106.2 
			146.9,106.2 146.9,106.2 146.9,106.1 146.9,106.1 146.9,106 147,106 147.1,105.9 147.2,105.8 147.3,105.8 147.3,105.8 
			147.4,105.7 147.4,105.7 147.5,105.6 147.5,105.6 147.5,105.5 147.5,105.5 147.5,105.5 147.6,105.5 147.7,105.4 147.7,105.4 
			147.8,105.4 147.8,105.4 147.8,105.4 147.9,105.4 148,105.4 148,105.4 148,105.4 148.1,105.5 148.2,105.4 148.3,105.4 
			148.4,105.4 148.4,105.6 148.3,105.6 148.4,105.8 148.5,105.8 148.4,105.8 148.5,105.8 148.6,105.8 148.6,105.8 148.7,105.9 
			148.7,105.9 148.9,105.8 148.9,105.8 148.9,105.7 149,105.6 149,105.5 149.1,105.5 149.2,105.6 149.2,105.5 149.2,105.5 
			149.3,105.5 149.3,105.5 149.3,105.5 149.5,105.5 149.5,105.5 149.6,105.5 149.6,105.5 149.7,105.5 149.7,105.4 149.7,105.4 
			149.8,105.4 149.8,105.3 149.9,105.3 149.9,105.3 150,105.3 150.1,105.2 150.2,105.2 150.3,105.2 150.3,105.2 150.3,105.2 
			150.3,105.3 150.4,105.3 150.6,105.2 150.6,105.2 150.6,105.1 150.7,105.1 150.7,105.1 150.8,105.1 150.9,105 151,105 151,105 
			151.1,105 151.2,104.9 151.2,104.9 151.2,104.9 151.2,104.8 151.2,104.8 151.2,104.8 151.2,104.7 151.3,104.8 151.3,104.7 
			151.4,104.6 151.5,104.6 151.6,104.6 151.6,104.5 151.6,104.5 151.6,104.5 151.7,104.5 151.7,104.4 151.7,104.4 151.7,104.4 
			151.7,104.2 151.7,104.1 151.7,104.1 151.7,104.1 151.6,104.1 151.6,104.1 151.6,104.1 151.6,104 151.6,103.9 151.6,103.9 
			151.6,103.9 151.6,103.8 151.6,103.8 151.6,103.8 151.6,103.7 151.6,103.6 151.7,103.6 		"/>
		<path class="st2" d="M140.8,63.6L140.8,63.6l-0.1,0.1l0,0l0,0l0,0l-0.1-0.1l0,0l0,0v-0.1l0,0l0,0l0,0l0,0l0,0l0,0l0,0l0,0l0,0l0,0
			l0,0l0,0l0,0l0,0l0,0l0,0l0,0l0,0l0,0v-0.1v-0.1l0,0l0,0l0,0l0,0l0,0l0,0l0,0l0,0l0,0l0,0l0,0l0,0l0,0l0,0l0,0l0,0l0,0l0,0l0,0
			l0,0l0,0h0.1l0,0l0,0l0,0l0.1,0.1l0,0l0,0l0,0l0,0l0,0l0,0l0,0l0,0l0,0l0,0l0,0l0,0l0,0l0,0l0,0l0,0l0,0l0,0l0,0V63.6L140.8,63.6
			h-0.1l0,0l-0.1,0.1L140.8,63.6z M139.6,63.1L139.6,63.1L139.6,63.1h-0.1l0,0l0,0l0,0l0,0l0,0l0,0l0,0l0,0l0,0l0,0l0,0l0,0l0,0l0,0
			l0,0l0,0v-0.2l0,0l0,0l0,0l0,0l0,0l0,0l0,0l0,0l0,0l0,0l0,0l0,0l0,0l0,0l0,0l0,0l0,0l0,0l0,0l0,0l0,0l0,0l0,0l0,0l0,0l0,0l0,0h0.1
			l0,0l0,0l0,0l0,0l0,0l0,0l0,0l0,0l0,0l0,0l0,0l0,0l0,0V63l0,0l0,0l0,0V63.1L139.6,63.1L139.6,63.1L139.6,63.1L139.6,63.1
			L139.6,63.1L139.6,63.1L139.6,63.1L139.6,63.1l-0.1,0.2l0,0l0,0l0,0l0,0l0,0L139.6,63.1L139.6,63.1L139.6,63.1L139.6,63.1z
			 M124.2,35.9L124.2,35.9L124.2,35.9l0.2,0.1h0.1h0.2l0,0h0.1l0.1,0.1h0.1h0.1l0.1-0.1v-0.1l0,0h0.1h0.1h0.1l0,0h0.1l0.1,0.1h0.2
			l0,0v-0.1h0.1h0.1l0,0l0,0h0.1h0.1l0.1,0.1h0.1v0.1h0.1l0,0h0.1l0.1,0.1h0.1l0,0l0,0l0,0l0.1,0.1l0.1,0.1v0.1v0.1l-0.1,0.1h0.1
			l0,0l0,0l0.1,0.1l0.2,0.1l0,0h0.1h0.2l0.1-0.1l0.1,0.1h0.1v-0.1h0.1l0,0h0.1l0.1-0.3h0.2l0,0v-0.1h0.1l0,0h0.1h0.1l0.1,0.1h0.1
			l0.1,0.1h0.2h0.1h0.1h0.1l0,0h0.1l0,0l0,0l0.1,0.1l0.1-0.2l0.1-0.1h0.1h0.1h0.2h0.1h0.2l0.1,0.2l0,0h0.2l0.1,0.2v0.1l0.1,0.1h0.1
			h0.1l0,0l0.1,0.1l0,0l0.3,0.2l0.1,0.1l0.2,0.1l0,0l-0.1,0.1h0.1h0.1l0.1,0.1v-0.1l0.1-0.3v-0.1v-0.1v-0.2l0.1-0.1v-0.1l-0.1-0.2
			v-0.1l0,0l-0.1-0.2v-0.1l0.1-0.3l0,0l0.1-0.2l0.2-0.2l0.3-0.2h0.2h0.1l0.1,0.1l0,0l0,0l0.1,0.1l0,0h0.1l0.2,0.2l0.1,0.1l0.1,0.1
			l0.3,0.2l0,0h0.1l0.1,0.1l0.1,0.1h0.1l0.2,0.3h0.1l0.4,0.3l0.1,0.1l0,0l0,0l0.2,0.3l0.4,0.3l0.1,0.2l0.1,0.1l0,0V38v0.1l0.1,0.1
			l0.2,0.1l0.3,0.5l0,0l0.4,0.4l0.2,0.3v0.1l0.1,0.1l0.1,0.1l0,0h0.1v0.1h0.1V40v0.1v0.1l0.1,0.2l0.1,0.3l0,0v0.1l0,0l0,0l-0.1,0.1
			l-0.1,0.1l0,0l0,0l0,0v0.1l0,0l0.1,0.1l0.1,0.1v0.1L139,43l0.1,0.1v0.1v0.2v0.2v0.2l0.1,0.2l0.1,0.1v0.1v0.2l0,0v0.1l0,0l-0.1,0.2
			l-0.1,0.2V45l-0.1,0.3v0.1v0.3l0,0h0.1v0.2l0,0l0.1-0.1l0,0l0,0v0.1l0,0h0.1l0,0V46v0.1l-0.2,0.2v0.1v0.1h0.1l0,0l0,0h-0.1v0.1
			v0.1v0.2V47h0.1l0.3,0.2v0.1l0,0l0,0l0,0v0.1l0.1,0.2h0.1v0.1l0,0l0.1,0.2V48v0.1l-0.1,0.2v0.1v0.1h0.1l0.1,0.1l0.1,0.2v0.1V49
			v0.1v0.1v0.3l0,0v0.2v0.1v0.1v0.2v0.2l0.1,0.1l0,0l0,0v0.1v0.1l0,0v0.1v0.1l-0.2,0.1V51l-0.1,0.1v0.1v0.2v0.2l0.1,0.2l0,0l0,0l0,0
			h0.1h0.1l0.1,0.2l0,0h-0.1l0,0l0.1,0.1l0,0v0.1v0.1l-0.1,0.1l0,0v0.1l0,0l0,0l0,0h0.1h0.1l0.3,0.1l0.1,0.1l0.1,0.1l0.1,0.2
			l0.1,0.1l0.1,0.1v0.1l0.1,0.2l0.1,0.1v0.1l0.1,0.1V54l0,0h0.1l0,0l0.1,0.1v0.1l0,0v0.1l0,0l0,0l0,0l0,0l0,0v0.1h0.1v0.1l0.1-0.1
			h0.1l0.3,0.1l0.4,0.2l0.1,0.1l0.1,0.1h0.1L143,55l0.1,0.2v0.2v0.2v0.2l0.1,0.4l0.1,0.3l-0.1,0.1v0.1l0.1,0.1V57l0,0h-3.6l0.2,0.7
			L140,58v0.2v0.2v0.1v0.1l-0.1,0.2v0.1l-0.1,0.2l-0.1,0.1l-0.1,0.1l-0.1,0.1l-0.1,0.1l-0.1,0.1l-0.1,0.1l-0.1,0.1v0.1V60v0.1v0.2
			v0.2v0.1l-0.1,0.1l-0.1,0.1l-0.1,0.1l-0.1,0.1l-0.1,0.1v0.1l0,0l-0.1,0.1v0.1l-0.1,0.1l-0.1,0.1l-0.1,0.2v0.1l-0.1,0.1l-0.1,0.1
			l-0.1,0.2l-0.2,0.2l-0.1,0.1l-0.1,0.1L137,64l-0.1,0.2v0.1v0.1v0.2v0.1v0.2v0.2v0.2l0.1,0.2l0.1,0.2l0.1,0.2l0.1,0.2l0.2,0.3
			l0.1,0.1v0.1v0.2V67v0.2v0.2l0.1,0.2l0.1,0.1l0.1,0.2l0.1,0.2l0.1,0.2l0.1,0.3v0.2v0.1v0.2l0.1,0.3l0.1,0.3l0.1,0.3v0.5v0.3v0.5
			l0.1,0.5l0.1,0.3l0.1,0.4l0.1,0.2L139,73v0.2v0.1v0.1v0.4V74v0.3v0.1v0.3v0.2v0.4v0.3v0.2v0.1V76v0.1v0.1v0.2v0.3l0.1,0.3l0.1,0.2
			l0.1,0.3l0.1,0.2l0.1,0.2l0.1,0.1h2.8l0.6,0.6l1.7,1.6l1.4,1.9l2.7,3l0.3,0.9l3.4,4.2l0.1,0.2v2.3h0.5l-0.4,0.9l-0.9,2l0.6,2.1
			l0.1,0.5v0.5v0.6l-0.2,1.6v0.3v0.3v0.2l-0.1,1l-0.1,1l-0.2,0.1v0.1v0.1l0,0l0,0l0,0l0,0l0,0l0,0l0,0v0.1l0,0l0,0l0,0l0,0l0,0v0.1
			v0.2l0,0l0,0v0.1l0,0l0,0l0,0l0,0h-0.1h-0.1l-0.1,0.1h-0.1l0,0l0,0l0,0l0,0l0,0l0,0l0,0l-0.1,0.1h-0.1l0,0h-0.1l-0.1,0.1H151h-0.1
			l0,0l0,0l0,0l-0.2,0.1l0,0l0,0l0,0l0,0h-0.1h-0.1l-0.1,0.1h-0.1l0,0l0,0h-0.1l0,0l0,0l0,0l0,0l0,0h-0.1l-0.1,0.1h-0.1l0,0l0,0
			h-0.1l0,0l0,0h-0.1l0,0l-0.1,0.1v0.1v0.1l0,0l-0.2,0.1l0,0h-0.1l0,0l0,0h-0.1l0,0l0,0l-0.1-0.2l0,0v-0.1l0,0h-0.2l0,0h-0.1l0,0
			l0,0h-0.1h-0.1l0,0l0,0h-0.1l0,0h-0.1h-0.1l0,0l0,0l0,0l0,0l0,0l0,0l-0.1,0.1h-0.1l0,0l-0.1,0.1l-1,0.6l0,0l0,0l0,0v0.1l0,0l0,0
			h-0.1h-0.1l-0.1,0.1v0.1l0,0l0,0l0,0l0,0l0,0l0,0l0,0v0.1l0,0l0,0l0,0l0,0l0,0l0,0l0,0l-0.1,0.2l0,0l0,0v0.1l0,0l0,0l0,0l0,0v0.1
			l0,0l0,0l0.1,0.1l0,0l0,0l0,0l0,0l0,0l-0.1,0.2l0,0l0,0l0,0l0,0l-0.1,0.1l0,0l0,0l0,0l0,0v0.1v0.2v0.1l0,0l0,0v0.1v0.1l0,0v0.1
			l0,0v0.1l0,0l0,0l0,0h-0.1l0,0l0,0l0,0l0,0v0.1l0,0l0,0l-0.1,0.1l0,0h-0.1l-0.1,0.1l0,0l0,0l0,0l0,0l0,0l0,0H146l-0.2,0.1l0,0l0,0
			v0.2l0,0l0.1,0.1l0,0l0,0l0,0l0,0v0.1l0,0h0.1l0,0l0,0l0,0l0,0l0,0l0,0l0,0l0,0h0.1l0,0h0.1l0,0l0,0l0,0l0,0l0,0l0,0l0,0l0,0l0,0
			l0,0l0,0l0,0v0.1l0,0l0,0l0,0v0.1l0,0l0,0l0,0l0,0l0,0l0,0l0,0l0.1,0.1l0,0l0.1,0.1l0,0l0,0l0,0l0,0l0,0l0,0l0,0l0,0l0,0l0,0l0,0
			l0,0l0,0v0.1l0,0l0,0l0,0l0,0l0,0l0,0l0,0l0,0l0,0l0,0l0,0v0.2l0,0h0.1l0,0v0.1l0.1,0.2l0,0l0,0l0,0l0,0l0,0l0,0l0,0l0,0l0,0
			l-0.1,0.1l0,0l0,0l0,0l0,0l0,0l0,0l0,0l0,0l0,0l0,0l0,0l0,0l0,0l0,0l0,0l0,0l0,0l0,0l0,0v0.1l0,0v0.1v0.1l0,0l0,0l0,0l0,0l0.1,0.2
			l0,0h0.1l0,0l0,0l0,0l0,0l0,0l0,0l0,0l0,0l0,0l0,0l0,0l0,0v0.1l0,0l0,0l0,0l0,0l0,0l0,0l0,0l0,0l0,0l0,0l0,0l0,0h0.1l0,0l0,0l0,0
			l0,0l0,0l0,0l0,0l0,0l0,0l0,0l0,0l0,0l0,0l0,0l0,0l0,0l0,0l0,0l0,0l0,0l0,0l0,0l0,0l0,0l0,0l0,0l0,0l0,0l0,0l0,0v0.2l0,0l0,0l0,0
			l0,0l0,0h-0.5h-0.2h-0.4h-0.8h-0.2l0,0l0,0l0,0l0,0l0,0l0,0l0,0l0,0l0,0l0,0l0.1-0.1l0,0l0,0l0,0l0,0h0.1l0,0l-0.1-0.1l0,0l0,0
			l0,0l0,0l0,0l0,0l0,0l0,0l0,0l-0.1-0.1l0,0l0,0l0,0l0,0l0,0l0,0l0,0v-0.1l0,0l0,0l0,0l0,0l0,0l0,0v-0.1h0.1l0.1-0.1h0.1l0,0l0,0
			l0,0l0,0l0,0h0.1h0.1l0,0l0,0h0.1l0,0V110l0,0l0.1-0.2l0,0l0,0l0,0l0,0l0,0l0,0l0,0l0,0l0,0l0,0l0,0l0,0l0,0l0,0l0,0l0,0l0,0l0,0
			v-0.1v-0.2l0,0l0,0v-0.1l0,0l0,0l0,0v-0.1l0,0v-0.1v-0.1l-0.1-0.1l0,0l0,0l0,0l0,0l0,0l0,0h-0.1l0,0l0,0l0,0l0,0l0,0H145h-0.2l0,0
			l0,0l0,0l0,0l0,0l0,0h-0.1l0,0h-0.1l0,0l0,0l0,0l0,0l0,0l0,0h-0.1l0,0l0,0h-0.1l-0.1-0.1l0,0l0,0l0,0l0,0l0,0l0,0l0,0l0,0l0,0l0,0
			l0,0l0,0l0,0l0,0l0,0l0,0l0,0l0,0l0,0h-0.2l0,0H144h-0.1l0,0l0,0l0,0l0,0v-0.1l0,0l0,0l0,0l0,0l-0.1-0.1l0,0l0,0l0,0l0,0h-0.1
			h-0.1l0,0l0,0h-0.1l0,0l0,0l0,0l0,0l0,0l0,0l0,0v-0.1l0,0l0,0l0,0l0,0l-0.1-0.2l0,0l-0.1-0.2l0,0l0,0l0,0h-0.1l0,0l0,0l0,0h-0.1
			l0,0l0,0H143l0,0l0,0l0,0l0,0l0,0l0,0l0,0l0,0l0,0v-0.1V108l0,0l0,0l0,0l0,0l0,0l0,0v-0.1l-0.1-0.1l0,0h-0.1l0,0v-0.1l0,0
			l-0.2-0.1l0,0l0,0l0,0l0,0h-0.1l0,0l0,0l0,0l0,0v-0.1l0,0l0,0l0,0l-0.1-0.2l0,0l-0.1-0.1l0,0l0,0l0,0l0,0l0,0l0,0l0,0l0,0l0,0l0,0
			l0,0l0,0l0,0l0,0l0,0l0,0l0,0l-0.1-0.1l0,0l0,0l0,0h-0.1l0,0l0,0l-0.1-0.2v-0.1v-0.1l0,0l0,0l0,0l0,0l0,0l0,0l0,0l0,0l-0.1-0.1
			l0,0l0,0l0,0l0,0l0,0l0,0l0,0l0,0l0,0h-0.1h-0.1h-0.1l0,0l0,0l0,0l0,0l0,0l0,0l0,0l0,0l0,0h-0.1l0,0l0,0l0,0h-0.1l0,0l0,0
			l-0.1-0.1l0,0h-0.1l0,0l0,0l0,0l0,0l-0.1-0.1l-0.1-0.1l0,0l-0.1-0.1v-0.1V106v-0.1l0,0v-0.1h-0.1l0,0v-0.1l0,0h-0.1l0,0v-0.1l0,0
			l0,0l0,0v-0.1l0,0l0,0l-0.1-0.2l-0.1-0.1l0.1-0.1V105l0,0l0,0h0.1l0,0l0.1-0.1l0,0l0,0v-0.1l0,0l0,0l0,0l0,0l0,0l0,0l0,0v-0.1l0,0
			l0,0l0,0l0,0l-0.2-0.1l0,0h-0.1h-0.1l-0.1-0.1l0,0l-0.1-0.1l0,0l-0.1-0.1l-0.1-0.1l-0.1-0.2l0,0v-0.1l-0.1-0.1l-0.1-0.1l0,0l0,0
			l0,0h-0.2l0,0l0,0l0,0l0,0l0,0h-0.1l0,0l0,0l0,0l0,0l0,0l0,0v-0.1l0,0l0,0l0,0l0,0v-0.1l0,0l0,0l0,0l0,0l0,0l0,0l0,0v-0.1l0,0l0,0
			l0,0l0,0l0,0l0,0l0,0l0.1-0.1l0,0l0,0l0,0l0,0l0,0l0,0l0,0l0,0l0,0l0,0l0.1-0.1l0.1-0.1l0,0V103l0,0h0.1l0.2-0.1h0.1h0.1h0.1h0.1
			h0.1l0,0v-0.1l0,0l0,0l0,0l0,0l0,0l0,0v-0.1l0,0l0,0l0,0l0,0l0.2-0.1l0,0l0,0l0,0l0,0l0,0l0,0v-0.1v-0.1l0,0l0,0l0,0l0,0v-0.1l0,0
			v-0.1l0,0l0,0l0,0h0.1l0,0l-0.1-0.1l0,0h-0.1l0,0l0,0l0,0l0,0l0,0l0,0l0,0l0,0l0,0l0,0V102v-0.1l0,0l0,0v-0.1l0,0v-0.1l0,0l0,0
			l0,0l0,0l0,0l0,0l0,0l0,0l0,0l0,0l0,0l0,0l0,0l0.1-0.1l0,0v-0.1l0,0l0,0l0,0l0,0v-0.1l0,0l0,0l0,0h0.1h0.1l0,0l0,0l0,0l0.1-0.1
			l0,0l0,0l0,0h0.1l0,0l0,0l0,0l0,0l0,0l0,0l0,0l0,0l0,0v-0.1v-0.1l0,0l0,0l0,0v-0.2l0,0l0,0l0,0v-0.1l0,0l0,0v-0.1l0,0l0,0l0,0l0,0
			l0,0l0,0l0,0l0,0l0,0l0,0l0,0l0,0h0.1l0,0l0,0l0,0l0,0l0,0l0,0l0,0l0.1-0.1l0.1-0.1l0.1-0.1l0,0v-0.1v-0.1l0,0l0,0l0,0v-0.1l0,0
			l0,0l0,0V100l0,0l0,0l-0.1-0.1l0,0l0,0l0,0h-0.1l-0.1-0.1l0,0l0,0l0,0v-0.1l0,0l0,0l0,0l0,0l0,0v-0.1v-0.3l0,0l0,0l0,0l0,0l0,0
			l0,0l0,0l0,0l0,0l0,0v-0.1l0,0l0,0l0,0l-0.1-0.1l0,0l0,0l0,0l0,0l0,0V99l0,0v-0.1l0.1-0.1l0.1-0.1l0,0l0,0l0,0l0,0l0,0l0,0l0,0
			v-0.1l0,0l0,0l0,0l0,0l0,0l0,0l0,0l0,0l0,0l0,0l0,0l0,0l0,0l0,0h-0.1h-0.1l0,0l-0.1-0.1l0,0v-0.1l0,0l0,0l0,0v-0.1l0,0l0,0v-0.1
			l-0.1-0.1h-0.1l0,0l0,0l0,0l0,0l0.1-0.1l0,0l0,0l0,0l0,0l0,0l0,0l0,0l0,0v-0.1l0,0l0,0v-0.1l0,0l0,0l0,0l0,0l0,0l0,0l0,0l-0.1-0.2
			l0,0l0,0l0,0l0,0l0,0l0,0l-0.1-0.2l0,0l0,0l0,0v-0.2l0,0l0,0l-0.1-0.1l-0.1-0.1l0,0v-0.1l-0.1-0.1l0,0l0,0l0,0l0,0l0,0l0,0l0,0
			l0,0l0,0l0,0l0,0l0,0l0,0l0,0l0,0l0,0l0,0l0,0l0,0l0,0l0,0v-0.2l0,0l0,0l0,0l-0.1-0.2l0,0l0,0l0,0l0,0l0,0l0,0l-0.1-0.2h-0.1l0,0
			l0,0l0,0l0,0l0,0l0,0l0,0H140l0,0l0,0l-0.1-0.1l0,0l-0.1-0.1l0,0l0,0l0,0v-0.1l0,0l0,0l0,0l-0.1-0.1l0,0l0,0l0,0l0,0l-0.1-0.2l0,0
			l0,0l-0.1-0.1l0,0l0,0l0,0l-0.1-0.1l0,0l-0.1-0.1h-0.1l0,0l0,0l0,0h-0.1l0,0l-0.1,0.1l0,0l0,0l0,0l0,0h-0.1l0,0l0,0l0,0l0,0l0,0
			l0,0l0,0l0,0l0,0l0,0l0,0l0,0l0,0l0,0l0,0l0,0l0,0l0,0l0,0l0,0l0,0l0,0l0,0l0,0l0,0l0,0l0,0l0,0l0,0l0,0l0,0l0,0l0,0l0,0h-0.1l0,0
			l0,0l-0.1,0.1h-0.1h-0.2l0,0l0,0l-0.8,0.1l-0.3,0.1V96l-1.5-0.1l0,0h-0.1h-0.1l0,0h-0.1l-0.1,0.1l-0.1,0.2l0,0l-0.1,0.1l0,0h-0.1
			l0,0l-0.1,0.1l-0.1,0.1l-0.1,0.1l-0.2,0.1h-0.1h-0.1v-0.1h-0.1h-0.1l-0.1-0.1l-0.3-0.1l0,0v-0.1h-0.1l0,0h-0.1h-0.1l0,0l0,0v0.1
			l0,0v0.1l0,0v0.1l0,0l0.1,0.1v0.1l0,0v0.1V97h-0.1h-0.1l-0.1,0.1v0.1v0.1l-0.1,0.1H133l0,0l-0.1-0.1l-0.1-0.1l0,0h-0.1v-0.1
			l-0.1-0.1v-0.1v-0.1v-0.1l0,0l-0.1-0.1l-0.1-0.1v-0.1v-0.1v-0.1l-0.1-0.1h-0.1h-0.1H132V96v-0.1v-0.1v-0.1v-0.1v-0.1l-0.1-0.1
			h-0.1h-0.1h-0.1h-0.1h-0.1l0,0l0,0h-0.1v-0.1l0,0l0,0l0,0h-0.1v-0.1l0,0l0,0l0,0l0,0l0,0l0,0l0,0l0,0l-0.1-0.2v-0.1H131l0,0v-0.1
			v-0.1v-0.1l0,0h-0.1v-0.1v-0.1v-0.1l-0.1-0.1h-0.1l-0.1-0.2v-0.1h-0.1l0,0V94h-0.1h-0.1l-0.1-0.1v-0.1v-0.1v-0.1l-0.2-0.2
			l-0.2-0.2l0.1-0.4l0.1-0.2v-0.2l-0.1-0.2l-0.1-0.1h-0.2l-0.1-0.1l-0.1-0.2l-0.5-0.1l-0.1-0.2v-0.1l-0.1-0.1l0,0l-0.3-0.2h-0.1
			l-0.1,0.2l0,0H128l0,0l-0.2,0.2l-0.1,0.1l-0.1,0.3V92l-0.1,0.1v0.1l-0.1,0.1l0,0h-0.1l-0.2-0.2H127l-0.1-0.1v-0.1l0.1-0.2v-0.1
			v-0.1l0,0v-0.1v-0.1l-0.1-0.1h-0.2h-0.1l-0.1,0.1l0,0l-0.1-0.1v-0.1l0.1-0.1l-0.1-0.1l-0.1-0.2h-0.1h-0.1H126l-0.1-0.1l-0.1-0.1
			v-0.1l-0.1-0.1l-0.2-0.1l0,0l0,0v-0.1l0,0h-0.2l-0.1-0.1H125v0.1l0,0V90h-0.1v-0.1h-0.1h-0.1l0,0l0,0l0.1-0.1l0.1-0.2h0.1l0.1-0.1
			v-0.1l0.1-0.1h0.2h0.1v-0.1l0,0l0,0l-0.1-0.2l-0.3-0.2v-0.2l-0.1-0.1h-0.2h-0.1v0.1h-0.1l0,0h-0.1h-0.1l-0.1-0.1h-0.1l-0.1-0.1
			H124h-0.1v-0.1l0.1-0.1l-0.1-0.2l0,0h0.1l0,0l0,0h0.2l0.1,0.1l0,0h0.1l0,0h0.1l0.1-0.1v-0.2l0.1-0.1h0.2l0,0h0.1v-0.1h0.1l0.2-0.1
			l0.2-0.1l0,0v-0.1v-0.1v-0.1v-0.2l0,0l0,0h0.1h0.2h0.1v-0.1l0.3-0.4v-0.1v-0.1l0,0v-0.3l0.1-0.3v-0.1l0.1-0.2v-0.1l0,0l0.1-0.2
			v-0.1l0,0l0,0h0.1l0,0v-0.1v-0.1v-0.1l0.1-0.1h0.1l0.1-0.1l0,0v-0.1l0,0v-0.2l-0.1-0.1l-0.1-0.1l-0.1-0.1l-0.1-0.3v-0.1v-0.1v-0.1
			V83l0.1-0.1l0,0l0.1-0.1v-0.1l-0.1-0.1v-0.1l0,0l0.1-0.2l0.1-0.1v-0.1V82v-0.2v-0.1v-0.1v-0.1L123,72v-0.1v-0.1v-0.1l0,0l-0.2-0.1
			l-0.2-0.2l-0.1-0.1l-0.1-0.1l0,0v-0.1v-0.6l0.1-0.3v-0.1l0.1-0.1l0,0l0.2-0.2l0.1-0.2v-0.1v-0.3v-0.1l0,0h0.1l0.1-0.2v-0.1
			l0.2-0.1h0.1l0.1-0.1h0.1l0,0l0,0l0.1,0.1h0.1h0.1l0.2-0.1l0,0l0,0h0.2l0.2,0.1l0.1,0.1v0.1v0.2v0.1h0.1h0.1v-0.1l0.1-0.2l0,0l0,0
			l0.1-0.1l0,0l0.1-0.1v-0.1l0.3-0.3v-0.1h0.1h0.1h0.1l0,0h0.1h0.1h0.1h0.1l0,0l0.1,0.1h0.1l0,0h0.1h0.1l0.1-0.1l0.1-0.1l0,0h0.1V68
			v-0.2l0.2-0.2l0.1-0.1v-0.1l0.1-0.1h0.2l0,0v-0.1v-0.1l-0.1-0.2v-0.1l0,0h0.1l0,0h0.1l0,0v-0.1l0.1-0.1h0.1l0.2-0.2l0,0v-0.1
			l-0.1-0.2l-0.1-0.1l0,0l-0.1,0.1l0,0l-0.1-0.1h-0.2l-0.1-0.1H127h-0.1l-0.2,0.1h-0.1h-0.2h-0.2H126l-0.1,0.1l0,0v-0.3v-0.1l0,0
			l-0.1-0.1l-0.1-0.1l-0.1-0.1v-0.2v-0.1h-0.1L126,65v-0.1v-0.1l0.1-0.3v-0.2v-0.2l0,0h-0.2h-0.1h-0.1l-0.1-0.1v-0.1v-0.1v-0.1
			l0.1-0.3l0.1-0.3l0.1-0.1l0,0v-0.1l0.1-0.1l0.1-0.2l0,0v-0.1v-0.1v-0.1v-0.1l0.1-0.2v-0.1v-0.2v-0.2l-0.1-0.1l0,0v-0.1v-0.1
			l0.1-0.2l0.2-0.2l0.1-0.1v-0.1v-0.1l0,0l-0.1-0.2l0,0l0,0l-0.1-0.4v-0.1v-0.5l0.1-0.3v-0.1v-0.2l-0.1-0.2l0,0l-0.1-0.1l0,0l0,0
			l0,0l-0.1,0.1l-0.2-0.1l-0.2,0.1l0,0h-0.2v-0.4l0.1-0.1v-0.1l0,0l0.1-0.1v-0.1v-0.1l-0.1-0.1l0.1-0.2v-0.1l-0.1-0.1h-0.1l-0.1-0.2
			v-0.1v-0.1v-0.1l0.1-0.1l0,0h0.1v0.1l0,0l0.2,0.2h0.1h0.1l0,0v-0.1v-0.3l-0.1-0.1v-0.1l0.1-0.1l0,0h0.1h0.1l0.1-0.1v-0.1l-0.1-0.1
			v-0.1l0,0l0.2-0.2l0.1-0.1l0.1-0.2v-0.1V55v-0.1v-0.1l0.2-0.2v-0.1v-0.1l0.1-0.2v-0.1V54l0,0v-0.1v-0.1l0,0h-0.1h-0.2l-0.1-0.1
			v-0.1v-0.1l-0.1-0.2l-0.1-0.1l-0.1-0.1l-0.1-0.1H126v-0.2l-0.1-0.1l0,0v-0.1L126,52v-0.2l0.1-0.5v-0.1H126v-0.1l-0.2-0.2l0,0V51
			h-0.1v0.1h-0.1V51l0,0l0,0l0.2-0.2h0.1l0,0h0.1v0.1h0.2h0.1l0.1-0.1l0,0l0,0l0.1-0.3h0.3l0.1-0.1l0.2-0.1h0.2h0.1h0.1l0.2,0.1h0.1
			h0.1l0.1-0.1l0.1-0.1h0.2h0.1v-0.1h0.1l0.1-0.1l0,0v-0.1v-0.2l0,0l0,0h0.1h0.1l0.1-0.2l0.1-0.1l0.1-0.3l0.1-0.1l0,0v-0.1l0,0h0.2
			h0.1l0.2-0.2l0.1-0.1v-0.1h0.1l0.2-0.2l0,0l0,0l0.2-0.1v-0.1l0,0l-0.2,0.1H130v-0.1v-0.2l0,0v-0.1l-0.1-0.1h-0.1h-0.1l-0.1-0.2
			l-0.1-0.1h-0.1v-0.1l0.1-0.1v-0.1l-0.1-0.2l-0.2-0.1h-0.1l-0.1-0.1l-0.1-0.2l0,0v-0.1l-0.1-0.2v-0.1l0,0v-0.2l-0.1-0.1l-0.1-0.1
			v-0.1v-0.1l0,0l0.1-0.1v-0.2v-0.1l0.1-0.3v-0.1l0,0l-0.2-0.1l0,0h-0.2l-0.1-0.2l-0.1-0.1h-0.1h-0.2l-0.1-0.1l-0.1-0.2l-0.2-0.2
			h-0.1l-0.2-0.2h-0.1H127h-0.1v-0.1l0,0l0,0h-0.1l-0.2-0.2v-0.1v-0.1l0.2-0.4l0,0v-0.1v-0.2l0.1-0.2v-0.1h0.1l0.1-0.1l0.1-0.1l0,0
			v-0.1l-0.1-0.2l0,0v-0.2l0,0l-0.1-0.1v-0.1l-0.1-0.1h-0.1h-0.1l-0.2-0.1h-0.1h-0.1h-0.1l0,0l-0.1-0.3l-0.1-0.2l-0.3-0.2l-0.1-0.2
			V40v-0.2l0.1-0.3l-0.1-0.1v-0.2v-0.1l-0.2-0.2h-0.1h-0.1L125,39h-0.1h-0.1h-0.1l-0.1-0.1l0,0l-0.1,0.1l-0.1,0.1v0.1l0,0l0.1,0.1
			h-0.1v0.1v0.1l-0.1,0.2v0.1l0,0h-0.1l-0.1-0.1v-0.2l-0.1-0.2l-0.1-0.1l0,0h-0.1l-0.1,0.1v0.1h-0.1l-0.3-0.1V39v-0.1v-0.1l0,0v-0.1
			v-0.2l0,0l0.1-0.2v-0.1V38v-0.1h-0.1h-0.2l0,0l-0.1-0.1h-0.1h-0.1l-0.2,0.1h-0.1v-0.6v-0.1l0.1-0.1l0.1-0.1v-0.1l0.2-0.2l0,0l0,0
			l0,0l0.1,0.1v0.1l0.1,0.1v0.1l0,0h0.1l0.1,0.1l0.2,0.2l0.1,0.1l0,0l0.2,0.1l0.1,0.1h0.1L124.2,35.9L124.2,35.9z"/>
		<path id="Lake_1_" class="st4" d="M139.5,46c0.1,0.2,0.2,0.3,0.2,0.6c0.1,0.4,0,0.8,0.1,1.1c0.2,0.7,0.3,1.5,0.4,2.2
			c0.1,0.7-0.1,1.6,0.1,2.3c0.2,0.5,0.8,1.1,1.1,1.6c0.4,0.7,1.2,1.2,1.6,2c0.2,0.4,0.3,0.8,0.3,1.2c0,0.2,0,0.4,0,0.6
			c0,0.1-0.1,0.4-0.1,0.5v0.1v0.1v0.2v0.1v0.1v0.1v0.1V59v0.1v0.1v0.1v0.2v0.1v0.2v0.1V60v0.1l-0.1,0.1v0.1v0.1v0.2v0.1v0.1v0.1V61
			l-0.1,0.1l-0.1,0.1l-0.1,0.1v0.1v0.1v0.1l-0.1,0.1v0.1v0.1V62v0.1v0.1v0.2v0.1v0.1v0.1l-0.1,0.1v0.1l-0.1,0.1l-0.1,0.1h-0.2h-0.1
			h-0.2v0.1v0.1v0.1l-0.1,0.1l-0.1,0.1h-0.1l-0.1,0.1h-0.1l-0.1,0.1v0.1l-0.1,0.1l-0.1,0.1l-0.1,0.1l-0.1,0.1l-0.1,0.1v0.1v0.1
			l0.1,0.1l0.1,0.1v0.1V65v0.1v0.1v0.1v0.1v0.1v0.1v0.1v0.1v0.1V66v0.1v0.1v0.1v0.1v0.1v0.1v0.1v0.1l-0.1,0.1V67v0.1l0.1,0.1v0.1
			v0.1v0.1v0.1h0.1l0,0l0.1,0.1l0.1,0.1h0.1l0.1,0.1v0.2v0.1v0.1l0.1,0.1v0.1v0.1v0.1v0.1v0.1l0.1,0.1h0.1l0.1,0.1l0.1,0.1v0.1v0.2
			v0.1v0.1h0.1v0.1v0.1v0.2v0.1l-0.1,0.1l-0.1,0.1v0.1v0.1v0.1v0.1v0.1v0.2v0.1v0.1l-0.1,0.1l-0.1,0.1v0.1v0.1v0.1v0.1V72v0.1v0.1
			v0.1v0.1v0.2v0.1l0.1,0.1l0.1,0.1h0.1V73l0,0l0.1,0.1v0.1v0.1v0.1l0.1,0.1v0.1v0.1v0.1v0.1V74v0.1v0.1v0.1v0.1v0.1v0.1v0.1v0.1
			v0.1l0.1,0.1v0.1l0.1,0.1v0.1v0.1v0.1v0.1v0.1v0.1v0.1V76v0.1v0.1l0.1,0.1h0.1l0.1,0.1l0.1,0.1l0.1,0.1l0.1,0.1h0.1h0.1l0.1,0.1
			v0.1V77v0.1v0.2v0.1v0.2v0.1v0.1v0.1V78l0,0v0.1l-0.1,0.5v0.1v0.1v0.1V79v0.1v0.1v0.1v0.1l-0.1,0.1v0.1v0.1l0.1,0.1v0.1V80
			l0.1,0.1h0.1h0.1l0.1,0.1h0.1h0.1h0.1h0.1h0.2h0.1h0.1h0.2h0.1h0.1l0,0h0.1h0.2h0.1h0.1h0.1h0.1l0.1,0.1v0.1v0.2v0.1v0.1l0.1,0.1
			V81v0.1l0.1,0.1l0.1,0.1l0.1,0.1v0.1v0.1v0.1v0.1V82v0.1v0.1v0.1v0.1v0.1l0.1,0.1v0.1l0.1,0.1v0.1V83l0,0l0,0v0.1l0.1,0.1v0.1
			l0.1,0.1l0,0l0.1,0.1v0.1v0.1v0.1v0.1v0.2v0.1v0.1l0.1,0.1v0.1v0.1v0.1h0.1l0.1,0.1v0.1V85v0.1v0.1v0.1v0.1v0.1v0.1h0.1h0.1
			l-1,0.4v0.2v0.1v0.1l0.1,0.1l0.1,0.1v0.1v0.1v0.1V87v0.1v0.1l-0.1,0.1v0.1v0.1l-0.1,0.1h-0.1l-0.1,0.1h-0.1l-0.1-0.1l-0.1-0.1
			v-0.1l-0.1-0.1l-0.1-0.1h-0.1h-0.1l-0.1-0.1V87l-0.1-0.1v-0.1l-0.1-0.1l-0.1-0.1l-0.1-0.1h-0.1h-0.1v-0.1l-0.1-0.1v-0.1h-0.1
			l-0.1-0.1V86v-0.1v-0.1l-0.1-0.1v-0.1h-0.1h-0.1l-0.1-0.1v-0.1v-0.1h-0.1h-0.1l-0.1,0.1l-0.1-0.1v-0.1h-0.1l0,0h-0.1H143h-0.2
			h-0.1h-0.1v-0.1V85v-0.1v-0.1v-0.1v-0.1v-0.1v-0.1v-0.1l-0.1-0.1h-0.2v-0.1V84h-0.1l-0.1-0.1H142h-0.1h-0.1l0,0h-0.1l0,0l0,0
			l-0.1,0.1v0.1v0.1v0.1v0.1h0.1l0.1,0.1l0.1,0.1v0.1v0.1l-0.1,0.1h-0.1l-0.1,0.1v0.1l-0.1,0.1h-0.1v0.1v0.1v0.1v0.1v0.1l0.1,0.1
			v0.1l-0.1,0.1l-0.1,0.1v0.1v0.1l-0.1,0.1h-0.1h-0.2h-0.1h-0.1h-0.1h-0.1l-0.1,0.1h-0.1h-0.1h-0.1v-0.1v-0.1v-0.1v-0.1V86l-0.1-0.1
			h-0.1h-0.2h-0.1h-0.1h-0.1h-0.1l-0.2-0.2v-0.1l-0.1-0.1v-0.1v-0.1l-0.1-0.1v-0.1l-0.1-0.1h-0.1l-0.1-0.1l-0.1-0.1v-0.1v-0.1v-0.1
			v-0.1v-0.1v-0.1v-0.1V84v-0.1v-0.1l0,0l-0.1-0.1v-0.1v-0.1v-0.1l0.1-0.1v-0.1l0.1-0.1l0.1-0.1l0.1-0.1h0.1l0.1-0.1v-0.1v-0.1v-0.1
			v-0.1v-0.1v-0.1v-0.1l-0.1-0.1v-0.1l0.1-0.1l0.1-0.1l0.1-0.1v-0.1v-0.1l-0.1-0.1v-0.1l0.1-0.1l0.1-0.1v-0.1v-0.2v-0.1l-0.1-0.1
			h-0.1H139v-0.1v-0.1h-0.1l-0.1-0.1l-0.1-0.1l-0.1-0.1l-0.1-0.1v-0.1v-0.1v-0.1l-0.1-0.1l-0.1-0.1h-0.1h-0.1l0,0l0,0l-0.1,0.1
			l-0.1,0.1l-0.1,0.1h-0.1h-0.1h-0.1l-0.1-0.1h-0.1l-0.1-0.1v-0.1l-0.1-0.1v-0.1l-0.1-0.1l-0.1-0.1l0.1-1l0,0v-0.1v-0.1v-0.1v-0.1
			l-0.1-0.1l-0.1-0.1l-0.1-0.1l-0.1-0.1v-0.1V77l0,0v-0.1l-0.1-0.1v-0.1l-0.1-0.1v-0.1v-0.1v-0.1v-0.2V76v-0.1v-0.1l0.1-0.1l0.1-0.1
			l0.1-0.1v-0.1v-0.1v-0.1v-0.1V75v-0.1v-0.1v-0.2v-0.1v-0.1v-0.1v-0.1V74v-0.1v-0.1v-0.1v-0.1v-0.1v-0.1v-0.1v-0.1v-0.1V73v-0.1
			l0,0l0,0v-0.1v-0.1v-0.1v-0.1v-0.1v-0.1v-0.1v-0.1l-0.1-0.1v0.1v0.1v0.1h-0.1v-0.1v-0.1V72v-0.1v-0.1v-0.1h-0.1l-0.1-0.1h-0.1
			l-0.1-0.1l-0.1-0.1v-0.1v-0.1v-0.1V71v-0.1v-0.1v-0.1v-0.1v-0.1l-0.1-0.1h-0.1h-0.1l-0.1-0.1v-0.1l-0.1-0.1l-0.1-0.1v-0.1
			l-0.1-0.1v-0.1l-0.1-0.1v-0.1v-0.1v-0.1v-0.1v-0.1V69v-0.2v-0.1v-0.1v-0.2v-0.1v-0.1l0.1-0.1V68v-0.1v-0.1l0,0v-0.1v-0.1v-0.1
			l-0.1-0.1v-0.1L135,67v-0.1v-0.1v-0.2v-0.1v-0.1l-0.1-0.1h-0.1h-0.1h-0.2h-0.1l-0.1,0.1h-0.1l0,0v-0.1l-0.1-0.1H134l-0.1-0.2v-0.2
			v-0.1v-0.1l-0.1-0.1v-0.1v-0.1v-0.1v-0.1V65v-0.1v-0.1v-0.1v-0.1l0,0v-0.1v-0.1v-0.1v-0.1v-0.1V64v-0.1v-0.1v-0.1v-0.1v-0.1v-0.1
			v-0.1v-0.1l-0.1-0.1V63v-0.1v-0.1v-0.1v-0.1l0,0l0.1-0.1l0.1-0.1l0.1-0.1l0.1-0.1l0.1-0.1l0.1-0.1h0.1l0.1-0.1h0.1h0.1l0.1-0.1
			l0.1-0.1l0.1-0.1l0,0v-0.1v-0.1v-0.1v-0.1v-0.1V61v-0.1v-0.1l0.1-0.1v-0.1l0.1-0.1l0.1-0.1h0.1l0.1-0.1h0.1v-0.1v-0.1V60l0.1-0.1
			h0.1l0.1-0.1h0.1h0.1l0.1-0.1l0.1-0.1v-0.1v-0.1v-0.1v-0.1v-0.1v-0.2v-0.1l-0.1-0.1v-0.1l0,0v-0.1l-0.1-0.1v-0.1v-0.1v-0.1V58
			v-0.1v-0.1l-0.1-0.1v-0.1v-0.1l0,0v-0.1v-0.1v-0.1v-0.1V57v-0.1v-0.1v-0.2v-0.1v-0.1v-0.1v-0.1v-0.1V56v-0.1v-0.1v-0.1l-0.1-0.1
			h-0.1l-0.1-0.1h-0.1v-0.1v-0.1v-0.1v-0.1V55v-0.1v-0.1h-0.1v-0.1v-0.1v-0.1v-0.1v-0.1l0.1-0.1l0.1-0.1V54v-0.1v-0.1l0,0l-0.1-0.1
			v-0.1v-0.1v-0.1v-0.1v-0.2V53v-0.2v-0.1v-0.1v-0.1l0,0v-0.1v-0.1v-0.1v-0.1V52v-0.1v-0.1v-0.1v-0.1v-0.1v-0.1v-0.1v-0.1v-0.1V51
			v-0.1v-0.1v-0.1v-0.1v-0.2v-0.1v-0.1v-0.1V50v-0.1l-0.1-0.1v-0.1v-0.1v-0.1v-0.1v-0.1v-0.1v-0.1V49v-0.1v-0.1v-0.1l-0.1-0.1
			l-0.1-0.1v-0.1v-0.1v-0.1l0.1-0.1l0.1-0.1l0.1-0.1l0.1-0.1v-0.1v-0.1l-0.1-0.1v-0.1l0,0v-0.1v-0.1l0.1-0.1l0.1-0.1h0.1h0.1h0.1
			v-0.1l-0.1-0.1l-0.1-0.1v-0.1v-0.1v-0.1v-0.1v-0.1l-0.1-0.1l-0.1-0.1l-0.1-0.1l-0.1-0.1v-0.1l-0.1-0.1l-0.1-0.1v-0.1v-0.1
			l-0.1-0.1l-0.1-0.1H135h-0.1l-0.1-0.1l-0.1-0.1l-0.1-0.1l-0.1-0.1l-0.1-0.1l-0.1-0.1l-0.1-0.1l-0.1-0.1l-0.1-0.1l-0.1-0.1
			l-0.1-0.1l-0.1-0.1l-0.1-0.1l-0.1-0.1l-0.1-0.1l-0.1-0.1l-0.1-0.1v-0.1v-0.1v-0.1l-0.1-0.1v-0.1l-0.1-0.1v-0.1l-0.1-0.1v-0.1v-0.1
			l0,0v-0.1v-0.1v-0.1V42v-0.1v-0.1v-0.1l0,0v-0.2v-0.2v-0.1h-0.1h-0.1v-0.1V41v-0.1l-0.1-0.1l-0.1-0.1v-0.1v-0.1v-0.1v-0.2v-0.1V40
			v-0.1l-0.1-0.1v-0.1v-0.1l0.1-0.1v-0.1l0,0l0.1-0.1l0,0l0,0l0,0l0,0v-0.1l0,0l0,0v-0.1V39l0,0v-0.1l0,0v-0.1l0,0v-0.1v-0.1l0,0
			v-0.1v-0.1l0,0v-0.1l0,0l0,0l0,0l0,0v-0.1v-0.1l0,0V38v-0.1l0,0l0,0v-0.1l0,0l0,0l0,0l0,0l0,0l0,0l0,0l0,0l0,0l0,0l0,0l0,0l0,0
			l0,0l0,0l0,0h0.1h0.1l0,0h0.1h0.1l0,0l0,0l0,0l0,0l0,0l0,0l0,0h0.1l0,0v0.1l0,0l0,0l0,0l0,0l0,0l0,0l0,0V38l0,0l0,0l0,0l0,0l0,0
			l0,0l0,0c0.4,0.5,1,0.5,1.5,0.9c1,0.8,1.8,1.8,2.5,2.8c0.5,0.7,0.9,2,0.9,2.8c0,0.6-0.3,1.1-0.3,1.7
			C139.2,45.4,139.3,45.7,139.5,46z M139.6,62.7C139.6,62.7,139.7,62.7,139.6,62.7c0.1,0,0.1-0.1,0-0.2c0-0.1-0.1-0.2-0.2-0.1
			C139.4,62.5,139.5,62.5,139.6,62.7C139.6,62.6,139.6,62.7,139.6,62.7z M140.7,62.7c-0.1,0-0.1,0.3-0.1,0.4c-0.1,0.1,0,0.2,0.1,0.2
			l0.2-0.1l0,0V63c0-0.1,0.1-0.1,0.1-0.2C141,62.8,140.8,62.7,140.7,62.7C140.8,62.7,140.8,62.7,140.7,62.7z"/>
	</g>
</g>
</svg>
