<?xml version="1.0" encoding="utf-8"?>
<!-- Generator: Adobe Illustrator 25.2.2, SVG Export Plug-In . SVG Version: 6.00 Build 0)  -->
<svg version="1.1" id="Layer_1" xmlns="http://www.w3.org/2000/svg" xmlns:xlink="http://www.w3.org/1999/xlink" x="0px" y="0px"
	 viewBox="0 0 220.2 220.3" style="enable-background:new 0 0 220.2 220.3;" xml:space="preserve">
<style type="text/css">
	.st0{fill:#49A6F2;}
</style>
<g>
	<path class="st0" d="M174.1,82.7c-2,0-3.7,1.7-3.7,3.7v3.7h-10.2c-0.9-7.9-4-15.1-8.7-21l7.2-7.2l2.9,2.5c1.4,1.4,3.8,1.4,5.2,0
		s1.4-3.8,0-5.2l-12.3-12.3c-1.4-1.4-3.8-1.4-5.2,0s-1.4,3.8,0,5.2l2.5,2.9l-7.2,7.2c-5.9-4.7-13.1-7.8-21-8.7V43.1h3.7
		c2,0,3.7-1.7,3.7-3.7s-1.7-3.7-3.7-3.7h-17.4c-2,0-3.7,1.7-3.7,3.7s1.7,3.7,3.7,3.7h3.7v10.2c-7.9,0.9-15.1,4-21,8.7l-7.2-7.2
		l2.5-2.9c1.4-1.4,1.4-3.8,0-5.2s-3.8-1.4-5.2,0L70.5,59c-1.4,1.4-1.4,3.8,0,5.2c1.4,1.4,3.8,1.4,5.2,0l2.6-2.5l7.2,7.2
		c-4.7,5.9-7.8,13.1-8.7,21H66.6v-3.7c0-2-1.7-3.7-3.7-3.7s-3.7,1.8-3.7,3.9v17.3c0,2,1.7,3.7,3.7,3.7s3.7-1.7,3.7-3.7V100h10.2
		c0.9,7.9,4,15.1,8.7,21l-7.2,7.2l-2.9-2.5c-1.4-1.4-3.8-1.4-5.2,0s-1.4,3.8,0,5.2l12.3,12.4c1.4,1.4,3.8,1.4,5.2,0
		c1.4-1.4,1.4-3.8,0-5.2l-2.5-2.9l7.2-7.2c5.9,4.7,13.1,7.8,21,8.7v10.2h-3.7c-2,0-3.7,1.7-3.7,3.7s1.7,3.7,3.7,3.7H127
		c2,0,3.7-1.7,3.7-3.7s-1.7-3.7-3.7-3.7h-3.7v-10.2c7.9-0.9,15.1-4,21-8.7l7.2,7.2l-2.5,2.9c-1.4,1.4-1.4,3.8,0,5.2s3.8,1.4,5.2,0
		l12.3-12.3c1.4-1.4,1.4-3.8,0-5.2s-3.8-1.4-5.2,0l-2.9,2.5l-7.2-7.2c4.7-5.9,7.8-13.1,8.7-21h10.2v3.7c0,2,1.7,3.7,3.7,3.7
		s3.7-1.7,3.7-3.7V86.4C177.8,84.3,176.1,82.7,174.1,82.7z M104.9,85.1c-4.8,0-8.6-3.9-8.6-8.6c0-4.8,3.9-8.6,8.6-8.6
		s8.6,3.9,8.6,8.6C113.6,81.3,109.7,85.1,104.9,85.1z M133.3,117.2c-2.7,0-4.9-2.2-4.9-4.9s2.2-4.9,4.9-4.9c2.7,0,4.9,2.2,4.9,4.9
		S136,117.2,133.3,117.2z"/>
	<path class="st0" d="M79,161.9c-0.6,0-1.2,0.5-1.2,1.2v1.2h-3.2c-0.3-2.5-1.3-4.8-2.8-6.6l2.3-2.3l0.9,0.8c0.5,0.5,1.2,0.5,1.7,0
		s0.5-1.2,0-1.7l-3.9-3.9c-0.5-0.5-1.2-0.5-1.7,0s-0.5,1.2,0,1.7l0.8,0.9l-2.3,2.3c-1.9-1.5-4.2-2.5-6.6-2.8v-3.2h1.2
		c0.6,0,1.2-0.5,1.2-1.2c0-0.6-0.5-1.2-1.2-1.2h-5.5c-0.6,0-1.2,0.5-1.2,1.2c0,0.6,0.5,1.2,1.2,1.2h1.2v3.2
		c-2.5,0.3-4.8,1.3-6.6,2.8l-2.3-2.3l0.8-0.9c0.5-0.5,0.5-1.2,0-1.7s-1.2-0.5-1.7,0l-3.8,3.9c-0.5,0.5-0.5,1.2,0,1.7s1.2,0.5,1.7,0
		l0.8-0.8l2.3,2.3c-1.5,1.9-2.5,4.2-2.8,6.6h-3.2v-1.2c0-0.6-0.5-1.2-1.2-1.2c-0.6,0-1.2,0.5-1.2,1.2v5.5c0,0.6,0.5,1.2,1.2,1.2
		c0.6,0,1.2-0.5,1.2-1.2v-1.2h3.2c0.3,2.5,1.3,4.8,2.8,6.6l-2.3,2.3l-0.9-0.8c-0.5-0.5-1.2-0.5-1.7,0s-0.5,1.2,0,1.7l3.9,3.9
		c0.5,0.5,1.2,0.5,1.7,0s0.5-1.2,0-1.7l-0.8-0.9l2.3-2.3c1.9,1.5,4.2,2.5,6.6,2.8v3.2h-1.2c-0.6,0-1.2,0.5-1.2,1.2
		c0,0.6,0.5,1.2,1.2,1.2h5.5c0.6,0,1.2-0.5,1.2-1.2c0-0.6-0.5-1.2-1.2-1.2H63V179c2.5-0.3,4.8-1.3,6.6-2.8l2.3,2.3l-0.8,0.9
		c-0.5,0.5-0.5,1.2,0,1.7s1.2,0.5,1.7,0l3.9-3.9c0.5-0.5,0.5-1.2,0-1.7s-1.2-0.5-1.7,0l-0.9,0.8l-2.3-2.3c1.5-1.9,2.5-4.2,2.8-6.6
		h3.2v1.2c0,0.6,0.5,1.2,1.2,1.2s1.2-0.5,1.2-1.2v-5.5C80.2,162.5,79.6,161.9,79,161.9z M57.1,162.7c-1.5,0-2.7-1.2-2.7-2.7
		s1.2-2.7,2.7-2.7s2.7,1.2,2.7,2.7S58.7,162.7,57.1,162.7z M66.1,172.9c-0.9,0-1.6-0.7-1.6-1.6c0-0.9,0.7-1.6,1.6-1.6
		s1.6,0.7,1.6,1.6C67.7,172.2,67,172.9,66.1,172.9z"/>
</g>
</svg>
