<?xml version="1.0" encoding="utf-8"?>
<!-- Generator: Adobe Illustrator 23.0.1, SVG Export Plug-In . SVG Version: 6.00 Build 0)  -->
<svg version="1.1" id="Layer_1" xmlns="http://www.w3.org/2000/svg" xmlns:xlink="http://www.w3.org/1999/xlink" x="0px" y="0px"
	 viewBox="0 0 241.9 217.6" style="enable-background:new 0 0 241.9 217.6;" xml:space="preserve">
<style type="text/css">
	.st0{fill:none;stroke:#85c1fd;stroke-width:0.2;stroke-linecap:round;stroke-linejoin:round;stroke-dasharray:0.32;}
	.st1{fill:none;stroke:#FFFFFF;stroke-width:0.2;stroke-linecap:round;stroke-linejoin:round;stroke-miterlimit:10;}
	.st2{fill:#85c1fd;stroke:#85c1fd;stroke-width:0.5;}
</style>
<title>bangladesh</title>
<g>
	<path class="st0" d="M89.2,105.9l-0.1,0.2l-0.4,0.5l0.1,0.3l0.1,0.2H89l0.3,0.4v0.3l0.1,0.2l0.1,0.1h0.1v0.1l0.4,0.3l0.4,0.3
		l0.3,0.4v0.1v0.1l0.4,0.3l0.1,0.1h0.1l0.1,0.1h0.1h0.1h0.1h0.1l0.5,0.8l0.6,0.4l0.3,0.2h0.1l0.1,0.1h0.1l0.1-0.1l0.4-0.1l0.4-0.1
		l0.1-0.1V111l0.3-0.3l0.1-0.1h0.2h0.3h0.1l0.8-0.2h0.1h0.2l0.3,0.1l0.3,0.2H97h0.6l0.4-0.1l0.1-0.1h0.1l0.1,0.1l0.2,0.1h0.3h0.1
		h0.1H99v-0.1l0.1-0.1v-0.1l0.1-0.1l0.3-0.2l0.1-0.1h0.1h0.3h0.1h0.2h0.1l0.3-1.1v-0.1h-0.1v-0.1l0.1-0.2l0.4-0.2l0.7-0.3l0.2-0.1
		l0.8,0.1l0.9-0.1h0.4h0.1l0.2,0.1l0.1,0.1l0.3,0.4l1,0.3h0.1l0.1,0.1l0.4,0.3h0.5l0.2,0.2h0.1v0.1h0.1l0.6-0.4l0.2-0.2l0.1-0.2
		l0.1-0.1h0.1l0.1-0.2h0.1h0.2l0.1-0.1h0.1h0.1l0.3-0.1l0.6,0.2l0.3-0.2l0.4-0.1l0.1-0.1v0.1h0.1h0.1l0.1,0.1l0.1,0.1l0.1,0.1h0.1
		h0.1h0.1l0.1-0.1l0.4-0.8l0.2-0.6l0.4-0.3l0.3-0.2l0.1-0.1v-0.4V106h-0.1v0.1l-0.2-0.2l-0.2-0.3l0.1-0.1v-0.2l0.1-0.2l0.3-0.1h0.2
		h0.1l0.1-0.1l0.3-0.3l0.4-0.3l0.4-0.3h0.1h0.1V104l0.1-0.1l-0.2-0.3h-0.1l-0.1-0.1h-0.2l-0.1,0.1l-0.1-0.1l0.2-1.1l0.1-0.3v-0.1
		l0.4-0.4l0.3-0.1v0.1l0.1,0.1h0.3l0.4-0.2l0.1-0.1l0.1-0.6l-0.1-0.1h0.1v-0.4l0.1-0.1l0.1-0.3V100h0.1h0.1h0.1v-0.1v-0.1l-0.1-0.3
		l-0.1-0.2v-0.1v-0.1v-0.2v-0.2v-0.2l0.2-0.5l0.2-1V97v-0.1l0.1-0.3h0.1l0.3-0.3h0.1l0.4-0.4v-0.1l0.1-0.1v-0.1l0.4,0.2h0.1l0.2,0.2
		l0.1,0.1h0.1l0.3-0.3l0.1-0.1h0.7l0.5,0.2v0.1h0.1h0.1l0.3-0.1v-0.1h0.5h0.2h0.6l0.2-0.1h0.1h0.1h0.1l0.5,0.1h0.5h0.1l0.1-0.1h0.1
		h0.1l0.7,0.4v0.1l0.1,0.1l0.1,0.1l0.2,0.1h0.1h0.1h0.3 M124.9,96.6h0.2h0.5h0.2h0.1"/>
	<polyline class="st0" points="113.6,93.4 113.8,93.6 114,93.8 114.1,94.3 114.2,94.7 114.2,94.8 114.2,94.9 114.1,94.9 114.1,95 
		114.1,95.4 114.2,95.5 114.3,95.6 114.4,95.7 114.5,95.7 114.5,95.8 114.6,95.8 114.6,95.9 114.5,96 114.4,96 113.4,95.7 
		113.4,95.7 113.3,95.6 113.1,94.5 113.1,94.2 113.1,94.1 113.1,93.8 	"/>
	<polyline class="st0" points="113.1,93.5 112.9,93.6 112.9,93.7 112.8,93.7 112.7,93.8 112.6,93.8 112.5,93.8 112.5,93.8 
		112.4,93.8 112.3,93.8 112,94.1 112,94.2 111.9,94.2 112,94.2 112,94.3 112.1,94.9 112.2,95.2 112.2,95.3 112.2,95.4 112.3,95.5 
		112.4,95.5 112.4,95.8 112.1,96.8 112,96.8 111.7,97.2 111.5,97.2 111.4,97.3 111.3,97.3 111.2,97.2 111.2,97.2 110.6,96.5 
		110.3,96.3 110,95.9 109.9,95.5 109.7,95.2 109.6,95.1 109.6,95 109.4,94.9 109.3,94.9 109.2,94.9 108.9,94.8 	"/>
	<polyline class="st0" points="46.9,86.7 46.9,86.6 47.1,86.4 47.2,86 47.2,85.9 47.1,85.8 47.2,85.4 47.3,85.4 47.5,85.4 
		47.6,85.4 47.8,85.8 47.8,85.9 48,86.2 48.1,86.2 48.3,86.2 49.2,86.5 49.4,86.5 49.5,86.4 49.7,86.3 50,86.6 50.1,87.1 50.1,87.2 
		50.1,87.3 50.1,87.5 50.5,87.5 50.8,87.3 51.2,87.4 51.2,87.7 51.2,88 51.2,88.3 51.3,88.6 51.2,88.9 51.1,88.9 51,89 50.7,89.4 
		50.7,89.5 51.1,89.8 51.4,90.2 51.5,90.1 51.6,90.1 51.8,90 52,89.8 52.1,89.4 52.7,89.1 53,89.1 53.3,88.9 53.5,89 53.7,89.2 
		53.7,89.3 53.9,89.6 54.1,89.5 54.2,89.5 54.3,89.7 54.4,89.7 54.9,89.1 54.9,89 54.9,88.9 54.9,88.7 55,88.6 55.1,88.4 55.3,88.4 
		55.6,87.8 55.6,87.5 	"/>
	<path class="st0" d="M157.2,154.9l-0.1,0.3l0.1,0.1h0.3l0.3-0.1l0.2,0.1l0.1,0.2v0.2l-0.1,0.2l-0.3,0.1h-0.3l-0.2,0.1l-0.1,0.2
		l0.1,0.2l0.2,0.3l0.2,0.2l0.4,0.3 M155,155.9l-0.1,0.4l-0.4,0.6l-0.1,0.2h-0.3l-0.1-0.2l-0.1-0.1h-0.2l-0.2,0.1h-0.2l-0.3-0.1
		l-0.1-0.3"/>
	<polyline class="st1" points="228.4,155.7 228.4,145.8 228.4,145.7 228.4,145.8 228.2,145.8 228,145.6 227.9,145.3 227.8,145.3 
		227.8,145 227.8,144.8 227.8,144.6 228,144.5 228.2,144 228.2,143.9 228.1,143.8 228.2,143.7 228.3,143.3 228.4,143.3 228.4,143.3 
		228.4,141.8 228.4,136.9 228.4,126.7 228.4,126.7 	"/>
	<polyline class="st0" points="59.3,63.5 59.4,63.4 59.3,63 59.3,62.9 59.2,62.9 59.2,62.8 59,62.7 58.4,61.2 58.4,61.1 58.6,60.3 
		58.7,60 58.6,59.9 58,59.2 57.8,59 57.5,59 57.4,58.9 57.5,58.6 57.5,58.5 57.6,58.3 57.4,57.6 57.1,56.9 57,56.8 56.8,56.2 
		56.8,56.1 56.8,56.1 56.8,55.8 56.8,55.3 56.9,54.9 57,54.9 57.2,55 57.3,55 57.6,54.9 57.8,54.9 57.9,54.7 57.8,54.6 57.8,54.5 
		58,54.3 58.5,54 58.6,53.7 58.6,53.5 58.7,53.3 58.8,53.2 59,53.1 59.3,52.9 59.4,52.4 59.4,52.3 59.4,52.2 59.5,52.1 59.6,52.1 
		59.8,52 60,51.8 60.1,51.7 60.3,51.7 60.5,51.6 60.8,51.6 60.8,51.5 61.1,51.5 61.4,51.5 61.7,51.4 61.9,51.2 62.2,51.1 62.6,51 
		62.8,51 62.9,51.3 63.8,51.5 64.3,51.5 64.4,51.4 64.6,51.3 65.3,51.2 66,51.4 66.1,51.4 66.2,51.5 66.6,51.4 66.7,51.4 66.7,51.2 
		66.9,51.1 67.7,51 68.1,51.1 68.2,51.2 68.4,51.3 68.6,51.4 68.5,51.5 68.5,51.7 68.6,51.7 68.7,52 68.9,52.1 69.1,52 69.2,51.9 
		69.3,51.7 69.4,51.5 69.5,51.5 	"/>
	<polyline class="st0" points="69.5,51.5 69.5,51.7 69.8,52.3 70.2,52.5 70.5,52.5 70.7,52.4 71.1,52.3 71.8,52.5 72,52.7 72,52.9 
		72.1,53 72.5,53.2 72.6,53.3 72.7,53.3 73.3,53.3 73.4,53.2 73.8,52.8 73.7,52.6 73.5,52.4 73.2,52 73,51.6 73,51.4 73.4,51.3 
		73.6,51.3 73.7,51.4 74,51.3 74.1,51.2 74.1,51 74.1,50.9 74.2,50.9 74.3,50.9 74.4,51 74.8,50.9 74.9,50.9 74.9,50.8 75.1,50.5 
		75.4,50.3 75.6,50.8 75.8,50.9 76.1,51.1 76.3,51.2 76.3,51.3 76.5,51.5 76.8,51.7 77.9,51.2 78.2,51 78.5,50.9 78.6,50.7 79,50.4 
		79.5,50.2 79.9,49.9 	"/>
	<polyline class="st0" points="79.9,49.9 79.9,50.1 79.8,50.6 79.7,50.9 79.5,51.1 79.4,51.1 79.3,51.1 79.2,51.1 79.1,51.6 
		79.2,51.7 79.2,51.9 79,52.3 79,52.4 79.1,53 79.2,53 79.5,53.3 79.5,53.8 79.5,53.9 80,54.8 80.2,55.1 80.2,55.8 80.1,56.1 
		79.6,57.4 79.6,57.6 79.7,58 79.7,58.1 80,58.3 80,59.2 80,59.4 79.9,60.3 79.8,60.4 79.3,60.8 79.2,60.6 79.1,60.5 79,60.5 
		78.7,60.5 78.5,60.5 78.3,60.6 78.1,60.7 77.9,61 77.8,61.1 77.7,61.2 77.3,61.5 77.2,61.6 77.1,61.6 76.8,61.6 76.5,61.6 
		76.3,61.9 76.2,62 76.1,62 75.8,62 74.9,61.9 74.8,62 75,62.4 74.9,62.7 74.9,62.8 74.9,63.2 75,63.4 74.8,63.4 74.3,63.3 
		74.1,63.2 73.4,62.9 73.2,62.9 73.1,63 73.1,63.2 72.8,63.4 72.7,63.4 72.6,63.4 72.5,63.4 72.3,63.4 72.2,63.6 72.2,63.7 
		72.5,63.9 72.6,64.4 72.5,64.8 72.4,65 72.7,65.4 72.7,65.5 73.5,65.9 73.7,65.9 73.8,66.1 74,66.4 73.9,66.4 73.8,66.4 73.6,66.4 
		73.6,66.7 73.8,66.9 73.9,67.3 73.4,67.2 72.8,66.9 72.4,66.7 72,66.3 71.9,66.3 71.8,66.3 71.6,66.4 71.3,66.4 71.1,66.5 71,66.5 
		70.9,66.6 70.5,66.5 70.2,66.8 70.2,66.9 69.9,66.9 69.6,66.8 69.5,66.8 69.4,66.8 68.9,66.5 68.8,66.7 68.8,66.8 68.7,66.9 
		68.8,67.1 68.8,67.1 68.9,67.5 68.9,67.6 68.8,67.7 68.5,67.8 68.3,67.9 68.2,68 68.2,68.1 68.2,68.2 68.1,68.4 68,68.5 67.9,68.5 
		67.6,68.5 67.5,68.5 67.4,68.5 67.3,68.5 67.2,68.5 67.1,68.4 66.7,68.4 66.7,68.6 66.6,68.7 66.3,68.9 66,68.9 	"/>
	<polyline class="st0" points="46.8,24.8 46.9,25 47.1,25.1 47.4,24.8 47.5,24.7 47.6,24.6 47.7,24.6 47.9,24.7 47.9,24.8 48,24.9 
		48.1,25 48.2,25.3 48.3,25.6 48.7,25.8 48.9,25.7 49,25.7 48.9,26 48.8,26.3 48.6,26.9 48.5,27 48.3,27.2 48.2,27.4 48.2,27.5 
		48.3,28.1 48.5,28.4 48.6,28.5 48.9,28.7 49,28.7 49,28.4 49.2,28.4 49.5,28.5 49.7,28.6 49.8,28.7 49.9,28.5 50.1,28.3 50.2,28.3 
		50.3,28.2 50.4,28.1 50.6,28.1 50.9,28.1 51.1,28.2 51.2,28.3 51.8,28.2 52,28.3 52,28.3 52,28.5 52,28.7 51.8,28.8 51.7,29.2 
		51.7,29.3 52,30.4 52.1,30.4 52.3,30.6 52.3,30.8 52.2,30.9 52.1,31 51.9,31.3 51.9,31.4 51.9,31.9 52,32.2 51.9,32.5 51.6,32.8 
		51.4,32.9 51.2,33 51.1,33.4 51.1,33.4 51.2,33.5 51.2,33.6 51.4,33.7 51.6,34.5 51.5,34.9 51.4,35.2 51.2,35.5 51.2,35.6 
		51.1,35.6 50.9,35.7 50.7,36.2 50.7,36.3 50.7,36.4 50.5,36.9 50.5,37 50.4,37 50.5,37.2 50.5,37.2 50.6,37.2 50.7,37.2 50.9,37.3 
		51.1,37.5 51.5,37.7 51.8,37.3 52.1,37 52.4,36.8 53,36.4 53.4,36.2 53.3,36.1 53.4,35.9 53.6,35.7 53.8,35.7 54.1,35.4 54.2,35.1 
		54.2,35 54.6,35.1 54.7,35.1 54.9,35.1 55.2,34.7 55.5,34.4 55.6,34.3 55.6,34.3 55.7,34.3 55.9,34.4 56,34.4 56.2,34.7 56.4,34.9 
		56.5,35 57.1,35.4 57.3,35.4 57.5,35.4 57.7,35.4 57.9,35.6 57.9,35.6 57.9,35.8 58.3,36.1 58.5,35.8 59,35.5 59,35.4 59.4,35.3 
		59.5,35.3 59.7,35.4 59.9,35.3 60,35.1 60,34.8 60.2,34.6 60.3,34.6 60.8,34.1 60.8,33.8 60.8,33.6 60.8,33.5 61,33.4 61.3,33.4 
		61.5,33.4 61.6,33.4 61.9,33.4 62.4,33.5 63,33.8 63.4,33.9 63.8,33.8 64,33.8 64.3,34.2 64.5,34.4 64.5,34.6 64.5,34.8 65,35.2 
		65.1,35.3 65.2,35.6 65.3,35.8 65.3,35.9 65.3,36 65.6,36.1 65.9,36.5 66,36.6 66.1,36.9 66.9,37.2 67.2,37.4 67.3,37.5 67.6,37.9 
		67.7,38 67.7,38.1 67.7,38.5 67.7,38.6 67.7,38.9 67.6,39.1 67.6,39.2 67.5,39.3 67.5,39.5 67.4,39.7 67.4,39.9 67.4,39.9 
		67.5,40.1 67.5,40.8 67.5,40.9 67.5,41.1 67.5,41.3 67.5,41.4 67.4,41.6 67.5,41.8 68.2,42.6 68.3,42.9 68.4,42.9 68.5,42.9 
		68.6,43 68.7,43.1 68.7,43.4 68.8,43.6 68.8,43.7 68.9,43.7 69.4,43.9 69.5,43.9 69.7,43.9 69.7,44 69.9,44 70.5,44.1 70.5,44.2 
		70.3,44.2 70.2,44.3 70.1,44.4 70.3,44.9 70.4,45 70.5,45.2 70.7,45.2 70.8,45.1 71.1,45.2 71.2,45.4 71.3,45.6 71.4,45.8 71.3,46 
		71.2,46.5 71.2,46.6 71.1,46.7 71.1,46.8 70.9,46.8 70.6,47.8 70.6,48.1 70.9,48.3 71.1,48.6 71.1,49 71.1,49.1 71,49.2 70.8,49.4 
		70.9,50.2 70.9,50.3 70.9,50.5 70.8,50.7 70.7,50.8 70.5,51 70.2,51.2 69.8,51.4 69.6,51.5 69.5,51.5 	"/>
	<polyline class="st0" points="40.8,69.3 40.8,69.1 40.9,69 40.9,68.8 41,68.7 41.1,68.5 41,68.1 40.9,68 40.9,67.8 41.1,67.5 
		41.3,67.3 41.5,67.3 41.7,67.1 42.1,66.5 42.3,66.3 42.4,66.3 42.5,66.2 42.6,66.2 42.9,65.9 43.1,65.7 43.1,65.6 43.3,65.1 
		43.5,64.8 43.9,63.8 44.4,63.5 44.7,63 44.8,62.7 44.7,62.7 44.5,62.4 44.4,61.9 44.4,61.4 44.5,61.2 44.1,61.1 43.9,60.5 
		43.9,60.5 43.8,59.7 43.9,59.3 43.2,59 43,58.6 42.3,57.2 42.4,56.7 42.6,56.6 42.8,56.6 42.8,56.5 42.9,56.4 42.9,55.6 42.8,55.4 
		42.7,55.1 42.7,54.9 42.6,54.7 42.6,54.5 42.7,54.2 42.4,54 42.1,53.3 41.9,53 41.7,52.7 41.7,52.5 41.4,52.4 41,52.2 40.9,52.1 
		40.2,51.6 40,51.3 39.9,51 39.8,50.9 39.5,50.4 39.4,50.3 39.3,50.2 39.2,50.2 38.9,49.9 38.7,49.5 38.6,49.1 38.6,49 38.6,48.9 
		38.5,48.7 38.4,48.6 38.4,48.2 38.4,47.7 38.4,47.6 38.5,47.6 39.2,47.3 39.4,47.3 39.4,47 39.7,46.9 39.9,47 40,47.1 40.1,47 
		40.1,46.9 40.1,46.7 40.1,46.6 40.1,46.5 40,46.2 40,46.1 40,45.9 40,45.8 40,45.7 40,45.5 40,45.4 40.2,44.3 40.2,43.9 40.5,43.7 
		40.6,43.6 40.9,43.7 41,43.7 41.3,43.6 41.6,43 41.6,42.4 41.3,42.2 41.1,42.3 40.9,42.6 40.6,42.9 40.5,42.9 40.4,42.4 40.4,42.2 
		40,41.4 39.8,41.1 39.6,40.8 39.7,40.7 39.9,40.4 39.9,40.2 39.7,39.9 39.5,39.6 39.4,39.5 39.3,39.5 39.1,39.5 38.8,39.1 38.7,39 
		38.4,38.6 38.2,38.5 37.9,38.3 37.7,37.8 37.3,37.4 37.2,37.2 36.8,37 36.5,36.7 36.5,36.6 36.1,35.9 36.2,35.6 36.3,35.5 
		36.4,35.4 36.1,34.7 35.9,34.5 35.8,34.2 35.8,34.1 35.8,34.1 35.8,33.9 35.6,33.8 35.5,33.9 35.4,34.1 35.3,34.1 35.2,34.1 
		35,33.8 35,33.6 35,33.5 35,33.4 34.8,33.1 34.6,33 34.5,32.9 34.6,32.7 34.7,32.8 35,33.1 35.2,33.1 35.5,33 35.8,32.8 35.9,32.7 
		36.4,32.7 36.5,32.7 36.5,32.6 36.5,32.5 36.5,32.3 36.4,31.4 36.2,31.3 36,31.2 36.4,30.7 36.5,30.5 36.7,30.4 36.7,30.1 
		36.7,29.9 36.7,29.6 36.5,29.2 36.5,29 36.9,28.5 36.9,28.3 37.1,28.3 37.3,28.2 37.6,28 37.6,27.9 37.6,27.6 37.7,27.3 37.8,27.3 
		38,27.4 38.2,27.5 38.4,27.6 38.6,27.8 38.9,27.7 39.2,27.7 39.5,27.7 39.8,27.7 40.3,27.5 41.2,27.2 41.4,27.4 41.7,27.5 
		41.9,27.4 42,27.1 42.1,27 42,26.8 42,26.8 42.1,26.2 42.3,26 42.6,25.9 42.8,25.9 43,25.9 43.1,26 43.2,26 43.4,26.1 43.9,26 
		44,25.9 44.2,25.8 44.3,25.7 44.4,25.5 44.1,25 44.2,24.8 44.6,25 44.9,25 45.4,24.9 45.5,24.9 45.6,24.8 45.7,24.6 45.8,24.5 
		46.1,24.4 46.2,24.5 46.3,24.6 46.4,24.7 46.7,24.8 46.8,24.8 	"/>
	<polyline class="st0" points="55.8,15.8 55.9,15.8 56,16.1 56,16.2 56.3,16.5 56.4,16.5 56.5,16.6 57.1,17 57.2,17.2 57.4,17.7 
		57.6,17.8 57.7,17.8 57.9,17.8 57.9,17.9 58.1,18.2 58.1,18.5 58.1,18.6 58.1,18.7 58.2,19 58.6,19 59.1,18.7 59.5,18.7 59.6,18.8 
		59.6,19.3 59.6,19.4 59.5,19.5 59.4,19.6 59.2,19.9 59.1,20.1 59.3,20 59.3,20.2 59.2,20.9 59.3,20.9 59.3,21.2 59.4,21.2 
		59.9,21.7 60.1,22.2 60.1,22.4 60.4,22.6 60.5,22.6 60.7,22.7 61.1,22.8 61.3,22.9 61.6,22.9 62.4,23.1 62.5,23.2 62.6,23.4 
		62.7,23.5 63,23.4 63,23.1 63.1,22.9 63.5,22.6 64.5,22.1 65,22.2 65.2,22.3 65.4,22.4 65.6,22.5 65.6,22.6 66,23 66.3,23.2 
		66.7,23.4 66.8,23.4 66.9,23.5 66.9,23.7 66.7,23.8 66.4,24.1 66.1,24.2 65.8,24.4 65.9,24.5 66,24.6 66.4,24.6 66.6,24.6 
		66.8,24.6 67.3,24.9 67.3,25 67.9,25.4 68.2,25.6 68.5,26 68.4,26.4 68.4,26.5 68.1,26.5 67.8,26.7 67.6,26.8 67.6,27 67.8,27 
		67.9,27.1 67.8,27.4 67.5,27.5 67.3,27.5 67.1,27.7 67.1,27.8 67,28 66.9,28.1 66.7,28.2 66.4,28.2 66.1,28 66,27.9 65.2,27.7 
		65.1,27.7 64.8,27.8 64.7,27.9 64.5,27.9 64.4,27.8 64.3,27.7 64.2,27.9 64.3,28.1 64.4,28.2 64.5,28.3 64.5,28.3 64.5,28.5 
		64.5,28.7 64.3,29 64,29.1 63.6,29.5 64.1,29.8 64.4,29.7 64.9,30 65.1,30.2 65.1,30.4 65.3,30.4 66.5,31 66.6,31.1 66.7,31.2 
		67.1,31.6 67.5,31.8 68.2,31.9 68.7,32 69,32.2 69.2,32.3 69.4,32.5 69.4,32.6 69.2,32.7 69,33 69,33.2 69,33.4 69.4,33.8 
		69.7,34.1 69.9,34.1 70,34.2 70,34.4 70.1,34.5 70.4,34.6 70.8,34.5 71.1,35 71.3,35.3 71.6,36.1 71.9,36.7 72.1,36.8 72.2,36.9 
		72.4,37 72.5,37.1 72.7,37.4 73.1,37.8 73.2,37.9 73.4,38.1 73.6,38.4 73.9,38.5 74.1,38.6 74.5,39 74.8,39.4 74.9,39.7 74.9,39.8 
		75.3,39.9 75.5,39.7 75.5,39.9 75.5,40.2 75.5,41.2 75.6,41.3 76,42.2 76.1,42.2 76.3,42.3 76.4,42.2 76.6,42.1 76.7,41.9 
		76.7,41.8 76.9,41.8 77,41.9 77.3,42.7 77.4,42.9 77.5,42.8 77.6,42.8 77.9,42.9 78.1,42.9 78.1,43.1 78.1,43.2 78.2,43.3 
		78.3,43.5 78.9,43.9 79.1,43.9 79.2,43.8 79.4,43.8 79.5,44 79.5,44.1 79.5,44.2 79.2,44.5 78.6,44.8 78.5,44.7 78.4,44.8 
		78.2,45.1 78.2,45.2 78.6,45.7 79,46.1 79.2,46.4 79.7,46.6 80,46.9 80.5,47.3 80.5,47.5 80.5,47.6 80.4,47.7 80.3,48 80.1,48.3 
		80,48.4 79.5,48.4 79.5,48.5 79.5,48.7 79.8,48.9 79.9,49.3 79.9,49.8 79.9,49.9 	"/>
	<polyline class="st0" points="46.8,24.8 46.9,24.7 46.9,24.6 46.9,24.2 47,24 47.1,23.6 47.3,23.3 47.5,23.1 47.6,23 48,22.7 
		48.3,22.8 48.4,22.8 48.5,22.8 48.7,22.8 48.8,22.8 49,22.7 49.2,22.6 49.2,22.4 49,22.4 48.9,22.5 48.8,22.5 48.7,22.5 48.6,22.2 
		48.8,21.8 48.9,21.8 49,21.8 49.1,21.7 49.3,21.4 49.5,21.1 49.5,20.9 49.6,20.6 49.8,20.6 49.9,20.6 50.1,20.6 50.2,20.6 
		50.8,20.2 51.2,19.9 51.3,19.8 51.5,19.6 51.4,19.4 	"/>
	<polyline class="st0" points="51.4,19.4 51.6,19.4 52,20.3 51.9,20.5 51.8,20.9 51.9,21 52,21.2 52.3,21.1 52.5,20.9 53,20.9 
		53.3,20.9 53.5,20.9 53.8,21.1 53.9,21.2 54.1,21.4 54.2,21.3 54.5,21 54.6,20.9 54.5,20.9 54.3,20.7 54.2,20.7 54.1,20.6 
		54.1,20.4 54.2,20 54.2,19.8 54.2,19.1 54.2,18.7 54.2,18.2 53.8,17.8 53.5,17.7 53.4,16.6 53.5,16.3 53.8,15.8 53.7,15.7 
		53.7,15.6 53.9,15.4 54.1,15.3 54.2,15.3 54.3,15.3 54.9,15.6 55.4,15.5 55.7,15.6 55.8,15.8 	"/>
	<polyline class="st0" points="55.8,15.8 56,15.7 56.4,15.3 57,14.8 57.2,14.4 57.2,14.2 57.3,14.1 57.4,14.1 57.5,14.2 58.4,14.5 
		59.1,14.9 59.2,15 59.4,15.4 59.8,15.6 60,15.6 60.4,15.1 61.1,14 61.3,14 61.4,14.1 61.6,14.4 61.7,14.7 61.8,14.8 61.9,14.9 
		62,15 62.1,15 62.3,14.6 62.2,14.4 62.4,14.1 62.5,14.1 63.2,14.6 63.3,14.8 63.5,15 63.7,15.1 63.9,15.3 64.1,15.2 64.2,15 
		64.2,15 64.3,14.5 64.4,14.3 64.6,14 65.3,13.8 65.3,14.1 65.3,14.3 65.7,14.4 65.8,14.4 66.1,14.3 66.3,14.1 66.5,13.9 66.7,13.8 
		67,13.8 67.1,13.9 67.4,13.9 67.9,13.3 67.8,12.7 68.2,12.3 69.7,11.7 70.1,11.6 70.4,11.9 70.9,12.2 71,12.4 71.1,12.5 71.1,12.6 
		71.1,12.7 71.1,12.8 71.4,12.9 71.9,13 72,13 72.3,13.3 72.5,13.5 72.9,13.4 73,13.3 73.1,13.2 73.4,13.1 73.6,13.1 73.9,13.2 
		74,13.3 74.1,13.4 74.1,13.6 74.1,13.6 74.3,13.7 74.5,13.7 75.1,13.6 75.2,13.5 75.3,13.4 75.6,13.5 76.1,13.6 76.3,13.9 76.4,14 
		76.5,14.2 76.2,14.7 75.8,14.8 75.6,14.9 75.5,15.5 75.5,15.6 75.5,15.7 75.5,16 75.6,16 75.7,16.1 75.9,16.1 76.1,16.5 76,16.6 
		76,16.7 76.1,17.4 76.3,17.5 76.8,17.6 77,17.7 77.5,17.8 77.6,17.9 77.6,18 77.5,18.2 77.5,18.3 78.4,18.8 78.6,18.8 78.6,18.7 
		78.7,18.7 78.9,18.9 79,19 79.1,19.3 79.2,19.3 79.8,19.4 80.4,19.3 80.6,19.2 80.7,19.1 80.8,19 80.9,19 81.3,19.1 81.5,19.4 
		81.6,19.5 81.7,19.6 81.8,19.5 	"/>
	<polyline class="st0" points="13.5,17.6 13.8,17.4 13.9,17.1 13.9,16.8 14.3,17.1 14.6,17.2 14.7,17.3 14.7,17.4 14.9,17.5 
		15.1,17.4 15.2,17.3 15.3,17 15.5,16.6 15.6,16.5 15.8,16.6 15.8,16.7 15.9,16.7 16.1,16.4 16.1,16.1 16.1,15.9 16.1,15.8 16,15.6 
		15.8,15.5 15.8,15.1 15.7,14.6 15.7,14.3 15.7,14 15.8,13.6 15.8,13.3 15.8,13 15.8,12.9 16.1,12.9 16.2,12.9 16.3,13 16.4,13 
		16.5,13 16.6,13 16.8,12.8 17,12.1 16.9,11.5 17,11.2 17.2,10.4 17.2,10.1 17.1,9.9 17,9.3 16.8,8.9 16.7,8.7 16.7,8.4 16.7,8.4 
		16.9,8.3 17,8.3 17.1,8.4 17.1,8.4 17.3,8.8 17.4,8.8 17.6,8.8 17.9,8.8 18,8.7 18.1,8.5 18.3,8.5 18.7,8.6 18.7,8.7 18.8,8.9 
		18.9,9 19.1,8.9 19.3,8.8 19.8,9 20.1,9.2 20.3,9.3 20.3,9.3 20.7,8.6 20.8,8.3 20.9,7.8 21,7.4 21.3,7 21.7,6.1 21.9,6 22.4,5.5 
		22.5,5.3 22.6,4.8 23,4 23,3.7 22.9,3.6 22.7,3.5 22.6,3.5 22.5,3.4 22.4,3.4 22.3,3.3 22.3,3.2 22.3,2.9 22.5,2.5 22.6,2.3 
		22.6,2.2 22.7,2.1 23,2 23.1,2 23.2,2 23.6,1.7 24.1,1 24.2,0.5 24.4,0 24.5,0 	"/>
	<polyline class="st0" points="40.4,0 40.6,0.3 40.6,0.4 40.2,0.6 40.1,0.5 39.9,0.4 39.6,0.7 39.5,0.8 39.4,1.1 39.2,1.6 39.1,1.7 
		38.8,1.8 38.5,1.6 38.3,1.5 38.2,1.7 38.2,1.8 38,2.4 38,2.5 37.8,2.8 37.2,3.3 37.1,3.3 37,3.1 36.8,3 36.7,3.1 36.6,3.3 
		36.6,3.4 36.5,3.6 36.4,3.8 36.3,4 36.2,4.3 36.3,4.6 36.1,4.9 36,5 35.6,5.3 35.5,5.4 35.5,5.5 35.6,5.7 35.5,6.2 35.5,6.2 
		35.4,6.5 35.9,6.7 36.2,6.9 36.4,7.5 36.4,7.9 36.3,8 36.2,8.1 36.1,8.3 35.8,8.4 35.4,8.9 35.5,9 35.6,9 35.8,9.2 35.8,9.2 
		35.9,9.3 36.1,9.2 36.4,9 36.9,8.7 37,8.6 37.1,8.5 37.7,8.3 37.8,8.3 38.3,8.1 38.4,8.1 39.4,8 39.7,8.1 39.9,8.1 40.1,8.2 
		41.2,8.1 41.3,8 41.4,7.9 41.5,8.1 41.5,8.2 41.3,8.3 41.2,8.4 40.8,8.6 40.7,8.7 40.5,8.8 40.5,9.5 41.1,9.7 41.2,10.3 41,10.6 
		41.1,10.9 41.3,10.9 41.4,11 41.5,11.1 41.6,11.3 41.6,11.6 41.6,11.8 41.6,12.2 42.3,12.6 42.8,12.7 43,12.6 43.1,12.6 43.5,12.5 
		44.2,12.8 44.4,13.4 44.4,13.5 44.2,13.5 43.9,13.6 43.4,14.3 43.6,14.9 43.6,15.3 43.6,15.4 43.5,15.4 43.4,15.5 43.3,15.6 
		43.2,15.8 42.6,16.8 43,17 43.5,17.1 43.7,17.1 43.9,17 43.9,16.9 44.5,17.1 44.8,17.2 44.9,17.2 45.1,17.3 45.2,17.2 45.9,17.2 
		46.1,17.3 46.3,17.7 46.2,17.9 46.1,18 46.1,18.1 46.1,18.3 46.2,18.7 46.3,18.8 46.7,18.9 46.9,19.2 46.9,19.4 46.9,19.7 
		47.1,19.9 47.3,20.1 47.5,19.9 47.9,19.6 48,19.5 48.3,19.6 48.3,19.8 48.4,19.9 48.9,20 49.1,19.9 49.6,19.7 49.9,19.4 49.9,19.3 
		50,19.1 51.2,18.6 51.3,18.6 51.5,19.2 51.5,19.3 51.4,19.4 	"/>
	<path id="idn_1_" class="st2" d="M149.2,163.2L149.2,163.2l-0.7,0.2l-0.2,0.1v0.1l-0.4,0.2h-0.1l-0.1-0.1v-0.4v-0.1l0.1-0.1
		l0.1-0.1l0.4-0.1l0.6-0.3l0.4-0.4l0.3-0.3l0.5-0.4h0.1v0.1l0.1,0.6l-0.1,0.3l-0.4,0.1l-0.2,0.2l-0.2,0.3l-0.1,0.1h-0.1v0.1
		L149.2,163.2L149.2,163.2L149.2,163.2z M143.4,161.5L143.4,161.5l-0.4,0.4l-0.2,0.1l-0.2,0.1v0.1l0.1,0.1h0.1l0.1,0.1h0.4h0.1
		l0.5-0.3v-0.1l0.1-0.2v-0.1v-0.1H144l-0.3-0.1h-0.1h-0.1v0.1H143.4z M132.2,156.7H132l-0.6,0.1l-0.5,0.2l-0.1,0.1l-0.1,0.1
		l-0.3,0.4l0.5,0.5l0.1,0.1l0.1,0.1h0.1l0.3,0.1h0.1h0.1h1.1l0.6,0.1l0.3,0.2v0.1l0.1,0.2l0.1,0.1l0.3,0.1l0.6,0.3h0.2l0.1,0.1
		l0.2,0.3v0.1l0.1,0.2l0.2,0.3l0.4,0.3h0.3l0.8,0.1h0.4l0.5-0.1l0.4-0.1l0.1-0.1l0.4-0.4l0.1-0.1v-0.1v-0.3l-0.1-0.1l-0.2-0.1
		l-0.1-0.1l-0.1-0.1h-0.1l-0.2-0.1l-0.3-0.4v-0.1l-0.1-0.3l-0.6-0.5l-0.4,0.1l-0.1,0.1l-0.1,0.1l-0.4-0.2l-0.1-0.1v-0.2v-0.3
		l-0.3-0.2l-0.1,0.1h-0.2l-0.2-0.2l-0.1-0.1l-0.2-0.2l-0.1-0.2l-0.3-0.3l-0.2,0.2l-0.4,0.3h-0.1h-0.4l-0.3-0.1l-0.1-0.1h-0.3
		l-0.9,0.2L132.2,156.7z M155.9,155.6L155.9,155.6l-0.3,0.3l-0.3,0.1h-0.1h-0.1H155l-0.1,0.4l-0.4,0.6l-0.1,0.2h-0.3l-0.1-0.2
		l-0.1-0.1h-0.2l-0.2,0.1h-0.2l-0.3-0.1l-0.1-0.3h-0.3l-0.1,0.1l-0.8,0.7l-0.5,0.4v0.1v0.1v0.2v0.1v0.5v0.1l-0.1,0.1v0.1l-0.3,0.1
		l-0.1,0.1v0.4v0.1l0.1,0.1l0.1-0.1l0.1-0.1h0.1h0.2l0.3,0.2h0.1v0.1h-0.1v0.1l-0.1,0.1l-0.2,0.1h-0.1l-0.1,0.1h-0.1h-0.1l-0.4,0.2
		l-0.2,0.2v0.3l0.2,0.1l0.4,0.2h0.9l0.1-0.1h0.1l0.1-0.1l0.1-0.1h0.1l0.1-0.1h0.1l0.1-0.1h0.2h0.1l0.3-0.2v-0.1v-0.1l0.1-0.1h0.1
		h0.6h0.2h0.3h0.1h0.1l0.1-0.1h0.1l0.2-0.2l0.1-0.1l0.1-0.1l0.1-0.1v-0.1v-0.1l0.1-0.1l0.2-0.1l0.3-0.1l0.5-0.5l0.6-0.6l0.2-0.2h0.1
		V158v-0.1v-0.1v-0.1v-0.1l0.1-0.1v-0.1l0.2-0.1l0.3-0.3h0.1l0.1-0.1l-0.4-0.3l-0.2-0.2l-0.2-0.3l-0.1-0.2l0.1-0.2l0.2-0.1h0.3
		l0.3-0.1l0.1-0.2v-0.2l-0.1-0.2l-0.2-0.1l-0.3,0.1h-0.3l-0.1-0.1l0.1-0.3l-0.1,0.1l-0.4,0.2h-0.1h-0.1h-0.1l-0.3,0.2L155.9,155.6z
		 M116.8,154.3l0.6,0.3l0.2-0.1h0.1l0.1-0.1l0.4,0.2l0.2,0.1l0.3,0.1l0.5-0.1l0.2-0.3l0.1-0.1h0.3l-0.1,0.2v0.2h0.4l0.2-0.1v-0.1
		l-0.2-0.1v-0.3l0.2-0.3l0.4-0.7l0.3-0.7v-0.1l-0.1-0.2l-0.3-0.2l-0.8-0.4l-0.4-0.1l-0.2,0.1l-0.1,0.1h-0.2l-0.8,0.8l-0.1,0.4v0.3
		l0.1,0.1v0.2l-0.1,0.4l-0.4,0.2h-0.2l-0.3-0.1v-0.1l-0.2,0.2L116.8,154.3z M125.1,151.4L125.1,151.4l-0.2,0.2v0.2l0.5,0.6l0.8,0.4
		h0.1l0.1-0.1h0.2l0.7,0.4l0.2,0.2l0.1,0.1l-0.1,0.1l-0.1,0.1l-0.2,0.1l-0.2-0.1H127h-0.1h-0.3l-0.1,0.1l-0.1,0.1l-0.1,0.1l-0.2,0.2
		h-0.1v-0.1l-0.3-0.2l-0.3,0.1l-0.4-0.3l-0.5-0.4l-0.3-0.3l-0.1-0.1v-0.2v-0.1h-0.5l-0.1,0.2l-0.7-0.3l-0.4-0.2l-0.2,0.1h-0.1
		l-0.2,0.2v0.1l-0.4,0.2l-0.3,0.2h-0.2l-0.2,0.1l-0.2,0.3l-0.2,0.4l0.1,0.7l-0.2,0.2v0.5v0.1l0.3,0.2l1.1,0.3h0.3l0.2-0.1l0.1-0.1
		l0.2-0.2l0.2-0.1l0.2,0.1l0.1,0.1h0.2h0.3h0.2l0.4-0.2h0.1l0.3-0.2v-0.1l0.4-0.2h0.1l0.3,0.1h0.4l0.3-0.1l0.3-0.2l0.1-0.1h0.4
		l0.1,0.1h0.1h0.2l0.1-0.1l0.1-0.2l0.8-0.8v-0.2l0.2,0.2v0.2v0.2l-0.1,0.2l-0.2,0.2l0.1,0.1l0.1,0.2l0.2,0.1h0.1l0.4-0.2l0.3-0.1
		h0.2h0.2h0.2l0.2,0.1l0.2,0.1h0.4l0.2-0.1l-0.1-0.1l-0.2-0.1l-0.3-0.1h-0.4h-0.1l-0.2-0.1l0.3-0.2h0.3l0.3-0.1h0.1l0.1,0.1l0.2,0.2
		h0.6h0.2l0.1-0.1l0.1-0.2l-0.1-0.2l-0.2-0.1l-0.4,0.1l-0.1-0.1l-0.1-0.2l0.1-0.2V153l0.1-0.3l-0.3-0.7l-0.2-0.1h-0.1h-0.2h-0.1
		h-0.4l-0.1,0.1l-0.2,0.1l-0.1,0.3v0.1v0.2v0.2l-0.2,0.3v-0.3v-0.2l0.1-0.2v-0.3l-0.2-0.3l-0.3-0.1l-0.5-0.1h-0.1l-0.1,0.1l-0.1,0.1
		l-0.2,0.2l-0.3,0.2l-0.3-0.1l-0.3-0.4l-0.2-0.2v-0.3l-0.2-0.2h-0.1L126,151h-0.1l-0.5,0.2L125.1,151.4z M110.7,151.7L110.7,151.7
		l0.2,0.4l0.2,0.2l0.2,0.2h0.1h0.1h0.3h0.2l0.2,0.1l0.4,0.2l0.2,0.1l0.2,0.1l0.5,0.4l0.3,0.3l0.1,0.1l0.1,0.2v0.2l-0.1,0.1l-0.1,0.1
		l-0.3,0.2l0.1,0.1h0.2h0.1l0.3-0.1l0.1-0.1l-0.1-0.2v0.1l-0.1-0.1v-0.2h0.1l0.2-0.1l0.2-0.3l0.2-0.2l0.2-0.1h0.1l0.2-0.1l0.3-0.1
		l0.5-0.3l0.3-0.3l0.1-0.2v-0.1l-0.1-0.1l-0.6-0.6l-0.2-0.1l-0.1-0.1l-0.2-0.1l-0.3-0.1l-0.2-0.1l-0.7-0.3h-0.2l-0.1,0.1h-0.1
		l-0.1,0.2l-0.3,0.2l-0.1,0.1h-0.2l-0.4,0.1h-0.3l-0.3-0.1l-0.1-0.1l-0.2-0.1l-0.9-0.2h-0.2h-0.1v0.3l0.1,0.1L110.7,151.7z
		 M148.2,151.5l-0.2,0.3l-0.5,0.4l-0.4,0.2h-0.3h-0.1l-0.5,0.4v0.1l-0.3,0.4h-0.3h-0.1l-0.3,0.2l-0.1-0.1h-0.1l-0.6-0.4l-0.3-0.4
		l-0.6,0.3h-0.1H143l-0.6-0.1l-0.2,0.3l-0.1,0.2l-0.3,0.2l-0.4-0.1l-0.1-0.1l-0.2-0.2l-0.2-0.1v-0.1l-0.1-0.1l-0.3-0.2h-0.2H140
		l-0.3-0.2h-0.1l-0.5-0.2l-0.3-0.1h-0.4l-0.4-0.3l-0.6-0.1l-1.1,0.1l-0.3,0.1l-0.5,0.4l-0.4,0.1l-0.4,0.2l-0.4,0.4l-0.1,0.1v0.1v0.2
		v0.2v0.2v0.2v0.1l0.1,0.1l0.4,0.3h0.2l0.5-0.2l0.1-0.1l0.5,0.1l0.3,0.1h0.3l0.1-0.1l0.2-0.1h0.3h0.4h0.3l0.1,0.2l0.2,0.1l0.4,0.1
		h0.1h0.4l0.3,0.3l0.5,0.1h0.1l0.3-0.1l0.1-0.1h0.1l0.2-0.1h0.2l0.2,0.1l0.2,0.1h0.1l0.2-0.1l0.1-0.1v-0.2v-0.2l0.1-0.1l0.8,0.1
		l0.3,0.2l0.6,0.2h0.2l0.4-0.3l1.2-0.4l0.2,0.1h0.2h0.5l0.4-0.1l0.3-0.1h0.1l0.1-0.2l0.5-0.2l0.3-0.1h0.3h0.1l0.1-0.1l0.1-0.1
		l-0.1-0.1V153l-0.1-0.1l-0.1-0.1v-0.1v-0.2l0.4-0.2l0.4-0.2l0.2-0.2l0.1-0.1l-0.3-0.6l-0.1-0.1l-0.3-0.3l-0.3,0.2l-0.3,0.4l0.3,0.1
		l0.1-0.1l0.4-0.2L148.2,151.5z M115.4,154.2L115.4,154.2l0.2,0.1l0.1-0.1l0.1-0.1V154v-0.1l-0.1-0.1l-0.1-0.2h-0.1h-0.2h-0.1
		l-0.1,0.2l-0.1,0.1l0.1,0.1l0.1,0.1L115.4,154.2L115.4,154.2z M133.4,153.9L133.4,153.9v0.2l0.4,0.2l0.2-0.1V154v-0.1h-0.1l0.1-0.2
		l-0.3-0.4l-0.2-0.1l0.1,0.4L133.4,153.9L133.4,153.9z M77.9,141.5L77.9,141.5l-0.4-0.1h-0.1v0.3v0.3v0.1l-0.1,0.1h-0.1l-0.1,0.1
		h-0.1H77h-0.4h-0.2h-0.1v-0.1l-0.1-0.2v-0.1h-0.1h-0.7h-0.1v0.1h-0.1h-0.1H75l-0.5-0.3l-0.3-0.2h-0.1h-0.1v0.1H74v0.2l-0.1,0.1
		h-0.1h-0.1h-0.1l-0.1-0.1l-0.1-0.1v-0.1v-0.1v-0.1v-0.1l-0.1-0.1h-0.2v0.1H73v0.1l-0.5,0.7v0.1l-0.2,0.5l-0.1,0.1v0.1v0.1v0.1v0.1
		v0.4l-0.1,0.1v0.1v0.1L72,144h-0.1l-0.3,0.1h-0.1V144l-0.1-0.1v-0.1h-0.1v0.1h-0.1v0.1v0.3v0.2v0.1l-0.1,0.1l-0.5,0.7l-0.1,0.1
		l-0.1-0.1l-0.1-0.2l-0.1-0.1l-0.4-0.1l-0.2,0.2h-0.1h-0.2l0.2,0.2h0.3H70h0.1l0.1,0.1l0.4,0.1l0.1,0.1h0.1H71h0.1h0.1l0.1-0.1h0.4
		l1.1-0.1h0.1H73h0.1h0.1l0.2,0.1l0.1,0.1l0.1,0.1l0.1,0.1h0.1l0.5,0.4l0.2,0.1h0.2h0.1l0.2-0.1v-0.1h0.1l0.3,0.1h0.1l0.1,0.1v0.2
		v0.1v0.1h-0.1v0.1h-0.1l-0.1,0.1H75l-0.2,0.3l-0.1,0.1l-0.1,0.2v0.3l0.1,0.2l0.1,0.1l0.6,0.3h0.1h0.1h0.5l1.6,0.1l0.5,0.2h0.5
		l0.4,0.1h0.4l0.4,0.2l0.1,0.1l0.3,0.1l0.3,0.2l0.4,0.2l0.1,0.1h0.1l0.4,0.2l0.6,0.2l0.4,0.1h0.1h0.1l0.9,0.1h0.2h0.2H84l0.1-0.1
		v-0.1v-0.1v-0.1l0.1-0.1l0.2-0.1h0.1h0.4h0.4l0.1-0.1l0.4-0.1v0.1v0.1l0.1,0.1l0.4,0.1h0.2l0.1-0.1h0.1h0.2l0.2-0.1l0.4,0.1h0.2
		l0.4,0.1l0.5,0.2l0.4,0.1l0.5,0.1l0.9,0.3l0.5,0.1l0.1,0.1l0.2,0.1l0.1,0.1l0.5,0.2l0.7,0.4l0.1,0.1l0.4,0.2l1.1,0.3h0.3h0.3
		l0.4,0.1l0.4,0.2h0.1h0.1h0.1l0.2-0.1l1.1,0.2l0.4,0.2l0.9,0.2h0.2v-0.1l0.1-0.2l0.3-0.2l0.3,0.1h0.4l1,0.2l0.5,0.1h0.4l0.7,0.3
		l0.5,0.2l1.1-0.2h0.1l0.1-0.1l0.1-0.1v-0.1l0.1-0.1l0.2-0.1h0.3h0.1l0.3-0.1h0.1h0.1h0.2l0.2,0.1h0.1l0.1,0.1l0.5,0.3l0.5,0.3
		l0.3,0.1h0.1v0.1l0.1,0.1l0.3,0.2h0.1l0.6,0.1l0.4,0.2l0.4,0.2h0.2l0.5,0.1l0.1-0.1l0.1-0.1h0.1h0.1l0.3,0.1l0.1,0.1l0.1,0.1v0.1
		v0.1h-0.1l0.2,0.2l0.5,0.1l0.1,0.1h0.1l0.1-0.1h0.1l0.1-0.1v-0.2l-0.1-0.1l-0.1-0.1l-0.4-0.3l-0.1,0.1l-0.4-0.5l-0.1-0.3l0.1-0.3
		v-0.1V152h0.1v-0.1v-0.1l0.1-0.2l0.3-1.5v-0.2v-0.1l-0.1-0.1h-0.1l-0.2-0.2h-0.1l-0.3-0.1l-0.7-0.2h-0.1l-0.2-0.2l-0.1-0.1
		l-0.1-0.1h-0.1h-0.1l-0.1,0.1l-0.2,0.1l-0.1,0.1l-0.7,0.3l-0.4-0.1h-0.4l-0.1-0.1h-0.4l-0.4,0.2h-0.1v0.1h-0.1v0.1h-0.1l-0.2,0.1
		l-0.5-0.3l-0.4-0.1v-0.1l-0.6-0.3l-0.5-0.2l-0.1-0.1l-0.2-0.2l-0.1-0.2v-0.3l0.1-0.1l0.1-0.1l0.1-0.5l-0.1-0.2v-0.1l-0.1-0.1H103
		h-0.1l-0.1,0.1v0.1h-0.1l-0.1,0.1v-0.1h-0.1l-0.2-0.1l-0.1-0.1V147h0.1l0.1,0.1h0.1l0.1-0.1V147l-0.4-0.5l-0.2-0.6l-0.5-0.2h-0.4
		h-0.1l-0.3,0.1l-0.3,0.1h-0.1h-0.2h-0.1h-0.1H100h-0.1v-0.1h-0.1v-0.1l-0.1-0.1v-0.1l-0.2-0.2h-0.1h-0.1h-0.1h-0.1h-0.7l-0.2-0.1
		l-0.1-0.1h-0.1l-0.1-0.1v-0.1H98l-0.1-0.1v-0.1l-0.1-0.1l-0.4-0.1h-0.1l-0.1,0.1v0.1l-0.1,0.1l-0.1,0.1h-0.2h-0.1h-0.7l-0.3-0.1
		v-0.1l-0.1-0.2h-0.1v-0.1l-0.1-0.1v-0.2l-0.1-0.3l-0.2-0.2l-0.4-0.1h-0.3l-0.4,0.1l-0.2,0.1l-0.1,0.2l-0.1,0.1l-0.1,0.2v0.1v0.1
		v0.1l-0.1,0.3v0.1l-0.1,0.2v0.1l-0.2,0.3l-0.1,0.1l-0.3,0.3l-0.1,0.1v0.1h-0.1l-0.4,0.2h-0.1l-0.1-0.1h-0.1l-0.5-0.3v-0.1h-0.3
		l-0.1,0.1h-0.1h-0.1l-0.4,0.1h-0.1h-0.3l-0.3-0.1h-0.3l-0.2-0.1l-0.6-0.2l-0.5-0.1l-0.2,0.1h-0.1l-0.1,0.1h-0.1l-0.5,0.1h-0.2
		l-1.2-0.2l-0.5-0.2l-0.2-0.1h-0.1l-0.2,0.1h-0.1h-0.1h-0.1l-0.4-0.2l-0.1-0.1l-0.1-0.1v-0.1v-0.1l-0.1-0.2v-0.4l-0.1-0.3V144h-0.1
		l-0.1-0.1H84l-0.1-0.1l-0.1-0.1l-0.1-0.1v-0.1h-0.1l-0.2-0.3l-0.2-0.2l-0.1-0.1H83l-0.2,0.1l-0.1,0.2v0.1h-0.1l-0.1,0.1h-0.1
		l-0.1-0.1h-0.1h-0.1l-0.9-0.4l-0.5,0.1h-0.1h-0.2h-0.1h-0.1l-0.1-0.1l-0.4-0.3l-0.5-0.5l-0.1-0.2l-0.1-0.1l-0.1-0.1l-0.1-0.1
		l-0.1-0.1h-0.1h-0.1h-0.1l-0.3,0.1h-0.1h-0.1h-0.1H78L77.9,141.5L77.9,141.5L77.9,141.5z M133.2,152.9L133.2,152.9h-0.2h-0.2
		l-0.1-0.3h-0.1l-0.2,0.1l-0.1,0.8l0.1,0.1v0.1l-0.1,0.2h-0.1v0.1l0.4,0.1h0.1l-0.1-0.2v-0.2v-0.4l0.2-0.1h0.1l0.1,0.1h0.1h0.1
		l0.1-0.2L133.2,152.9z M150.6,152.2L150.6,152.2l-0.1,0.2h-0.1l-0.1,0.1h-0.1l-0.1,0.1h-0.1l-0.6,0.5l0.1,0.1h0.3l0.4,0.1l0.2,0.1
		l0.2-0.1h0.4l0.6-0.6l0.4-0.4l0.4-0.2l0.3-0.1h0.1l0.1-0.1l-0.1-0.1l-0.6-0.3l-0.1,0.1l-0.6,0.4l-0.2,0.3h-0.2l-0.1-0.1v-0.1
		l0.1-0.2v-0.1v-0.1l-0.1-0.1l-0.5,0.2h-0.1l-0.1,0.1l-0.1,0.1h0.2h0.1L150.6,152.2L150.6,152.2z M154.4,152.5L154.4,152.5
		L154.4,152.5l0.1,0.2h0.1l0.3,0.1l0.8-0.2l1-0.2l1-0.1h0.1l0.2-0.1h0.1l0.1-0.2v-0.3v-0.1l-0.2-0.4h-0.1h-0.6l-0.1,0.1h-0.3h-0.9
		l-0.4-0.2h-0.2h-0.2h-0.1H155l-0.1,0.1l-0.2,0.3L154.4,152.5z M153.1,152.7L153.1,152.7l0.1,0.2v0.2v0.1h0.1h0.2h0.1l0.1-0.1h0.1
		l0.1-0.2l0.4-0.7v-0.1h0.1v-0.4l-0.1-0.1v-0.1h-0.1H154v0.1l-0.2,0.2l-0.1,0.2l-0.2,0.2l-0.2,0.3l-0.2-0.2v-0.1h-0.1h-0.1l-0.2,0.1
		l-0.1,0.1l-0.3,0.4l0.1,0.1l0.1-0.1h0.1l0.1-0.1L153.1,152.7L153.1,152.7z M215.3,148.9L215.3,148.9l-0.6,0.9l-0.2,0.3l-0.6,1.2
		l-0.1,0.2l-0.4,0.9v0.2l0.1,0.1h0.1l0.2-0.1l0.4-0.2h0.3l1.4,0.1h0.1h0.2l0.1,0.1l0.2,0.1l0.4-0.1l0.1-0.1l0.2-0.1l0.7-0.5l0.1-0.1
		l0.1-0.2l0.1-0.2h0.2h0.2l0.2-0.1l0.3-0.3l0.2-0.2l0.1-0.4v-0.2h0.1v-0.2l0.3-0.5l0.3-0.6l-0.2-0.3h-0.2l-0.2-0.1l-0.1-0.2
		l-0.1-0.1l-0.1-0.1l-0.2-0.3l-0.1-0.1l-0.2-0.1h-0.3H218h-0.3l-0.1,0.1h-0.1h-0.2l-0.1,0.1h-0.1h-0.3l-0.2,0.1l-0.5,0.2h-0.1
		l-0.3,0.2l-0.3,0.2L215.3,148.9L215.3,148.9z M218.4,152.4l0.3,0.1h0.2h0.2h0.1l0.1-0.2l-0.1-0.1v-0.1l-0.3-0.5l-0.1-0.2v-0.1h-0.1
		l-0.4,0.1l-0.7,0.6v0.1v0.1l0.1,0.1h0.1L218.4,152.4z M148.8,152L148.8,152l-0.2,0.2l-0.1,0.1v0.1v0.2h0.3h0.8l0.1-0.1h0.1l0.1-0.1
		v-0.1l0.1-0.4H150l-0.4-0.2h-0.2h-0.3L148.8,152L148.8,152z M131,151.9L131,151.9l0.2-0.1h0.1l0.1-0.2v-0.1v-0.1v-0.1l-0.1-0.1
		h-0.1H131H131l-0.1,0.1v0.1l-0.1,0.1l0.1,0.2L131,151.9L131,151.9L131,151.9z M175.2,151.9L175.2,151.9l0.1-0.2v-0.1l-0.2-0.1
		l-0.1-0.1h-0.1h-0.3h-0.1v0.1h-0.1h-0.1l0.1,0.1l0.2,0.1l0.1,0.1h0.1L175.2,151.9z M169.8,151.4L169.8,151.4l0.2,0.1l0.8,0.3
		l0.1,0.1v-0.1l0.4-0.4h0.1v-0.1l-0.1-0.1h-0.1H171l-0.1,0.1l-0.4-0.1h-0.1h-0.1l-0.2-0.1h-0.1v-0.1H170h-0.1h-0.1h-0.1l-0.1,0.1
		L169.8,151.4z M124,151.5v0.3v0.4l0.2,0.2h0.1l0.1-0.1l0.1-0.1l0.1-0.2l0.1-0.3v-0.1l0.1-0.1l0.2-0.1v-0.1v-0.1h-0.1l-0.4-0.1h-0.1
		l-0.1,0.1L124,151.5z M163.3,149.3l-0.7,0.1l-0.3-0.1l-0.5-0.1l-0.2-0.1l-0.3,0.3L161,150l-0.2,0.6v0.1h0.1l0.2-0.2l0.3-0.2
		l0.2-0.1l0.3-0.1l0.4-0.1h0.2h0.1l0.6,0.2l0.7,0.1l0.4-0.3V150h0.1l0.2-0.2l0.2-0.2l0.3-0.1h0.2l0.4-0.1l-0.1-0.3H165l-0.4-0.3
		v-0.1v-0.1v-0.1l-0.4,0.1l-0.3,0.1l-0.3,0.2l-0.1,0.1h-0.1L163.3,149.3L163.3,149.3z M168.5,148.6L168.5,148.6l-0.4-0.2h-0.2
		l-0.1,0.1l-0.1,0.5l0.1,0.1v0.1h0.1l0.1-0.1l0.3-0.2l0.1-0.1L168.5,148.6L168.5,148.6z M138.7,147.6L138.7,147.6l0.9,0.2h0.1h0.1
		l0.1-0.1v-0.1v-0.1h-0.1h-0.2h-0.2h-0.1h-0.3l-0.2-0.1h-0.1h-0.1V147.6L138.7,147.6z M107.8,146.8l0.1-0.3l0.2-0.1l0.4-0.1l0.4-0.1
		l0.3-0.2L109,146v-0.1l-0.5-0.2l-0.1-0.1h-0.2h-0.1H108l-0.5,0.1h-0.9h-1.1h-1h-0.4h-0.3h-0.1l-0.4,0.1l-0.2,0.2l-0.2,0.3l-0.1,0.1
		h-0.2l-0.1,0.1v0.2l0.2,0.3l0.1,0.1h0.2h0.2h0.2l0.5,0.2l0.5-0.1l0.4,0.2h1h0.2h0.3l0.3-0.2V147l0.3-0.2l0.3-0.1h0.1h0.3
		L107.8,146.8z M188,147L188,147l0.1,0.2l0.2,0.1h0.1v-0.1V147V147l-0.3-0.3l-0.8,0.1l-0.1,0.1l0.1,0.1h0.1h0.2h0.1h0.1L188,147
		L188,147L188,147z M138.6,146.5L138.6,146.5l-0.4-0.1l-0.1-0.1l-0.1-0.1l-0.1,0.4l0.1,0.2h0.1l0.1,0.1l0.4-0.1v-0.1V146.5
		L138.6,146.5z M114,145.8L114,145.8L114,145.8L114,145.8l0.2,0.4l0.2,0.1l0.4-0.1l0.1-0.1h-0.1V146h-0.1h-0.1v-0.1l0.2-0.1h0.3
		l0.1,0.1h0.2l0.2,0.1h0.1v-0.1v-0.1l-0.1-0.1l-0.3-0.1l-0.1-0.1h-0.1h-0.2h-0.3h-0.1h-0.2l-0.1-0.1l-0.1,0.1L114,145.8z
		 M198.3,141.9l-0.2,0.1H198v-0.1v-0.1l-0.2,0.1v0.3v0.1v0.1v0.1l0.5,0.3h-0.1l-0.4-0.3h-0.1l-0.1,0.1l0.1,0.1v0.1l0.1,0.1v0.2v0.3
		v0.3l-0.1,0.4l-0.3,1.1h0.1v0.3l0.5,0.4h0.1l0.5-0.3l0.2-0.2h-0.1l0.3-0.4l0.2-0.1l0.1-0.1l0.1-0.1h0.1l0.1-0.2v-0.1l-0.3-0.6h-0.1
		l-0.2-0.2l-0.3-0.1l-0.2-0.1l-0.1-0.2l0.1-0.1l-0.1-0.1l-0.2-0.2l-0.1-0.1l0.1,0.1l0.5,0.3l0.1-0.1l0.2-0.2l-0.1-0.1l-0.2-0.1h-0.1
		l-0.4-0.4h-0.1l0.1-0.2v-0.1L198.3,141.9z M218.1,145.6L218.1,145.6l0.2,0.1h0.1l0.2-0.2l-0.1-0.1l-0.1-0.2h-0.1h-0.2l-0.1-0.1
		L218,145h-0.1h-0.1v0.1l0.1,0.1L218.1,145.6z M199.9,143.4L199.9,143.4l-0.5-0.3h-0.1h-0.1l-0.2,0.1l-0.2,0.2l0.1,0.2h0.1l0.3,0.2
		h0.1l0.1,0.2l0.2,0.2l0.1,0.1l0.3-0.4v-0.1v-0.1L199.9,143.4L199.9,143.4z M200,143.4l0.4-0.2h0.1l0.1-0.1v-0.1l0.1-0.2v-0.1
		l0.2-0.6l-0.1-0.1V142l-0.1-0.1l-0.4-0.3h-0.1l-0.4,0.1h-0.1l-0.1,0.1l-0.2,0.1h-0.1l-0.3,0.1h-0.1h-0.1l-0.1,0.1h-0.1v0.2
		l-0.1,0.1l0.1,0.2l0.3,0.3l0.3,0.1l0.2,0.1l0.3,0.1l0.2,0.2v0.1h0.1L200,143.4z M198.2,140.5L198.2,140.5L198.2,140.5l0.3,0.2v0.1
		l0.1-0.1l0.3,0.2h0.1l-0.1,0.3l-0.2,0.2l-0.1,0.1v0.4l0.2,0.1l0.2-0.1h0.1h0.1l0.1-0.1h0.1v-0.1h0.2l0.1-0.1h0.1l0.4-0.1h0.1
		l0.1,0.1l0.2,0.1h0.1l0.1-0.3v-0.2l-0.1-0.1l-0.1-0.4l-0.2-0.6l0.1-0.3l-0.3-0.4l-0.3-0.1l-0.3,0.1h-0.1l-0.1,0.3l-0.4,0.6
		l-0.2,0.3l-0.2,0.1v-0.1h-0.2l-0.1-0.1h-0.1h-0.1L198.2,140.5L198.2,140.5z M25.4,90.5h-0.2l-0.1,0.4l0.1,0.2l0.1,0.1v0.1v0.1
		l-0.1,0.4l0.3,0.5v0.1l-0.1,0.1l0.6,1.2l0.5,0.7l0.3,0.3l0.3,0.2l0.1,0.1l0.7,0.7l0.4,0.3l0.2,0.3l0.3,0.3h0.1l0.2,0.1l0.1,0.1
		l0.3,0.2h0.1l0.1,0.1l0.4,0.4l0.1,0.1l0.1,0.1v0.1l0.1,0.1v0.1l0.1,0.1l0.2,0.3l0.1,0.1l0.1,0.1l0.2,0.1l0.1,0.2l0.2,0.1H31h0.1
		h0.1h0.1l0.2-0.1h0.2h0.2l0.3,0.1h0.1l0.3,0.3h0.1l0.5,0.6l0.1,0.2l0.1,0.1l0.2,0.4l0.4,0.6l0.1,0.1h0.1l0.2,0.1h0.1l0.1,0.2
		l0.1,0.1v0.1v0.1v0.2l0.1,0.1v0.1l0.1,0.1l0.1,0.2l0.1,0.1l0.2,0.2l0.2,0.1l0.4,0.1l0.1,0.1l0.1-0.1l0.1,0.1l0.1,0.2v0.2l0.1,0.1
		v0.2l0.1,0.4v0.2v0.4v0.1v0.1v0.2v0.1v0.1l0.4,0.5l0.5,0.2l0.1-0.1l0.1-0.1h0.1h0.1l0.4,0.3l0.2,0.1l0.1,0.1l0.1,0.1h0.1l0.4,0.3
		l0.9,0.4v0.1l0.3,0.2h0.1l0.1,0.1v0.1l0.7,0.5h0.1h0.1l0.1,0.1l0.3,0.3v0.2v0.1l-0.3,0.4h-0.1v-0.1h-0.1h-0.1l0.1,0.2l0.3,0.4
		l0.3,0.4l0.2,0.6l0.4,1.1l0.3,0.7h0.1l0.3,0.9l0.1,0.3l0.1,0.4v0.1l-0.1,0.1l-0.1,0.1l0.3,0.2l-0.1,0.2v0.1h0.1v0.1l0.3,0.1H43h0.1
		l0.1-0.1h0.1h0.1h0.1l1.1,0.5v0.1l0.2,0.1l0.1,0.1l0.4,0.4l0.1,0.1v0.1l0.1,0.1l-0.1,0.1v0.1v0.1v0.1l0.3,0.6l0.4,0.4l0.4,0.2v0.1
		h0.1l0.2,0.2l0.2,0.3v0.1l0.1,0.1v0.1l0.1,0.1l0.1,0.2l0.1,0.1l0.2,0.1l0.4,0.4l0.1,0.2l0.1,0.1v0.1l0.1,0.3l0.1,0.3l0.1,0.4
		l0.2,0.5l0.5,0.3l0.1,0.1l0.1,0.2v0.2l0.1,0.3l0.2,0.5v0.1l0.1,0.1l0.1,0.1h0.1l0.2,0.3l0.4,0.7v0.1l0.1,0.1v0.2l0.1,0.1v0.3v0.1
		l-0.1,0.1v0.1l-0.1,0.1l-0.1,0.1v0.1l0.1,0.1l0.3,0.6l0.4,0.6l0.1,0.1v0.1l0.3,0.3v0.1l0.1,0.1h0.1l0.1,0.1l0.2,0.1l0.1,0.1
		l0.2,0.1H52H52l0.1,0.1v0.1h0.1l0.3,0.7l0.3,0.5v0.1l0.1,0.1v0.1l0.5,0.7l0.1,0.1l0.1,0.1h0.1l1,0.7l0.5,0.4l0.5,0.3l0.4,0.3v0.1
		l0.1,0.1l0.1,0.4l0.1,0.2v0.4v0.1l0.1,0.1v0.2l0.2,0.1l0.5,0.3l0.2,0.2l0.2,0.1l0.1,0.1l0.2,0.1l0.3,0.2l0.1,0.1l0.2,0.2l0.5,0.3
		l0.1,0.2l0.1,0.1l0.7,0.4l0.1,0.1l0.3,0.1l0.1,0.1l0.4,0.4l0.2,0.2l0.1,0.1l0.1,0.1l0.2,0.2l0.3,0.2l0.2,0.2l0.4,0.2h0.1l0.2,0.1
		h0.1l0.3,0.1v0.1h0.1l0.7,0.6l0.1,0.1l0.4,0.6v0.3l0.4,0.4l0.4,0.3l0.3,0.2l0.1,0.2l0.2,0.1l0.1,0.1v0.1h-0.1l0.2,0.2l0.4,0.4
		l0.5,0.4l0.1,0.1v0.1v0.3h0.1h0.3h0.3h0.1v-0.1l-0.1-0.4l-0.1-0.1l-0.2-0.3v-0.1l-0.1-0.1l-0.1-0.1l-0.1-0.1l-0.1-0.1V140l-0.1-0.1
		l-0.1-0.2l0.1-0.1v-0.1h0.1h0.3H67h0.1l0.1,0.1l0.1,0.1h0.1v0.2h0.1l0.1,0.1l0.5,0.4l0.4,0.1l0.4,0.3l0.4,0.2l0.2-0.1h0.1v-0.1
		l-0.1-0.3l-0.1-0.4l0.4-0.6h0.1h0.1l0.3,0.4l1.2,1.3l0.4,0.4l0.3-0.3V141v-0.1l0.1-0.1l0.1-0.6v-0.1l0.1-0.1l-0.1-0.1v-0.1v-0.1
		l0.2-1.8l0.1-0.6v-0.5v-0.1l-0.1-0.2v-0.1v-0.1v-0.1l0.1-0.3l0.1-0.1v-0.6V135v-0.1l-0.2-0.3l-0.2-0.2v-0.1v-0.1l-0.1-0.1V134v-0.2
		l0.1-0.1v-0.2l0.1-0.1v-0.3v-0.1h0.1v-0.1l0.1-0.2v-0.1l0.3-0.3v-0.1v-0.1l0.1-0.1v-0.1l-0.1-0.1l-0.1-0.1l-0.2-0.1l-0.2-0.1
		l-0.1-0.1v-0.1l-0.1-0.1l0.1-0.1v-0.1l0.3-0.9v-0.1v-0.1h0.1l0.1-0.2v-0.1l0.2-0.1l0.1-0.1l0.1-0.1l0.1-0.1h0.1l0.1-0.1l0.1-0.1
		v-0.1l-0.1-0.9h-0.1v-0.1l-0.1-0.1l-0.1-0.1h-0.1l-0.1-0.1l-0.1,0.1h-0.1h-0.1h-0.1l-0.1-0.1h-0.1v-0.1l-0.1-0.1h-0.1V128l-0.1-0.1
		v-0.1v-0.1v-0.2v-0.3v-0.1v-0.1h-0.1h-0.2h-0.1l-0.1-0.1h-0.1l-0.1-0.2l-0.1-0.1l-0.1-0.1v-0.1v-0.1v-0.1v-0.1l0.1-0.1v-0.1V126
		v-0.1v-0.1h-0.1v-0.1l-0.3,0.1l-0.8-0.1l-0.1-0.1h-0.1h-0.2l-0.1-0.1h-0.1h-0.1h-0.1l-0.1,0.1H69h-0.4v-0.1h-0.1l-0.1-0.1l-0.4-0.2
		H68h-0.1l-0.4,0.4v0.4v0.1l-0.1,0.1v0.3l-0.1,0.1l-0.1,0.1l-0.1,0.1H67l-0.2,0.2h-0.1l-0.1,0.1l-0.1,0.2v0.1v0.1h-0.1v-0.2v-0.1
		l0.1-0.2h0.1v-0.1l0.1-0.1h0.1l0.1-0.1H67l0.1-0.1h0.2v-0.1l0.1-0.4v-0.3l-0.1-0.1l0.6-0.8l0.1-0.1v-0.1v-0.1v-0.2v-0.1l-0.1-0.1
		v-0.2l-0.2-0.1h-0.1V124h-0.1l-0.1,0.1l-0.5-0.3v-0.1l-0.3-0.2h-0.1l-0.1-0.1v0.1l-0.1,0.1v0.2h-0.1l-0.1-0.1v-0.1v-0.1l0.1-0.1
		v-0.1l0.1-0.1h0.1v-0.1V123v-0.1v-0.2l-0.1-0.1l-0.1-0.2v-0.1l-0.2-0.3v-0.3l-0.1-0.3v-0.1h0.1v-0.2v-0.1v-0.1v-0.1L66,121v-0.1
		l-0.1-0.1v-0.1h-0.1v-0.1v-0.1v-0.1v-0.2l0.1-0.1l-0.2-0.4v-0.1l-0.1-0.1h-0.1l-0.4,0.2l-0.1,0.1l-0.4-0.2l-0.1-0.1l-0.6-0.2h-0.1
		h-0.1l-0.2,0.1l-0.1,0.1h-0.1l-0.4-0.1h-0.1l-0.3-0.2l-0.1-0.1l-0.4-0.4l-0.4-0.3v-0.1l-0.2-0.1l-0.3-0.2l0.2-0.5l0.5-0.3l0.2-0.2
		h0.1l0.1-0.1l-0.1-0.1l-0.1-0.1l-0.3-0.1h-0.3l-0.4-0.1l0.4-0.1l0.1-0.1l0.3-0.4v-0.1h-0.1v-0.1l-0.3,0.1l-0.4,0.2h-0.1h-0.3
		l0.1-0.1H61l0.1-0.1h0.3l0.2-0.1l0.7-0.4v-0.3l0.1-0.1h0.3H63l0.1-0.1h0.1v-0.1V115v-0.1l-0.2-0.4v-0.2v-0.2V114H63V114v-0.1h-0.1
		l-1.1-0.9l-0.1-0.1l-0.2-0.1h-0.1h-0.1h-0.1l-0.5,0.2l-0.1,0.1v0.1h-0.1v0.1l-0.1,0.1h-0.1l-1.1,0.6l-0.1,0.1h-0.1H59h-0.2h-0.1
		l-0.5,0.1l-0.1,0.1l-0.1,0.1l-0.2,0.2h-0.1h-0.1l-0.1-0.1h-0.1l-0.3-0.3h0.3v0.1h0.1v0.1l0.1,0.1l0.1,0.1h0.1l0.1-0.1l0.4-0.2
		l0.2-0.1l0.3-0.2l0.8-0.4l0.4-0.3H60l0.1-0.1v-0.1V113v-0.1l-0.1-0.1l-0.1-0.2l-0.4-0.3l-0.1-0.1l-0.1-0.1l-0.1-0.1v-0.1h-0.1h-0.1
		l-0.7-0.1h-0.4v0.1h-0.2h-0.1l-0.2-0.1h-0.1l-0.1-0.1l-0.2-0.2l-0.9-0.8l-0.1-0.1v-0.1l-0.1-0.1v-0.1v-0.1v-0.1v-0.1V110v-0.2
		l-0.3-0.8h-0.1l-0.2-0.1l-0.1-0.1h-0.1l-0.1-0.1l-0.2-0.1l-0.4-0.4l-0.4-0.3l-0.1-0.1l-0.2-0.1h-0.1h-0.1h-0.1l-0.2,0.1h-0.1h-0.1
		h-0.2l-0.4-0.2h-0.1l-0.1-0.1v-0.1l-0.1-0.1l-0.1-0.1v-0.1l-0.2-0.4v-0.1v-0.1v-0.1v-0.1v-0.1v-0.1l-0.1-0.1l-0.2-0.2l-0.1-0.1
		l-0.3-0.1l-0.5-0.4l-0.1-0.1v-0.1v-0.1l0.1-0.1h-0.6h-0.2h-0.1l-0.1,0.1H50l-0.1,0.1v0.1l-0.1,0.1v0.1v0.1l0.1,0.1v0.2H50l0.2,0.3
		l0.1,0.1v0.1l0.3,0.6v0.3l-0.1-0.1l-0.1-0.1l-0.1-0.1v-0.1v-0.1v-0.1l-0.1-0.1v-0.1l-0.1-0.1l-0.1-0.2l-0.5-0.3h-0.1l-0.1-0.1h-0.1
		l-0.1,0.1l-0.1-0.1l-0.2-0.1l-0.1-0.1l-0.3-0.2l-0.1-0.1l-0.2-0.2l-0.1-0.1l-0.1-0.1v-0.1l-0.1-0.2v-0.1l-0.1-0.2l-0.1-0.4
		l-0.1-0.1l-0.1-0.1l-0.2-0.4l-0.2-0.3h-0.1h-0.1H47l-0.1,0.1l-0.1,0.1v0.1v0.1v0.1l0.1,0.2v0.1v0.1h-0.1l-0.1-0.2v-0.1l-0.1-0.1
		v-0.1v-0.3v-0.1l-0.1-0.1h-0.1h-0.1h-0.1v0.1h-0.1v0.1h0.1h0.1v0.3v0.1h-0.1l-0.2-0.4v-0.1l0.1-0.2v-0.1l0.1-0.1v-0.1v-0.1v-0.4
		l-0.1-0.1l-0.4-0.3l-0.6-0.6l-0.4-0.3l-0.2-0.1h-0.2h-0.1l-0.1-0.1l-0.1-0.1l-1.1-1.1H43l-0.1-0.1h-0.1v-0.1l-0.6-0.3l-0.4-0.3
		h-0.2h-0.1l-0.1-0.1l-0.3-0.1H41l-0.1-0.1l-0.4-0.3v-0.2l-0.3-0.4l-0.4-0.3l-0.1-0.1l-0.3-0.2l-0.4-0.1l-0.5-0.3v-0.3V96l0.1-0.2
		v-0.3l-0.1-0.1l-0.4-0.3l-0.2-0.1L37.9,95L37.8,95h-0.3l-0.2-0.6v-0.3V94v-0.1l-0.1-0.1v-0.1l-0.2-0.2v-0.1L37,93.4L36.5,93
		L36,92.7l-0.1-0.2l-0.1-0.1l-0.2-0.2l-0.1-0.1L35.5,92l-0.2-0.2h-0.1L35,92H35L34.7,92l-0.5,0.2l-0.1,0.1H34h-0.1h-0.1l-0.1-0.1
		v-0.1V92h-0.1V92h-0.1l-0.1-0.1l-0.3-0.1h-0.3l-0.6-0.1h-0.1h-0.1L32,91.8H32v0.1h-0.2L31.6,92h-0.2L31.2,92h-0.1h-0.7L30.1,92
		l-1-0.3h-0.1l-0.2-0.1h-0.1l-0.4-0.3l-0.2-0.1L28.2,91h-0.1v-0.1v-0.1v-0.1l-0.3-0.2l-0.4-0.2l-0.5-0.2h-0.1L26.1,90H26v0.1
		l-0.4,0.2L25.4,90.5z M147.9,135.4v0.2l-0.1,0.2v0.2v0.2l0.1,0.2v0.2l-0.2,0.7l-0.2,0.7l-0.2,0.6l-0.4,0.4l-0.4,0.6l0.1,0.2
		l0.1,0.3l0.3,0.4l0.6,0.1l0.2-0.1l0.3-0.5l0.1-0.2l-0.1-0.1h-0.2l0.1-0.2l0.1-0.1l0.4-0.2l0.2,0.1h0.1l0.4-0.2l0.2-0.1l0.2-0.3
		v-0.1l-0.8-0.6h-0.1l-0.2-0.2v-0.3l0.1-0.4l0.1-0.5l0.1-0.3l0.5-0.3l0.2,0.3l0.1,0.2v0.2l0.1-0.1v-0.2v-0.2V136l-0.1-0.4v-0.2
		l-0.3-0.3h-0.2l-0.1-0.1l-0.1-0.3h0.1v-0.1h-0.1h-0.1l-0.1,0.1h-0.1l-0.3,0.2l-0.1,0.1l-0.1,0.1L147.9,135.4z M57,139L57,139
		l-0.5-0.3l-0.4-0.2h-0.1l-0.2,0.2l-0.1,0.1l0.7,0.5h0.4l0.2,0.1H57V139L57,139L57,139z M146.4,139.3l0.3-0.1l0.2-0.3l0.1-0.3v-0.1
		l-0.1-0.3l-0.2-0.1v-0.2l0.2-0.4l0.3-0.2l0.4-0.3v-0.3l-0.1-0.2v-0.5l-0.1-0.4l-0.2-0.1v-0.1l-0.4,0.3l-0.2,0.2l-0.2,0.1h-0.2
		l-0.1,0.1h-0.2h-0.1h-0.1l-0.3,0.4l0.1,0.2l0.1,0.1l0.1,0.3l0.1,0.4l-0.1,0.1l-0.1,0.1l-0.1,0.1l-0.1,0.2l-0.2,0.7v0.3l0.1,0.1h0.7
		L146.4,139.3z M150.8,138.6L150.8,138.6l0.1,0.2l0.1,0.1v0.1h0.1v0.1h0.2h0.1v-0.4v-0.1l-0.1-0.1h-0.1l-0.3-0.1L150.8,138.6
		L150.8,138.6z M149.4,132.9L149.4,132.9h-0.2h-0.2L149,133h-0.1h-0.1l-0.2-0.2l-0.1,0.1l-0.3,0.3v0.2v0.1l0.3,0.3l0.1,0.1l0.2,0.1
		l0.4,0.1v-0.1l0.4-0.5v-0.1v-0.1v-0.1l-0.1-0.1L149.4,132.9z M171.6,131.4L171.6,131.4l-0.3,0.4l-0.2,0.2h0.1h0.1l0.4-0.2l0.3-0.2
		l0.2-0.4l0.1-0.3l-0.1-0.1H172h-0.1l-0.2,0.1l-0.1,0.1h-0.1l-0.4,0.1l-0.3,0.1l-0.1,0.1l-0.2,0.1l-0.1,0.1h-0.1v0.1l-0.1,0.1v0.2
		l0.1,0.1v0.1h0.1h0.2l0.4-0.3L171.6,131.4L171.6,131.4z M173.8,130.8L173.8,130.8L173.8,130.8L173.8,130.8l-0.2,0.1l-0.2-0.1
		l-0.2-0.1h-0.1l-0.1,0.1l0.3,0.4h0.1l0.1,0.1l0.4-0.1v-0.1v-0.2L173.8,130.8z M173.2,131L173.2,131l-0.2-0.2l-0.1-0.1h-0.2h-0.1
		h-0.1l-0.1,0.1l-0.1,0.3v0.1h0.1l0.5-0.1L173.2,131L173.2,131L173.2,131z M178.7,128L178.7,128l-0.8-0.3l-0.4-0.2h-0.5l-0.1,0.1
		l-0.1,0.2l-0.1,0.1l-0.6,0.3l-0.4,0.1l-0.1-0.1l-0.1-0.1l-0.1-0.1l-0.7-0.2h-0.2h-0.1h-1.2h-0.7h-0.6h-0.4l-0.4,0.5l-0.4,0.4
		l-0.4,0.3l-0.2,0.1l0.1,0.3l0.1,0.1l0.1,0.2l0.1,0.1v0.2v0.2l-0.1,0.1l-0.1,0.2v0.1l0.1,0.2v0.1l0.1-0.3l0.3-0.4h0.1l0.1-0.2
		l0.1-0.1v-0.2v-0.1v-0.3l0.1-0.1v-0.1l0.1-0.2l0.2-0.2h0.2l0.1,0.2l0.1,0.4l0.4,0.2l0.2,0.4l0.3,0.3l0.1,0.1l0.2,0.1h0.1l0.5-0.1
		l0.3-0.3l0.1-0.1l0.3-0.4l0.5-0.4l0.2,0.1h0.1l0.1,0.1v0.1v0.4h0.2l0.3-0.1l0.2,0.1l0.2,0.1l0.3,0.1l0.2,0.1h0.3l0.7,0.2h0.1
		l0.2,0.1l0.1-0.1l0.1-0.1l-0.1-0.2v-0.1l-0.2-0.2v-0.1l0.1-0.1l0.6,0.1l0.7,0.1h0.4h0.1l0.1,0.1l0.1,0.1v0.1v0.1l0.1,0.2l0.1,0.1
		h0.1l0.5,0.3l0.4,0.2l0.4,0.1l0.4,0.2l0.3,0.1l0.4,0.4l0.2,0.1l0.1,0.2l0.9,0.3l0.1,0.1v-0.2v-0.7l0.1-0.1l0.1-0.1v-0.2l-0.2-0.6
		l-0.2-0.2H183l-0.1-0.1h-0.2h-0.2l-0.1-0.1l-0.1-0.1v-0.2v-0.2v-0.1v-0.1l-0.2-0.4l-0.9-0.6l-0.1-0.1h-0.2h-0.5l-0.3,0.1H180h-0.2
		h-0.2l-0.1-0.1L178.7,128z M161.9,130.1l0.2,0.3l0.1,0.1l0.8,0.8l0.6,0.4l0.5,0.3l0.8,0.3h0.2l0.6-0.3l0.5-0.3l0.2-0.1l0.3-0.2h0.2
		h0.2h0.2l0.1-0.2v-0.1l0.1-1l-0.5-0.2l-0.1,0.1l-0.1,0.1l-0.2-0.2l-0.1-0.3l0.1-0.1l0.1,0.1h0.2l-0.1-0.3l-0.1-0.1l-0.4-0.3
		l-0.8-0.3l-0.3-0.1h-0.4h-0.2l-0.9,0.1l-0.5,0.1l-0.2,0.1l-0.1,0.1l-0.1,0.2h-0.2l-0.1-0.2l-0.1-0.1l-0.1-0.1h-0.1l-0.1,0.1
		l-0.2,0.2l-0.1,0.1V130.1z M168.5,129.9L168.5,129.9l0.4,0.2h0.1h0.1l-0.2-0.2l-0.2-0.3h-0.1h-0.2l-0.2,0.2L168.5,129.9
		L168.5,129.9z M81.4,128.8l0.4,0.3v0.2v0.2h0.1l0.4-0.1l0.1-0.3l0.5-0.2v-0.5l0.1-0.1L83,128l0.1-0.2v-0.1l-0.1-0.4l-0.8-0.6
		l-0.4-0.1l-0.7-0.3l-0.3,0.2h-0.3h-0.2l-0.1,0.1l-0.1,0.5v0.3l-0.1,0.1v0.5l-0.1,0.4l-0.1,0.1l0.2,1h0.2l0.7-0.2l0.1-0.1l0.1-0.2
		l-0.1-0.2l0.1-0.1L81.4,128.8L81.4,128.8z M70.4,123L70.4,123l-0.1,0.2l-0.4,0.3h-0.1l-0.3,0.1l-0.2,0.1l-0.1,0.1l-0.1,0.4v0.2
		l1,0.3h0.3l0.4-0.1l1.1,0.1l0.2,0.2l0.1,0.1v0.4l0.1,0.5l0.2,0.2l0.2,0.1h0.1l0.1,0.1v0.2v0.1l-0.1,0.1l-0.1,0.3v0.2l0.1,0.4v0.1
		l0.2,0.3H73l0.1,0.1h0.3h0.1l0.1,0.1l0.3,0.1l0.4,0.1l0.1,0.1l0.4,0.2l0.2,0.1l0.1,0.1l0.3,0.4h0.9l0.1-0.1v-0.4l-0.3-0.2l-0.1,0.1
		l-0.2-0.2l-0.1-0.1V128l0.2-0.4l0.1-0.1v-0.1v-0.2l0.1-0.1l0.2-0.2l0.1-0.2l0.2-0.1l-0.7-0.3l-1.1-0.2l-0.1-0.1l-0.2-0.2l-0.3-0.3
		v-0.1l-0.1-0.2l-0.3-0.7l-0.1-0.5V124v-0.1v-0.2l-0.1-0.4l-0.3-0.3l-0.2-0.4l-0.1-0.1v-0.2l0.1-0.1l-0.1-0.1l-0.5-0.4h-0.1
		l-0.6,0.2l-0.2,0.1l0.2,0.3l0.3,0.7H72l-0.4-0.1h-0.1l-0.2-0.2v-0.1v-0.4l-0.2-0.4h-0.2l-0.5,0.2l-0.3,0.2l-0.2,0.2l-0.1,0.3
		l0.2,0.1h0.1L70.4,123z M44.4,125l0.2,0.1l0.5,0.4h0.1l0.2,0.1h0.3l0.1,0.1l-0.1-0.2v-0.1l-0.1-0.1l-0.1-0.1l-0.1-0.1l-0.2-0.3
		l-0.1-0.2l-0.1-0.2v-0.1l-0.1-0.1l-0.2-0.2l-0.1-0.1l-0.2,0.1l-0.2,0.1l-0.1,0.4h0.1L44.4,125z M157.9,122.7l-0.4,0.1l-0.3-0.1
		l-1.3-0.3h-0.1h-0.2h-0.4l-0.5,0.1h-0.1l-0.1,0.1l-0.1,0.1l-0.2,0.5v0.3l0.3,0.5h0.5h0.3l0.4-0.2l0.2-0.1l0.3-0.2l0.4-0.1l0.3,0.1
		l0.2,0.1l0.2,0.1l0.1-0.1l0.1-0.1l0.1-0.1l0.4-0.1h0.6l0.1,0.1v-0.4l-0.1-0.3L157.9,122.7z M160.4,123.2l-0.2,0.1l-1-0.1l-0.1-0.1
		V123H159l-0.1,0.2l-0.1,0.1v0.1v0.1l0.1,0.1l0.4,0.2h0.2l1.6-0.1h0.6l1.2-0.2h0.1h0.1l0.2-0.1l0.1-0.1v-0.1h-0.1H163h-0.5l-0.4-0.1
		h-0.2h-0.1h-0.3h-0.7l-0.1,0.1H160.4z M40.3,119.6v0.2v0.3l-0.1,0.1l-0.1,0.2l-0.1,0.1l0.1,0.2l0.1,0.4l0.3,0.3l0.1,0.1l0.1,0.2
		l0.3,0.3l0.1,0.1l0.1,0.3v0.2l0.3,0.3l0.7,0.4l0.1,0.1h0.1l0.1,0.1L43,123v-0.2v-0.2l-0.1-0.2l-0.1-0.1l0.1-0.1l0.1,0.1l0.1,0.1
		l0.1,0.4l0.1-0.1l-0.1-0.4l-0.2-0.2l-0.1,0.1l-0.5-1l-0.2-0.4l-0.1-0.3l-0.3-0.4l-0.3-0.7l-0.2-0.2h-0.3l-0.2,0.2h-0.1l-0.4-0.1
		L40.3,119.6L40.3,119.6z M204,122.7l0.5,0.1h0.1v-0.1h0.2l0.3,0.1l0.7,0.2l0.3,0.1l0.1,0.1l0.1,0.1l0.4,0.2l0.7,0.1l1,0.1l0.4,0.1
		l0.7-0.3l0.6-0.1h0.1h0.1l0.1-0.2l-0.3-0.2h-0.1h-0.1l-0.4-0.1h-0.6l-0.4-0.1h-0.1l-0.7-0.1l-0.5-0.2h-0.4h-0.4h-0.4l-0.4-0.1
		l-1.1-0.1h-0.1l-0.1-0.1H204h-0.1l-0.2,0.1L204,122.7z M168,121.7v0.3v0.2l-0.1,0.2v0.1l0.1,0.1l0.2,0.2l0.3,0.2h0.2h0.1h0.3
		l0.1-0.1h0.1v-0.1h0.1h0.7l0.6,0.1h0.3h0.1h0.1l0.2-0.1l0.1-0.1v-0.1v-0.1v-0.1l-0.1-0.1l-0.1-0.2l-1.1-0.5l-0.7-0.4l-0.2-0.1h-0.2
		H169l-0.2,0.1l-0.1,0.1l-0.4,0.3l-0.1-0.1l-0.1,0.1L168,121.7z M193.7,117.6h-0.3l-1.1-0.4l-0.3-0.1l-0.3-0.2l-0.2-0.1l-0.7-0.1
		h-0.5h-0.1l-0.6,0.2l-0.4,0.2h-0.1h-0.1l-0.3,0.2l-0.8,0.7l-0.1,0.2l-0.1,0.1v0.1h-0.1h-0.1l-0.2,0.1h-0.1l-0.9,0.2l-0.2-0.1h-0.2
		l-0.4,0.1l-0.8,0.3l0.2,0.3v0.1l-0.2,0.7v0.1l-0.3,0.5h-0.1l-0.1,0.1h-0.2h-0.2l-0.2,0.2l-0.1,0.3l-0.2,0.3l0.4,0.3h0.2h0.1h0.2
		l0.2,0.1v0.1l0.1,0.2l0.4-0.2h0.1l0.1-0.1v-0.1h0.1l-0.1-0.1h-0.1v-0.1h-0.1l-0.1-0.1v-0.1l1.4,0.4v0.1l0.5,0.2v0.1v0.1h0.1
		l0.3,0.2l0.4,0.1l0.4,0.4l0.1,0.2l-0.3,0.3l0.1,0.3v0.1l0.2,0.3l0.3,0.5l0.3,0.2l0.2,0.1h0.1l0.5,0.4v0.1h0.1h0.1h0.1h0.2h0.1v-0.1
		l0.2-0.1h0.1l0.1-0.1h0.2h0.1l0.1-0.1h0.1h0.1v0.1l0.1,0.1v0.1h0.1v0.1v0.1l0.2,0.1h0.1l0.4-0.2l0.1-0.1h0.1h0.1l0.1,0.1h0.1h0.1
		v0.1h0.1h0.3l0.5-0.2l0.5-0.2h0.4l0.5,0.1h0.1l0.1,0.1h0.4l0.4-0.1l0.5-0.3l0.5-0.3h0.3v0.3l-0.2,0.2l-0.3,0.1l-0.2,0.1h-0.1
		l0.1,0.1l0.1,0.2h0.1l0.4-0.2l0.1-0.3l0.1,0.1v0.4l-0.2,0.3l-0.3,0.2h-0.1l-0.3,0.3h0.1l0.1,0.3v0.1v0.1v0.3l-0.1-0.1l-0.1-0.2
		l-0.2-0.3l-0.1-0.1l-0.1,0.1v0.1l-0.1,0.7v0.1l-0.1-0.4l0.1-0.3l-0.2-0.2h-0.2l-0.3,0.1h-0.2l-0.5-0.2l-0.4-0.4l-0.3-0.1h-0.4
		l-0.2,0.1l-0.2,0.1l-0.2,0.1l-0.1,0.1l-0.2,0.2v0.1l-0.1,0.1l-0.3,0.3l-0.2,0.3l-0.1,0.1l-0.2,0.1l-0.3,0.2l-0.1,0.1l-0.1-0.1
		l-0.1-0.1h-0.1v-0.1h-0.1l-0.1-0.1l-0.1-0.1H191l-0.3-0.1l-0.9-0.1h-0.4h-0.1h-0.2h-0.1v0.1l-0.8,0.4l0.5,0.8h0.1l0.4-0.1h0.1h0.2
		h0.1h0.1h0.2l0.6,0.4h0.1l0.4,0.3v0.1l0.2,0.3v0.3l0.3,0.3h0.1l0.1,0.1h0.1h0.1v-0.1v-0.1v-0.1l0.2-0.1l0.1,0.1l0.1,0.1v0.1v0.1
		v0.1l-0.1,0.1l0.2,0.3l0.1,0.1l0.1-0.1l0.1,0.1l0.2,0.3l-0.1,0.1l-0.1,0.1l-0.4,0.2l-0.2,0.4l0.1,0.3l0.2,0.3v0.1l0.1,0.2h-0.1
		l0.2,0.4l0.2,0.3h0.1l0.4,0.1l0.2-0.2l0.1-0.1h0.1l0.1,0.1h0.5h0.1h0.1l0.3-0.3l0.6-0.6v-0.1v-0.1l-0.2-0.1V132l-0.1-0.2l0.1-0.1
		v-0.1l0.4-0.4l0.3-0.1l0.1-0.2h0.1v-0.2l-0.1-0.3l-0.1-0.1l0.1-0.1l0.2-0.1h0.2v-0.3v-0.2v-0.1v-0.6v-0.1h0.1V129l0.2-0.2l0.1-0.2
		l0.4-0.4l0.2,0.2v0.3v0.1h-0.1l-0.3,0.3l-0.4,0.3l-0.1,0.3v0.1v0.1l0.1,0.3v0.2v0.1h-0.1l-0.1,0.1v0.1h-0.1v0.1v0.1l0.3,0.6
		l0.2,0.1l0.2,0.1h0.1v-0.1v-0.2v-0.1h0.1l0.5,0.7l0.4,0.3l0.1-0.1l0.3-0.2h0.1l0.1,0.1l0.1,0.1l0.1,0.2l-0.1,0.1H198v0.2l0.1,0.2
		l0.2,0.1l0.3,0.3l0.2-0.1v-0.2l0.1-0.2v-0.1l0.3,0.1h0.1l0.1,0.2l0.3,0.3l0.3-0.1h0.1v-0.1h0.1v-0.2h0.1l0.2-0.2h0.2h0.2l0.6,0.1
		h0.4v0.1l-0.2,0.1h-0.1h-0.1h-0.1l-0.1-0.1l-0.6-0.1h-0.1l-0.1,0.1v0.1l-0.2,0.6v0.1l0.4,0.3l0.3,0.2l0.7,0.4l0.5,0.3l0.1,0.1
		l0.4,0.2l0.2,0.1h0.1h0.1h0.1l0.1-0.1h0.2h0.1h0.1l0.3-0.1l0.4,0.1l0.3,0.1l0.2,0.1l0.4,0.1h0.1l0.1-0.1h0.2h0.4h0.1l0.2,0.1
		l0.1,0.2l0.1,0.1l0.2,0.1l0.5,0.3l0.5,0.2h0.3h0.2l0.6,0.3l0.1,0.1l0.5,0.3l0.7,0.4l0.1,0.1l0.8,0.1l1,0.3l0.3-0.1l0.2,0.2l0.3,0.3
		l0.2,0.1l0.4,0.3h0.3v0.1l0.1,0.1h0.1l0.3,0.1l0.3,0.3l0.1,0.2l0.8,0.4l0.3,0.2l0.1-0.1l0.1-0.2v0.1v0.1v0.4l-0.1,0.3v0.1v0.1v0.2
		v0.1l0.1,0.3h0.1l0.3-0.1l0.1-0.1h0.1l0.1-0.1h0.3h0.2l-0.3,0.2l-0.4,0.2v0.1l-0.1,0.1h0.1v0.1h0.1v0.1l0.4,0.1h0.1v0.5l0.1,0.2
		l0.2,0.3l0.1,0.5v0.1v0.1l0.1,0.1v0.1v0.1l0.2,0.3l0.1,0.1l0.1,0.1l0.1,0.1l0.3,0.3l0.5,0.5l0.1,0.2h-0.1H218l0.1,0.2v0.1v0.1
		l0.4,0.2l0.4,0.3h0.1h0.2l0.1,0.1h0.1l0.2,0.1l0.1,0.1v0.1l0.2,0.1h0.1l0.1,0.1h0.1v0.1h0.2l-0.2,0.1l-0.1-0.1H220l-0.1-0.1
		l-0.2-0.1l-0.1-0.1l-0.1-0.1l-0.1-0.1h-0.1l-0.1-0.1h-0.2H219h-0.4l-0.1,0.1l-0.1,0.1h-0.1l-0.1,0.1l-0.1-0.1H218l-0.1-0.1
		l-0.2,0.1h-0.1h-0.1v0.1v0.1v0.1l0.1,0.1l0.7,0.6l0.1,0.1l0.4,0.1l0.9,0.3h0.3h0.2h0.1l0.1-0.1l0.2-0.1l-0.2,0.3v0.1h-0.1h-0.1H220
		h-0.2h-0.1h-0.1h-0.1l-0.3-0.2h-0.2l-1-0.1l-0.1,0.1v0.1h0.1l0.1,0.1l0.3,0.1l0.4,0.2v0.1l0.1,0.1l0.1,0.1h0.1v0.1l0.1,0.1l0.1,0.3
		l0.3,0.3h0.1h0.1l0.2,0.1l0.1,0.1v0.1l-0.1,0.1l-0.1,0.1v0.1l-0.3,0.5v0.1v0.1v0.1v0.1v0.1l-0.1,0.1h-0.1l-0.1,0.1h-0.1v0.1
		l-0.1,0.2v0.4l-0.2,0.3l-0.1,0.2v0.1v0.1l0.1,0.1l0.3,0.4h0.1l0.1-0.2l0.1-0.1v-0.1l0.4-0.3l0.6-0.2l0.1,0.1v0.1l0.1,0.1l0.1,0.1
		l0.2,0.1h0.1h0.2h0.1h0.1l0.4-0.1h0.1l0.2-0.1l0.1-0.1l0.1-0.1h0.4h0.2h0.3h0.3h0.2l0.2-0.1h0.1l0.2-0.1l0.2-0.1v-0.1l-0.1-0.1
		v-0.1l0.1-0.3l0.5-0.2l-0.1,0.3l-0.3,0.6h-0.1l-0.1,0.2H224l-0.1,0.1l-0.1,0.2l0.1,0.1l0.2,0.3l0.1,0.1h0.1l0.1,0.1l0.2,0.1
		l0.4,0.3l0.1,0.1l0.4,0.4l0.7,0.5l0.1,0.1l0.2,0.4l0.3,0.3v0.1h0.1l0.1,0.1l0.2,0.2l0.3,0.3h0.1l0.2,0.3l0.1,0.2l0.1,0.1h0.1
		l0.1,0.1h0.1l0.1,0.1h0.1l0.1,0.1l0.2,0.1v-9.9v-0.1l-0.1,0.1h-0.2l-0.2-0.3l-0.1-0.3h-0.1V145v-0.3v-0.2l0.2-0.1l0.2-0.5v-0.1
		l-0.1-0.1l0.1-0.1l0.1-0.4h0.1h0.1v-1.5v-4.8v-10.2h-0.2h-0.6l-0.2,0.1h-0.2v0.1h-0.1l-0.1-0.1v-0.1v-0.1l0.2-0.1v-0.1v-0.1v-0.1
		h-0.1v-0.1h-0.1l-0.4-0.1l-0.4-0.1l-0.3-0.1h-0.4l-0.1,0.1l-0.2,0.1l-0.5-0.3l-0.2-0.2v-0.1v-0.1h-0.3h-0.1l-0.3,0.2h-0.4h-0.2
		h-0.2h-0.1h-0.1H223l-0.1-0.1l-0.7-0.3l-0.7-0.4v-0.1h-0.1l-0.3-0.1l-1.4-0.7h-0.2l-0.1-0.1h-0.2l-0.1-0.1l-0.1,0.1H219l-0.1-0.1
		h-0.1l-0.1-0.1l-0.2-0.1v-0.1h-0.1v-0.1l-0.1-0.1l-0.1-0.1l-0.1-0.1l-0.1-0.1H218H218l-0.1-0.1h-0.1h-0.1l-0.3-0.1l-0.4-0.1
		l-0.3-0.1l-1.3-0.4l-0.4-0.4l-0.2-0.1l-0.1-0.1l-0.3-0.1h-0.1l-0.4,0.1H214l-0.1,0.1l-0.3,0.1h-0.1l-0.2,0.1l-0.1,0.1l-0.4,0.2
		l-0.1,0.1l-0.6,0.4l-0.4,0.2h-0.3l-0.1,0.1l-0.3,0.1l-0.1,0.1v0.3l0.1,0.2l0.1,0.1l0.1,0.1h0.1l0.1,0.1l0.1,0.4v0.1l-0.2,0.2h-0.1
		h-0.3h-0.1H211l-0.4,0.1l-0.7,0.4l-0.3,0.1v0.1h-0.1h-0.5H209h-0.1l-0.3-0.1V125h-0.3h-0.3H208l-0.2,0.2l-0.1,0.2v0.1v0.1v0.1v0.1
		l-0.3,0.7l-0.1,0.1v0.1v0.1h-0.1v0.1h-0.1l-0.2,0.2h-0.1l-0.3,0.1l-0.3,0.2h-0.1l-0.3,0.4l-0.1,0.6v0.1l-0.1,0.1l-0.1,0.1l-0.1,0.1
		l-0.3,0.1l-0.3,0.2h-0.1v0.1l0.1,0.1v0.1l-0.3,0.2l-0.3,0.1h-0.1l-0.1,0.1l-0.2,0.2v0.2l-0.1,0.1v0.1l-0.1,0.1H204l-0.1,0.1h-0.1
		v0.1l-0.5,0.1h-0.1l-1-0.1l-0.4-0.2h-0.1l-0.4-0.4l-0.1-0.1L201,129v-0.3l0.1-0.1h0.1v-0.4v-0.1V128H201l-0.1,0.1v0.1l-0.1,0.1
		l-0.1,0.1h-0.1h-0.1h-0.1h-0.1v-0.1l-0.2-0.5v-0.3v-0.1v-0.1V127v-0.4v-0.1l-0.1-0.1l-0.1-0.1l-0.2-0.1l-0.2-0.1l-0.3,0.3v0.1v0.1
		v0.3l0.1,0.4l0.1,0.2v0.1v0.1v0.2v0.1h-0.1h-0.1h-0.1L199,127l-0.2-0.3l-0.1-0.3l-0.3-0.3l-0.1-0.1h-0.1l-0.1-0.2l-0.2-0.3
		l-0.1-1.2v-0.5l-0.1-0.2l-0.2-1h0.1l0.3-0.3l0.3-0.3V122v-0.2l0.1-0.3v-0.1l0.1-0.1l0.1-0.1l-0.3-0.5l-0.1-0.1l-0.1-0.1l-0.1-0.1
		l-0.2-0.1l-0.1-0.3l-0.4-0.6l0.2-0.3l0.1-0.1l0.2-0.2l-0.5-0.4l-0.1-0.1h-1v0.1l-0.1,0.1h-0.8l-0.5-0.1h-0.1l-0.1-0.1h-0.1h-0.1
		l-0.1-0.1l-0.1-0.1l-0.1-0.1l-0.3-0.3L193.7,117.6z M149.9,120.9l-0.3,0.3l-0.1,0.1l-0.2-0.4v-0.2h0.1l0.1-0.1v-0.1v-0.1l-0.2-0.2
		l-0.1-0.1l-1.1,0.2l-0.1,0.1l-0.3,0.3v0.1l-0.2,0.3v0.1v0.2v0.1v0.1l0.3,0.5l0.1,0.1h0.1h0.1l0.3-0.3l0.1-0.1l0.1-0.2l0.1-0.1v-0.1
		l0.3-0.4l0.2-0.1l0.1,0.2l0.1,0.4v0.1v0.1l-0.1,0.1l-0.1,0.1H149v0.1v0.1l0.2,0.1l0.1,0.1l0.3-0.3v-0.1v-0.3l0.1-0.2v-0.1l0.1-0.1
		h0.1l0.2,0.2v0.1v0.1v0.1h0.3h0.2l0.4-0.3l0.1-0.4V121v-0.1v-0.1h-0.1l-0.4-0.2l-0.2-0.1h-0.2l-0.1,0.1l-0.1,0.1L149.9,120.9
		L149.9,120.9z M89.6,119.6L89.6,119.6h-0.3l-0.2-0.1h-0.2h-0.4l-0.2,0.3v0.1v0.3l-0.1,0.3v0.1l-0.1,0.1v0.1v0.1l0.1,0.1h0.1v0.1
		h0.1h0.1l0.8-0.4l0.4-0.3v-0.1l-0.1-0.1v-0.3L89.6,119.6L89.6,119.6z M168.4,120.7L168.4,120.7h0.6l0.2-0.2h-0.1l-0.3-0.1v-0.1
		h-0.1h-0.1h-0.1h-0.1L168.4,120.7L168.4,120.7z M204.7,118.2h-0.4h-0.2h-0.4v-0.1l-0.4-0.1l-0.1,0.1l0.2,0.3l0.1,0.1l0.2,0.2h0.1
		v-0.1h0.2l0.1,0.1l0.3,0.3l0.1,0.1l0.5-0.3h0.2v0.1l0.1,0.3v0.1v0.2l0.2,0.8l0.3,0.2l0.2,0.1l0.2-0.1h0.1h0.2h0.1l0.2,0.2h0.1h0.1
		h0.2l0.5-0.1l0.3-0.1l0.1-0.1l0.2-0.2l-0.1-0.1l-0.4-0.2h-0.2h-0.1l-0.4-0.5l-0.2-0.3l-0.8-0.7l-0.2-0.1h-0.1l-0.2,0.2h-0.1
		L204.7,118.2z M182.5,119.5L182.5,119.5L182.5,119.5l0.1,0.2l0.1,0.2l0.1,0.1v0.1l-0.1,0.1l0.1,0.1l0.1,0.2l0.1,0.2v0.1l0.4,0.3
		l0.2,0.1l0.4,0.1h0.1v-0.1l0.1-0.1l0.1-0.3l0.1-0.1l0.1-0.5v-0.2v-0.4l-0.2-0.3H184H184l-0.3,0.1l-0.1-0.2h-0.1h-0.1h-0.1h-0.1
		L182.5,119.5L182.5,119.5z M182.2,119.2l0.4-0.1l0.5-0.1l0.2-0.1l0.2-0.1h0.1l0.1-0.2l-0.1-0.2h-0.2l-0.2,0.3h-0.4h-0.6l-0.4,0.1
		l-0.2,0.1l-0.3,0.3h0.1h0.2l0.1-0.1h0.4L182.2,119.2z M167.1,118.7h0.4h0.2l-0.1-0.5l-0.2-0.3h-0.1h-0.1h-0.1l-0.1,0.1l-0.1,0.4
		v0.1L167.1,118.7L167.1,118.7L167.1,118.7z M168.8,116.6l-0.2-0.1l-0.3,0.2l-0.3,0.1H168l-0.1-0.2h-0.1l-0.2,0.1l-0.2,0.5l0.1,0.1
		v0.2l0.4,0.3l0.1,0.1l0.2,0.5v0.1v0.1l0.1,0.2h0.1l0.3-0.1l0.3-0.2l0.3,0.3l0.1,0.2l0.3,0.1h0.1h0.3l0.1-0.1l0.3-0.3v-0.1l-0.2-0.3
		l-0.3-0.2l-0.4,0.1h-0.1v0.1h-0.1h-0.1v-0.1L169,118l-0.1-0.1v-0.1h0.1v-0.1v-0.1l0.1-0.1h0.1v-0.1l0.1-0.1v-0.1v-0.1l-0.1-0.2
		L168.8,116.6z M143.5,117.4L143.5,117.4h0.2v-0.1v-0.1v-0.1l-0.1-0.1l-0.2-0.1l-0.4,0.1l-0.3,0.2l-0.2,0.3l0.1,0.1l0.1-0.1l0.1-0.1
		v-0.1l0.1-0.1L143.5,117.4L143.5,117.4L143.5,117.4z M182.5,117L182.5,117L182.5,117l-0.2-0.1l-0.6,0.2l-0.1,0.1l0.1,0.3l0.5,0.1
		h0.1l0.1-0.1h0.1l0.1-0.1l0.1-0.2v-0.1L182.5,117z M143.7,117h0.4l0.1-0.1h0.1v-0.1v-0.2l-0.4-0.2h-0.1v0.1h-0.2l-0.1,0.1l-0.1,0.1
		v0.1l0.1,0.1L143.7,117L143.7,117z M61.6,116.8L61.6,116.8l0.4,0.1h0.4l0.5-0.2H63v-0.1v-0.1H63l-0.1-0.1v-0.1l-0.4-0.1v-0.1h-0.3
		h-0.1l-0.1,0.1h-0.1v0.1l-0.1,0.2L61.6,116.8z M170.4,107.2L170.4,107.2h-0.2h-0.1l-0.1-0.1v-0.4l0.2-0.2h0.1l0.2-0.2l0.4-0.5v-0.1
		l0.1-0.1v-0.2h-0.4l-0.2,0.2l-1,1.1l-0.1,0.1l-0.1,0.1l-0.4,0.6l-0.3,1l0.1,0.1v0.2l-0.1,0.1v0.1l-0.2,0.4l-0.1,0.2l-0.1,0.2
		l-0.1,0.1l-0.1,0.1v0.2v0.5v0.1h0.1h0.2l0.1-0.1l0.2,0.4l-0.1,0.3v0.1l0.4,0.1l0.2,0.1v0.1l-0.1,0.3l-0.1,0.1l-0.2,0.2l-0.1,0.4
		v0.3l0.3,0.6l0.2,0.2l0.2,0.2l0.2,0.6v0.5l-0.1,1.1l-0.1,0.2l0.2,0.3l0.1,0.1l0.3,0.2h0.2h0.1l0.1,0.2l0.2,0.2v0.1v0.1l0.2,0.3
		l0.3,0.4l0.1,0.2v0.2l0.2,0.1l0.4,0.2l0.4,0.3v0.1l0.1,0.1h0.2h0.5l-0.2-0.2l-0.3-0.2l-0.4-0.4l-0.2-0.3l-0.2-0.3l-0.2-0.3
		l-0.1-0.2l-0.1-0.2l-0.1-0.1l-0.3-0.6l-0.4-1.1v-0.1l-0.1-0.3v-0.1l0.1-0.1l0.1-0.1v-0.1V114l-0.2-0.1l0.2-0.6v-0.1l0.2-0.1h0.2
		h0.4l0.4,0.1l0.1,0.1l0.2,0.1l0.3,0.1h0.3h0.1h0.5h0.1l0.1,0.2l0.3,0.1l0.1,0.1h0.3l0.4,0.1l0.2,0.1l0.2,0.1h0.2l0.2,0.2h0.1
		l-0.2-0.3l-0.2-0.2h-0.2l-0.3-0.1l-0.2-0.1v-0.2v-0.1l-0.1-0.6l-0.2-0.1h-0.2l-0.4-0.1l-0.5-0.3h-0.1l-0.1-0.1H172l-0.3-0.3
		l-0.1-0.3v-0.1l0.4-0.4l0.2-0.1h0.1l0.2-0.1h0.1h0.2l1-0.6l0.1-0.2l0.2-2l-0.1-0.1h-0.1h-0.2h-0.1l-0.3,0.1l-0.4,0.1h-0.1l-0.2,0.1
		l-0.2,0.1l-0.7,0.4l-0.1,0.1l-0.1,0.2l-0.2,0.3v0.2h0.2l0.1,0.1v0.1v0.2l-0.1,0.2h-0.2h-0.2h-0.3l-0.3,0.3l-0.2,0.3l-0.1,0.3v0.3
		l-0.2,0.2l-0.2,0.1l-0.1,0.1h-0.1l-0.2-0.1l-0.4-0.4l-0.1-0.2l-0.1-0.2l0.1-0.1l0.1-0.2l0.8-0.5l0.3-0.3l0.1-0.1l0.3-0.5l0.2-0.8
		l-0.1-0.9l-0.1-0.1l-0.1-0.1L170.4,107.2z M181.6,115.5h-0.5l-0.3,0.1v0.2l0.1,0.2h0.3l-0.1-0.2h0.2h0.1l0.2,0.3l-0.2,0.1l-0.6-0.1
		h-0.1h-0.1l0.1,0.1l0.5,0.2l0.4,0.1l0.1-0.1l0.3-0.1l0.2,0.5l0.2-0.2l0.3-0.1h0.1l0.1,0.1l0.1,0.4l0.1,0.1h0.1h0.2h0.1h0.2l0.2-0.1
		l0.1-0.1l0.1-0.1l0.1-0.1l-0.2-0.2l-0.1-0.1l-0.3-0.1l-0.5-0.2l-0.4-0.4l-0.1-0.3h0.4l0.1,0.1l0.4,0.5l0.4,0.1l0.2,0.2l0.2,0.3
		l0.1,0.1h0.3l0.4-0.2l0.3,0.1l0.4,0.2l0.2-0.2l0.1-0.1v-0.1l0.1-0.2l-0.1-0.3v-0.2l-0.2-0.1l-0.5-0.3h-0.4l-0.8-0.2l-0.1-0.1h-0.1
		h-0.2l-0.2,0.1l0.1,0.1h-0.3l-0.1-0.1l-0.2,0.1L181.6,115.5z M39.7,116.5l0.2,0.4v-0.1l0.1-0.3v-0.1h-0.1v-0.1l-0.1-0.1l-0.1-0.1
		l-0.1-0.1V116v-0.1l-0.1-0.1v-0.1v-0.1l-0.1-0.1v-0.1l-0.3-0.3v-0.1h-0.1H39l-0.2,0.1h-0.1l0.4,0.4L39.7,116.5L39.7,116.5z
		 M66.4,115.3L66.4,115.3v0.2v0.2v0.1l-0.2,0.1l-0.1,0.1L66,116v0.1v0.1l0.5,0.2l0.3-0.1l0.3-0.1v-0.1h0.1h0.2l0.1,0.1l0.3,0.2
		l0.3,0.2l0.4,0.1v-0.2l-0.1-0.3l-0.1-0.2h-0.3l-0.4-0.3l-0.3-0.3l-0.1-0.1l-0.2-0.1h-0.1l-0.1-0.1h-0.2h-0.1V115.3L66.4,115.3z
		 M66.7,114.8l0.4,0.3h0.1h0.1v-0.1l-0.8-0.8h-0.2l0.1,0.3h0.1L66.7,114.8z M158,108.9L158,108.9l0.2-0.1h0.1h0.1l0.1-0.1v-0.1v-0.1
		h0.1l-0.1-0.1l-0.1-0.1l-0.2-0.1l-0.1-0.1v-0.1V108l0.1-0.1l-0.2-0.2l-0.5-0.1h-0.3l-0.7,0.5v0.1v0.1l0.1,0.1v0.1v0.1v0.1h-0.1
		l-0.4,0.3H156H156h-0.1h-0.1v-0.1h-0.1h-0.1l-0.2,0.3l-0.1,0.1l-0.1,0.1v0.1l0.1,0.1h0.1h0.1l0.2,0.1v0.1v0.1l-0.2,0.2h-0.4
		l-0.3-0.1h-0.1l-0.1,0.1l-0.2,0.1h-0.1v0.2l-0.1,0.3v0.1l-0.1,0.1h-0.1l-0.5,0.3l-0.8,0.3l-0.4,0.3h-0.4l-0.5-0.1l-0.5-0.2
		l-0.1,0.1h-0.1l-0.4-0.1l-0.4-0.2l-0.6-0.1l-0.2-0.1l-0.7,0.1l-0.4,0.1l-0.2,0.3H148l-0.2,0.1l-0.1,0.1v-0.1h-0.1l-0.2-0.1
		l-0.4-0.3H147V111l-0.9-0.3h-0.3h-0.2h-0.4H145l-0.5-0.2l-0.1-0.1h-0.1l-0.1,0.1l-0.1,0.1h-0.1H144h-0.1v-0.1l-0.1-0.2l-0.1-0.1
		h-0.1l-0.6,0.1l-0.8,0.1h-0.1H142H142v-0.1h-0.1l-0.2-0.3l-0.1-0.1l-0.1-0.1v-0.2l-0.2-0.1l-0.5,0.1l-0.1-0.1h-0.2l-0.2-0.2
		l-0.1-0.1h-0.1l-0.1-0.1H140l-0.3-0.1h-0.1h-0.2l-0.5,0.1h-0.1v0.2v0.1l0.1,0.1v0.1v0.1l-0.2,0.6l-0.2,0.2l-0.4,0.2L138,111
		l-0.1,0.3h-0.1v0.2l-0.1,0.3l-0.1,0.1l-0.5-0.2H137h-0.1l-0.3-0.3v-0.1v-0.2V111v-0.1v-0.1h-0.1h-0.1h-0.1l-0.1,0.1l-0.1,0.2v0.2
		v0.3l-0.1,0.1l-0.1,0.1H136l-0.2,0.1l-0.1,0.1h-0.1h-0.1h-0.1l-0.1,0.2l-0.1,0.1v0.1v0.1v0.1v0.1l0.1,0.1v0.1v0.1v0.1l-0.2,0.1
		l-0.1,0.1H135h-0.1h-0.1l-0.1,0.1v0.1l-0.5,1v0.1v0.1l0.1,0.1l0.1,0.1h0.1v0.1l0.1,0.1l0.1,0.1v0.1v0.1l-0.1,0.4v0.1l-0.1,0.1
		l-0.1,0.1v0.1l-0.2-0.1h-0.1v-0.1v-0.1l-0.1-0.1l-0.2-0.1v-0.1h-0.1V115l-0.1,0.1l-0.2,0.1v0.1v0.1l0.1,0.1l0.1,0.1l0.1,0.1
		l0.1,0.1h0.1h0.1l0.1-0.1h0.2v0.3v0.1l-0.1,0.2v0.1l-0.1,0.1v0.3L134,117v0.3l0.1,0.1l0.2,0.6v0.1l0.1,0.1l0.1,0.1l0.1,0.4v0.1v0.1
		v0.1l-0.1,0.1h-0.1V119l-0.1-0.2l-0.1-0.1v-0.1v-0.1v-0.1l-0.2-0.3h-0.1l-0.2,0.1v0.3h-0.1l-0.1,0.2l-0.3,0.2l-0.1,0.1l-0.2,0.1
		v0.1l-0.1,0.1l-0.1,0.4l-0.1,0.2v0.2l-0.1,0.2v0.1h-0.1l-0.1,0.1l-0.3,0.2v0.1l-0.2,0.2v0.1l-0.1,0.6v0.3l0.1,0.2l0.1,0.4l-0.1,0.1
		v0.1v0.2l-0.1,0.1l0.2,0.4v0.1h0.1l0.1,0.1l-0.1,0.4v0.1l-0.1,0.1l-0.1-0.1l-0.2,0.1h-0.1l-0.1,0.1l-0.1,0.1v0.1l-0.3,0.8v0.4v0.2
		v0.1l0.1,0.2v0.1v0.2l-0.6,0.6l-0.4,0.3h-0.1h-0.1l-0.1-0.1l-0.1-0.1l-0.2,0.1l-0.1,0.2l-0.1,0.4l0.1,0.3h0.1v-0.1h0.1h0.1l0.2,0.1
		h0.1v0.2l-0.2,0.6v0.1l-0.1,0.1v1.1v0.2h0.1l0.4,0.9h0.1v-0.1l0.1-0.1l0.2-0.1l0.2-0.1h0.4h0.3h0.1h0.1v-0.1l0.2-0.1l0.1-0.2
		l0.3,0.1l0.6,0.3l0.1,0.2v0.2l-0.1,0.1v0.1l-0.2,0.3v0.1l0.4,0.8l0.3,0.4v0.3l0.1,0.6v0.6v0.1l-0.2,1l-0.2,0.5l-0.3,0.3v0.1
		l0.1,0.3v0.1v0.1l0.1,0.1v0.3l-0.3,0.5l-0.3,0.3v0.1l-0.1,0.2h-0.1l-0.1,0.7v0.3l0.1,0.1v0.1l0.4,0.5l0.4,0.2l0.3,0.1h0.1l0.1,0.1
		v0.1v0.1l0.1,0.1h0.1h0.4v0.1l0.1-0.1l0.2-0.1l0.1-0.1v-0.1v-0.1l0.3-0.2l0.1-0.1h0.2h0.1v0.1h0.2l0.2,0.1h0.1h0.1h0.1l0.1-0.1
		l0.2-0.1l0.1-0.1h0.1l0.5-0.1h0.1l0.1,0.1v0.1l0.1,0.1l0.1,0.2h0.2l0.1,0.1v-0.1l-0.1-0.5l-0.3-0.6l-0.3-0.4l-0.3-0.5V138l0.1-0.1
		l0.1-0.3v-0.4v-0.1v-0.1v-0.4h0.1l0.1-0.1l0.3-0.2l0.1-0.4v-0.3l-0.1-0.5l-0.1-0.2l-0.1-0.1v-0.1v-0.1v-0.1l0.1-0.3v-0.4v-0.1v-0.1
		l-0.1-0.1l-0.1-0.1v-0.7v-0.1l0.1-0.1l0.1-0.3l0.1-0.3l0.2-0.2v-0.1v-0.1l-0.1-0.5V131l-0.1-0.1v-0.2v-0.7v-0.3v-0.2l-0.1-0.2v-0.1
		h-0.2l-0.4-0.3l-0.3-0.8l0.8-0.4l0.9-0.7l0.4-0.3h0.1l0.4-0.2l0.2,0.1l0.8,0.2h0.2l0.2,0.3v0.1v0.1v0.6l0.1,0.1l-0.1,1.2l-0.3,0.2
		l-0.2,0.1l-0.4,0.5v0.1h-0.1v0.2v0.1l-0.1,0.1l0.1,0.1v0.2l0.2,0.1l0.1,0.1v0.1l0.9,0.7l0.4,0.2l0.1,0.1h0.1l0.3,0.4l0.1,0.1v0.2
		l0.1,0.1l0.1,0.1h0.2l0.3,0.1h0.1l0.4,0.1h0.1l0.1,0.1v0.1h0.1v0.2v0.1v0.1l-0.1,0.2v0.1l-0.1,0.2h-0.1l-0.4,1.1v0.3l-0.1,0.3v0.2
		l0.3,0.3l0.1,0.1l0.7,0.3l0.8,0.1l0.4,0.1h0.1l0.4-0.1l0.1-0.2v-0.1h-0.1l-0.1-0.1v-0.1l-0.1-0.1V136V136v-0.1v-0.1l0.1-0.2v-0.1
		l0.1-0.1v-0.1l0.1-0.1l0.4-0.2l0.4-0.1l0.3-0.1l0.5-0.1h0.2h0.1l0.2-0.1l0.1-0.1l0.2,0.1l0.1,0.1l0.1,0.1v0.1v0.1h0.3h0.1l0.3-0.3
		l0.3-0.2v-0.2v-0.2v-0.3v-0.3l-0.1-0.3v-0.1l-0.1-0.1l-0.1-0.1h-0.1h-0.1h-0.1v0.1l0.1,0.1l0.2,0.1v0.1l-0.6,0.1l-0.1-0.1l-0.3-0.8
		l-0.1-0.4l-0.5-0.3l-0.6-0.3l-0.4-0.4l-0.1-0.1v-0.1l-0.1-0.1V131v-0.1l0.2-0.1h0.1l0.1-0.3v-0.1l-0.1-0.1l-0.1-0.1l0.3-0.5
		l0.2-0.2v-0.1h0.1l0.3,0.1l0.1-0.1l0.2-0.2v-0.1l-0.3-0.2h-0.1l-0.1,0.1V129l-0.4-0.3l-0.1-0.1v-0.1h0.1l0.1-0.2v-0.1v-0.1V128
		l-0.7-0.5h-0.1l-0.5-0.4l-0.2-0.7l-0.5-1l-0.6-0.5l-0.2-0.1l-0.1,0.1h-0.1l-0.2-0.1h-0.1l-0.1-0.1v-0.1l-0.3-0.4l-0.3-0.3h-0.3
		l-0.1,0.1l-0.3-0.6v-0.1v-0.2h0.1V123h0.1l0.5,0.3l0.3,0.3h0.1v0.2h0.4h0.2h0.1l0.1-0.1l0.2-0.2l0.1-0.1l0.1-0.2v-0.1V123l0.1-0.1
		l0.1-0.2l0.1-0.1l0.4-0.1h0.2l0.3-0.2l0.4-0.1h0.3l0.4-0.2l0.4-0.3l0.2-0.1v-0.1l0.3-0.3l0.5-0.6l0.3-0.3l0.3-0.4l0.4-0.4l0.1-0.1
		l0.1-0.2v-0.2v-0.1h0.1l0.1-0.1l1.1-0.1l0.4,0.1l0.1,0.2l0.3,0.4h0.1l0.2,0.1h0.1l0.1-0.1l0.1-0.1v-0.1l0.1-0.3v-0.2l0.1-0.1V119
		h0.1l0.1-0.1v-0.3l-0.2-0.4l-0.4-0.3h-0.1l-0.1-0.1h-0.1l-0.2-0.1h-0.6h-0.1v0.1l-0.1,0.1h-0.1h-0.1h-0.1h-0.2H148l-0.4,0.1
		l-0.3,0.2h-0.1l0.2,0.1l0.2,0.1h0.1h0.1h0.2l0.3,0.1v0.1l-0.2,0.1l-0.7,0.1H147h-0.4l-0.5-0.2l-1.1,0.1h-0.1l-0.2,0.1v0.1l-0.1,0.2
		v0.1v0.1v0.1l-0.1,0.1l-0.1,0.1l-0.8,0.1l-0.8-0.1h-0.1h-0.1l-0.2-0.2l-0.1-0.1V119v-0.1h0.1v-0.1l-0.1-0.1h-0.1l-0.2,0.1l-0.4,0.2
		h-0.1l-0.1,0.1v0.1l-1.1,1.3l-0.1,0.1l-0.1,0.2v0.1v0.1l-0.1,0.2l-0.1,0.1l-0.1,0.3h-0.2v0.1l-0.2-0.1l-0.7-0.1h-0.2v-0.1v-0.1
		v-0.1h-0.2l-0.3,0.2l-0.3,0.1h-0.1v-0.1l-0.3-0.5l-0.1-0.3v-0.3v-0.1V120l-0.1-0.1l-0.2-0.4l-0.1-0.1l-0.3-0.3l-0.1-0.1h-0.1
		l-0.1,0.1l-0.1,0.1h-0.1h-0.1l-0.1-0.1l-0.1-0.1l-0.4-0.4l-0.1-0.1l-0.3-0.4v-0.1l-0.1-0.2l-0.1-0.1l-0.2-1.1l-0.1-0.4v-0.1v-0.2
		l0.1-0.6l0.1-0.1h0.1v-0.1l0.1-0.1l0.1-0.3v-0.1v-0.1v-0.1l0.1-0.3l0.1-0.2l0.4-0.6l0.3-0.3l0.1-0.1l0.3-0.2V113l0.4-0.2h0.1h0.1
		h0.2h0.4h0.3l0.5,0.2l0.3,0.2l1,0.2h0.2h0.1v-0.1l0.1-0.1l0.4-0.2h0.1h0.1l0.2,0.1h0.1v0.1l0.5-0.1h0.2l0.1-0.1v-0.1v-0.1h0.1v-0.1
		l0.7,0.1h0.1l0.1,0.1v0.1l0.1,0.1l0.2,0.2h0.4h0.1l0.4-0.1h0.1v-0.1h0.1V113h0.1h0.6h0.5h0.3h0.1h0.2h0.2h0.2h0.4h0.8h0.8h0.1h0.3
		h0.1h0.1l0.1-0.1l0.1,0.1l0.2,0.2v0.1l0.2,0.2l0.2,0.2l0.1,0.1l0.1,0.1h0.1h0.2l0.1,0.1h0.1h0.2h0.1h0.8h0.3h0.5l0.3-0.1l0.5-0.1
		l0.6-0.1l0.4-0.1h0.1h0.1h0.1l0.4-0.1l0.5-0.3l0.4-0.6l0.1-0.2v-0.1h0.1l0.4-0.7l0.4-0.3l0.3-0.4h0.1l0.1-0.1h0.2l0.4-0.6h0.1
		l0.2-0.4l0.1-0.1v-0.2l0.1-0.2v-0.2h0.1v-0.1L158,108.9z M60.2,112.7L60.2,112.7l0.1,0.2h0.1h0.1l0.4-0.1h0.1v-0.1l0.1-0.2h-0.1
		v-0.1v-0.1v-0.1l-0.1-0.1l-0.2-0.1V112h-0.1l-0.1,0.1h-0.1v0.1l-0.1,0.1v0.1v0.1L60.2,112.7L60.2,112.7z M58,110.7L58,110.7
		l-0.1-0.2l-0.2-0.3l-0.1-0.1l-0.1-0.1h-0.1l-0.1,0.1h-0.1v0.1v0.1v0.2l0.1,0.2v0.1v0.1v0.1v0.1h-0.2h-0.1l-0.1,0.2v0.1l0.2,0.2
		l0.1,0.1l0.1,0.1l0.3,0.1h0.1l0.2-0.1H58h0.1l0.1-0.1h0.1l0.7,0.1h0.1h0.1h0.1l0.1,0.1h0.1l0.3,0.4h0.1V112l0.1-0.1v-0.2v-0.1v-0.1
		v-0.1h-0.1l-0.1-0.1l-0.4-0.3l-0.2-0.2l-0.4-0.3h-0.2l-0.2-0.1L58,110.7L58,110.7z M120.5,95.9h-0.2h-0.5V96l-0.3,0.1h-0.1h-0.1V96
		l-0.5-0.2h-0.7l-0.1,0.1l-0.3,0.3h-0.1l-0.1-0.1l-0.2-0.2h-0.1l-0.4-0.2v0.1l-0.1,0.1V96l-0.4,0.4h-0.1l-0.3,0.3H116l-0.1,0.3V97
		v0.1l-0.2,1l-0.2,0.5v0.2v0.2v0.2v0.1v0.1l0.1,0.2l0.1,0.3v0.1v0.1h-0.1h-0.1h-0.1v0.2l-0.1,0.3l-0.1,0.1v0.4h-0.1l0.1,0.1
		l-0.1,0.6l-0.1,0.1l-0.4,0.2h-0.3l-0.1-0.1v-0.1l-0.3,0.1l-0.4,0.4v0.1l-0.1,0.3l-0.2,1.1l0.1,0.1l0.1-0.1h0.2l0.1,0.1h0.1l0.2,0.3
		L114,104v0.1h-0.1h-0.1l-0.4,0.3l-0.4,0.3l-0.3,0.3l-0.1,0.1h-0.1h-0.2l-0.3,0.1l-0.1,0.2v0.2l-0.1,0.1l0.2,0.3l0.2,0.2V106h0.1
		v0.2v0.4l-0.1,0.1l-0.3,0.2l-0.4,0.3l-0.2,0.6l-0.4,0.8l-0.1,0.1H111h-0.1h-0.1l-0.1-0.1l-0.1-0.1l-0.1-0.1h-0.1h-0.1v-0.1
		l-0.1,0.1l-0.4,0.1l-0.3,0.2l-0.6-0.2l-0.3,0.1h-0.1h-0.1l-0.1,0.1h-0.2h-0.1l-0.1,0.2H108l-0.1,0.1l-0.1,0.2l-0.2,0.2l-0.6,0.4
		h-0.1v-0.1h-0.1l-0.2-0.2h-0.5l-0.4-0.3l-0.1-0.1h-0.1l-1-0.3l-0.3-0.4l-0.1-0.1l-0.2-0.1H104h-0.4l-0.9,0.1l-0.8-0.1l-0.2,0.1
		l-0.7,0.3l-0.4,0.2l-0.1,0.2v0.1h0.1v0.1l-0.3,1.1h-0.1h-0.2h-0.1h-0.3h-0.1l-0.1,0.1l-0.3,0.2l-0.1,0.1v0.1l-0.1,0.1v0.1h-0.1
		h-0.1h-0.1h-0.3l-0.2-0.1l-0.1-0.1h-0.1l-0.1,0.1l-0.4,0.1H97H97l-0.3-0.2l-0.3-0.1h-0.2h-0.1l-0.8,0.2h-0.1h-0.3h-0.2l-0.1,0.1
		l-0.3,0.3v0.1l-0.1,0.1l-0.4,0.1l-0.4,0.1l-0.1,0.1h-0.1l-0.1-0.1h-0.1l-0.3-0.2l-0.6-0.4l-0.5-0.8h-0.1h-0.1h-0.1h-0.1l-0.1-0.1
		h-0.1l-0.1-0.1l-0.4-0.3v-0.1v-0.1l-0.3-0.4l-0.4-0.3l-0.4-0.3v-0.1h-0.1l-0.1-0.1l-0.1-0.2v-0.3l-0.3-0.4h-0.1l-0.1-0.2l-0.1-0.3
		l0.4-0.5l0.1-0.2l-0.4,0.4l-0.6,0.2l-0.4,0.3v0.3v0.1l-0.3,0.4v0.1l-0.1,0.1l-0.1,0.2h-0.1l-0.1,0.1h-0.1l-0.1,0.1h-0.1l-0.2,0.1
		v0.1l-0.1,0.1h-0.1v0.1v0.1v0.2v0.1v0.1v0.2v0.1l-0.1,0.2l-0.1,0.1v0.1l-0.1,0.1l-0.1,0.1v0.1h0.4l0.4-0.2l0.1-0.1v-0.2h0.1
		l0.3-0.4h0.1l-0.4,0.5l-0.1,0.1l-0.3,0.3h-0.1h-0.1l-0.4,0.1v0.5l0.1,0.2v0.1v0.1v0.1v0.1v0.1l-0.1,0.1l-0.1,0.1l-0.1,0.1h-0.1
		l-0.2,0.1l-0.1,0.1v0.1h0.1l0.1,0.1v0.1h0.1l0.1,0.5l0.1,0.2v0.8v0.1v0.1l-0.1,0.2v0.1v0.1H86l0.1,0.1h0.1h0.1h0.2h0.1v0.1l0.1,0.1
		l0.1,0.1l0.1,0.1l0.2,0.4l0.1,0.4l0.1,0.7v0.4h-0.1h-0.3h-0.2h-0.1v0.1l-0.1,0.1v0.1l0.3,0.6l0.1,0.4l0.1,0.2H87v0.1l0.4,0.2
		l0.1-0.1h0.1h0.3H88l0.2,0.1v0.1l0.4,0.4l-0.1,0.1h-0.1l-1-0.3v0.1v0.1l0.1,0.6v0.1l0.1,0.1l0.4,0.2h0.1h0.1v-0.1v-0.1V119l0.1-0.1
		l0.2,0.1l0.4,0.1h0.1l0.1,0.2l0.1,0.2l0.2,0.1h0.1l0.3-0.1l0.6,0.6l0.2,0.3l0.4,0.4l0.1,0.1L91,121v0.1l0.1,0.1v0.1v0.1v0.3
		l-0.2,0.8l-0.1,0.2v0.1l-0.1,0.1l-0.2,0.1l-0.1,0.1h-0.1v0.1v0.2l0.1,0.2h0.1l0.1,0.1h0.2l0.2,0.1l0.1,0.1l0.1,0.1l0.1,0.3l0.1,0.2
		v0.1v0.1l-0.1,0.2v0.1l-0.1,0.1v0.1v0.2v0.1l0.2,0.1v0.1h0.1l0.2,1l0.2,0.9v0.3l0.1,0.1v0.1v0.1l-0.1,0.2l-0.1,0.1v0.1l0.1,0.3
		l0.1,0.1l0.1,0.1l0.1,0.1l0.1-0.1l0.1-0.1l0.1-0.1l0.1-0.1l0.5-0.3H93l0.2-0.1h0.1l0.1,0.1h0.1v0.1l0.1,0.1l0.1,0.4v0.1h-0.1v0.1
		h0.1v0.1h0.1h0.1l0.1-0.1l0.1-0.1l0.1-0.1v-0.1l0.2-0.2v-0.1h0.1l0.5-0.3h0.1H95v0.1l-0.4,0.2h-0.1h-0.2v0.1h-0.1l-0.1,0.1
		l-0.1,0.1v0.1h-0.1l0.1,0.1l0.6,0.3h0.1h0.1H95l0.4-0.1l0.1-0.1h0.1l0.3-0.2l0.1-0.1l0.4-0.2l0.3-0.2h0.1h0.1h0.4h0.1l0.1,0.1
		l0.1,0.1h0.1v0.1l0.1,0.1v0.1h0.1h0.1l0.1-0.1l0.5-0.3l-0.1-0.3l0.1-0.4h0.1v-0.1h0.1l0.1-0.1l-0.1,0.2v0.1l0.1,0.4l0.1,0.1
		l0.1,0.3l0.1,0.1l0.1,0.1v0.1v0.1v0.1v0.2h-0.1v0.1v0.3l0.1,0.4v0.1v0.3v0.1l0.1,0.1l-0.1,0.1v0.2l-0.1,0.2v0.1v0.1l0.3,0.2h0.1
		h0.1l0.2-0.1l0.1-0.1l0.4-0.5l0.4-0.3l0.1-0.1h0.1l0.2-0.1h0.1h0.2h0.1h0.1l0.2,0.1l0.2,0.1h0.1l0.2,0.2l0.2,0.2h0.1h0.1l0.4-0.1
		l0.1-0.1l0.1-0.1l0.4-0.3l0.2-0.1l0.1-0.1l0.4-0.3l0.1-0.1l0.1-0.3l-0.1-0.1v-0.1v-0.1l0.2-0.1l0.3-0.4l0.1,0.1l0.4,0.3l0.4,0.4
		l0.1,0.1l0.3,0.3l0.3,0.1l0.4-0.1v-0.1v-0.1l0.1-0.1h0.1h0.2h0.3h0.1v0.1l0.1,0.1v0.1v0.1v0.3v0.1v0.1l-0.1,0.2v0.1v0.1v0.1h0.1
		l0.1,0.1h0.1h0.2h0.2h0.1l0.2-0.1h0.2l0.1-0.1l0.7-0.4h0.3l0.5,0.1l0.3,0.2l0.1,0.1h0.1l0.3,0.1l0.3,0.2h0.1h0.1h0.1l0.2,0.2
		l0.3,0.3v0.1l0.1,0.1v0.1v0.1v0.1v0.8v0.8v0.3v0.1v0.1h0.1v0.1h0.3l0.1-0.1l0.3-0.1l0.2-0.2l0.3-0.3h0.1h0.1l0.1-0.1l0.2-0.1
		l0.2-0.1l0.7-0.3l0.4-0.2l0.2-0.1l0.3-0.1l0.7-0.3l0.9-0.3l0.1-0.1h0.1v-0.1l0.1-0.1h0.1l0.1-0.1l0.1-0.1h0.1h0.1h0.2h0.1l0.1-0.1
		l0.1-0.1v-0.2v-0.2v-0.1v-0.1v-0.1h0.1l0.3-0.7v-0.1l0.4-0.4l0.2-0.1v-0.3l-0.2-0.1l-0.3-0.4v-0.2v-0.1l0.1-0.4h0.1l0.3,0.4v0.1
		v0.1v0.1v0.1l0.1,0.1l0.1-0.1h0.1l0.1-0.1l0.3-0.4l0.1-0.2v-0.1v-0.1L119,127l-0.3-0.3l0.1-0.3l0.4-0.2l0.1,0.1h0.1l0.1,0.1v0.1
		v0.1h0.2v-0.1h0.1v-0.1v-0.1l0.1-0.1V126l0.1-0.4l0.1-0.4l0.1-0.2V125v-0.1l-0.3-0.1h-0.1h-0.1l-0.1,0.1l-0.2,0.1h-0.1l-0.4-0.3
		l0.2-0.3h0.2l0.1-0.1l0.1-0.1v-0.6v-0.5l-0.1-0.1h-0.2h-0.1h-0.2l-0.1,0.1l-0.1,0.1h-0.1h-0.1l-0.1-0.1l-0.1-0.1l0.4-0.2l0.3-0.3
		l0.5-0.2h0.1l0.1-0.1v-0.1h0.1v-0.1h-0.1v-0.1l-0.1-0.1v-0.2v-0.1l0.1-0.1l0.2-0.1l0.1-0.1h0.1h0.1l0.2-0.1l0.3-0.1l0.1-0.1
		l0.1-0.4l-0.2-0.4v-0.1h-0.1l-0.1-0.1v-0.1V120v-0.1l0.1-0.1v-0.1v-0.1h0.1v0.1v0.1v0.1v0.1l0.3,0.8h0.1l0.3-0.1h0.2l0.3-0.2h0.1
		h0.1v-0.1l0.2-0.4l0.3-0.4l0.1-0.2l0.2-0.2l0.4-0.4v-0.2l0.1-0.1l0.2,0.3h0.5l0.8-0.3v-0.1v-0.1l-0.2-0.4l0.3-0.9l-0.1-0.1h-0.1
		l-0.3,0.2l-0.1,0.1l-0.3,0.2l0.1-0.4v-0.4v-0.1l-0.1-0.3h-0.1l0.1-0.1v-0.1l0.1-0.2v-0.1v-0.1l0.1-0.2v-0.1l0.1-0.1h0.1v-0.2v-0.2
		l-0.1-0.1H124l-0.1-0.2v-0.2l0.1-0.3l0.2-0.5l0.2-0.4v-0.1l0.3-0.2l0.4-1v-0.1v-0.1l0.1-0.2v-0.1l0.3-0.2v-0.1l0.2-0.1l0.3-0.1h0.1
		l0.1,0.1l0.1,0.1l0.1,0.1h0.1h0.1l0.1-0.1v-0.1v-0.1l-0.3-0.4l-0.2-0.3l-0.2-0.3l-0.1-0.1l0.1-0.1l0.3,0.1l0.2,0.2l0.1,0.3v0.1
		l0.1,0.1l0.1,0.2h0.1l0.1,0.1h0.1l0.1,0.1h0.1l0.1,0.1l0.7,0.1l0.7,0.1l0.7-0.1h0.1h0.1l0.2,0.1l0.1,0.1h0.1h0.1h0.1l0.5-0.4h0.1
		l0.1-0.2l0.2-0.1v-0.1v-0.1v-0.2h-0.1l-0.2-0.1h-0.1h-0.1l-0.4-0.2l-0.2-0.2l-0.1-0.2h0.1l-0.1-0.1l-0.3-0.3l-0.5-0.4h-0.1h-0.1
		h-0.1l-0.4-0.2l-0.2-0.3l-0.5-0.4h-0.1l-0.6-0.3l-0.1-0.1l-0.3-0.4l-0.6-0.4l-0.2-0.3l-0.1-0.2v-0.5v-0.2l-0.1-0.1h-0.1l0.1-0.1
		l0.3,0.2l0.2-0.2l0.5-0.5h0.1l0.1-0.2V105v-0.1l-0.2-0.3l-0.3-0.3l-0.2-0.2l-0.1-0.1l-0.3-0.3l-0.2-0.2l-0.1-0.1l-0.1-0.1v-0.1
		v-0.1v-0.1V103l-0.1-0.1v-0.1h-0.1l-0.2-0.1l-0.3-0.1v-0.3l0.1-0.4l-0.3-0.5l-0.7-0.4l-0.5-0.1l-0.4-0.2v-0.2h0.1l0.1,0.1l0.3-0.2
		l0.3-0.4h0.1v-0.1V100l-0.2-0.1h-0.3h-0.1l-0.4-0.2l-0.1-0.1l-0.1-0.1v-0.1l0.1,0.1h0.1v0.1h0.1h0.1h0.2h0.1h0.1l0.1,0.1h0.1h0.1
		l0.1,0.1h0.1l0.1,0.1l0.1-0.1l0.1-0.1l-0.6-0.3l-0.5-0.2l-0.1,0.1h-0.1v0.1h-0.1v-0.2v-0.1h-0.3h-0.1h-0.1l-0.2,0.1H122l0.1-0.2
		h0.1h0.4h0.9l0.7,0.1h0.8l0.2-0.1h0.1l0.3-0.3v-0.1l-0.2-0.1h-0.1l0.1-0.2L125,98v-0.1h-0.1h-0.1h-0.1h-0.1l-0.4-0.3h0.1h0.1h0.3
		l-0.3-0.3l-0.4-0.3l-0.2-0.1h-0.1l-0.1-0.1v-0.1l0.1-0.1l0.4,0.2l0.3-0.1l0.2-0.2h-0.3h-0.1H124l-0.2-0.1l-0.1-0.1l-0.1-0.1v-0.1
		l-0.7-0.4h-0.1h-0.1l-0.1,0.1h-0.1h-0.5l-0.5-0.1h-0.1h-0.1h-0.1l-0.2,0.1H120.5z M64.8,111.4L64.8,111.4l0.1,0.3l0.3-0.2l0.1-0.1
		v-0.1l-0.7-0.4h-0.1l0.1,0.3l0.1,0.1L64.8,111.4L64.8,111.4z M56.4,110.7l0.4,0.3H57l0.3-0.2v-0.1l-0.1-0.1v-0.1v-0.1v-0.1v-0.2
		v-0.1l0.1-0.3v-0.1v-0.1l-0.1-0.1l-0.7-0.6l-0.1-0.1h-0.1h-0.1l-0.1,0.1h-0.1v0.4v0.1l0.2,0.8v0.1l0.1,0.2L56.4,110.7L56.4,110.7
		L56.4,110.7z M63.9,110.7l0.4,0.1h0.2h0.1l0.2-0.3l0.1-0.3v-0.1l-0.1-0.1v-0.1h-0.1h-0.1h-0.1l-0.3,0.1l-0.4,0.2l-0.2,0.2l0.1,0.2
		v0.1L63.9,110.7L63.9,110.7z M65.2,110.4v0.3l0.1,0.1h0.1h0.1h0.1l0.3-0.1l0.2,0.2l0.3,0.3l-0.1,0.3l0.2,0.1l0.1,0.1h0.1h0.1h0.1
		l0.1-0.3l0.2-0.4l0.1-0.2v-0.1l-0.1-0.1v-0.2h-0.1l-0.4-0.3l-0.5-0.1l-0.4,0.1L65.2,110.4L65.2,110.4z M58.6,110.6l0.3,0.1l0.6,0.3
		l0.6,0.4l0.1,0.1h0.1l0.1-0.1h0.1v-0.1v-0.1l-0.1-0.1l-0.3-0.4l-0.2-0.2l-0.1-0.1l-0.3-0.2l-0.1-0.1l-0.3-0.1l-0.1-0.1l-0.2-0.1
		h-0.1h-0.1h-0.2h-0.1l-0.1,0.1h-0.1l-0.2,0.4l0.2,0.2H58.6L58.6,110.6z M33.8,109.2l0.4,0.3l0.2,0.4l0.2,0.3l0.1,0.2l0.2,0.3
		l0.8,0.7l0.2,0.1v0.1l0.2,0.4l0.2,0.4l-0.1,0.1l0.1,0.1l0.5,0.2l0.3-0.3l0.1-0.2v-0.2v-0.2v-0.2v-0.5v-0.1l0.1-0.2l0.1-0.1
		l-0.1-0.4l-0.5-0.4l-0.3-0.1l-0.3-0.1l-0.6-0.9v-0.1l-0.1-0.1l-0.2-0.3l-0.4-0.1l-0.3,0.1l-0.1,0.1l-0.3,0.2l-0.2,0.1l-0.3-0.1
		l-0.2,0.1L33.8,109.2z M55.3,108.2L55.3,108.2l0.1,0.2l0.1,0.1l0.2,0.1v0.1h0.1l0.1,0.1h0.1H56h0.1h0.1h0.2h0.1l0.1,0.1h0.1
		l0.1,0.1l0.1,0.1l0.1,0.1l0.2,0.3l0.2,0.1l0.1,0.1h0.1l0.1-0.1v-0.1l-0.1-0.3v-0.3v-0.2l-0.1-0.1v-0.1h-0.1h-0.1l-0.4-0.2h-0.2
		h-0.3l-0.2-0.1h-0.2h-0.1l-0.1-0.1l-0.2-0.1h-0.1h-0.1h-0.1l-0.1,0.1L55.3,108.2L55.3,108.2z M52.7,107.3L52.7,107.3l0.1,0.2h0.1
		l0.3,0.1h0.1h0.1h0.1h0.1h0.1l0.1-0.1l0.3-0.2v-0.1h0.1v-0.1L54,107v-0.1v-0.1h0.1l0.2-0.3v-0.2v-0.1l-0.3-0.4l-0.1-0.1h-0.1h-0.1
		h-0.1l-0.7,0.2l-0.1,0.1h-0.1l-0.1,0.1v0.1v0.1l-0.1,0.4h0.1L52.7,107.3z M172.8,106.1L172.8,106.1l0.2-0.1l0.3-0.3l0.3-0.4v-0.1
		l0.1-0.2l0.2-0.6v-0.1v-0.1v-0.1l-0.5-0.7l-0.5,0.2l-0.1,0.1l-0.4,0.3l-0.2,0.3l-0.1,0.1l-0.3,0.4v0.3l0.1,0.7l0.1,0.3l0.3-0.1h0.3
		V106h0.1L172.8,106.1L172.8,106.1z M33.7,105.4l0.2,0.1l0.2,0.2l0.2,0.2l0.1,0.1v0.1l0.1,0.1h0.1V106v-0.3l-0.1-0.2l-0.2-0.4h-0.5
		l-0.3,0.1h0.1L33.7,105.4z M27.7,103.4H28l0.7,0.3l0.1,0.1l1.1,0.6l0.1,0.2v0.1l0.1,0.1l0.3,0.1l0.1-0.1h0.2l0.1-0.1l-0.1-0.2v-0.1
		v-0.2l-0.2-0.2h-0.1l-0.3-0.1l-0.3-0.2l-0.3-0.3l-0.2-0.3l-0.2-0.2l-0.1-0.1l-0.1-0.1h-0.2h-0.1h-0.1h-0.1l-0.1-0.1l-0.3-0.4
		l-0.1-0.1v-0.1H28h-0.3l-0.4,0.4h-0.1v0.1v0.1v0.1L27.7,103.4z M159.2,103.3L159.2,103.3L159.2,103.3l-0.1-0.2h0.1l0.1-0.1l0.1-0.1
		v-0.1l-0.1-0.1l-0.1-0.1h-0.1l-0.1,0.1L159,103v0.1l0.1,0.4h0.1h0.1V103.3L159.2,103.3L159.2,103.3z M124.2,100L124.2,100v0.2
		l0.2,0.3l0.3,0.3l0.2-0.1l0.1-0.4v-0.1l-0.1-0.1h-0.1l-0.1-0.1h-0.1h-0.2L124.2,100L124.2,100z M160.2,98.8L160.2,98.8l0.2,0.2
		l0.3,0.5l0.3,0.5l0.4,0.1v0.1h0.1v-0.1l0.1-0.2v-0.3l-0.5-0.9l-0.1-0.1h-0.1v-0.1h-0.1h-0.2h-0.1h-0.1L160.2,98.8L160.2,98.8z
		 M82.6,98.2l0.2,0.1L82.6,98.2v0.2l-0.2,0.2l-0.1,0.2h-0.1l0.2,0.1l0.3,0.2l0.5-0.2h0.1l0.3-0.5v-0.1h0.1v-0.3v-0.4l-0.1-0.1
		l-0.1-0.1L83,97v-0.2L83,96.7v-0.1l-0.3-0.1l-0.1,0.1l-0.4,0.4H82v0.1l-0.2,0.2l0.1,0.3l0.1,0.3l0.1,0.2h0.1L82.6,98.2z
		 M125.7,97.3L125.7,97.3l0.2-0.1h0.1v-0.1v-0.4l-0.1-0.2h-0.1h-0.2H125h-0.2l0.1,0.1l0.5,0.4L125.7,97.3L125.7,97.3L125.7,97.3z
		 M165.3,96.4L165.3,96.4L165,97l-0.1,0.1h-0.1l0.1,0.3l0.2,0.1h0.1l0.2-0.2v-0.1l0.3-0.8l0.2-0.2l0.1-0.1l-0.3-1l-0.2-0.2h-0.2
		h-0.2l-0.1,0.1v0.1l-0.2,0.6v0.1l0.1,0.3l0.1,0.1h0.1L165.3,96.4L165.3,96.4z M150.3,161l0.4-0.7l-0.3-0.2h-0.1l-0.1,0.1h-0.1
		l-0.4,0.4v0.1v0.2v0.1H150.3z M148.1,153.4l0.3-0.2l0.4-0.3l0.4-0.1h0.1v-0.1v-0.1h-0.1l-0.6,0.1h-0.1l-0.4,0.3L148,153v0.2h-0.1
		L148.1,153.4L148.1,153.4L148.1,153.4z M183.2,152.2L183.2,152.2l0.4-0.2V152v-0.1l0.4-0.2l0.4-0.1l0.4-0.3h0.1l0.1-0.1l-0.1-0.1
		l-0.6-0.2l-0.1,0.1l-0.2,0.3l-0.2,0.2l-0.3,0.2h-0.1v0.1l-0.4,0.3v0.1H183.2z M178.6,150.9l0.3-0.4l0.1-0.1v-0.1l-0.1-0.4l-0.1-0.1
		l-0.5-0.1l-0.1-0.1v0.1H178h-0.1h-0.1v0.1l-0.1,0.1v0.2v0.1l0.1,0.1l0.1,0.1l0.3,0.4l0.1,0.1L178.6,150.9L178.6,150.9z
		 M185.5,150.8L185.5,150.8l0.1-0.3v-0.2l0.2-0.3l0.1-0.2l0.4-0.2l0.4-0.4l0.3-0.3l0.3-0.6v-0.2L187,148l-0.1-0.7l0.2-0.1h0.1
		l0.2-0.1l-0.2-0.3l-0.2-0.2l-0.1,0.1h-0.3l-0.2,0.1l-0.4,0.6l-0.4,0.3l-0.3,0.3h-0.1l-0.3,0.3l-0.2,0.4l-0.1,0.2v0.2v0.1l-0.4,0.8
		l0.1,0.6l0.1,0.1H185.5L185.5,150.8z M184.6,148.3l0.2-0.2l0.1-0.1h-0.1l-0.6,0.1H184l-0.1,0.2v0.1l0.4,0.1L184.6,148.3z
		 M173.6,147.1l0.2-0.1l0.1-0.3v-0.1l-0.4-0.2h-0.1h-0.1v0.1l-0.2,0.1l-0.1,0.1v0.1l0.1,0.1L173.6,147.1L173.6,147.1z M110.3,147
		L110.3,147v-0.3l-0.1-0.1l-0.1-0.1v-0.1h-0.1H110h-0.1l-0.1,0.1v0.1l0.2,0.3L110.3,147L110.3,147z M200.3,145.2l0.2-0.3l0.1-0.3
		v-0.1l-0.1-0.1h-0.1h-0.1v0.1l-0.3,0.4v0.2L200.3,145.2L200.3,145.2z M69.7,144.6L69.7,144.6l0.1-0.4v-0.1h-0.1l-0.3,0.1l-0.1,0.1
		l-0.3,0.2v0.1l0.3,0.3L69.7,144.6z M137.4,143.7l0.2-0.8l0.1-1v-0.1v-0.3l-0.2-0.3l-0.1-0.3v-0.2h-0.1l-0.1,0.1v0.1v0.1l-0.1,0.3
		v0.1v0.4v0.5l0.2,0.7v0.1l-0.1,0.2v0.1l0.1,0.4v0.1L137.4,143.7z M201,143.9l0.3-0.5v-0.1v-0.1l-0.1-0.1h-0.1H201l-0.2,0.3v0.1v0.3
		L201,143.9L201,143.9z M192.2,141.8l0.4-0.6v-0.1V141v-0.1v-0.2h0.1l0.2-0.3v-0.1l0.1-0.1h0.1l0.1-0.1h0.1v-0.1l0.1-0.1l0.1-0.3
		l0.3-0.9v-0.1v-0.1h-0.1h-0.1h-0.1h-0.1v0.1l-0.4,1.1l-0.1,0.3l-0.1,0.1l-0.1,0.1l-0.1,0.1v0.1l-0.2,0.6l-0.1,0.2L192.2,141.8
		L192.2,141.8L192.2,141.8z M191.9,141.5L191.9,141.5l0.2-0.3v-0.1V141v-0.1l-0.4-0.5v-0.1l-0.2-0.3l-0.3,0.1v0.1v0.2l0.1,0.2
		l0.1,0.5v0.1v0.2v0.1l0.1,0.1l0.2,0.1L191.9,141.5z M102.7,141.2l0.2-0.1V141l0.1-0.1v-0.1l-0.1-0.2h-0.2h-0.2l-0.3,0.2v0.1v0.2
		l0.2,0.1H102.7z M144.2,139.5L144.2,139.5L144.2,139.5l0.1-0.2v-0.1l0.1-0.9l-0.2-0.3l-0.2-0.3l-0.1-0.1h-0.3h-0.1l-0.1,0.1
		l-0.1,0.1l-0.2,0.5v0.2v0.1l0.3,0.3l0.4,0.5H144.2z M195.4,134L195.4,134l-0.3-0.2l-0.3-0.2l-0.4-0.3h-0.1h-0.1l0.1,0.2v0.1
		l0.5,0.3l0.8,0.3L195.4,134z M117.9,133.1L117.9,133.1l0.2-0.1l0.7-0.4v-0.6l-0.1-0.5v-0.2l-0.1-0.3l-0.1-0.7v-0.1l0.1-0.4v-0.2
		v-0.1h-0.1l-0.6,0.4v0.1l-0.2,0.4l-0.3,0.9v0.1h-0.1v0.1v0.1l0.1,0.1v0.1l0.1,0.1v0.1l0.2,0.1v0.1v0.1v0.3l-0.1,0.2v0.1v0.1v0.1
		v0.1l0.1,0.1L117.9,133.1z M119.1,131.3L119.1,131.3V131l0.2-0.5v-0.1v-0.2l-0.1-0.1l-0.3,0.3l-0.2,0.4L119.1,131.3L119.1,131.3z
		 M48.4,129.9L48.4,129.9l-0.1-0.2l-0.1-0.1l-0.1-0.1l-0.1-0.2l-0.1-0.2l0.2-0.1h0.1h0.1l0.1-0.1v-0.1v-0.3v-0.1L48,128l-0.1-0.1
		l-0.4-0.4h-0.1h-0.1h-0.1l-0.1,0.1l0.1,0.7v0.1v0.1l0.3,0.2l0.2,0.2l0.2,0.1v0.1v0.1v0.2v0.1l0.2,0.2l0.3,0.3H48.4L48.4,129.9z
		 M169.3,129.6h0.4l0.1-0.1v-0.1v-0.2l-0.2-0.1h-0.2h-0.1l-0.2,0.2l-0.1,0.1l0.1,0.1L169.3,129.6L169.3,129.6z M77,128.6l0.1-0.4
		l-0.1-0.1l-0.3-0.1l-0.4,0.1l-0.1,0.2l0.4,0.3l0.2,0.1L77,128.6z M46.5,127.8l0.4-0.1v-0.1l0.1-0.1l0.1-0.1h0.1l0.1-0.1v-0.1v-0.1
		v-0.1l-0.1-0.1l-0.2-0.2l-0.6-0.5l-0.1-0.1h-0.1v0.1l-0.1,0.2l0.2,0.9L46.5,127.8L46.5,127.8L46.5,127.8z M162,126.2L162,126.2
		l0.2-0.3l-0.4-0.7l-0.1-0.2V125l-0.1-0.1v-0.1v-0.1v-0.1v-0.1l0.1-0.2v-0.1h0.1v-0.1l-0.1-0.1l-0.1-0.1l-0.1-0.1h-0.1h-0.1
		l-0.1,0.1v0.1l-0.1,0.2l-0.1,0.1v0.1l0.2,0.5l0.1,0.1v0.1l0.1,0.1l0.1,0.1v0.1v0.1v0.2l0.1,0.1v0.1l0.1,0.1v0.1l0.1,0.1L162,126.2
		L162,126.2z M180.4,124.3l0.2-0.1l0.6-0.2l0.3-0.1v-0.1v-0.5v-0.1v-0.1l-0.1-0.1l-0.1-0.1l-0.2-0.3v-0.2H181l-1.1,0.3h-0.1
		l-0.1,0.1h-0.1v0.1h-0.1l-0.1,0.1l-0.5,0.2l-0.2,0.1h-0.2l-0.1,0.1h-0.1v0.1l0.1,0.1l0.5,0.3l0.3,0.2l0.9,0.3H180.4z M85.7,122.6
		l0.4-0.1v-0.1l0.1-0.1v-0.1v-0.1l-0.1-0.1L86,122h-0.1l-0.4,0.2L85.7,122.6L85.7,122.6z M179.3,120.6l0.1-0.2l-0.4-0.2h-0.1
		l-0.4,0.2l-0.1,0.1v0.1l0.4,0.1L179.3,120.6z M201.4,120.2L201.4,120.2h0.2v-0.1l0.2-0.2v-0.3l-0.3-0.3l-0.2-0.1h-0.1H201l-0.1,0.2
		l-0.1,0.2v0.1l0.4,0.4H201.4z M66.7,117.3L66.7,117.3l-0.1-0.2l-0.2-0.3l-0.3-0.1h-0.1l-0.6,0.1l-0.2,0.2l-0.1,0.4l0.4,0.4l0.7,0.2
		L66.7,117.3z M39.7,117.6v-0.3V117v-0.3l-0.1-0.2l-0.1-0.2l-0.1-0.1v-0.1h-0.1l-0.3,0.4v0.1l-0.2,0.7v0.1l0.2,0.1L39.7,117.6z
		 M167,117.5L167,117.5h0.2l0.3-0.1v-0.2l0.1-0.4l-0.1-0.4l-0.1-0.1h-0.1h-0.1H167h-0.1l-0.2,0.1v1l0.1,0.1H167z M177.6,116.1
		L177.6,116.1l-0.1-0.3l-0.8-0.7l-0.1-0.1l-0.2-0.1h-0.1v0.1l0.4,0.3l0.5,0.5L177.6,116.1L177.6,116.1z M40.9,114.8l0.2-0.1h0.2
		l-0.1-0.1v-0.1l-0.2-0.1v-0.1h-0.1h-0.7H40h-0.1l-0.1,0.1l-0.1,0.1l0.1,0.1v0.1l0.5,0.1H40.9z M61.6,112.3L61.6,112.3l0.2-0.1v-0.1
		l0.2-0.2v-0.1v-0.1l-0.2-0.2l-0.2-0.1l-0.2-0.3h-0.1l-0.1,0.3v0.1v0.1v0.1v0.1L61.6,112.3L61.6,112.3L61.6,112.3z M61.6,110.8
		l-0.1-0.2l-0.1-0.2l-0.1-0.1v-0.1v-0.1h-0.1h-0.1l-0.1,0.1v0.1l-0.1,0.1l0.1,0.1l0.1,0.2l0.3,0.1H61.6z M39.7,108H40h0.1h0.1
		l-0.1-0.2l-0.2-0.1l-0.4-0.1h-0.1l-0.1,0.1v0.1l0.1,0.1L39.7,108L39.7,108z M71.9,102.6L71.9,102.6l0.3-0.4l0.2-0.3l-0.6-0.4h-0.1
		v0.3l0.1,0.7L71.9,102.6L71.9,102.6z M85.8,102.3l0.1-0.4l-0.1-0.1h-0.1l-0.1,0.1v0.1v0.1l-0.1,0.1l-0.1,0.1h-0.1v0.1l0.3,0.2
		L85.8,102.3z M165,97.9v-0.2l-0.3-0.4l-0.1-0.1h-0.1v0.3l0.3,0.7l0.1,0.1L165,97.9z M124.9,97.5l0.2-0.1l0.1-0.3v-0.1l-0.4-0.3
		h-0.1h-0.1l-0.1,0.2v0.1v0.1v0.1v0.1L124.9,97.5L124.9,97.5z M25.6,89.5l0.2-0.1v-0.1v-0.1L25.6,89l-0.5-0.1V89v0.1l0.3,0.3
		l0.1,0.1H25.6z"/>
</g>
</svg>
