<?xml version="1.0" encoding="utf-8"?>
<!-- Generator: Adobe Illustrator 23.0.1, SVG Export Plug-In . SVG Version: 6.00 Build 0)  -->
<svg version="1.1" id="Layer_1" xmlns="http://www.w3.org/2000/svg" xmlns:xlink="http://www.w3.org/1999/xlink" x="0px" y="0px"
	 viewBox="0 0 241.9 217.6" style="enable-background:new 0 0 241.9 217.6;" xml:space="preserve">
<style type="text/css">
	.st0{fill:none;stroke:#872222;stroke-width:0.2;stroke-linecap:round;stroke-linejoin:round;stroke-dasharray:0.32;}
	.st1{fill:#9A2E22;stroke:#872222;stroke-width:0.5;}
</style>
<title>bangladesh</title>
<g>
	<polyline class="st0" points="241.9,220.3 241.7,220.3 240.9,219.5 238,216.5 233.2,211.9 232.8,211.5 232.7,211.3 232.1,210.6 
		230.7,208.7 230.4,208.4 229.7,207.4 229.5,206.8 229.2,205.7 230.8,205 230.1,204 229.9,202.4 229.9,202 229.8,201.5 228.6,199.6 
		227.3,198.9 226.6,198.6 225.2,197.7 224.2,196.5 223.9,196.1 223.8,194.7 223.8,193.4 223.6,192.3 223.4,190.7 223,190.2 
		223.1,190.1 223.2,189.7 223.3,188.5 223,187.5 222.7,186.9 222.2,186.7 221.9,186.6 221.6,186.5 221.1,186.1 220.8,185.8 221,185 
		221.3,184.7 221.6,183.9 222.1,182.5 222.2,182.1 222.2,178.8 222.1,177.1 222,176 221.8,175.7 221.4,175.7 221,175.9 219.9,175.8 
		218.9,174.4 218.8,173.9 219,173.2 219.3,172.9 221.4,171.4 223.9,170.2 224.9,168.9 224.7,168.2 225.1,167.5 226.9,163.4 
		227.3,162.6 227.8,162.5 228.7,162 229.9,159.1 230,158.6 230.1,158.1 231,155.2 231.4,154.5 231.8,154.2 231.8,154 232.4,153.6 
		233.7,152.7 234.7,152 235.5,149.8 	"/>
	<polyline class="st0" points="235.5,149.8 235.9,150 236.2,150.1 236.7,150.1 237.5,149.9 237.8,149.9 238.6,149.8 239,150.1 
		239.2,150.6 240.1,150.8 241.9,150.4 	"/>
	<polyline class="st0" points="5.1,94.6 4.5,96 4.6,96.7 4.4,97.7 3.2,99 3.1,99.1 3,99.3 3,99.7 3.1,100.3 3.1,100.8 3.1,101.3 
		2.9,101.8 2.8,102 2.6,104.5 6,107 7.1,107.8 8.8,108.9 8.9,109 10.8,110.2 11.6,110.7 11.6,112.1 11.7,116.5 11.7,117.1 11.1,118 
		11.5,118.8 11.6,118.9 11.9,118.8 12.1,119.8 12.1,120.4 12.2,121.1 12.4,121.6 12.5,121.8 12.9,122.2 13.5,123.1 13.8,123.3 
		14.2,123.7 14.6,124 15.3,125.1 15.4,126.1 15.5,129.1 15.4,131.1 15.4,133.3 15.4,135.9 15.2,136.8 15.4,136.9 15.4,142.7 
		15.4,146.4 15.4,148.6 15.5,149.9 15.6,150.1 15.5,150.4 15.4,151.6 15.4,152.1 15.4,153.2 15.3,158.7 13.9,158.6 13.9,159.4 
		14.2,160 14.6,160.3 14.6,161.8 14.4,163.1 14.1,163.7 14.7,165 15.3,165.4 15.4,165.5 15.5,165.4 16,165.8 16.8,167.3 17.2,167.9 
		17.6,169.7 17.6,170.1 16.7,170.3 15.7,170.4 15.3,170.6 14.9,170.7 15,171 	"/>
	<path class="st0" d="M8,172.8l0.1-0.3v-0.6l-1.4-0.1H6.5l-0.6-1l-1-1.7l-1.5-0.1l-1.8-1.4l-0.4-0.5l-0.5-0.9v-0.3v-0.2l0.3-0.3
		l-0.2-0.4L0,164.8L0,164.8 M0,138.4l0.2-0.1l0.6-0.3l0.4-0.3v-0.4l-0.4-1.1L0,134.8"/>
	<polyline class="st0" points="47.4,84.3 46.9,85 46.2,86.3 45.4,88.5 47.4,91.3 48.7,93.2 49,93.3 49.3,93.4 49.2,94.1 49.2,94.7 
		49.3,95 49.9,97 49.7,97.8 49.5,98.1 49.5,98.6 50,99.2 50.7,99.9 51,100.2 51.1,102 50.4,104.1 50,104.8 49.7,104.8 49.1,104.4 
		48.6,104.1 47.6,104.7 46.8,106.9 47.7,108.1 48.1,108.3 48.4,108.7 48.2,109.5 47.1,112 46.3,113.1 45.7,113.7 45.1,113.6 
		43,114.2 42.7,114.6 42.6,115 42.7,115.4 43,115.9 43.2,116.3 42.5,117 40.1,119.2 39.6,120.2 39.7,120.5 39.9,121.1 40,122.3 
		39.4,124 38.8,125.6 37.2,126 36.7,125.8 35.8,125.8 34.4,126 34,126.2 33.8,126.7 33.2,130.3 33.1,130.6 33.2,131.5 33.3,133.7 
		33.3,134 33.2,134.4 33.3,134.5 33.3,135.1 33.2,135.6 32.8,136.1 32.5,137.5 33,139 33.1,139.6 33,140.5 32.8,141.2 32.4,142.8 
		32.2,144.4 32.2,144.8 32.3,145 32.9,145.9 33,146.3 32.9,147.4 32.8,148.4 32.7,148.5 32.8,149.3 33.2,154.8 33.4,156.7 
		32.9,157.4 32.5,159.7 32.9,160.1 33,162.6 33,164.1 32.9,165.8 32.4,167.2 32.3,167.6 32.3,169 	"/>
	<polyline class="st0" points="5.1,94.6 5.5,94.1 6.1,93.3 7.7,92.7 8.8,91 9.5,90.4 10.5,90.8 11.8,89.7 11.6,89.3 12.6,87.8 
		13,87.6 13.2,87.5 13.3,87.4 14,87.4 15,87.5 15.4,87.6 15.6,88.3 16.1,88.6 18,88.2 19,87.9 20.2,87.8 20.5,88 21.9,88.3 
		22.3,88.2 22.5,88.1 22.6,88 23,87.7 25.3,85.3 26.4,84.7 27.1,84 27.6,82.8 28.5,80.9 28.6,80.7 	"/>
	<polyline class="st0" points="28.6,80.7 28.6,79.8 28.7,77.8 28.5,77 28.3,75.8 28.5,75.1 30.8,74.7 32,74.5 32.9,74.3 33.7,73.5 
		34.7,73.1 35.6,72.9 36,73.1 38.2,74.9 40.6,77.5 42,79.2 42.1,79.7 42.2,80 42.6,80.7 43,81.1 43.6,81.2 43.9,81 45.4,81.7 
		45.9,82.1 46.5,82.9 46.7,83.6 47.4,84.3 	"/>
	<polyline class="st0" points="211.3,61.7 212.6,61.6 214.9,61.6 217,61.6 217.3,61.8 217.5,62.3 217.7,62.5 218,62.9 218.4,63.2 
		218.5,63.6 218.5,63.8 218.6,65.2 218.8,66.5 219.3,67 220,67.1 221.4,67.4 223.1,68.6 224.5,72.6 224.6,73.5 224.5,75 224.5,75.5 
		224.4,76.2 225.4,77.1 225.8,77.2 226.8,77.4 227.5,82.5 227.3,83.6 227.8,85.2 228,86.6 227.4,87.6 227.2,88.3 226.7,91.4 
		226.8,92.4 226.9,93.3 227.8,96.1 227.8,96.5 227.6,97 227.5,97.4 227.5,97.7 228,98.9 228.5,99.3 228.8,100 229,100.7 
		229.7,102.5 231.1,104.2 232.7,106.4 234.7,108.8 235.4,109.2 236.1,109.6 236.8,109.9 237.2,110.1 237.6,110.5 236.2,110.8 
		235.3,111.1 233.6,111.5 231.4,110.9 230.7,110.7 229.4,110.7 228.8,110.7 228.5,110.9 228.2,111.3 227.8,111.4 227.2,111.4 
		225.8,111.1 223.5,111.9 221.4,111.4 218.8,110.8 218.2,110.7 214.2,111.1 214,111.8 213.3,113 213.1,113.6 212.9,113.8 
		212.4,114.3 212.1,114.4 211.8,114.7 211.3,115.1 210.5,116.5 210.7,116.8 211.3,117 216.5,122.6 217,123.1 216.9,123.6 
		220.2,126.5 221.3,127.3 224.6,129.6 225,129.5 225.3,129.6 226.1,130.1 228.5,132.2 230.7,134.8 230.9,135.5 231.7,137 
		232.9,139.6 233.2,140 233.4,140.6 233.5,141.1 233.7,141.7 234.4,143.7 234.6,144.2 235.2,145.3 235.5,145.8 235.9,145.9 
		236.8,146.1 236.8,146.4 236.8,147.2 236.7,148.1 236.3,148.9 235.6,149.8 235.5,149.8 	"/>
	<polyline class="st0" points="125.9,194.3 126.1,194.3 126.6,194 126.6,193.8 126.3,193.3 126.3,193 127.3,191.8 127.9,191 
		129.4,188.8 129.6,188.3 129.8,186.5 129.7,185.9 129.8,185.2 130.2,183.3 130.5,182.7 130.9,182.3 131.2,181.7 130.9,181.2 
		130.5,180.8 130,179.8 130.2,177.9 131.3,176.9 131.8,176.9 133.5,175.1 135.9,172.9 137.7,170.9 138.3,170.2 138.9,170.1 
		139.3,170.1 139.6,169.5 139.9,168.9 140.7,168.5 141.8,167.4 142.5,167 142.8,167 143.7,167 144.2,165.2 144.9,163 145.1,162.5 
		146.4,162.9 149.8,160 150.9,159 151.1,159.3 151.2,159.7 151.3,160.3 151.3,160.6 151.6,161.1 151.9,161.2 152.5,161.4 
		156.4,161.3 157.2,159 158.2,158.4 159.9,159.3 161.3,159.8 161.7,159.9 162,160.4 162.3,161.3 162.3,161.9 162.7,162.4 
		163.3,162.8 163.6,162.8 164.4,162.8 164.9,163.2 165.5,163.9 165.6,164.4 165.4,164.8 165.4,165.7 165.7,166.9 165.7,167.2 
		166,168 166.3,168.2 167.2,168.3 167.5,168.2 168.6,168.3 169.7,168.2 170.3,167.9 170.8,167.5 170.8,167 171.2,165.7 171.6,165.5 
		172.3,165.5 173.1,164.7 173.5,163.7 173.6,163 173.6,162.6 173.1,162.1 173.5,161.1 174.4,160 175.3,159.6 176.3,159.1 
		177.9,157.8 178.2,157 176.7,155.2 176.1,154.9 176.8,154.5 177.6,153 177.9,152.7 178.3,152.3 178.7,152.1 180.7,149.9 180.5,149 
		180.4,148.7 180.4,148.4 180.5,147.9 180.7,147.3 180.8,147.1 181,146.8 181.1,146.4 181.5,145.9 181.8,145.7 182.2,145.1 
		182.6,144.3 183.3,143.1 183.2,142.5 183.1,141.8 183.2,141.3 183.3,141 183.5,140.6 183.8,140.3 184,140 184,139.7 184,139.3 
		183.7,138.7 183.6,138.1 183.7,137.1 183.9,136.8 184.1,136.4 184.5,136.2 184.8,136.3 185.3,136.4 185.7,136 186.5,135.1 
		186.4,134.4 186.3,134.1 186.3,133.5 187.4,133.1 187.8,133.1 188.4,133.3 189.6,133 190.6,132.6 192.4,130.7 192.7,130.1 
		192.8,129.5 193.2,126.8 193.2,126.5 193,126 193.9,121.6 195,119.8 195.8,119.2 196.5,118.9 197,118.9 197.9,118.8 198.5,118.6 
		198.9,118.2 199.3,117.7 199.5,115 199.1,113.2 199,112.6 199.2,110.6 199.4,109.9 199.6,109.7 200.5,109.4 201.6,109.2 
		201.7,109.2 202.4,108.5 202.6,108.2 202.7,107.7 202.5,107.2 203.4,103 203.8,101.5 204,100.9 204.2,100.4 204.4,99.9 204.6,99.7 
		204.9,99.3 205.4,98.7 205.8,98.1 206.2,97.5 206.4,97.1 206.4,96.9 207.3,96 207.3,95.3 207.8,94.1 209,92.3 210.5,90.7 211,90.4 
		212.1,90.8 212.6,90.9 213.2,91.1 213.7,90.9 214.2,90.6 215.9,89.5 216.6,88.7 217,88.4 217.6,88.3 217.9,88.1 220.3,86.7 
		220.8,85.6 220.7,84.3 219.9,83.7 219.8,82.7 220.1,81.5 220.4,80.5 220.5,79.1 220.2,78.4 220.7,76.9 220.6,75.7 219.1,74.8 
		218.5,73.8 218.1,73.4 217.7,73.4 217.1,73.3 216.5,73.3 215.5,73.2 214.1,73.3 213.1,72.6 213.3,72.3 213.4,71.3 213.4,70.9 
		213.3,70.1 213,69 211.8,63.7 211.3,61.9 211.3,61.7 	"/>
	<polyline class="st0" points="47.4,84.3 48.7,83.4 48.4,82.5 47.9,82.1 47.6,80.7 48.5,79.8 48.5,79.3 48,77.7 48.4,76 48.5,75.5 
		48.4,72.3 48.4,71 52.5,68 53.1,67.5 55.1,64.3 55.6,63.6 56.1,60.8 56.2,59.2 56.3,57.2 56.3,56 57.9,55.9 61.6,52.7 63.8,52.2 
		67.9,51.3 68.5,52 69.7,52.1 73,51.9 74.2,51.8 75,51.1 75.4,50.3 77.9,49.7 78.3,49.6 79.9,50.5 80.6,50.7 83.3,51.9 84.7,52.4 
		85.2,52.7 87.3,53.3 88.9,52.9 89.6,52.9 89.7,52.9 91.3,53.9 91.8,54.3 94.2,56.7 95.8,58.4 97.4,61.4 97.8,62.2 99.9,63.9 
		101.2,64 102.2,64 103.1,63.2 104.2,61.9 106.2,62.3 106.7,62.4 113.6,58.3 117.1,58.8 118.4,59.2 118.7,59.5 120.1,60.4 
		120.3,60.5 120.9,60.8 121.8,61.7 122.8,62.5 123.5,62.7 123.8,62.6 124.4,62.6 124.8,62.7 125.2,62.9 126,63.5 126.3,63.9 
		126.6,64.4 126.8,64.8 129.2,65.6 131.9,66.4 132.2,66.3 132.6,66.3 133.1,66.4 133.8,66.4 135.7,66.6 138.7,66.8 141.8,67 142,67 
		142.9,66 145.7,62.6 146.6,61.6 147,61.4 147.4,61.1 149.9,59.7 150.4,59.5 151.1,59.4 152.9,59 153.3,58.9 154,58.8 154.6,58.7 
		154.9,58.7 156,58.4 156.9,58 157.7,57.8 158.8,57.6 159.3,57.5 160,57.5 160.7,57.6 161.4,57.7 161.8,57.8 162.6,57.9 162.9,58 
		163.5,58 163.8,58 164.3,58 164.9,58 165.2,58 165.9,57.9 166.5,57.8 167,57.7 167.4,57.7 168.6,57.6 169.4,57.6 169.9,57.6 
		170.5,57.7 170.9,57.8 171.6,58 176.1,59.3 177.2,59.8 179,60.8 181.7,61.6 184.7,62.3 185.6,62.3 186.1,62.4 186.6,61.9 
		187.4,60.9 187.3,60.4 187.8,59.5 188.1,59.2 188.4,59.1 189,58.8 190.6,57.8 190.8,57.3 192.5,55.8 192.8,55.6 194.6,54.8 
		195.6,54.7 195.8,55 196.4,55 197.5,54.9 198.4,53.6 199.7,51.7 200.2,51.7 204.1,51.7 	"/>
	<polyline class="st0" points="204.1,51.7 204.2,51.9 206.2,54.7 208.5,57.9 211.3,61.7 	"/>
	<polyline class="st0" points="0,49 1.3,51.5 1.5,51.6 4,52 7.3,53.6 7.5,54.4 7.5,55 7.8,55.3 9.2,56.2 9.9,56.5 10.4,56.6 
		11,56.6 11.6,57.3 10,57.8 8.9,57.4 8.4,57.2 8,56.9 7.4,56.7 7.1,56.8 7.1,57.3 7,61.2 6.9,61.9 7.3,62.4 8.9,62.5 12,65.3 
		16,68.8 20.5,69.2 21.4,67.8 22.4,67.3 24.2,67.6 24.8,68 25.7,69 26,69.6 26.5,71.4 26.2,72.4 25,72.4 23.7,72.9 23.4,73.3 
		27.4,79.1 28.5,80.7 28.6,80.7 	"/>
	<polyline class="st0" points="204.1,51.7 203.7,50 203,47.3 201.7,42.3 201.3,40.4 201.3,40.1 201.5,39.8 201.7,39.5 202.1,39.3 
		202.6,39 203.7,39 203.8,38.9 204.1,38.7 204.6,38.4 204.7,38 204.6,37.5 205.8,36 206.3,35.4 206,34.4 205.9,33.7 206.1,33 
		207.2,30.6 209.3,27.9 210.4,26.1 212.2,23.3 213.3,21.5 214.8,19.3 217.8,15.9 222.8,10.2 226,6.5 227.8,4.6 229.5,2.6 230.9,0.9 
		231.4,0.4 231.5,0 231.6,-2.7 	"/>
	<polyline class="st0" points="0,30.8 0.4,30.6 2.1,31.2 2.6,31.4 3.2,31.7 3.8,31.3 4.5,31.2 7,31.1 7.5,31.1 7.9,30.9 9.3,29.5 
		12.9,26.4 21.8,26.1 23.2,26 31.5,25.9 33.3,25.8 36.9,25.9 39.2,26 39.4,24.9 39.6,24.5 43.8,25.2 47,25.9 47.3,25.2 47.4,24.7 
		47.8,23.4 50.5,21.2 51.2,21.1 51.8,21.1 52.2,20.9 52.8,20.4 52.8,20.4 53,20 53.1,19.8 53.9,16.7 54.4,14.7 55.9,11 56.3,10.5 
		56.5,10.3 57.1,9.9 57.6,9.7 57.9,9.6 57.9,3.9 57.9,2.7 58.4,1.2 58.8,0 58.9,-2.7 	"/>
	<path class="st1" d="M103.7,201.2h-0.4h-0.2l-0.3-0.1l-0.2-0.1l1.5-2l0.3,0.1l0.7,0.4l0.4,0.2l-0.1,1l-0.2,0.1l-1.3,0.3
		L103.7,201.2z M83.3,51.9l1.4,0.5l0.5,0.3l2.1,0.6l1.6-0.4h0.7h0.1l1.6,1l0.5,0.3l2.4,2.5l1.6,1.7l1.6,3l0.4,0.8l2.1,1.8l1.3,0.1h1
		l0.9-0.8l1.1-1.3l1.9,0.4l0.5,0.1l6.9-4.1l3.5,0.5l1.3,0.3l0.3,0.3l1.4,1l0.3,0.1l0.6,0.3l0.9,1l1,0.8l0.7,0.2l0.3-0.1h0.6l0.4,0.1
		l0.3,0.2l0.8,0.6l0.4,0.4l0.3,0.4l0.2,0.4l2.5,0.8l2.7,0.8l0.3-0.1h0.3l0.5,0.1h0.7l1.9,0.2l3,0.3l3.1,0.2h0.2l1-1.1l2.7-3.3l1-1
		l0.4-0.3l0.4-0.3l2.5-1.4l0.5-0.2l0.7-0.2l1.8-0.3l0.4-0.1l0.7-0.1l0.5-0.1h0.4l1-0.4l0.9-0.3l0.9-0.3l1.1-0.2l0.5-0.1h0.7l0.7,0.1
		l0.7,0.1l0.4,0.1l0.8,0.1l0.4,0.1h0.5h0.3h0.4h0.6h0.4l0.7-0.1l0.5-0.1l0.5-0.1h0.4l1.1-0.1h0.8h0.5l0.6,0.1l0.4,0.1l0.6,0.2
		l4.6,1.3l1.1,0.5l1.9,1l2.6,0.8l3,0.7h1l0.4,0.1l0.5-0.4l0.8-1l-0.1-0.5l0.5-0.9l0.3-0.4l0.3-0.1l0.6-0.3l1.6-1.1l0.3-0.4l1.7-1.6
		l0.4-0.2l1.8-0.8l1-0.1l0.3,0.3h0.5l1.1-0.1l0.9-1.3l1.3-1.8h0.4h4l0.1,0.2l2,2.8l2.3,3.2l2.8,3.9v0.2l0.4,1.8L213,69l0.3,1.1
		l0.2,0.8v0.4l-0.2,1l-0.2,0.3l1.1,0.7l1.3-0.1l1.1,0.1h0.6l0.6,0.1l0.4,0.1l0.4,0.3l0.5,1.1l1.5,0.9l0.1,1.1l-0.4,1.5l0.3,0.7
		l-0.1,1.4l-0.3,1.1l-0.3,1.1l0.2,1.1l0.7,0.6l0.1,1.2l-0.4,1.1l-2.4,1.4l-0.4,0.2l-0.5,0.1l-0.4,0.4l-0.7,0.7l-1.7,1.1l-0.5,0.4
		l-0.5,0.2l-0.6-0.2l-0.4-0.2l-1.1-0.4l-0.4,0.3l-1.5,1.6l-1.2,1.8l-0.5,1.2V96l-0.9,1v0.2l-0.2,0.3l-0.4,0.6l-0.4,0.6l-0.4,0.6
		l-0.3,0.3l-0.3,0.3l-0.2,0.4l-0.2,0.5l-0.3,0.6l-0.4,1.5l-0.9,4.2l0.2,0.5l-0.1,0.4l-0.2,0.3l-0.7,0.7l-0.2,0.1l-1.1,0.2l-0.9,0.3
		l-0.3,0.3l-0.2,0.6l-0.2,2l0.1,0.6l0.4,1.8l-0.2,2.6l-0.4,0.5l-0.4,0.4l-0.6,0.3l-0.9,0.1h-0.5l-0.6,0.3l-0.8,0.6l-1.1,1.8L193,126
		l0.2,0.4v0.3l-0.4,2.6l-0.2,0.6l-0.3,0.6l-1.8,1.9l-1.1,0.3l-1.1,0.4l-0.7-0.3h-0.4l-1.1,0.4v0.6l0.2,0.3l0.1,0.7l-0.8,0.9
		l-0.5,0.4l-0.4-0.1l-0.3-0.1l-0.4,0.2l-0.3,0.3l-0.2,0.3l-0.1,1l0.1,0.6l0.3,0.6v0.3v0.4l-0.2,0.3l-0.3,0.4l-0.3,0.3l-0.1,0.3
		l-0.1,0.5l0.1,0.7l0.1,0.6l-0.6,1.2l-0.4,0.8l-0.4,0.5l-0.3,0.3l-0.4,0.5l-0.2,0.4l-0.2,0.3l-0.1,0.3l-0.2,0.5l-0.1,0.5v0.3
		l0.1,0.3l0.2,0.9l-2,2.2l-0.3,0.3l-0.5,0.4l-0.3,0.3l-0.8,1.4l-0.7,0.4l0.5,0.3l1.6,1.8l-0.4,0.8l-1.6,1.3l-1,0.4l-1,0.4l-0.9,1.1
		l-0.4,1.1l0.4,0.5v0.3l-0.1,0.7l-0.4,1l-0.8,0.9h-0.7l-0.4,0.2l-0.4,1.2l-0.1,0.5l-0.4,0.4l-0.6,0.3l-1.1,0.1l-1.1-0.1l-0.3,0.1
		l-1-0.1L166,168l-0.3-0.8l-0.1-0.4l-0.3-1.1v-0.9l0.2-0.4l-0.1-0.5l-0.6-0.7l-0.4-0.3h-0.8h-0.4l-0.6-0.4l-0.3-0.4v-0.6l-0.3-0.9
		l-0.4-0.5l-0.3-0.1l-1.4-0.5l-1.8-0.9l-1,0.6l-0.8,2.3l-3.9,0.1l-0.6-0.2l-0.4-0.2l-0.3-0.4v-0.3l-0.1-0.5l-0.1-0.4l-0.3-0.3
		l-1.1,1l-3.4,2.9l-1.3-0.3l-0.2,0.4l-0.7,2.2l-0.5,1.9l-0.9-0.1l-0.3,0.1l-0.7,0.3l-1.1,1.1l-0.9,0.3l-0.3,0.6l-0.3,0.6h-0.4
		l-0.6,0.1l-0.6,0.7l-1.8,2l-2.4,2.2l-1.8,1.8h-0.4l-1.1,1.1l-0.2,1.8l0.4,1.1l0.4,0.4l0.3,0.5l-0.3,0.6l-0.3,0.3l-0.4,0.6l-0.3,1.9
		l-0.1,0.6l0.1,0.6l-0.3,1.8l-0.2,0.5l-1.5,2.1l-0.6,0.8l-1,1.2v0.3l0.3,0.4v0.3l-0.5,0.3h-0.2l-0.1-0.2l-0.5,0.3L125,195v0.3
		l0.1,0.4l-0.2,0.3h-0.3l-0.4-0.1l-1.2-0.7l-1-0.9l-1.1-0.8l-0.1,0.2l-0.2,0.3l0.2,0.3l0.4,0.4l0.3,0.3l0.7,2l-1.1,1.4l-0.3,0.1
		l-2.5-0.2h-1.5l-4.1,0.5l-0.8,0.3l-0.4,0.1h-0.3l-1.8-0.4l-0.4-0.3l-0.1-1.4l0.1-0.7l0.3-0.5h-0.1l-0.3,0.3l-0.1,1.1l0.2,0.3
		l-0.4,0.6l-1,0.3l-2.8-0.1l-0.5-0.1l-1-1.1l-1.7-2l-0.2,0.6l0.4,0.7l0.4,0.3l0.5,0.3l0.3,0.4l0.1,0.3v1.2l-0.2,0.5l-1.5,0.6
		l-0.5-0.1l-0.4-0.9l-0.3-1.3l0.4-0.7l0.2-0.3l-0.5-0.9l-0.7-0.4l-1,0.8l0.1,0.4l1.1,2.8l0.1,0.3l0.2,0.3l0.3,0.4l0.2,0.4l-0.3,0.2
		h-0.7l-1.5-0.3l-0.8-2l-0.9-3.9l0.7,4.3l0.1,0.5l0.4,0.7l0.3,0.6l-0.1,0.4l-0.9,0.3l-0.9-0.1l-0.3-0.2l-0.2-1.7v-0.6l0.2-0.4
		l0.2-0.4l0.2-0.4l-0.2-0.4l-1.2,1.6l0.2,1.2l0.3,0.5l0.1,1l-1.1,0.1h-0.9l-1.2,0.1l-1.5,0.2l-1.7,0.3l-0.8-0.2l0.1-0.5l0.4-0.6
		l0.7-0.8l-1.1-0.4l-0.3,1l-0.3,1.3l-0.7,0.4l-1,0.2l-0.9-0.3l-1.9-0.8l-1.1-0.7l-2.1-1.8l-1.1-1.1l-1.1-1.3l-0.3-0.3l-0.3-0.4
		l-0.7-1.2l-0.4-0.7l-0.2-0.5l-0.5-1.4l-1.1-3.1l0.3-0.3h0.6l0.3,0.3l0.3,0.4l0.4-0.9l-0.5-0.7l-0.2,0.3l-0.5,0.2l-0.7-0.1l-0.3-2.6
		l1.7-0.5l1.4-0.9l1.3-1.5l0.3-0.4l-1.5,0.4l-0.6,0.5l-0.1,0.6l-0.3,0.5l-0.9,0.2l-0.9,0.1l-1.8-0.7l-1.1-1.1l-0.1-0.6l0.4-0.5
		l1.1-0.1h0.3l1.3,0.3l1.9-0.3v-0.5l-0.9-0.6l-0.5,0.2l-3.7,1.1l-0.6-0.4l-0.9-1.5v-0.6l-1.3-1.9l-0.9-1.1l-1.1-1.4l-2-1.9l-0.6-0.6
		l-2.7-2l-0.5-0.3l-0.6-0.3l-0.2-0.1l-0.3-0.2l-0.4-0.2l-0.5-0.2l-0.9-0.1l-0.3-0.1l-3.4-0.5l-1.5-0.2H52l-1.8-0.1l-1.6-0.1
		l-0.8,0.2h-2h-0.5l-1.4,0.1h-0.5l-0.4-0.6l0.7-0.1l1.1,0.1h0.5l3.1-1.3l1.9-1.1l-0.7-0.2H49l-0.8,0.1l-1.1,0.6l-1.9,0.7l-0.8-0.3
		v-0.8l-0.5,0.2l-0.7,0.5l-0.5,1.6l0.3,0.5l-1.1,0.4l-3.4,0.1h-0.6l-0.4-0.1h-0.3l-0.8-0.2h-0.6l-0.8,0.1h-0.4l-2.2,0.3v-1.4
		l0.2-0.3l0.4-1.4l0.2-1.7v-1.5l-0.2-2.6l-0.4-0.4l0.4-2.4l0.5-0.6l-0.2-1.9l-0.4-5.5l-0.1-0.9l0.1-0.1l0.1-1l0.1-1.1l-0.1-0.3
		l-0.5-0.9l-0.2-0.3v-0.3l0.3-1.7l0.4-1.6l0.2-0.7l0.2-0.9L33,139l-0.4-1.5l0.3-1.4l0.4-0.4l0.1-0.5v-0.6l-0.1-0.1l0.1-0.3v-0.3
		l-0.1-2.2l-0.1-0.9l0.1-0.4l0.6-3.5l0.2-0.5l0.4-0.3l1.4-0.2h1l0.4,0.3l1.6-0.4l0.6-1.6l0.6-1.8l-0.1-1.1l-0.2-0.6l-0.1-0.3l0.4-1
		l2.4-2.2l0.7-0.7l-0.2-0.3l-0.3-0.5l-0.1-0.4l0.1-0.3l0.3-0.4l2.1-0.6l0.6,0.2l0.6-0.6l0.8-1.1l1.1-2.5l0.2-0.8l-0.3-0.4l-0.4-0.2
		l-1-1.2l0.9-2.2l1-0.5l0.5,0.3l0.5,0.3l0.3,0.1l0.3-0.7l0.7-2.1l-0.1-1.8l-0.3-0.3L50,99.2l-0.5-0.6v-0.5l0.2-0.3l0.3-0.8l-0.6-2
		l-0.1-0.3v-0.6l0.1-0.7L49,93.3l-0.3-0.1l-1.3-1.9l-2-2.8l0.8-2.2l0.7-1.3l0.5-0.7l1.3-0.9l-0.3-0.9l-0.5-0.4l-0.3-1.5l0.9-0.9
		v-0.4L48,77.7l0.3-1.7l0.2-0.5l-0.1-3.2V71l4.1-3l0.6-0.4l2-3.3l0.4-0.7l0.5-2.8l0.1-1.6l0.1-2V56l1.6-0.1l3.7-3.3l2.3-0.5l4-0.9
		l0.6,0.7l1.1,0.1l3.3-0.2l1.2-0.1l0.8-0.7l0.4-0.8l2.6-0.6l0.3-0.1l1.7,0.9l0.6,0.3L83.3,51.9z"/>
</g>
</svg>
