<?xml version="1.0" encoding="utf-8"?>
<!-- Generator: Adobe Illustrator 25.2.3, SVG Export Plug-In . SVG Version: 6.00 Build 0)  -->
<svg version="1.1" id="Layer_1" xmlns="http://www.w3.org/2000/svg" xmlns:xlink="http://www.w3.org/1999/xlink" x="0px" y="0px"
	 viewBox="0 0 220.2 220.3" style="enable-background:new 0 0 220.2 220.3;" xml:space="preserve">
<style type="text/css">
	.st0{fill:#49A6F2;}
</style>
<path id="LBN3022" class="st0" d="M109.9,153.9l-1.3-0.4l-3.7-0.5l-0.3-0.2l-0.3-0.4l-0.8-1.7l-0.2-0.7l-0.5-0.6l-1.6-1l-1.5-0.5
	l-0.4,0.2l-0.5,0.4l-1.1,1.1l-0.8,1.1l-0.7,1.1l-0.8,1l-0.6,0.2l-1.5-0.5l-0.3-2.1l-0.4-0.5l-0.4-0.8l-0.2-0.4l-0.3-1.2l-0.2-2.2
	l0.7-0.6l0.3-0.4l0.6-0.8l0.2-0.5l0.2-0.6l1.1-4.6l0.9-2.5l0.5-1l4.6-6.9l0.8-0.4l0.3-0.2l0.4-0.5l0.6-0.7l0.1-0.2V125l-1.2-1.2
	l2.1-3.1h0.6l0.9,0.1h0.5l0.2-0.1l0.2-0.2l0.2-0.2l0.5-0.8l-0.4-0.7l-2.6-1.9l5.1-6.1l1.4-2.4l0.3-0.8l0.1-0.2l0.9-1.1l3.6-3.3
	l0.9-0.4l2.2-3.4l3.5-7.1l0.3-5.8l0.2-0.7l0.6-1.6l1.8-0.2l0.4-0.2l0.3-0.3l1.7-2.8l0.2-0.8l0.3-2.5l2.9-3.9l2.5-2.5l0.9-3.1
	l0.2-0.3l0.3-0.4l0.7-0.7l1.6-1.3l0.7-0.7l0.4-0.5l2.1-4.5l0.1-0.2l-0.3-1.1l1.5-2l0.2-0.5V55l0.1-0.4l0.4-0.5l3.5-2.8l0.2-0.2
	l1-0.4l1.7-0.2l0.2,0.4l0.2,0.1h0.5l1.8-0.5l2.3-0.1l2.1,0.2l1.1,0.4l0.5,1.6l0.8,1.2l1.1,0.9l1.3,0.6l1.1,1.5l0.5,0.4l0.6-0.2
	l1.2,0.9l0.5,0.8l-0.1,1.1l-0.3,1.6l-0.2,0.7l-0.3,0.5l-0.2,0.5l-0.1,0.8l0.2,0.8l0.4,0.8l1.7,2.5l0.8,0.9l0.5,0.2l0.6-0.1l0.5,0.2
	l0.4,0.8l-0.2,1.2l-0.8,1.1l-0.6,1.2l0.4,1.8l0.5,1.4l1.9,1.9l0.5,1l-2.2,2.5l-1.8,3.1l-3.5,3.1l-1.5,2l-0.5,1.4l-0.2,1.1l-0.5,0.9
	l-1.3,0.6l-1.1,0.1l-1.7-0.6l-0.9-0.1l-1.7,0.8l-2.6,3.4l-3.1,2.8l-1.2,1.5l-1.1,1.7l-1.7,3.4l0.2,0.4l0.5,0.9l0.5,0.6l2.3,1.8
	l3.1,0.5l1.4,0.8l0.2,2l-0.9,1.3l-1.5,0.2l-3-0.7l-4.1-2l-1.4-0.2l-1.2,0.5l-1.1,0.9L137,115l-1.7,0.1l-0.6-0.4l-1-1.3l-0.5-0.3
	l-2.8,1.8l-1.4,0.6l-1.5,0.4l-1.3,0.5l-0.8,1.1l-1.1,2.1l-2.6,2.2l-1.1,1.6l-0.5,1.1l-1.5,1.3l-0.6,0.8l-0.2,0.8l0.2,1.7l-0.2,0.9
	l-0.4,0.4l-1.1,0.4l-0.3,0.3l-0.3,2.1l1.1,0.7l1.8,0.3l1.8,1.1l1.1,0.3l1.5,0.8l1.3,1l0.7,1.1L125,140l-1.2,1.5l-1.6,1.1l-1.5,0.7
	h-1.8l-1.8,0.6l-0.9,1.3l1.1,1.9l-1.2,3.1l-2.5,2.1L109.9,153.9L109.9,153.9z"/>
<path id="LBN3023" class="st0" d="M148.4,50.6l-1.7,0.2l-1,0.4l-0.2,0.2l-3.5,2.8l-0.4,0.5l-0.1,0.4v0.4l-0.2,0.5l-1.5,2l0.3,1.1
	l-0.1,0.2l-2.1,4.5l-0.4,0.5l-0.7,0.7l-1.6,1.3l-0.7,0.7l-0.3,0.4l-0.2,0.3l-0.9,3.1l-2.5,2.5l-3,3.8l-0.3,2.5l-0.2,0.8l-1.7,2.8
	l-0.3,0.3l-0.4,0.2l-1.8,0.2l-0.8-0.4l-0.5,0.2h-0.5l-0.5-0.1l-2.6-1.3l-0.5-0.4l-0.5-0.2h-0.2l-0.2,0.1l-0.2,0.3l-0.2,0.5l-0.1,0.1
	l-0.2,0.1h-0.5l-0.6-0.2l-0.5-0.2H114l-0.5-0.2l-1.6-1l-0.6-0.3l-1-0.8l-0.5-0.2l-0.6-0.1l-1.1,0.1l-1,0.2l-0.5,0.2h-0.4l-2-0.1
	l-1.1,0.2h-0.3l-1.5-0.2l-5.1-2.3l-2.1-0.2l-0.1-0.1l0.2-0.5l0.1-3l0.4-3l1-2.5l1.8-1.6l1.4,1.1l1.3-2l1.2-3.1l1.1-2l4.4-2.5
	l1.4-1.8l-1.5-2.3v-0.6l1.5,0.4l6.3-1.7l4.2-4.1l1.3-0.9l0.8-0.8l0.5-1.4l0.1-4.5l-0.2-2.1l-0.5-1.7L120,36h1l0.7,0.2l0.5,0.3
	l1.4,1.1l1.7,0.5l1.8,0.1l2.1-0.3l5.4,0.4l0.3-0.1l0.9-0.6l0.5-0.2l0.4,0.2l0.9,0.7l0.5,0.2l4.8-0.3l0.8-0.4l0.8-0.8l0.3-0.9v-1.9
	l0.2-0.8l1.7-1.1l1.1,0.8l1.8,3.4l1.6,1.5l1.8,0.6l2-0.1l1.9-0.6l-0.3,3.1l-0.5,0.5l-0.8-0.7l-1.1-0.3l-1.1,0.8l-0.2,1.1l0.1,1.5
	l-0.4,1.5l-1.5,1.2l-2.1,1.1l-1.3,1.5L148.4,50.6L148.4,50.6z"/>
<path id="LBN3024" class="st0" d="M86.4,107.4v0.5l-0.9,2.8l-0.8,0.1l-0.2,0.2l-0.3,0.5l-0.3,0.2h-1.1l-1.5-0.3v-0.7l-0.2-1.1
	l-0.5-0.9l-0.2-0.8l0.5-0.8l0.8-0.3l1.1,0.2l0.9,0.4l0.5,0.5h0.5l0.8-0.5L86.4,107.4L86.4,107.4z"/>
<path id="LBN3025" class="st0" d="M123.1,83.9l-0.6,1.6l-0.2,0.7L122,92l-3.5,7.1l-2.2,3.4l-0.9,0.4l-3.6,3.3l-0.9,1.1l-0.1,0.2
	l-0.3,0.8l-1.4,2.4l-5.1,6.1l2.6,1.9l0.4,0.7l-0.5,0.8l-0.2,0.2l-0.2,0.2l-0.2,0.1h-0.5l-0.9-0.1h-0.6l-2.1,3.1l1.2,1.2v0.2
	l-0.1,0.2l-0.6,0.7l-0.4,0.5l-0.3,0.2l-0.8,0.4l-4.6,6.9l-0.5,1l-0.9,2.5l-1.1,4.6l-0.2,0.6l-0.2,0.5l-0.6,0.8l-0.3,0.4l-0.7,0.6
	l0.5-2.7l-0.2-0.6l-0.3-0.2l-0.4-0.2l-0.2-0.2l-0.4-0.4l-0.1-0.3v-0.3l0.2-0.5l0.1-0.8v-1.9l-0.2-0.8l-0.3-0.5l-0.4-0.1l-0.2,0.1
	l-0.2,0.2l-0.2,0.2l-0.2,0.1h-0.4l-0.7,0.2h-0.4l-0.3,0.2l-0.3,0.4l-0.5,0.2l-0.2,0.4l-0.5,0.4l-0.2,0.1h-0.4l-0.5,0.2h-0.5H84
	l-0.5,0.2l-0.9,0.4l-0.5,0.2l-0.8-0.1h-0.2l-0.3,0.4h-0.3h-0.8l-1.9-0.4l-2.1-1.1l-2.3-0.1l-0.4-0.2l1.8-5.1l-0.5-0.7l1.2-1.1
	l0.9-3.9l1.3-0.8l-0.1-1.1l3.1-7.7l0.3-1.9l0.2-4l1.5,0.3h1.1l0.3-0.2l0.3-0.5l0.2-0.2l0.8-0.1l0.9-2.8v-0.5l0.8,0.1l1.1-0.4
	l0.5-0.6l0.8-1.9l0.4-0.8v-0.4l-0.2-0.2l-0.5,0.2l0.7-0.8l0.9-2.3l0.5-0.9l0.5-0.2h1.3l0.3-0.4v-0.8l-0.4-0.5L92.9,97l-0.2-0.4v-2.3
	l1.3-4.2l0.4-3L94.1,86L93,83.9l-0.3-1.5v-3.3l0.2-0.7l1.1-0.8v-0.1l0.1,0.1l2.1,0.2l5.3,2.7l1.5,0.2h0.3l1.1-0.2l2,0.1h0.4l0.5-0.2
	l1-0.2l1.1-0.1l0.6,0.1l0.5,0.2l1,0.8l0.6,0.3l1.6,1l0.5,0.2h0.5l0.5,0.2l0.6,0.2h0.5l0-0.5l0.2-0.2l0.2-0.5l0.2-0.3l0.2-0.1h0.2
	l0.5,0.2l0.5,0.4l2.6,1.3l0.5,0.1h0.5l0.5-0.2L123.1,83.9L123.1,83.9z"/>
<path id="LBN3059" class="st0" d="M93.3,152.5l1.5,0.5l0.6-0.2l0.8-1l0.7-1.1l0.8-1.1l1.1-1.1l0.5-0.4l0.4-0.2l1.5,0.5l1.6,1
	l0.5,0.6l0.2,0.7l0.8,1.7l0.3,0.4l0.3,0.2l3.7,0.5l1.3,0.4l-1.9,1.1l-1.2,1.5l-1.6,3.1l-1.3,1.5l-0.9,0.6l-1.1,0.5l-1.1,0.3
	l-1.1,0.1l-1.4,0.4l-3,3.1l-1.6,1.3l-2.4,0.5l-0.7,0.7l0.2,1.8l-0.1,0.4l-0.5-0.4l-1-0.8l-1.5-2.3l-0.5-0.5l-0.9,0.1l-0.5,0.9
	l-0.5,1.3l-0.8,1.3l-0.6,2.1l-0.2,4.7l-0.5,2.5l-0.7,1.6l-1.5,2.7l-0.4,1.5l-2.5,0.2l-3.8,1.6l-4.4,1.1l-1.1-0.2l-0.8-1l-0.5-1.1
	l-0.8-1l-0.9-0.7l-0.5-0.2l0.1-0.7l0.1-1.1l-0.1-0.8l0.2-0.6l0.1-0.7l1-2.6l0.2-0.4l0.5-0.1l0.6,0.2h0.2l0.3-0.2l0.4-0.4l0.2-0.3
	l0.2-0.4l0.1-1l0.1-0.2l0.3-0.1h0.8l0.2-0.1l0.2-0.1l0.8-0.5l0.1-0.2l-0.1-0.3l-0.4-0.3l-0.4-0.2l-0.2-0.2v-0.2l0.2-0.2l0.5-0.3
	l0.3-0.2l0.5-0.2l0.4-0.3l0.5-0.5l2.2-2.8l0.4-0.4l0.2-0.5l0.2-0.5v-1.5l-0.1-0.4l0.1-0.5l0.8-1.1l-1.2,0.2l-0.4,0.2l-0.3,0.1h-0.5
	l-2.1-0.4l-1.5-0.5l-1.2-1.3l0.4-1.5l-0.2-0.6l-0.4-0.4l-0.8-0.5h-0.2h-0.2l-0.9-0.1h-0.2l-0.5-0.2l-0.2-0.2l0.2-0.1h0.8l0.3-0.2
	l0.2-0.3l0.2-0.6l0.1-0.3l0.1-0.8l0.1-0.2l0.2-0.2l0.4-0.2l0.8-0.2h0.4l0.3,0.2l0.2,0.2l0.2,0.6l0.2,0.2l0.4,0.3l0.2,0.2l0.2,0.6
	l0.2,0.1l0.2-0.1l0.2-0.2l-0.1-0.8l0.2-0.5l1.5-2.6l0.1-0.2v-0.5l-0.2-0.2h-0.2l-0.4,0.2l-0.2-0.1v-0.2l0.1-0.3l0.6-1.1l0.2-0.4
	l0.2-0.3l0.2-0.2l0.9-0.1l0.5-0.1l0.2-0.1l0.2-0.2l0.1-0.5l-0.1-0.2l-0.2-0.2l-0.3-0.2l0.8-0.5l3.4-0.8l0.6,0.2H81l0.2-0.1l0.5-0.2
	l0.9-0.5l0.5-0.2h0.2l0.5-0.2l0.2-0.2l0.3-0.5l0.2-0.1h0.2l0.2,0.2l-0.1,0.8l-0.4,2.4v0.2l0.2,6.1l-0.2,1.3l0.2,0.8l1.2,2.8l0.9-2.5
	l0.4-0.6l0.3-0.1l0.5-0.2l0.3-0.1l0.5,0.2H89l0.5-0.1l0.2-0.2l0.2-0.2l0.1-0.2l0.4-1l1.4-1.3l0.5-0.2l0.3-0.3L93.3,152.5L93.3,152.5
	z"/>
<path id="LBN3060" class="st0" d="M91.6,145.2l0.2,2.2l0.3,1.2l0.2,0.4l0.4,0.8l0.4,0.5l0.3,2.1l-0.7,1.2l-0.3,0.3l-0.5,0.2
	l-1.4,1.3l-0.4,1l-0.1,0.2l-0.2,0.2l-0.2,0.2l-0.5,0.1h-0.2l-0.5-0.2l-0.3,0.1l-0.5,0.2l-0.3,0.1l-0.4,0.6l-0.9,2.5l-1.2-2.8
	l-0.2-0.8l0.2-1.3l-0.2-6.1v-0.2l0.4-2.4l0.1-0.8l-0.2-0.2h-0.2l-0.2,0.1l-0.3,0.5l-0.2,0.2l-0.6,0.2h-0.5l-0.5,0.2l-0.9,0.5
	l-0.5,0.2l-0.2,0.1h-0.5l-0.6-0.2l-3.4,0.8l-0.8,0.5l0.3,0.2l0.2,0.2l0.1,0.2l-0.1,0.5l-0.2,0.2l-0.2,0.1l-0.5,0.1l-0.9,0.1
	l-0.2,0.2l-0.2,0.3l-0.2,0.4l-0.6,1.1l-0.1,0.3v0.2l0.2,0.1l0.4-0.2h0.2l0.2,0.2v0.5l-0.1,0.2l-1.5,2.6l-0.2,0.5l0.1,0.8l-0.2,0.2
	l-0.2,0.1l0.2-0.1l-0.3-0.5l-0.2-0.2l-0.4-0.3l-0.2-0.2l-0.2-0.6l-0.2-0.2l-0.3-0.2h-0.4l-0.8,0.2l-0.4,0.2l-0.2,0.2l-0.1,0.2
	l-0.1,0.8l-0.1,0.3l-0.2,0.6l-0.2,0.3l-0.3,0.2h-0.8l-0.2,0.1l0.2,0.2l0.5,0.2h0.2l0.9,0.1h0.2h0.2l0.8,0.5L70,160l0.2,0.6l-0.4,1.5
	l1.2,1.3l1.5,0.5l2.1,0.4h0.5l0.3-0.1l0.4-0.2l1.2-0.2l-0.8,1.1l-0.1,0.5l0.1,0.4v1.5l-0.2,0.5l-0.2,0.5l-0.4,0.4l-2.2,2.8l-0.5,0.5
	l-0.4,0.3l-0.5,0.2l-0.3,0.2l-0.5,0.3l-0.2,0.2v0.2l0.2,0.2l0.4,0.2l0.4,0.3l0.1,0.3l-0.1,0.2l-0.8,0.5l-0.2,0.1l-0.2,0.1h-0.8
	l-0.3,0.1l-0.1,0.2l-0.1,1l-0.2,0.4l-0.2,0.3l-0.4,0.4l-0.3,0.2h-0.2l-0.6-0.2l-0.5,0.1l-0.2,0.4l-1,2.6l-0.1,0.7l-0.2,0.6l0.1,0.8
	l-0.1,1.1l-0.1,0.7l-0.4-0.2h-1l-2.9,1h-0.5l-1.1-0.3h-0.5l-0.5,0.2l-0.8,0.7l-0.4,0.2l-6.4-0.5v-0.2l0.1-0.4l-0.4,0.1l-0.2-0.2
	v-0.2l-0.1-0.3l0.5-1.1l0.7-1.1l0.8-0.8l1.8-0.8l0.5-0.9l0.8-1.3l0.5-0.8l-0.5-0.6l0.5-0.1l0.2,0.2l0.3,0.6l2.4-5.2l0.4-2.8
	l-1.7-2.5l1.7-1.3l1.2-1.8l1.5-4.1l0.2-1.2l0.1-2.5l0.3-1.3l1.5-2.1l0.5-1.1l-0.3-1.2l4.1-3.1l2.1-2.2l0.9-2.8l0.2-1.2l1.1-3.1
	l0.4,0.2l2.3,0.1l2.1,1.1l1.9,0.4h0.8h0.3L81,139h0.2l0.8,0.1l0.5-0.2l0.9-0.4l0.5-0.2h0.2h0.5l0.5-0.2h0.4l0.2-0.1l0.5-0.4l0.2-0.4
	l0.5-0.2l0.3-0.4l0.3-0.2h0.4l0.7-0.2h0.4l0.2-0.1l0.2-0.2l0.2-0.2l0.2-0.1l0.4,0.1l0.3,0.5l0.2,0.8v1.9l-0.1,0.8l-0.2,0.5v0.3
	l0.1,0.3l0.4,0.4l0.2,0.2l0.4,0.2l0.3,0.2l0.2,0.6L91.6,145.2L91.6,145.2z"/>
<polygon id="_x30_" class="st0" points="262.1,178.8 262.1,178.8 262.1,178.8 "/>
<polygon id="_x31_" class="st0" points="88,156 88,156 88,156 "/>
<polygon id="_x32_" class="st0" points="101.8,79.8 101.8,79.8 101.8,79.8 "/>
</svg>
