<?xml version="1.0" encoding="utf-8"?>
<!-- Generator: Adobe Illustrator 23.0.1, SVG Export Plug-In . SVG Version: 6.00 Build 0)  -->
<svg version="1.1" id="Layer_1" xmlns="http://www.w3.org/2000/svg" xmlns:xlink="http://www.w3.org/1999/xlink" x="0px" y="0px"
	 viewBox="0 0 241.9 217.6" style="enable-background:new 0 0 241.9 217.6;" xml:space="preserve">
<style type="text/css">
	.st0{fill:none;stroke:#85c1fd;stroke-width:0.2;stroke-linecap:round;stroke-linejoin:round;stroke-dasharray:0.32;}
	.st1{fill:#85c1fd;stroke:#85c1fd;stroke-width:0.5;}
</style>
<title>bangladesh</title>
<g>
	<polyline class="st0" points="186.3,94.1 186.5,94.1 186.7,94.1 187,94.1 187.2,94 187.3,93.8 188.3,93.6 188.5,93.6 188.8,94 
		188.8,94.3 188.8,94.5 188.9,94.8 189.1,94.9 189.2,94.9 189.5,94.8 190.6,94 191.2,93.6 191.7,93.2 192,92.7 192.2,92.5 
		192.4,92.1 192.8,91.5 193.5,91.4 193.7,91.4 193.7,91.5 	"/>
	<polyline class="st0" points="222.5,91.2 222.8,91.2 223.3,91.2 223.7,91.5 223.8,91.5 226.6,93.1 227.3,93.5 229.2,94.5 
		230.7,95.4 	"/>
	<polyline class="st0" points="195.6,151.2 195.5,150.8 195.1,149.6 195,149.3 194.8,148.8 194.6,148.6 194.4,148.2 194,147.7 
		193.6,147 193.5,146.9 193.2,146.4 193,146 193,145.9 192.9,145.6 192.8,145.2 192.8,145 192.8,144.8 192.8,144.6 192.7,144.2 
		192.4,143.6 192.2,143 192.1,142.8 191.9,142.4 191.3,141.6 191.2,141.3 190.9,140.8 190.8,140.7 190.5,140.5 189.9,139.9 
		189.7,139.6 189.3,139.5 189.2,139.4 188.9,139.3 188.6,139.2 188.4,139.1 187.3,138.3 187.2,138.1 187,137.9 186.9,137.6 
		186.2,136.1 185.8,135.6 185.7,135.2 185.6,134.9 185.3,133.2 185.2,132.8 185.3,132.6 185.3,132.3 185.4,132.1 185.6,131.8 
		185.8,131.5 186.1,131.3 186.2,131.2 186.4,130.7 186.4,130.4 186.3,130.1 186.1,129.2 185.9,128.8 185.8,128.5 185.7,128.3 
		185.6,128.1 185.5,128 185.4,127.6 185.2,126.8 185.1,126.4 184.9,125.9 184.7,125.6 184.6,125.4 184.6,125.2 184.3,124.8 
		184.2,124.4 184.2,124.4 184.1,124 184.1,123.8 184,123.4 184,123.2 184,122.7 184.1,122.4 184.2,122.1 184.3,121.9 184.5,121.3 
		184.6,121.1 184.7,120.8 184.8,120.6 184.8,120.2 184.8,119.8 184.7,119.7 	"/>
	<polyline class="st0" points="193.7,91.5 194.7,91.5 195.6,91.1 196,90.9 197.2,90.9 198.6,90.9 200.3,91 200.6,91 202.7,91 
		203.8,91 204.7,91 205,91 205.1,91 210.6,91.1 211.6,91.1 212.2,91.1 212.6,91.1 213.9,91.1 214.9,91.1 215.7,91.1 216.4,91.1 
		217.3,91.1 218.2,91.1 218.5,91.1 218.7,91.1 222.5,91.2 222.5,91.2 	"/>
	<polyline class="st0" points="49.6,64.5 49.6,65.3 49.4,65.6 48.9,66.1 48.7,66.5 48.7,67 48.7,67.2 48.7,67.6 48.6,67.9 
		48.3,68.4 48.3,69.5 48.5,69.8 48.7,70 49,70.5 49.1,70.7 49.2,71 49.2,71.6 49,71.8 48.7,71.9 48.6,72.2 48.7,72.4 48.9,72.4 
		49.4,72.4 49.7,72.4 50.2,72 51,71.9 51.9,71.7 53.7,71 53.8,70.6 54.6,70.6 55.3,70.8 56.2,71.1 56.3,71.1 56.5,71 56.8,70.9 
		57.1,71 57.5,71.2 57.7,71.5 58,72.1 58,72.6 58.2,73.3 59.1,74.6 59.3,74.8 59.6,74.9 59.5,75.6 58.4,77.4 57.7,78 57.2,78.1 
		57,78 56.7,78 56.3,78 56.2,78.3 55.2,79.7 54.6,80.8 54.6,81.1 54.8,81.7 55.1,82.4 55,83 54.7,83.5 54.4,83.9 54.2,84.1 
		54.2,84.4 54.7,84.8 55,84.6 55.3,84.6 56.1,84.8 56.6,85 56.8,85.4 56.9,85.8 57,86.2 57.1,86.4 57.5,86.3 58.2,86.3 58.9,86.6 
		59.3,87 59.6,87.2 59.9,87.7 59.7,88.3 59.7,88.5 59.5,88.8 59.1,90.4 59,90.9 59.1,91.4 59.3,92 59.6,92.8 59.6,93.2 59.6,94.6 
		59.4,95.6 59.3,95.8 58.9,96 59,98.2 59.2,98.4 59,98.6 58.8,98.8 58.7,98.8 58.5,98.8 58.2,98.8 57.7,99.2 57.7,99.6 57.8,99.7 
		57.7,100.4 57.4,101.9 57.3,102.4 57.1,102.5 56.9,102.7 56.6,103.3 56.6,103.6 56.3,103.6 54.9,103.5 54.6,103.4 54.5,103 
		54.6,102 54,100.6 53.6,100.2 53.3,100.7 53.3,101 53,101.2 52.2,102.2 51.9,102.4 51.4,102.8 51.3,103.1 50.5,103.1 50,102.8 
		49.4,102.6 49,102.5 47.5,102.3 47.3,102.5 47.4,102.1 47.4,101.7 47.2,101.4 46.9,101 46.7,101.1 46.4,100.7 45.9,99.3 45.9,99.1 
		45.7,98.8 45.5,98.7 45.1,98.5 44.9,98.3 44.3,98 43.8,98 43.2,98.6 43.1,98.8 42.7,98.7 42.7,98.5 42.6,98.5 42.5,98.7 42.6,99.7 
		42.8,100.1 43.1,100.6 43,101.4 42.9,102.3 39.3,103.1 39.2,102.9 39.1,102.8 38.9,102.6 38.7,102.4 38.5,102.4 37.2,102.7 
		36.9,102.9 36.7,103.1 36.3,102.8 36,102.5 35.6,102.4 35.3,102.4 35.6,103.4 35.8,104.2 36,104.8 35.9,105.2 35.6,105.6 
		35.5,105.8 35.3,106 35.2,106.3 35.1,106.4 35.1,106.6 35.2,106.8 35.5,106.7 36,106.5 37.2,107.9 37.3,108.1 37,108.4 36.8,108.4 
		36.6,108.4 36.4,108.8 36.5,109.5 37,109.6 37.2,109.7 37.3,109.8 38.7,110.4 38.8,110.7 38.7,110.8 38.4,111.1 38.3,111.2 
		38.2,111.4 37.6,112.8 37.8,112.9 38,113 38.4,113.2 38.3,113.5 38.2,113.6 38,113.9 37.6,113.9 36.8,113.7 36.1,113.3 35.9,113 
		35.5,112.4 35.3,112.3 35,112.2 34.8,112.3 33.2,113.3 32.5,113.8 32.1,115.1 31.9,115.7 31.9,115.8 	"/>
	<polyline class="st0" points="20.4,74.4 20.6,74.4 21,74.7 21.2,74.9 21.7,75.1 21.8,74.9 22,74.4 22.1,74.4 22.3,74.4 24,74.4 
		24.1,74.4 24.4,74.4 24.6,74.4 25.5,74.4 26.2,74.4 26.4,74.4 28.5,74.4 29.7,74.4 30.1,74.4 32.4,74.4 33.4,74.4 33.3,70.6 
		33.3,69.3 33.3,68.6 33.3,68.2 33.3,67.4 33.3,66.7 33.3,66.1 33.3,66 33.3,64.6 33.2,64.6 	"/>
	<polyline class="st0" points="33.2,64.6 33.3,64 33.5,63.5 35.2,63.3 36.3,63.4 36.8,63.6 40.7,63.6 41.2,63.4 41.6,63.3 
		42.8,63.4 43,63.5 43.1,63.6 43.8,63.8 44.1,63.8 45.1,64 46,63.9 47.1,63.8 48.2,63.6 48.6,63.6 49.3,63.7 49.6,64 49.6,64.4 
		49.6,64.5 	"/>
	<polyline class="st0" points="20.6,63.2 20.6,63.7 20.7,63.9 21.2,64.4 21.5,64.4 21.9,64.6 22.2,64.7 22.7,64.7 23.6,64.7 
		24.6,64.7 24.9,64.7 25.5,64.7 25.6,64.7 25.8,64.7 26.5,64.6 26.8,64.6 27.5,64.6 31.1,64.6 32.3,64.6 33.2,64.6 	"/>
	<polyline class="st0" points="94.3,53.4 94.4,53.6 94.5,54.8 94.5,55.6 94.2,56.2 94.1,56.4 93.9,56.5 93.7,56.7 93.6,56.8 
		93,58.1 92.5,59.2 92.2,59.9 91.9,60.6 91.7,60.9 91.6,61 91.3,61.2 91,61.4 90.9,61.6 90.9,62 90.9,62.3 90.8,62.5 90.4,63 
		90.1,63.2 90,63.4 89.8,63.9 89.7,65.2 89.7,65.5 89.6,66.8 89.7,67.8 89.7,68 89.7,68.5 89.7,69.4 89.6,69.7 88.9,72 88.6,72.7 
		88.6,72.9 88.4,73.2 88.1,73.5 88.1,73.6 88,73.9 88,74.2 88,74.4 88.1,74.7 88.1,75 88.1,75.2 88.2,75.6 88.2,75.8 88.2,76.3 
		88.1,76.8 88.1,77.5 88.4,77.8 88.7,78.5 88.8,78.7 88.7,79.2 88.6,79.4 88.6,79.6 88.5,79.8 88.3,80 88,80.4 87.7,80.7 87.4,81.3 
		87.4,81.5 87.1,82.4 86.9,83 86.7,83.5 86.6,83.6 86.6,84 86.6,84.2 86.6,84.4 86.6,84.7 86.8,85.2 86.9,85.3 86.9,85.6 86.9,86 
		86.8,86.3 86.7,86.8 86.6,87.1 86.5,87.3 86.4,87.6 85.8,88.3 85.4,88.9 85.3,89 84,90.4 83.4,90.9 83.2,91.1 83,91.2 82.7,91.2 
		82.5,91.2 82,91.3 81.7,91.5 80.4,92.2 80.3,92.4 79.6,92.8 79.5,93 79,93.6 78.6,94.4 78.5,94.5 78.3,94.8 78.3,95 78,95.7 
		77.9,95.9 77.8,96.3 77.5,96.6 77.4,96.9 76.9,97.9 76.7,98 76.7,98.1 76.6,98.3 76.2,98.8 75.7,99.2 75.4,99.5 75.1,99.7 
		74.6,100 74.3,100.2 74,100.6 73.9,100.8 73.9,101.1 73.9,101.3 73.9,101.9 73.9,102.3 73.9,102.6 74.1,103.7 74.1,105.2 
		74.1,105.3 74,105.6 73.9,106.7 73.9,106.9 73.9,107.1 73.9,107.2 74,107.6 73.9,108.4 73.9,108.8 74,109.9 74.2,110 74.3,110.2 
		74.3,110.4 74.2,110.6 73.9,111.2 73.5,112 73.3,112.4 73.1,112.6 72.9,112.8 72.3,114.1 71.8,115.1 71.5,115.6 71.4,115.6 
		71.2,115.7 71.1,115.8 70.5,116 69.9,116 68.9,116.4 68.8,116.4 68.5,116.5 68.4,116.8 68.4,116.8 68.1,117.2 68.1,117.3 
		68.1,117.6 68.1,117.9 68,118.2 67.9,118.4 67.6,118.5 67.3,118.5 67,118.4 66.8,118.4 66.4,118.6 66.4,118.7 65.9,118.9 
		65.7,119.1 65.3,119.6 65.2,119.9 64.8,120.3 64.7,120.4 64.2,120.8 63.5,121.6 63.4,121.7 63.3,122 63.1,122.3 62.7,123 
		61.7,123.6 61.4,123.7 61.1,123.7 60.7,123.6 60.5,123.3 59.9,123.2 59.3,123.6 59.3,123.5 59.3,123.1 59.3,122.5 58.9,121.4 
		58.9,120.8 59,120.5 59.3,120.4 59.5,120.2 59.7,120 59.8,119.7 59.1,118.5 58.9,118.5 58.2,118.8 55.8,120 55.4,120.4 55,120.3 
		54.5,119.9 54.2,119.7 53.9,119.7 53.5,120 53.5,120.2 53.6,120.4 53.6,120.7 53.6,120.9 53.3,122.3 52.5,122.8 52.2,122.8 
		52,122.5 51.7,122.7 51.8,122.8 50.9,123.6 49,122 49,121.7 48.9,121.6 48.7,121.2 48.4,121.1 48.3,121.1 48.2,121.5 48.2,121.6 	
		"/>
	<polyline class="st0" points="49.6,64.5 49.7,64.5 52.7,64.5 53.4,64.5 56.5,64.5 58,64.6 59.4,64.7 60.2,64.4 61.5,64.8 
		61.9,65.2 62.7,65.2 62.9,65.7 64.1,66 64.7,66 64.9,65.7 65.2,65.5 65.6,65.6 65.9,65.6 66.4,66 67.6,66.1 68,66 68.2,66.1 
		69.3,66.4 69.6,66.4 70.2,66.6 71.2,67.3 72.1,67.7 72.5,68 72.5,68.2 72.7,68.5 72.8,68.7 73.6,68.1 73.5,67.5 73.3,67.1 
		73.1,66.2 73,65.4 73,64.5 73.2,64.1 73.6,64.3 73.9,64 74,64 	"/>
	<polyline class="st0" points="74,64 74.5,62.8 74.8,62.2 75.6,60.4 75.9,59.8 76.3,59.1 76.5,58.7 76.4,58.4 76.2,58.2 76.2,57.9 
		76.3,56.1 76.4,55.9 76.5,55.7 76.7,55.5 77,54.7 77.1,54 77.1,53.6 77.2,53.4 77.7,53.1 77.9,52.9 78.2,52.8 79.6,52.7 80.3,52.8 
		81.6,52.7 83.6,52.3 84.2,51.7 84.6,51.5 84.8,51.5 85,51.6 85.4,52 85.8,52.1 86.1,52.1 86.4,52.1 87.1,52.2 87.6,52.3 87.8,52.5 
		87.8,52.9 88.3,52.8 89.4,52.7 89.6,52.7 90,52.7 90.3,52.8 90.4,53 90.5,53.3 90.7,53.4 90.9,53.3 91,53.2 91.2,53 91.3,52.7 
		92.9,52.3 93.1,52.1 93.5,52.4 93.8,52.9 93.9,53.2 94.1,53.4 94.3,53.4 	"/>
	<path class="st0" d="M223.1,47.3l0.2,0.2l0.2,0.2l0.1,0.1l0.2,0.6l0.3,1.3l0.5,0.9l0.3,0.6l1.2,0.3l0.2,0.1l0.6,0.6l0.1,0.4
		l-0.2,0.8l-0.2,0.2l-0.2,0.2v0.8l0.5,1.2l0.4,0.8l0.3,0.2l0.2,0.2l0.1,0.2l0.1,0.6l0.1,0.6l0.6,0.6h0.2l0.2-0.2l0.3,0.2l0.2,0.6
		l0.1,0.7v0.2l0.5,0.7l0.4,0.5 M230.7,62.2l-0.1,0.4v0.2V63l0.1,0.2 M230.7,69.9L230.7,69.9l-0.2,0.3l-0.1,0.3l-0.1,0.3l-0.5,0.2
		l0.1,0.5l0.2,0.2l0.1,0.2v0.2l-0.1,0.3l-0.2,0.1l-0.3,0.1h-0.2l-0.4,0.1l-0.8,0.5l-0.2,0.5l-0.5-0.2l-0.1,0.2l-0.2,0.3l-0.1,0.2
		l0.1,0.2l-0.1,0.2l-0.3,0.7l-0.2,0.4l-1.2,1.5l-0.2,0.1l-0.3,0.1l-0.4,0.2l-0.5,1.8l-0.5,0.7l-0.4,0.6l-0.2,0.2l-0.6,0.9V82
		l0.2,0.3l0.1,0.4l0.1,0.4l0.2,0.4l0.1,0.3l-0.2,1.1l-0.2,1.5v4.2v0.4"/>
	<polyline class="st0" points="186.3,94.1 186.4,93.6 186.4,92.7 186.2,92.4 186.2,90.2 186.2,90 186.5,90 186.6,89.2 186.5,88.8 
		186.7,87.9 186.9,87.4 186.8,86.5 186.8,86.2 186.9,85.1 187.1,84.2 187.3,83.2 187.5,82.6 187.3,82.2 187.4,81.9 187.5,81.6 
		187.9,81.1 188.1,81.2 188.4,80.2 188.5,79.5 189,78.9 189.4,78.5 189.3,78 189.3,77.3 189.3,76 189.4,75.7 189.5,75.6 189.7,75.5 
		189.7,75.4 189.9,75.3 190.1,75.2 190.5,75.1 190.9,75.1 191,74.9 191.6,74.2 191.6,73.8 191.6,73.6 191.7,73.1 192,72.8 
		192.8,72.5 193.4,72.5 193.6,72.4 193.7,72.3 193.8,72.2 194.4,71.5 195.4,70.3 195.6,70 196.8,69 198.4,67.8 199.9,66 200.7,64.8 
		200.6,64.5 200.4,64.4 199.8,64 198.7,63.2 198.1,62.5 198,62.4 197.8,62.4 197.6,62.5 197.5,62.8 197.4,63 197.2,63 195.9,62.1 
		195.9,61.9 196,60.8 196.4,60.2 196.6,59.6 196.8,59.2 197.1,58.8 197.1,58.4 196.8,57.8 196.4,57.3 196.2,57.2 196.1,57 
		196.3,56.4 196.7,55.5 196.9,55.1 197.1,54.8 197.6,54 197.5,53.2 197.3,53.1 196.9,53.3 	"/>
	<polyline class="st0" points="196.9,53.3 197,53.1 197.2,52.8 197.7,51.9 197.9,51.6 199.6,50.8 199.8,50.8 200.4,50.8 201.2,51.2 
		201.9,51.6 202.6,52.1 203.9,51.5 204.3,51.2 204.7,50.8 205,50.8 205.2,50.9 205.9,51.7 206,52.3 206,52.5 206.7,52.5 207.1,52.6 
		207.1,52.8 207.2,53 207.4,53.1 207.6,53.2 208.1,53.2 208.1,52.7 208.1,52.4 209.8,51.3 210.4,51.2 211.8,51.2 212,51.2 
		212.5,51.2 213.1,51 213.8,50.8 213.9,50.8 214.3,50.5 214.6,50.3 215,50.1 215.8,50.8 216.3,51.2 216.9,51.2 218.1,51.2 
		219.1,51.2 219.2,51.2 223.1,47.3 	"/>
	<polyline class="st0" points="223.1,47.3 223.9,46.5 226.3,44.1 230.7,44.1 	"/>
	<polyline class="st0" points="94.3,53.4 94.2,52.8 94.1,51.8 94.1,51.6 94,51.3 94.1,51 94.2,50.1 94.5,49.3 94.5,49.1 94.5,48.8 
		94.5,48.6 94.4,47.9 94.1,47.2 93.8,46.8 93.7,46.6 93.6,46.4 93.7,46.2 93.8,46 94.1,46 94.4,46 95,46 95.3,45.9 95.4,45.8 
		95.6,45.6 95.7,45.2 95.8,45 96,44.5 96.1,44.2 97.1,43.1 97.4,42.8 97.7,42.2 98,41.6 98.2,41.4 98.4,41.2 99,41.2 99.2,40.9 
		99.4,40.7 101,39.6 102.1,39.4 102.9,39.5 103.3,39.6 103.9,39.7 104.3,39.9 104.5,40 104.7,40.2 104.8,40.6 105.1,40.7 
		105.2,40.8 105.5,40.8 105.7,40.8 105.9,40.8 107.4,41.7 108.7,42.6 109.7,43.9 109.6,44.7 109.9,44.8 110.7,45.6 110.9,45.6 
		111.9,45.5 112.9,45.2 113.2,45.3 114,45.4 114.5,45.6 114.9,45.8 115.1,46.1 115.6,46.4 116,46.6 118.6,46.9 118.8,46.9 119,46.8 
		119.3,46.8 119.5,46.6 119.8,46.5 120.4,46.5 121.2,46.8 122.5,46.9 122.9,47.2 123.4,47.2 123.6,47.3 123.9,47.6 124.2,47.7 
		124.4,47.8 124.7,47.9 125,48 125.5,48 125.8,48 126.1,47.9 126.4,47.8 126.8,47.5 127.1,47.2 127.4,46.2 127.6,45.6 127.6,45.2 
		127.7,45.1 127.9,44.9 128.1,45 128.4,45 128.7,44.2 128.9,43.6 129.2,43.1 129.7,43 130.1,42.2 130.8,42 131,42.4 131.2,42.8 
		131.8,43.1 132.8,43.3 133.7,44 134.2,44.1 134.6,44 134.6,43.7 134.7,43.6 135.9,42.9 137.9,42.2 138.4,42.1 139.9,41.5 141,41.2 
		141.4,41 142.5,40.6 142.7,40.4 142.4,40.2 142.7,39.7 143.2,39.8 143.4,39.9 143.8,40 144.5,40.5 144.8,40.9 145.5,41.4 
		145.9,41.4 146.2,41.2 147.4,40.8 147.5,40.8 147.8,40.8 148.5,40.9 149.3,40.7 149.7,40.6 150.2,40.4 150.4,40.4 150.6,39.7 
		150.7,39.5 150.6,39.4 150.4,39.2 150.4,39 150.6,38.4 150.8,38 152.3,37.5 152.6,37.6 153.1,38.1 153.8,38.3 154.6,38.7 
		155.3,39.1 155.4,39.2 156.4,39.1 156.7,39 156.9,38.9 157,38.8 157.2,38.6 157.8,38.8 159.4,39.6 159.9,40 160,40.2 160.3,40.3 
		160.5,40.4 161.3,40.1 161.8,40 162.1,39.9 162.5,40 162.8,40.2 163.4,40.4 163.6,40.1 163.7,39.8 164,39.5 164.6,39.2 164.8,39.2 
		165.1,39 165.2,39 165.7,39.1 167.2,39.6 167.9,40 168.1,40.1 168.3,40.5 	"/>
	<polyline class="st0" points="168.3,40.5 168.9,41.2 170,41.6 171,42.4 171.1,42.7 171.1,43.2 171,43.5 171.1,44 171.8,44.4 
		172.3,44.4 173.1,44.8 173.6,45.4 174.6,46.1 175.9,46.6 176.9,46.3 177,46.1 177.1,46 177.9,45.7 178.2,45.6 178.4,45.5 
		178.6,45.2 178.6,45 178.7,44.8 178.9,44.6 179.4,44.4 179.7,44.8 179.7,44.9 179.8,45 180.4,45.1 181.1,45 181.4,44.9 182.4,45.6 
		182.6,45.9 183,46.2 183.4,46.2 184,45.8 184.9,44.7 185.2,44.1 185.2,43.8 185.2,43.6 185.4,43.4 186.5,43.6 186.7,43.7 
		187.1,43.9 188.1,44.4 188.1,44.9 188,45.2 187.9,45.5 188,46 188.3,46.2 189.3,46.7 189.6,47.2 190.2,48 190.4,48 190.7,48.1 
		190.9,48.3 191.1,48.8 191.4,49.4 191.7,49.5 192,49.4 192.5,49.6 192.7,49.7 193.3,50 193.8,50.2 194.1,50.1 194.3,50.2 
		194.6,51.6 194.6,51.9 194.5,52.1 194.4,52.4 194.7,52.4 195,52.4 195.9,52.1 196.3,52 196.8,53.1 196.9,53.3 	"/>
	<polyline class="st0" points="135.7,-1.2 136.6,0.1 136.8,1.8 136.5,2.4 136.4,2.5 136.2,2.8 136.4,3.6 136.5,3.7 136.4,5.1 
		135.7,5.8 135.5,5.9 135.2,5.9 135,6.1 134.9,6.3 134.7,7.2 134.8,7.4 135.1,7.6 135.2,7.7 135.5,7.6 135.7,7.3 135.9,7.4 
		135.9,8.1 135.7,8.4 135.5,8.8 135.2,8.9 135.2,9.2 135.4,9.8 135.6,9.8 137.1,9.8 137.4,9.7 137.5,9.6 137.9,9.6 138.7,9.7 
		139.5,9.8 139.8,9.9 140.1,10 140.5,10 140.8,9.9 141.1,10 141.6,10.8 141.4,11 141.1,11.3 140.7,11.7 140.5,12.5 140.7,12.8 
		140.7,12.9 140.9,13.1 141.1,13.2 141.3,13.3 141.5,13.3 142.2,13.5 143.4,13.7 144.6,13.9 144.9,13.9 145.4,14 146.1,14.1 
		146.4,14.2 146.6,14.4 147.2,14.9 147.3,15.1 147.2,15.3 147.4,15.6 147.8,16 148.2,16.4 148.4,16.5 148.6,16.6 148.9,16.5 
		149.3,16.5 149.6,16.8 149.8,16.9 150.1,17.5 150.2,18.3 150.2,18.6 149.9,18.8 149.8,18.8 149.4,19 149.3,19.2 149.4,19.7 
		149.6,19.9 149.9,20 150.6,20.5 150.6,20.7 150.6,20.9 150.8,21.2 151.5,21.6 152.9,22.3 153.8,22.6 154.9,23.1 156,23.9 
		156.5,24.3 156.5,24.6 156.6,24.8 156.9,25.3 157.1,25.5 158.4,26.4 158.8,26.5 159.1,26.7 159.5,27 159.5,27.1 159.2,27.5 
		158.7,28.2 158.6,28.4 158.7,29.1 159.2,29.5 159.9,29.9 160.5,30.5 160.5,30.8 160.4,30.9 160.3,31 160,31.2 159.8,31.5 
		159.8,31.7 160.9,32.1 161.3,32.2 161.7,32.3 162,32.2 162.3,32.3 162.9,32.5 163,32.7 163.1,33.1 163.2,33.2 163.9,33.5 
		164.4,33.5 165.4,34.1 165.7,34.3 166.2,34.8 166.5,35.3 166.8,35.8 166.8,36.1 166.7,36.4 166.5,37.2 166.7,38 166.8,38.4 
		167,38.8 167.2,38.9 167.6,39.2 167.9,39.4 168.3,40.1 168.3,40.4 168.3,40.5 	"/>
	<polyline class="st0" points="74,64 73.9,63.8 73.8,63.6 73.4,62.8 73.2,62.4 73.1,62.2 73.1,61.6 73.1,61.3 72.8,59.2 73,59.1 
		73.2,58.9 73.2,58.6 73.1,58.3 72.9,57.9 71.8,56.6 71.5,56.5 71.2,56.5 70.8,56.6 70.4,56.2 68.8,54.6 66.4,52.1 66.2,51.9 
		66.1,51.8 65.8,51.4 65.1,50.4 64.9,50.3 64.6,49.8 64.4,49.4 64.3,48.8 65.2,48.5 64.8,48 64.8,47.2 64.8,46.8 64.7,46.7 
		64.1,45.6 63.4,45.2 63.1,45.2 62.3,44.6 61.8,44 61.7,43.7 61.7,43.1 61.7,42.4 61.6,41.8 61.4,40.9 61.3,40.7 61.3,40.6 
		61.3,40.4 61.4,39.7 61.3,39.2 61.1,38.9 60.9,38.8 60.7,38.8 60.5,38.7 60.3,38.5 60.1,38.4 60.3,37.9 60.4,37.7 60.6,37.4 
		60.9,36.6 60.9,36.4 60.9,34.7 60.9,33.8 60.9,33.2 60.8,33.1 60.5,33 60.4,33.2 59.8,33.1 59.3,32.4 59.2,32 59.3,31.7 59.5,31.6 
		60.5,30.8 61.9,30.2 62.5,29.5 62.4,29.2 62.6,28.8 63.6,26.7 63.8,26.3 64.1,26.2 64.6,26 65.2,24.4 65.2,24.2 65.3,23.9 
		65.9,22.4 66.1,22 66.3,21.9 66.4,21.8 66.7,21.6 67.3,21.2 67.9,20.8 68.4,19.6 	"/>
	<polyline class="st0" points="68.4,19.6 68.5,19.7 68.8,19.7 68.9,19.7 69.3,19.7 69.6,19.6 70,19.6 70.1,19.8 70.3,20 70.8,20.2 
		71.8,20 72.4,19.9 72.7,19.6 72.8,19.2 73.2,19.1 73.5,19.1 73.8,19 74.3,18.9 75.9,18.3 75.9,18 75.9,17.6 76.2,17.4 76.7,16.9 
		77.1,16.8 77.3,16.8 77.3,17.1 77.3,17.5 79.1,19.3 79.4,19.5 79.5,19.5 79.7,19.2 79.8,19.1 79.8,18.8 80.2,18.7 80.7,18.6 
		81.4,18.5 82.1,18.2 82.7,17.7 82.9,17.3 83,17.2 84,16.8 84.6,16.5 85.2,16.4 85.8,16.2 86.2,16 86.3,15.8 86.9,15.8 88.3,16 
		89.5,15.6 91.3,15.5 92.7,15.4 94,15.3 94.2,15.3 94.5,15.2 94.5,14.9 94.5,14.5 94.7,14.3 94.9,14.1 95,13.9 95.2,13.8 95.6,13.6 
		96,13.6 96.3,13.2 96.9,12.6 97,12.4 97.1,12.1 97.6,11.6 98.1,10.8 98.4,10.4 98.7,10 98.6,10 97.9,9.4 97.6,9.3 97,9.1 96.6,8.7 
		96.5,8.5 96.8,8.3 97.1,8 97.6,7.6 97.9,7.5 98.4,7.3 98.6,7.3 99.2,7.2 101.1,7.3 102.8,7.2 104.6,6.9 105.2,6.8 105.5,6.8 
		105.7,6.7 106.5,6.2 107.5,6.3 108.3,6.4 108.7,6.5 109.1,6.4 109.5,6.2 109.9,5.9 110.1,5.6 110.2,5.3 110.2,5.1 112.6,3.9 
		112.8,3.9 112.9,3.6 113,3.4 113.3,3.1 113.4,3 114.2,2.4 114.7,1 116.2,-0.4 116.6,-0.8 116.8,-0.8 117.2,-0.6 117.4,-0.7 
		117.8,-1 117.9,-1.2 	"/>
	<polyline class="st0" points="191.3,213.3 191.2,213 191.1,212 190.9,210.8 190.7,210.6 190.5,210.4 190.2,210.2 190.1,209.8 
		189.9,209.2 189.8,208.8 189.8,207.9 190.9,207.7 192.2,207.1 192.4,207 193,206.8 194.7,206.2 195.6,206 196.6,205.7 197,205.7 
		197.2,205.7 198.8,205.3 200,205 200.2,205 200.3,204.9 200.7,204.8 202,204 202.3,204 202.7,203.9 202.9,203.9 203.1,203.8 
		203.3,203.7 203.5,203.7 204.1,203.4 205.2,203.1 206.3,202.8 207.3,202.6 207.5,202.5 212.6,200.8 214.6,200.1 	"/>
	<path class="st0" d="M214.6,200.1l0.2,0.2l0.3,0.9l0.4,0.6l0.6,1l0.8,1l0.8,0.9h0.5l0.6-0.2l1-0.2l2-0.4l1.9-0.4h0.2l0.2,0.3
		l0.2,0.3l0.2,0.2l0.2,0.3l0.2,0.2l0.2,0.2l0.1,0.2l0.1,0.2l0.1,1.3l0.2,1.7l-0.2,0.8l-0.1,0.5l0.1,0.7l0.1,0.2v0.1v0.2v0.2
		l-0.2,0.3l-0.1,0.1l-0.2,0.1l-0.8,1l-0.1,0.2l0.1,0.2l0.1,0.2l-0.1,0.6l-0.2,0.3l-0.4,0.5l-0.2,0.3h-0.2l-0.2,0.2l-0.2,0.2
		l-0.1,0.1l-0.2,0.4v0.4l0.1,0.2l0.2,0.2l0.2,0.1l0.2,0.2l0.6,0.8l0.1,0.2v0.2l-0.2,0.3v0.6l0.1,0.2 M230.7,199l-0.2-0.3l-0.6-1
		l-1.5-1.4l-0.2-0.2l-0.3-0.1l-1.4-0.1l-0.6-1l-0.1-0.2l-0.1-0.2l0.1-0.2v-2l-0.1-0.2v-0.5l-0.1-0.3v-0.6V190v-0.2v-0.4l-0.2-0.5
		l-0.1-0.2l-0.2-0.3l-0.1-0.2l-0.1-0.5l-0.2-0.9l-0.2-0.7l-0.2-0.6v-0.2v-0.3l0.1-0.3l0.1-0.2l0.2-0.4l0.6-0.9l0.4-0.5l0.3-0.4
		l0.5-0.8l0.1-0.2l0.1-0.3l0.1-0.2v-0.2v-0.4l-0.1-0.2V180l0.6-0.1l1.6,0.1l0.5-0.1h0.1"/>
	<polyline class="st0" points="213.4,161.6 213.6,161.4 213.8,161.3 214,161.6 214.1,161.7 214.9,162.3 215.4,162.4 215.9,162.4 
		216.4,162.3 217.1,162.8 217.3,163.1 217.4,163.3 217.9,163.5 218.2,163.4 218.3,163.2 218.5,163.2 220.1,163.2 221,163.8 
		221.2,164 221.3,164.2 221.6,164 221.7,163.6 221.7,163.4 221.7,163.2 221.7,162.9 221.7,162.7 222.1,162.4 222.5,162.4 
		222.7,162.6 223.2,163.1 223.5,163.4 223.7,163.6 224.8,164.5 225.1,165.2 225.5,165.7 226,166.4 226.1,166.5 226.3,166.9 
		226.4,167.2 226.6,169.6 226.6,169.9 226.5,170.1 226.6,171.1 226.6,171.2 226.6,171.3 226.7,171.5 226.9,171.9 227.2,172.2 
		227.2,172.4 227.2,172.9 227.2,173.2 227.1,174.2 227,174.5 226.9,174.8 226.7,175 226.6,175.3 226.8,176 226.9,176.3 227.5,176.8 
		228.2,178 228.8,178.2 228.9,178.4 229.5,179.2 229.5,179.5 229.5,180 	"/>
	<polyline class="st0" points="214.6,200.1 214.4,200 214.3,199.8 214.1,199.4 213.4,199.9 212.6,199.5 211.9,198.5 211.4,197.6 
		211,197 210.8,197 210.5,196.9 210.2,196.8 210.4,196.4 210.8,196.4 211.4,196.1 211.5,196 212.1,195.2 212.2,194.9 212.8,193.6 
		212.9,192.8 212.9,192.4 213,192 213,191.7 213.1,191.5 213.2,191.3 213.3,191.2 213.3,190.9 213.3,190.7 212.8,190.4 212.7,189.6 
		213.5,188.4 213.7,188.2 214.3,188.2 214.5,188.3 215,188.2 216.1,187.9 217.1,187.1 217,186.8 217.3,186.6 217.5,186.5 
		217.6,186.4 217.7,186.2 217.1,186 216.8,186.2 216.6,186.2 216.4,186.2 216.2,186 216.1,186 215.4,184.4 215.5,183.8 215.8,183.3 
		216,182.5 216.1,181.2 216,180.1 215.9,179.9 215.6,179.7 215.4,179.3 215.4,178.4 215.8,178 216.2,177.5 216.6,176.8 216.8,176.6 
		216.9,176.4 216.6,176 216.4,175.6 215.6,174 215.7,173.8 216.4,173.4 216.8,173.3 216.9,173.3 217.4,173.3 217.8,173.1 218,172.8 
		218.1,172.6 218.5,172 218.9,171.8 219.2,171.6 219.3,171.5 219.3,171.3 219.3,171.2 218.9,170.8 218.3,169.9 218.1,169.4 
		218.1,169.1 218.2,168.9 218.3,168.7 218.2,168.5 218.1,168.4 217.5,168 216.4,167.2 216.5,166.5 216.7,166 216.4,165 216.2,164.9 
		215.7,164.4 215.7,164.1 215.7,163.9 215.7,163.7 215.7,163.6 215.5,163.2 215,163.2 214.7,163.4 214.4,163.5 213.9,163.5 
		213.8,163.4 213.4,162.2 213.4,162 213.4,161.6 213.4,161.6 	"/>
	<polyline class="st0" points="195.6,151.2 195.6,151.2 195.8,151.8 196.1,152.5 196.2,152.8 196.7,153.5 197.1,154 197.2,154.2 
		197.7,154.5 198,154.6 198.1,154.7 198.4,154.8 198.6,154.8 198.8,154.6 199.1,154.4 199.3,154.4 199.9,154.8 200.8,154.9 
		201.5,155.2 202.1,156 202.2,156.5 202.3,156.7 203.1,157.2 203.2,157.3 203.5,157.3 203.9,157.1 204.3,157.2 204.8,157.3 
		205.3,157.6 205.1,157.6 205.1,157.9 205.1,158.1 205.1,158.4 205.5,158.7 205.6,158.7 205.9,158.4 206.1,158.4 206.3,158.5 
		206.4,158.6 207,158.6 207.3,158.9 207.5,159.1 207.8,159.2 208.1,159.2 208.7,159.2 209.1,159.2 209.7,159.6 209.8,160 
		210.1,160.3 210.8,160.4 211.4,160.5 211.9,160.9 212.6,161.3 212.8,161.3 213.1,161.5 213.4,161.6 	"/>
	<polyline class="st0" points="123.9,218.8 123.8,218.6 123.4,217.9 123,217.5 122.9,217.4 122.9,217 122.9,216 122.9,212.7 
		122.9,211.4 122.9,207.2 122.9,206.8 122.9,206.4 122.9,205.5 122.9,203.1 122.8,199.4 122.8,199 122.8,198.6 122.8,197 
		122.8,196.8 122.8,194.8 122.8,193.6 122.8,191 126.9,191 131,191 133.3,191 134.5,191 135.8,191 138.3,191 139.4,191 139.3,190.6 
		139.1,190.4 138.9,190.1 138.7,190 138.5,189.7 138.4,189.6 138.3,189 139,186.9 139.1,186.8 139.6,185.9 139.6,185.2 139.5,184.9 
		139.5,184.8 139.3,184.5 139.1,184.4 139.1,181.6 139.4,181.2 139.2,180.3 139.1,180.1 139,179.8 139.5,178.1 139.7,177.9 
		139.9,177.6 139.5,176.4 139.3,175.3 139.1,173.6 139.1,173.2 	"/>
	<polyline class="st0" points="139.1,173.2 139.2,173.2 139.8,173.3 140,173.4 140.3,173.6 140.4,174.1 140.8,174.5 141.8,174.8 
		142.3,175.1 142.6,175.2 142.7,176.1 142.7,176.7 142.3,177.2 142.3,177.7 143,178.2 143.6,178.2 144.1,178 144.3,177.7 145,177.2 
		145.4,177 147.4,176.5 147.8,176.5 148.1,176.5 148.6,176.5 149,176.4 149.6,176.2 149.8,176 150.2,176 150.4,176 150.4,176.7 
		150.2,177.1 149.9,177.4 150.1,178.7 150.2,179 150.5,179.7 151.6,180.3 153.2,180.8 154.5,181.1 155.6,181.8 155.7,181.9 
		156.1,181.9 156.3,181.9 157.3,181.9 159.3,182 159.5,182 159.7,182.1 160.6,182.5 161.3,182.6 161.9,182.6 162.9,182.5 
		163.2,182.4 163.6,182 163.7,181.9 163.8,181.7 163.9,181.4 164,180.8 164.3,179.4 165.7,179.2 165.8,179.5 165.9,180.1 
		165.9,180.4 165.9,180.6 165.9,180.9 166,181.1 166.1,181.2 166.8,181.7 167.1,181.8 167.4,182 167.7,182.3 167.9,182.5 168,182.8 
		168,182.9 168,183.2 168.3,184.1 168.3,184.2 168.3,184.3 168.6,184.5 168.8,184.7 168.8,184.8 169.1,184.8 169.2,185 169.3,185.2 
		169.5,185.3 170.5,185.2 170.7,185.2 170.8,185 171,184.9 171.2,185 171.5,185.1 171.6,185.2 171.9,185.4 172.5,185.9 173.5,186.4 
		174,186.4 174.7,186.4 175,186.5 175.8,187.2 176.4,188.4 176.4,188.6 176.3,188.8 176.2,188.9 176.2,189.2 176.7,190.3 177,190.3 
		177.1,190 177.3,189.9 177.6,189.9 178.2,190.4 178.8,191.4 179.6,192.5 179.8,193.3 179.8,193.5 179.8,194 179.9,194.2 
		180.3,194.5 180.5,194.5 180.7,194.4 181,194.4 181.8,194.8 182.7,194.4 184,193.8 184.2,193.7 184.5,193.4 184.7,193.2 
		184.9,193.2 185.1,193.2 185.8,193.5 185.8,193.8 185.5,193.9 185.3,194.4 185.4,194.8 185.5,194.9 186.2,195.1 186.7,195.1 
		186.8,194.8 186.8,192.8 186.9,189.5 186.9,187.5 186.9,186.9 187,184.8 187,184.3 186.7,184.2 185,184.5 184.2,185 184,185.7 
		184.4,186.2 184.6,186.2 184.7,186.4 184.6,186.6 184.3,186.8 184.2,186.8 183.6,186.5 182.5,186 181.8,186 181.6,186 181.2,186.1 
		180.8,186.1 180.6,186 180.6,185.9 180.4,185.4 179.8,184.5 179.7,184.4 179,183.6 177.9,182.8 177.8,182.7 177.4,182.5 
		176.3,181.7 175.9,181 175.8,180.5 175.7,180 175.5,179.6 175.5,179.5 175.4,179.3 175.2,179.2 175.2,178.8 175.2,178.4 
		175.3,178.1 175.6,177.6 176.1,176.5 176.2,176.4 176.3,175.9 176.7,174.1 176.8,173.3 176.9,173.1 177,172.8 177.5,172.1 
		177.8,172.1 178.1,171.6 177.9,170.8 177.6,170.5 177.3,168.2 177.5,167.4 177.5,166 177.6,165.7 177.6,165.6 177.9,164.9 
		178.2,164.4 178,164 176.9,161.7 176.7,160.8 176.5,160.6 176,160.4 175.7,160.3 175.5,160.1 175.6,159.9 175.8,159.6 175.9,159.6 
		176.2,159.5 176.4,159.4 176.8,159.2 177.5,158.7 177.7,158.6 178.3,158 178.6,157.7 179.2,157 179.5,156.6 179.7,156.4 
		180.2,155.6 180.4,155.2 180.5,155 180.5,154.8 180.5,154.4 180.2,153.9 180,153.5 180.2,153.4 180.8,153.3 182.6,153.1 
		182.8,153.1 184.2,152.8 185.6,152.7 185.7,152.6 185.8,152.6 188.5,152.2 189.9,152 191.3,151.8 192.8,151.6 193.4,151.5 
		193.9,151.4 195.3,151.2 195.5,151.2 195.6,151.2 	"/>
	<polyline class="st0" points="49,131.8 49.6,131.9 51,131.8 51.4,131.7 51.8,131.7 52.1,131.9 53.9,131.8 55.3,131.6 55.7,131.6 
		55.9,131.6 56.6,131.8 57.9,132 58.8,132 60.9,132.1 61.8,131.9 62.2,131.9 63,131.8 64.8,131.7 70,131.6 71,131.7 72,131.6 
		73.4,131.6 73.8,131.6 74.3,131.6 75.2,131.6 75.6,131.6 76.8,131.7 77.4,131.9 77.5,132.1 77.6,132.6 77.6,133 78.3,133.9 
		78.6,134.1 78.7,134.4 78.4,135.7 78.3,136.1 78.5,136.7 79.1,138.4 79.6,139.4 79.9,139.9 80.2,140 80.4,140.2 80.7,141.2 
		80.7,141.6 80.5,142 80.6,142.8 81,143.6 81.6,144 81.8,144.3 81.9,144.6 82.3,144.8 82.6,145.4 83.4,146.8 83.7,147.4 84.3,148.1 
		84.6,148.2 84.7,148.4 85.3,149.5 85.4,149.9 85.7,150.1 85.8,150.1 86.4,150.2 86.6,150.2 87.4,150 88.5,149.7 88.8,149.8 
		89,149.9 89.2,150.1 89.4,150.3 89.7,150.3 90.4,150.3 90.3,150 90.4,149.6 91,149.3 92.1,149.3 92.8,149.5 93.8,149.2 93.7,149 
		93.8,148.8 95.8,148.8 95.8,149.2 96,149.3 97.7,149.3 100.8,149.2 100.7,148.8 100.7,148.6 100.6,148.4 100.7,147.8 100.8,147.6 
		100.9,147.3 101.1,146.8 100.8,146.1 100.8,146 100.8,145.8 101,145.8 101.6,145.7 102.1,145 102.1,144.6 101.9,144 101.8,143.6 
		101.8,143.4 101.8,142.4 101.9,142.3 102.1,140.9 105.7,140.9 108.6,140.9 108.7,140.7 108.7,140.5 108.7,140.2 111.2,140.2 
		111.1,140.7 110.9,141.2 110.6,141.9 110.4,142.4 110.4,143 110.6,143.3 116.1,143.3 119.4,143.2 120.8,143.2 121.1,143.6 
		121.3,144 121.5,144.9 121.4,145.9 121.3,146.2 121.2,146.3 121.2,146.4 120.8,147.4 120.7,147.9 120.6,148.8 120.6,149.3 
		120.8,149.5 121,149.7 121.3,150.4 121.5,150.9 121.7,151.6 121.9,152 121.9,152.1 122,152.5 122.1,152.8 122.2,153.4 122.1,153.8 
		122.1,154.1 121.7,155.4 121.7,156 121.5,157.1 121.3,158.2 121.3,158.9 121.3,160.1 121.1,160.5 120.9,161.1 121.5,162.8 
		121.5,163 121.7,163.2 122.9,164.7 123.3,165 123.8,165.2 124.1,165.3 124.1,165.6 124.4,166.7 124.5,167.2 124.6,167.6 
		124.9,168.3 125.3,169.1 125.3,169.5 125,170.3 125.3,170.8 125.3,171.1 125.3,171.6 125.3,172 124.9,172.5 124.5,172.7 
		124.3,172.8 124.1,173.2 124.4,174 124.5,174.4 124.8,174.8 124.9,175.8 124.9,176 125.2,176.3 126.7,175.4 126.9,175.1 
		126.9,174.8 127,174.7 127.4,174.6 127.7,174.7 127.9,174.8 128.1,174.9 128.2,175 128.7,175.1 129.2,175.1 129.4,174.9 
		129.6,174.8 129.8,174.7 130.2,174.8 130.5,175.1 131.2,175.1 131.7,175.1 132.8,174.9 133,174.8 133.4,174.5 134,174.2 134.3,174 
		134.5,174 134.7,174 134.9,174 135.1,174 135.3,174 135.5,174 135.9,174.1 136,174.2 136.5,174.4 138.1,174.5 138.4,174.4 
		138.9,173.7 139.1,173.2 	"/>
	<polyline class="st0" points="48.2,121.6 48.2,121.6 48.1,121.9 47.8,121.9 46.3,122.3 45.9,122.4 45.1,123.6 45.1,123.9 
		44.2,124.7 43.9,124.8 43.6,125.6 43.6,127 43.6,130.8 43.3,130.8 42.3,130.8 41.5,130.9 41.1,131.1 41.1,131.2 	"/>
	<polyline class="st0" points="39.4,124.8 40.5,123.9 40.6,123.5 40.7,123.2 40.9,122.7 41.3,122.9 41.5,122.9 41.9,122.9 
		42.3,122.3 42.4,121.9 42.3,121.6 42.4,121.4 43,121.2 44.5,120.9 44.6,120.7 44.8,120.3 45.3,119.8 45.5,119.6 45.5,119.6 
		46.3,119.6 46.6,119.8 46.6,120 46.7,120.1 46.7,120.3 47.6,121.2 47.8,121.3 47.9,121.4 48.1,121.6 48.2,121.6 	"/>
	<polyline class="st0" points="181.5,105.5 181.6,105.3 181.8,105.1 181.7,104.8 181.8,104.3 182.1,104.2 182.5,104.2 183.6,104.6 
		184.1,104.8 184,105 184.2,105.2 184.2,105.4 184.1,105.6 184.3,106.1 184.5,106.2 185,106 185.2,106 185.8,106.2 186.1,106 
		186.3,106 186.5,106 186.5,105.8 187.1,106 187.5,106 188.1,105.7 188.5,105.6 188.6,105.5 188.9,105.1 189,104.8 189,104.7 
		188.9,104 189.1,102.4 189.3,102 189.3,101.9 189.7,102.1 190.5,102.8 190.6,102.8 191,102.9 192,102.3 192.7,102.1 192.9,101.8 
		193.4,102 193.6,102.3 194,102.5 194.4,102.7 194.4,102.7 	"/>
	<polyline class="st0" points="194.4,102.7 194,103.2 193.7,104.3 193.2,106.5 193.7,107.2 193.8,107.2 194.3,106.8 194.8,107 
		195.1,107.3 195.2,107.5 195.9,107.6 196.7,107.6 196.7,107.6 196.6,108.4 196.8,109 196.6,109.9 196.4,110.1 196,110.2 195.8,110 
		195.1,110.5 194.9,110.6 194.8,110.8 194.9,110.8 195.1,110.8 195.2,111 195.2,111.2 194.8,111.5 194.5,111.6 194,111.8 193.8,112 
		193.3,112.3 192.9,113.5 192.8,113.6 193,114.1 192.9,114.3 192.7,114.2 192.4,114.1 192.3,114.3 191.5,115.5 191.5,115.8 
		191,116.8 189.8,118.3 189,118.8 187.6,119.7 186.8,119.7 186.7,119.7 184.8,119.8 184.7,119.7 	"/>
	<polyline class="st0" points="184.7,119.7 184.6,119.1 184.6,118.5 184.5,118 184.5,117.6 184.5,117.4 184.4,117.2 184.2,116.4 
		184.1,116.3 183.8,116 183.7,115.9 183.5,115.6 183.4,115.6 183.2,115.3 183.2,115 183.1,114.2 183.2,113.9 183.2,113.6 
		183.3,113.4 183.3,112.6 183.3,111.8 183.3,111.5 183.2,111.2 183.1,110.8 183,110.4 183,110.2 183,110 183.3,109.9 183.1,109.7 
		183,108.9 183.3,108.6 183.3,108.1 183.1,107.8 182.8,107.8 182.6,107.6 181.2,106 181.1,105.8 181.3,105.6 181.5,105.5 	"/>
	<polyline class="st0" points="193.7,91.5 193.7,91.6 193.5,91.8 193.7,92.3 194.4,93.7 195.1,94.2 195.5,94.2 195.9,94.6 196,95.3 
		196.7,96.4 196.5,96.8 196.5,97.1 196.7,97.6 196.6,98 196.4,98.8 197,99.6 197.2,100 197.1,100.1 196.8,100.9 196.8,101.2 
		196.8,101.6 196.8,101.8 196.8,102 196.6,102.3 196.2,102.5 195.7,102.3 195.6,102.3 194.6,102.6 194.4,102.7 	"/>
	<polyline class="st0" points="181.5,105.5 181.4,105.3 181.1,105.1 180.8,105 180.6,104.9 180.5,104.8 180.1,103.6 180.2,102.6 
		180.4,102.3 181.2,102 182.2,101.5 182.3,101.2 182.4,101 182.5,100.8 182.6,100.6 182.7,100.4 182.7,100 182.7,99.8 182.6,99.4 
		182.5,99.1 182.4,98.8 182.4,98.5 182.4,98 182.6,97.7 183.4,96.4 183.6,96.1 184.4,95.2 185,95.1 185.2,95.1 185.3,94.9 
		185.5,94.7 185.8,94.4 186.2,94.2 186.3,94.1 	"/>
	<polyline class="st0" points="69.6,-1.2 69.7,-1.2 70,-1.1 70.1,-0.8 69.4,-0.7 68.9,-0.6 68,-0.4 66.8,-0.8 66.4,-0.8 65.8,-0.9 
		65.5,-0.8 65.3,-0.8 65.2,-0.6 64.9,-0.5 64.6,-0.5 63.9,-0.8 62.7,-0.4 61.6,-0.6 60.2,-0.9 59.9,-1 57.8,-0.8 57.7,-0.4 
		57.3,0.2 57.2,0.4 57.1,0.6 56.8,0.8 56.6,0.9 56.5,1 56.2,1.3 55.8,2 55.9,2.1 56.2,2.2 58.8,5.2 59,5.4 58.9,5.7 60.7,7.3 
		61.2,7.7 62.9,8.9 63.2,8.8 63.3,8.9 63.7,9.2 64.9,10.4 66,11.7 66.2,12 66.5,12.8 67.2,14.3 67.2,14.5 67.4,14.8 67.4,15.1 
		67.5,15.4 67.9,16.4 68,16.7 68.2,17.2 68.4,17.6 68.6,17.6 69.1,17.7 69.1,17.9 69.1,18.3 69,18.8 68.8,19.2 68.4,19.6 68.4,19.6 
			"/>
	<polyline class="st0" points="11.2,41.2 11.3,41.2 11.6,40.8 12.4,39.6 12.5,39.3 12.7,38.4 12.6,38 12.7,37.7 12.8,36.7 
		13.1,36.4 13.2,36.2 13.4,35.9 13.2,35.6 13.1,35.4 12.8,34.8 12.9,33.9 13.5,33.3 13.7,33.3 14.7,32.4 15.9,31.2 16.9,30.1 
		17.2,29.8 17.5,29.8 17.7,29.7 17.9,29.4 18,29.1 18.5,28.9 19,28.4 19.4,28.1 19.6,28.1 20,28.1 20.3,27.2 20.7,26 20.8,25.8 
		21.5,26 23.3,24.4 23.9,24 24,24 24.1,24.3 24.1,24.6 24.1,24.8 24.2,25 24.4,25.1 24.7,25.2 26.8,25.1 27.2,23.9 27.7,23.6 
		28.6,24.1 29.3,24.4 29.5,24.4 29.7,24.7 29.8,25.2 29.8,25.5 30,25.7 30.3,26 30.5,26 30.9,26 31.2,26.1 31.4,26.5 31.5,26.8 
		31.4,27 31.4,27.5 31.5,28 31.6,28.3 31.7,28.7 31.8,28.8 32.3,28.8 32.4,28.8 33,28.8 33.6,28.8 33.9,28.7 34.2,28.4 34.2,28.1 
		34.4,27.5 34.6,27.4 35,27.4 35.4,26.9 35.6,26.4 35.7,26.1 35.7,25.9 35.5,25.6 35.6,25 36.2,24.5 36.7,24.3 37.2,24 38,23.4 
		38.2,23 37.4,22 37.2,21.8 37.6,21.6 38,20.9 38,20.7 38.3,20.5 38.5,20.4 39.6,19.2 39.6,18.8 39.5,18.6 39.5,18.4 39.5,18.1 
		39.6,17.9 39.7,17.7 39.8,17.6 39.9,17.4 40,17.2 40.2,17 40.4,16.8 40.7,16.4 41,15.7 41,15.3 41,15 41,14.8 41.1,14.6 41.2,14.4 
		41.4,14.2 41.5,14.1 41.5,13.9 41.5,13.7 41.3,13.4 41.3,13 41.4,12.5 41.4,12.4 41.5,12.2 41.8,12.1 41.9,12.1 42.2,12.2 42.4,12 
		42.8,11.5 42.8,11.2 42.7,11 42.7,10.7 43.3,10.4 43.5,10.4 43.9,10.6 44.5,10.4 45.1,10.2 46,9.2 46.2,8.9 46.3,8.6 46.5,7.3 
		46.5,7 46.4,6.8 47,4.4 47.6,3.6 48,3.2 48.3,3.1 48.7,3.1 49,3.1 49.4,2.9 49.6,2.8 49.8,2.4 50,1.1 49.8,0.1 49.8,-0.2 
		49.9,-1.2 	"/>
	<polyline class="st0" points="230.7,31.4 230.7,31.3 230.2,30.4 230.1,30.2 230,30 230,29.4 229.2,27.3 228.8,26.8 228.5,26.6 
		228.4,26.4 228.1,26.4 227.9,26.3 227.5,26.3 227.3,26.2 226.9,25.1 226.8,24.8 226.4,24.6 225.9,24.4 225.6,24.4 225.3,24.4 
		225.2,24.3 224.8,23.9 224.7,23.7 224.5,23.3 224.2,22.6 223.7,22.4 223,22 223.1,21.7 223.1,21.6 223,20.9 221.8,19.6 220.4,18.6 
		219.8,18.4 218.3,17.9 218.1,17.9 216.6,17.7 215.3,17.6 214.9,17.5 214.6,17 214.4,16.7 214.3,16.4 214.6,15.7 215.4,14.8 
		215.7,14.8 215.9,14.5 215.8,13.9 215.7,13.4 215.7,12.8 215.7,12.4 216.6,11.9 217,11.9 217.5,12 218.5,11.8 219.6,11.8 219.9,12 
		220.1,12.4 220.3,12.6 220.8,12.6 220.9,12.5 221.2,12.3 221.4,12.1 221.7,12.1 222,12.1 222.4,12 222.7,11.9 223.2,11.3 
		223.5,11.1 223.7,10.8 223.7,10.4 223.7,9 223.7,7.7 223.3,4.1 223.3,3.9 223.2,3.6 223.2,2.8 223.6,1 224.1,-0.2 224.2,-0.8 
		224.3,-1.2 224.3,-1.2 	"/>
	<polygon class="st1" points="155.3,39.1 155.4,39.2 156.4,39.1 156.7,39 156.9,38.9 157,38.8 157.2,38.6 157.8,38.8 159.4,39.6 
		159.9,40 160,40.2 160.3,40.3 160.5,40.4 161.3,40.1 161.8,40 162.1,39.9 162.5,40 162.8,40.2 163.4,40.4 163.6,40.1 163.7,39.8 
		164,39.5 164.6,39.2 164.8,39.2 165.1,39 165.2,39 165.7,39.1 167.2,39.6 167.9,40 168.1,40.1 168.3,40.5 168.9,41.2 170,41.6 
		171,42.4 171.1,42.7 171.1,43.2 171,43.5 171.1,44 171.8,44.4 172.3,44.4 173.1,44.8 173.6,45.4 174.6,46.1 175.9,46.6 176.9,46.3 
		177,46.1 177.1,46 177.9,45.7 178.2,45.6 178.4,45.5 178.6,45.2 178.6,45 178.7,44.8 178.9,44.6 179.4,44.4 179.7,44.8 179.7,44.9 
		179.8,45 180.4,45.1 181.1,45 181.4,44.9 182.4,45.6 182.6,45.9 183,46.2 183.4,46.2 184,45.8 184.9,44.7 185.2,44.1 185.2,43.8 
		185.2,43.6 185.4,43.4 186.5,43.6 186.7,43.7 187.1,43.9 188.1,44.4 188.1,44.9 188,45.2 187.9,45.5 188,46 188.3,46.2 189.3,46.7 
		189.6,47.2 190.2,48 190.4,48 190.7,48.1 190.9,48.3 191.1,48.8 191.4,49.4 191.7,49.5 192,49.4 192.5,49.6 192.7,49.7 193.3,50 
		193.8,50.2 194.1,50.1 194.3,50.2 194.6,51.6 194.6,51.9 194.5,52.1 194.4,52.4 194.7,52.4 195,52.4 195.9,52.1 196.3,52 
		196.8,53.1 196.9,53.3 197.3,53.1 197.5,53.2 197.6,54 197.1,54.8 196.9,55.1 196.7,55.5 196.3,56.4 196.1,57 196.2,57.2 
		196.4,57.3 196.8,57.8 197.1,58.4 197.1,58.8 196.8,59.2 196.6,59.6 196.4,60.2 196,60.8 195.9,61.9 195.9,62.1 197.2,63 197.4,63 
		197.5,62.8 197.6,62.5 197.8,62.4 198,62.4 198.1,62.5 198.7,63.2 199.8,64 200.4,64.4 200.6,64.5 200.7,64.8 199.9,66 198.4,67.8 
		196.8,69 195.6,70 195.4,70.3 194.4,71.5 193.8,72.2 193.7,72.3 193.6,72.4 193.4,72.5 192.8,72.5 192,72.8 191.7,73.1 191.6,73.6 
		191.6,73.8 191.6,74.2 191,74.9 190.9,75.1 190.5,75.1 190.1,75.2 189.9,75.3 189.7,75.4 189.7,75.5 189.5,75.6 189.4,75.7 
		189.3,76 189.3,77.3 189.3,78 189.4,78.5 189,78.9 188.5,79.5 188.4,80.2 188.1,81.2 187.9,81.1 187.5,81.6 187.4,81.9 187.3,82.2 
		187.5,82.6 187.3,83.2 187.1,84.2 186.9,85.1 186.8,86.2 186.8,86.5 186.9,87.4 186.7,87.9 186.5,88.8 186.6,89.2 186.5,90 
		186.2,90 186.2,90.2 186.2,92.4 186.4,92.7 186.4,93.6 186.3,94.1 186.2,94.2 185.8,94.4 185.5,94.7 185.3,94.9 185.2,95.1 
		185,95.1 184.4,95.2 183.6,96.1 183.4,96.4 182.6,97.7 182.4,98 182.4,98.5 182.4,98.8 182.5,99.1 182.6,99.4 182.7,99.8 
		182.7,100 182.7,100.4 182.6,100.6 182.5,100.8 182.4,101 182.3,101.2 182.2,101.5 181.2,102 180.4,102.3 180.2,102.6 180.1,103.6 
		180.5,104.8 180.6,104.9 180.8,105 181.1,105.1 181.4,105.3 181.5,105.5 181.3,105.6 181.1,105.8 181.2,106 182.6,107.6 
		182.8,107.8 183.1,107.8 183.3,108.1 183.3,108.6 183,108.9 183.1,109.7 183.3,109.9 183,110 183,110.2 183,110.4 183.1,110.8 
		183.2,111.2 183.3,111.5 183.3,111.8 183.3,112.6 183.3,113.4 183.2,113.6 183.2,113.9 183.1,114.2 183.2,115 183.2,115.3 
		183.4,115.6 183.5,115.6 183.7,115.9 183.8,116 184.1,116.3 184.2,116.4 184.4,117.2 184.5,117.4 184.5,117.6 184.5,118 
		184.6,118.5 184.6,119.1 184.7,119.7 184.8,119.8 184.8,120.2 184.8,120.6 184.7,120.8 184.6,121.1 184.5,121.3 184.3,121.9 
		184.2,122.1 184.1,122.4 184,122.7 184,123.2 184,123.4 184.1,123.8 184.1,124 184.2,124.4 184.2,124.4 184.3,124.8 184.6,125.2 
		184.6,125.4 184.7,125.6 184.9,125.9 185.1,126.4 185.2,126.8 185.4,127.6 185.5,128 185.6,128.1 185.7,128.3 185.8,128.5 
		185.9,128.8 186.1,129.2 186.3,130.1 186.4,130.4 186.4,130.7 186.2,131.2 186.1,131.3 185.8,131.5 185.6,131.8 185.4,132.1 
		185.3,132.3 185.3,132.6 185.2,132.8 185.3,133.2 185.6,134.9 185.7,135.2 185.8,135.6 186.2,136.1 186.9,137.6 187,137.9 
		187.2,138.1 187.3,138.3 188.4,139.1 188.6,139.2 188.9,139.3 189.2,139.4 189.3,139.5 189.7,139.6 189.9,139.9 190.5,140.5 
		190.8,140.7 190.9,140.8 191.2,141.3 191.3,141.6 191.9,142.4 192.1,142.8 192.2,143 192.4,143.6 192.7,144.2 192.8,144.6 
		192.8,144.8 192.8,145 192.8,145.2 192.9,145.6 193,145.9 193,146 193.2,146.4 193.5,146.9 193.6,147 194,147.7 194.4,148.2 
		194.6,148.6 194.8,148.8 195,149.3 195.1,149.6 195.5,150.8 195.6,151.2 195.5,151.2 195.3,151.2 193.9,151.4 193.4,151.5 
		192.8,151.6 191.3,151.8 189.9,152 188.5,152.2 185.8,152.6 185.7,152.6 185.6,152.7 184.2,152.8 182.8,153.1 182.6,153.1 
		180.8,153.3 180.2,153.4 180,153.5 180.2,153.9 180.5,154.4 180.5,154.8 180.5,155 180.4,155.2 180.2,155.6 179.7,156.4 
		179.5,156.6 179.2,157 178.6,157.7 178.3,158 177.7,158.6 177.5,158.7 176.8,159.2 176.4,159.4 176.2,159.5 175.9,159.6 
		175.8,159.6 175.6,159.9 175.5,160.1 175.7,160.3 176,160.4 176.5,160.6 176.7,160.8 176.9,161.7 178,164 178.2,164.4 177.9,164.9 
		177.6,165.6 177.6,165.7 177.5,166 177.5,167.4 177.3,168.2 177.6,170.5 177.9,170.8 178.1,171.6 177.8,172.1 177.5,172.1 
		177,172.8 176.9,173.1 176.8,173.3 176.7,174.1 176.3,175.9 176.2,176.4 176.1,176.5 175.6,177.6 175.3,178.1 175.2,178.4 
		175.2,178.8 175.2,179.2 175.4,179.3 175.5,179.5 175.5,179.6 175.7,180 175.8,180.5 175.9,181 176.3,181.7 177.4,182.5 
		177.8,182.7 177.9,182.8 179,183.6 179.7,184.4 179.8,184.5 180.4,185.4 180.6,185.9 180.6,186 180.8,186.1 181.2,186.1 181.6,186 
		181.8,186 182.5,186 183.6,186.5 184.2,186.8 184.3,186.8 184.6,186.6 184.7,186.4 184.6,186.2 184.4,186.2 184,185.7 184.2,185 
		185,184.5 186.7,184.2 187,184.3 187,184.8 186.9,186.9 186.9,187.5 186.9,189.5 186.8,192.8 186.8,194.8 186.7,195.1 186.2,195.1 
		185.5,194.9 185.4,194.8 185.3,194.4 185.5,193.9 185.8,193.8 185.8,193.5 185.1,193.2 184.9,193.2 184.7,193.2 184.5,193.4 
		184.2,193.7 184,193.8 182.7,194.4 181.8,194.8 181,194.4 180.7,194.4 180.5,194.5 180.3,194.5 179.9,194.2 179.8,194 179.8,193.5 
		179.8,193.3 179.6,192.5 178.8,191.4 178.2,190.4 177.6,189.9 177.3,189.9 177.1,190 177,190.3 176.7,190.3 176.2,189.2 
		176.2,188.9 176.3,188.8 176.4,188.6 176.4,188.4 175.8,187.2 175,186.5 174.7,186.4 174,186.4 173.5,186.4 172.5,185.9 
		171.9,185.4 171.6,185.2 171.5,185.1 171.2,185 171,184.9 170.8,185 170.7,185.2 170.5,185.2 169.5,185.3 169.3,185.2 169.2,185 
		169.1,184.8 168.8,184.8 168.8,184.7 168.6,184.5 168.3,184.3 168.3,184.2 168.3,184.1 168,183.2 168,182.9 168,182.8 167.9,182.5 
		167.7,182.3 167.4,182 167.1,181.8 166.8,181.7 166.1,181.2 166,181.1 165.9,180.9 165.9,180.6 165.9,180.4 165.9,180.1 
		165.8,179.5 165.7,179.2 164.3,179.4 164,180.8 163.9,181.4 163.8,181.7 163.7,181.9 163.6,182 163.2,182.4 162.9,182.5 
		161.9,182.6 161.3,182.6 160.6,182.5 159.7,182.1 159.5,182 159.3,182 157.3,181.9 156.3,181.9 156.1,181.9 155.7,181.9 
		155.6,181.8 154.5,181.1 153.2,180.8 151.6,180.3 150.5,179.7 150.2,179 150.1,178.7 149.9,177.4 150.2,177.1 150.4,176.7 
		150.4,176 150.2,176 149.8,176 149.6,176.2 149,176.4 148.6,176.5 148.1,176.5 147.8,176.5 147.4,176.5 145.4,177 145,177.2 
		144.3,177.7 144.1,178 143.6,178.2 143,178.2 142.3,177.7 142.3,177.2 142.7,176.7 142.7,176.1 142.6,175.2 142.3,175.1 
		141.8,174.8 140.8,174.5 140.4,174.1 140.3,173.6 140,173.4 139.8,173.3 139.2,173.2 139.1,173.2 138.9,173.7 138.4,174.4 
		138.1,174.5 136.5,174.4 136,174.2 135.9,174.1 135.5,174 135.3,174 135.1,174 134.9,174 134.7,174 134.5,174 134.3,174 134,174.2 
		133.4,174.5 133,174.8 132.8,174.9 131.7,175.1 131.2,175.1 130.5,175.1 130.2,174.8 129.8,174.7 129.6,174.8 129.4,174.9 
		129.2,175.1 128.7,175.1 128.2,175 128.1,174.9 127.9,174.8 127.7,174.7 127.4,174.6 127,174.7 126.9,174.8 126.9,175.1 
		126.7,175.4 125.2,176.3 124.9,176 124.9,175.8 124.8,174.8 124.5,174.4 124.4,174 124.1,173.2 124.3,172.8 124.5,172.7 
		124.9,172.5 125.3,172 125.3,171.6 125.3,171.1 125.3,170.8 125,170.3 125.3,169.5 125.3,169.1 124.9,168.3 124.6,167.6 
		124.5,167.2 124.4,166.7 124.1,165.6 124.1,165.3 123.8,165.2 123.3,165 122.9,164.7 121.7,163.2 121.5,163 121.5,162.8 
		120.9,161.1 121.1,160.5 121.3,160.1 121.3,158.9 121.3,158.2 121.5,157.1 121.7,156 121.7,155.4 122.1,154.1 122.1,153.8 
		122.2,153.4 122.1,152.8 122,152.5 121.9,152.1 121.9,152 121.7,151.6 121.5,150.9 121.3,150.4 121,149.7 120.8,149.5 120.6,149.3 
		120.6,148.8 120.7,147.9 120.8,147.4 121.2,146.4 121.2,146.3 121.3,146.2 121.4,145.9 121.5,144.9 121.3,144 121.1,143.6 
		120.8,143.2 119.4,143.2 116.1,143.3 110.6,143.3 110.4,143 110.4,142.4 110.6,141.9 110.9,141.2 111.1,140.7 111.2,140.2 
		108.7,140.2 108.7,140.5 108.7,140.7 108.6,140.9 105.7,140.9 102.1,140.9 101.9,142.3 101.8,142.4 101.8,143.4 101.8,143.6 
		101.9,144 102.1,144.6 102.1,145 101.6,145.7 101,145.8 100.8,145.8 100.8,146 100.8,146.1 101.1,146.8 100.9,147.3 100.8,147.6 
		100.7,147.8 100.6,148.4 100.7,148.6 100.7,148.8 100.8,149.2 97.7,149.3 96,149.3 95.8,149.2 95.8,148.8 93.8,148.8 93.7,149 
		93.8,149.2 92.8,149.5 92.1,149.3 91,149.3 90.4,149.6 90.3,150 90.4,150.3 89.7,150.3 89.4,150.3 89.2,150.1 89,149.9 88.8,149.8 
		88.5,149.7 87.4,150 86.6,150.2 86.4,150.2 85.8,150.1 85.7,150.1 85.4,149.9 85.3,149.5 84.7,148.4 84.6,148.2 84.3,148.1 
		83.7,147.4 83.4,146.8 82.6,145.4 82.3,144.8 81.9,144.6 81.8,144.3 81.6,144 81,143.6 80.6,142.8 80.5,142 80.7,141.6 80.7,141.2 
		80.4,140.2 80.2,140 79.9,139.9 79.6,139.4 79.1,138.4 78.5,136.7 78.3,136.1 78.4,135.7 78.7,134.4 78.6,134.1 78.3,133.9 
		77.6,133 77.6,132.6 77.5,132.1 77.4,131.9 76.8,131.7 75.6,131.6 75.2,131.6 74.3,131.6 73.8,131.6 73.4,131.6 72,131.6 71,131.7 
		70,131.6 64.8,131.7 63,131.8 62.2,131.9 61.8,131.9 60.9,132.1 58.8,132 57.9,132 56.6,131.8 55.9,131.6 55.7,131.6 55.3,131.6 
		53.9,131.8 52.1,131.9 51.8,131.7 51.4,131.7 51,131.8 49.6,131.9 49,131.8 48.5,132 47.5,131.7 47.4,131.6 46.7,131.5 45.5,131.9 
		45.3,132.3 45.2,132.7 44.7,132.9 43.6,133.2 42.9,133.2 41.5,132 41.2,131.6 41.1,131.2 41.1,131.1 41.5,130.9 42.3,130.8 
		43.3,130.8 43.6,130.8 43.6,127 43.6,125.6 43.9,124.8 44.2,124.7 45.1,123.9 45.1,123.6 45.9,122.4 46.3,122.3 47.8,121.9 
		48.1,121.9 48.2,121.6 48.2,121.6 48.2,121.5 48.3,121.1 48.4,121.1 48.7,121.2 48.9,121.6 49,121.7 49,122 50.9,123.6 51.8,122.8 
		51.7,122.7 52,122.5 52.2,122.8 52.5,122.8 53.3,122.3 53.6,120.9 53.6,120.7 53.6,120.4 53.5,120.2 53.5,120 53.9,119.7 
		54.2,119.7 54.5,119.9 55,120.3 55.4,120.4 55.8,120 58.2,118.8 58.9,118.5 59.1,118.5 59.8,119.7 59.7,120 59.5,120.2 59.3,120.4 
		59,120.5 58.9,120.8 58.9,121.4 59.3,122.5 59.3,123.1 59.3,123.5 59.3,123.6 59.9,123.2 60.5,123.3 60.7,123.6 61.1,123.7 
		61.4,123.7 61.7,123.6 62.7,123 63.1,122.3 63.3,122 63.4,121.7 63.5,121.6 64.2,120.8 64.7,120.4 64.8,120.3 65.2,119.9 
		65.3,119.6 65.7,119.1 65.9,118.9 66.4,118.7 66.4,118.6 66.8,118.4 67,118.4 67.3,118.5 67.6,118.5 67.9,118.4 68,118.2 
		68.1,117.9 68.1,117.6 68.1,117.3 68.1,117.2 68.4,116.8 68.4,116.8 68.5,116.5 68.8,116.4 68.9,116.4 69.9,116 70.5,116 
		71.1,115.8 71.2,115.7 71.4,115.6 71.5,115.6 71.8,115.1 72.3,114.1 72.9,112.8 73.1,112.6 73.3,112.4 73.5,112 73.9,111.2 
		74.2,110.6 74.3,110.4 74.3,110.2 74.2,110 74,109.9 73.9,108.8 73.9,108.4 74,107.6 73.9,107.2 73.9,107.1 73.9,106.9 73.9,106.7 
		74,105.6 74.1,105.3 74.1,105.2 74.1,103.7 73.9,102.6 73.9,102.3 73.9,101.9 73.9,101.3 73.9,101.1 73.9,100.8 74,100.6 
		74.3,100.2 74.6,100 75.1,99.7 75.4,99.5 75.7,99.2 76.2,98.8 76.6,98.3 76.7,98.1 76.7,98 76.9,97.9 77.4,96.9 77.5,96.6 
		77.8,96.3 77.9,95.9 78,95.7 78.3,95 78.3,94.8 78.5,94.5 78.6,94.4 79,93.6 79.5,93 79.6,92.8 80.3,92.4 80.4,92.2 81.7,91.5 
		82,91.3 82.5,91.2 82.7,91.2 83,91.2 83.2,91.1 83.4,90.9 84,90.4 85.3,89 85.4,88.9 85.8,88.3 86.4,87.6 86.5,87.3 86.6,87.1 
		86.7,86.8 86.8,86.3 86.9,86 86.9,85.6 86.9,85.3 86.8,85.2 86.6,84.7 86.6,84.4 86.6,84.2 86.6,84 86.6,83.6 86.7,83.5 86.9,83 
		87.1,82.4 87.4,81.5 87.4,81.3 87.7,80.7 88,80.4 88.3,80 88.5,79.8 88.6,79.6 88.6,79.4 88.7,79.2 88.8,78.7 88.7,78.5 88.4,77.8 
		88.1,77.5 88.1,76.8 88.2,76.3 88.2,75.8 88.2,75.6 88.1,75.2 88.1,75 88.1,74.7 88,74.4 88,74.2 88,73.9 88.1,73.6 88.1,73.5 
		88.4,73.2 88.6,72.9 88.6,72.7 88.9,72 89.6,69.7 89.7,69.4 89.7,68.5 89.7,68 89.7,67.8 89.6,66.8 89.7,65.5 89.7,65.2 89.8,63.9 
		90,63.4 90.1,63.2 90.4,63 90.8,62.5 90.9,62.3 90.9,62 90.9,61.6 91,61.4 91.3,61.2 91.6,61 91.7,60.9 91.9,60.6 92.2,59.9 
		92.5,59.2 93,58.1 93.6,56.8 93.7,56.7 93.9,56.5 94.1,56.4 94.2,56.2 94.5,55.6 94.5,54.8 94.4,53.6 94.3,53.4 94.2,52.8 
		94.1,51.8 94.1,51.6 94,51.3 94.1,51 94.2,50.1 94.5,49.3 94.5,49.1 94.5,48.8 94.5,48.6 94.4,47.9 94.1,47.2 93.8,46.8 93.7,46.6 
		93.6,46.4 93.7,46.2 93.8,46 94.1,46 94.4,46 95,46 95.3,45.9 95.4,45.8 95.6,45.6 95.7,45.2 95.8,45 96,44.5 96.1,44.2 97.1,43.1 
		97.4,42.8 97.7,42.2 98,41.6 98.2,41.4 98.4,41.2 99,41.2 99.2,40.9 99.4,40.7 101,39.6 102.1,39.4 102.9,39.5 103.3,39.6 
		103.9,39.7 104.3,39.9 104.5,40 104.7,40.2 104.8,40.6 105.1,40.7 105.2,40.8 105.5,40.8 105.7,40.8 105.9,40.8 107.4,41.7 
		108.7,42.6 109.7,43.9 109.6,44.7 109.9,44.8 110.7,45.6 110.9,45.6 111.9,45.5 112.9,45.2 113.2,45.3 114,45.4 114.5,45.6 
		114.9,45.8 115.1,46.1 115.6,46.4 116,46.6 118.6,46.9 118.8,46.9 119,46.8 119.3,46.8 119.5,46.6 119.8,46.5 120.4,46.5 
		121.2,46.8 122.5,46.9 122.9,47.2 123.4,47.2 123.6,47.3 123.9,47.6 124.2,47.7 124.4,47.8 124.7,47.9 125,48 125.5,48 125.8,48 
		126.1,47.9 126.4,47.8 126.8,47.5 127.1,47.2 127.4,46.2 127.6,45.6 127.6,45.2 127.7,45.1 127.9,44.9 128.1,45 128.4,45 
		128.7,44.2 128.9,43.6 129.2,43.1 129.7,43 130.1,42.2 130.8,42 131,42.4 131.2,42.8 131.8,43.1 132.8,43.3 133.7,44 134.2,44.1 
		134.6,44 134.6,43.7 134.7,43.6 135.9,42.9 137.9,42.2 138.4,42.1 139.9,41.5 141,41.2 141.4,41 142.5,40.6 142.7,40.4 142.4,40.2 
		142.7,39.7 143.2,39.8 143.4,39.9 143.8,40 144.5,40.5 144.8,40.9 145.5,41.4 145.9,41.4 146.2,41.2 147.4,40.8 147.5,40.8 
		147.8,40.8 148.5,40.9 149.3,40.7 149.7,40.6 150.2,40.4 150.4,40.4 150.6,39.7 150.7,39.5 150.6,39.4 150.4,39.2 150.4,39 
		150.6,38.4 150.8,38 152.3,37.5 152.6,37.6 153.1,38.1 153.8,38.3 154.6,38.7 	"/>
</g>
</svg>
