<?xml version="1.0" encoding="utf-8"?>
<!-- Generator: Adobe Illustrator 23.0.0, SVG Export Plug-In . SVG Version: 6.00 Build 0)  -->
<svg version="1.1" id="Layer_1" xmlns="http://www.w3.org/2000/svg" xmlns:xlink="http://www.w3.org/1999/xlink" x="0px" y="0px"
	 viewBox="0 0 220.2 220.3" style="enable-background:new 0 0 220.2 220.3;" xml:space="preserve">
<style type="text/css">
	.st0{fill:none;stroke:#85c1fd;stroke-width:0.2;stroke-linecap:round;stroke-linejoin:round;}
	.st1{fill:#85c1fd;stroke:#85c1fd;stroke-width:0.5;}
</style>
<title>ssd</title>
<g>
	<polyline class="st0" points="26.2,181.4 27.4,180.2 28.6,179 28.6,177.8 31,175.5 31,174.3 31,174.3 	"/>
	<polyline class="st0" points="26.2,181.4 25,181.4 23.8,181.4 23.8,180.2 21.4,180.2 20.2,180.2 17.8,181.4 16.7,181.4 14.2,181.4 
		13.1,181.4 11.9,181.4 10.7,181.4 9.5,181.4 8.3,180.2 9.5,180.2 9.5,179 9.5,177.8 9.5,176.6 9.5,175.5 8.3,173.1 9.5,170.7 
		9.5,169.5 10.7,169.5 11.9,168.3 13.1,167.1 13.1,165.9 14.2,163.5 15.5,163.5 16.7,161.1 17.8,161.1 17.8,159.9 17.8,158.7 
		19,158.7 	"/>
	<polyline class="st0" points="19,158.7 19,157.5 20.2,157.5 21.4,158.7 22.6,158.7 22.6,159.9 23.8,159.9 25,158.7 25,157.5 
		27.4,156.3 29.8,155.1 	"/>
	<polyline class="st0" points="3.5,140.7 5.9,143.1 11.9,147.9 13.1,152.7 16.7,153.9 16.7,156.3 19,158.7 	"/>
	<polyline class="st0" points="26.2,97.6 28.6,96.4 29.8,95.2 29.8,94 31,94 31,92.8 32.2,92.8 32.2,91.6 32.2,90.4 31,89.2 
		32.2,85.6 32.2,82 33.4,80.8 34.6,80.8 35.8,79.6 37,79.6 39.4,80.8 40.6,82 44.2,83.2 45.4,82 47.8,82 50.2,80.8 51.4,80.8 
		52.6,82 55,80.8 63.4,80.8 65.8,83.2 76.6,84.4 80.2,84.4 86.1,84.4 89.7,89.2 92.1,89.2 95.7,86.8 96.9,86.8 98.1,80.8 
		101.7,77.2 107.7,70 120.9,62.8 146,60.4 153.2,59.2 164,56.8 	"/>
	<polyline class="st0" points="164,56.8 176,82 176,83.2 177.2,83.2 182,92.8 	"/>
	<polyline class="st0" points="164,56.8 208.3,40.1 213.1,19.7 216.7,7.7 210.7,0.5 	"/>
	<polyline class="st0" points="63.4,219.8 61,218.6 58.6,218.6 52.6,216.2 43,212.6 38.2,209 37,207.8 35.8,207.8 33.4,206.6 
		33.4,205.4 33.4,204.2 32.2,203 31,203 31,201.8 31,200.6 31,199.4 29.8,198.2 28.6,198.2 27.4,197 27.4,195.8 27.4,194.6 
		26.2,194.6 25,194.6 25,193.4 25,192.2 23.8,191 23.8,189.8 23.8,188.6 22.6,188.6 22.6,187.4 23.8,185 25,183.8 25,182.6 
		26.2,182.6 26.2,181.4 	"/>
	<path id="yem_1_" class="st1" d="M177.2,83.2l4.8,9.6l-1.2,1.2h-1.2h-1.2l-2.4,1.2h-1.2l-1.2,1.2h-1.2v1.2h-1.2l-1.2,1.2l-1.2,2.4
		l-1.2,2.4v2.4l1.2,1.2v1.2l-1.2,1.2l-1.2,1.2h-1.2l-3.6,2.4h-1.2l-1.2,1.2H158l-3.6,2.4h-1.2h-2.4l-2.4,1.2H146l-2.4,1.2h-1.2
		l-1.2,1.2l-3.6,1.2l-2.4,1.2v-1.2h-1.2l-3.6,1.2l-2.4,1.2l-1.2,1.2l-3.6,1.2l-1.2,1.2h-1.2v1.2l-1.2,1.2l-2.4,2.4l-1.2,2.4h-1.2
		h-1.2h-2.4l-2.4,1.2h-1.2l-1.2-1.2h-1.2h-1.2h-1.2v1.2h-1.2v1.2h-1.2h-1.2v1.2h-1.2l-1.2,2.4h-1.2h-1.2h-1.2v1.2h-1.2h-2.4
		l-1.2,1.2h-1.2h-1.2v1.2h-1.2h-3.6H79h-2.4h-1.2H73h-1.2l-2.4,1.2h-1.2l-1.2,1.2l-1.2,1.2v1.2h-1.2v1.2h-1.2h-1.2H61v1.2h-1.2v1.2
		v2.4l-1.2-2.4l-2.4,1.2h1.2v1.2h-1.2l-1.2-1.2h-1.2h-1.2h-1.2l-1.2,1.2l-2.4,1.2h-1.2H43h-1.2l-1.2-1.2h-2.4l-1.2-1.2l-1.2,1.2
		h-1.2l1.2-1.2v-1.2l-1.2-2.4l-1.2-1.2l-1.2-1.2v-1.2v-1.2v-1.2v-2.4v-1.2v-1.2v-2.4l-1.2-1.2l-1.2-1.2v-1.2v-1.2v-2.4l-1.2-2.4
		v-1.2v-2.4l-1.2-1.2v-1.2h1.2l-1.2-1.2v-1.2v-2.4h-1.2l-1.2-1.2h-1.2v-1.2H25v1.2h1.2v-1.2v-1.2v-1.2l-1.2-1.2v-1.2v-1.2h-1.2
		l1.2-1.2V106h1.2v-1.2v-1.2v-1.2l1.2-1.2l-1.2-2.4v-1.2l2.4-1.2l1.2-1.2V94H31v-1.2h1.2v-1.2v-1.2L31,89.2l1.2-3.6V82l1.2-1.2h1.2
		l1.2-1.2H37l2.4,1.2l1.2,1.2l3.6,1.2l1.2-1.2h2.4l2.4-1.2h1.2l1.2,1.2l2.4-1.2h8.4l2.4,2.4l10.8,1.2h3.6h6l3.6,4.8h2.4l3.6-2.4h1.2
		l1.2-6l3.6-3.6l6-7.2l13.2-7.2l25.2-2.4l7.2-1.2l10.8-2.4L176,82v1.2H177.2z M192.8,156.3h1.2l2.4-1.2h1.2l1.2-1.2v1.2h1.2h1.2
		l2.4,1.2v1.2l-3.6,1.2v1.2h-1.2h-1.2l-3.6,1.2h-1.2l-1.2-1.2h-1.2l-3.6-2.4l1.2-1.2v-1.2l1.2-1.2l2.4,1.2h1.2V156.3z M170,162.3
		h1.2h1.2v1.2h-1.2H170h-1.2h-1.2v-1.2h1.2H170L170,162.3z M22.6,114.3v-1.2v-1.2h1.2v1.2L22.6,114.3L22.6,114.3z M25,135.9
		l-1.2-1.2l1.2-1.2v1.2V135.9z"/>
</g>
</svg>
