<?xml version="1.0" encoding="utf-8"?>
<!-- Generator: Adobe Illustrator 23.0.3, SVG Export Plug-In . SVG Version: 6.00 Build 0)  -->
<svg version="1.1" id="Layer_1" xmlns="http://www.w3.org/2000/svg" xmlns:xlink="http://www.w3.org/1999/xlink" x="0px" y="0px"
	 viewBox="0 0 100 100" style="enable-background:new 0 0 100 100;" xml:space="preserve">
<style type="text/css">
	.st0{fill:#2A93FC;}
</style>
<g>
	<path class="st0" d="M34.7,54.6c0-3.4,2.7-6.1,6.1-6.1H50V14.9c0-0.8-0.7-1.5-1.5-1.5H14.9c-0.8,0-1.5,0.7-1.5,1.5v44.3
		c0,0.8,0.7,1.5,1.5,1.5h19.8V54.6z M28.6,22.5h15.3c0.8,0,1.5,0.7,1.5,1.5s-0.7,1.5-1.5,1.5H28.6c-0.8,0-1.5-0.7-1.5-1.5
		S27.8,22.5,28.6,22.5z M22.5,56.1h-4.6V17.9h4.6V56.1z M27.1,33.2c0-0.8,0.7-1.5,1.5-1.5h15.3c0.8,0,1.5,0.7,1.5,1.5
		s-0.7,1.5-1.5,1.5H28.6C27.8,34.7,27.1,34,27.1,33.2z"/>
	<path class="st0" d="M40.8,51.5c-1.7,0-3.1,1.4-3.1,3.1v6.1v16.8h6.1V60.7v-3.1H50h27.5v19.8h6.1V54.6c0-1.7-1.4-3.1-3.1-3.1h0
		c0,0,0,0,0,0H50H40.8z"/>
	<path class="st0" d="M85.1,80.5H68.3c0,0.8-0.7,1.5-1.5,1.5H54.6c-0.8,0-1.5-0.7-1.5-1.5H36.3c-0.8,0-1.5,0.7-1.5,1.5v3.1
		c0,0.8,0.7,1.5,1.5,1.5h48.9c0.8,0,1.5-0.7,1.5-1.5v-3.1C86.6,81.2,86,80.5,85.1,80.5z"/>
</g>
</svg>
