<?xml version="1.0" encoding="utf-8"?>
<!-- Generator: Adobe Illustrator 23.0.3, SVG Export Plug-In . SVG Version: 6.00 Build 0)  -->
<svg version="1.1" id="Layer_1" xmlns="http://www.w3.org/2000/svg" xmlns:xlink="http://www.w3.org/1999/xlink" x="0px" y="0px"
	 viewBox="0 0 32 21.3" style="enable-background:new 0 0 32 21.3;" xml:space="preserve">
<style type="text/css">
	.st0{fill:#787877;}
	.st1{fill:#016BA7;}
	.st2{fill:#4DAE48;}
</style>
<path class="st0" d="M13.9,8.8l0.2,0.7h1.1l-1.5-3.8h-1.1l-1.5,3.8h1.1l0.3-0.7H13.9L13.9,8.8z M13.6,8.1h-0.8l0.4-1.2l0,0
	C13.2,6.8,13.6,8.1,13.6,8.1z M18.2,5.8c-0.3-0.1-0.6-0.2-0.9-0.2c-0.5,0-1.1,0.2-1.5,0.6c-0.4,0.4-0.6,0.9-0.6,1.4s0.2,1.1,0.6,1.4
	c0.4,0.4,0.9,0.6,1.4,0.6c0.3,0,0.6-0.1,0.9-0.2V8.2c-0.2,0.3-0.5,0.4-0.9,0.4c-0.5,0-1-0.4-1-0.9V7.6c0-0.6,0.4-1,1-1.1
	c0,0,0,0,0.1,0c0.3,0,0.7,0.2,0.9,0.4V5.8L18.2,5.8z M20.3,6.5h0.8V5.7h-2.6v0.8h0.8v3h1L20.3,6.5L20.3,6.5z M22.5,5.7h-1v3.8h1V5.7
	z M25.1,5.5c-1.1,0-2.1,0.8-2.1,2s1,2.1,2.2,2c1.1,0,2-0.9,2-2C27.2,6.3,26.2,5.5,25.1,5.5L25.1,5.5L25.1,5.5z M25.1,6.5
	c0.6,0,1,0.4,1.1,1c0,0.6-0.4,1.1-1,1.1s-1.1-0.4-1.1-1V7.5C24,6.9,24.5,6.5,25.1,6.5L25.1,6.5z M27.7,9.5h1V7.2l0,0l1.8,2.3h1V5.7
	h-1V8l0,0l-1.9-2.3h-1L27.7,9.5L27.7,9.5z"/>
<path class="st0" d="M14.2,10.6c-0.3-0.1-0.6-0.2-0.9-0.2c-0.5,0-1,0.2-1.4,0.6c-0.3,0.4-0.5,0.9-0.5,1.4s0.2,1,0.6,1.4
	c0.4,0.3,0.9,0.5,1.4,0.5c0.3,0,0.6-0.1,0.9-0.2v-1.2c-0.2,0.2-0.5,0.4-0.8,0.4c-0.5,0-1-0.4-1-0.9v-0.1c0-0.5,0.4-1,0.9-1
	c0,0,0,0,0.1,0c0.3,0,0.6,0.1,0.8,0.4L14.2,10.6L14.2,10.6z M16.6,10.4c-1.1,0-2,0.8-2,1.9s0.9,2,2.1,2c1.1,0,2-0.9,2-2
	S17.7,10.4,16.6,10.4L16.6,10.4z M16.6,11.3c0.6,0,1,0.4,1,1s-0.4,1.1-1,1.1s-1.1-0.4-1.1-1v-0.1C15.6,11.8,16.1,11.3,16.6,11.3
	L16.6,11.3z M19.1,14.2h1v-2.3l0,0l1.8,2.3h1v-3.7h-1v2.3l0,0l-1.8-2.3h-1V14.2z M24.9,11.3h0.8v-0.8h-2.6v0.8H24v2.9h1v-2.9H24.9z
	 M28,12.7c0.5-0.1,0.8-0.5,0.8-1c0-0.8-0.6-1.1-1.3-1.1h-1.4v3.7h1v-1.4l0,0l0.9,1.4h1.2L28,12.7L28,12.7z M27,11.3L27,11.3
	c0.4,0,0.8,0.1,0.8,0.5s-0.4,0.5-0.7,0.5H27C27,12.2,27,11.3,27,11.3z M31.5,11.3v-0.8h-2.1v3.7h2.1v-0.8h-1.1v-0.6h1.1V12h-1.1
	v-0.6C30.4,11.3,31.5,11.3,31.5,11.3z"/>
<path class="st0" d="M12.7,14.8h-1v3.7h2.1v-0.8h-1.2L12.7,14.8L12.7,14.8z M16.5,17.9l0.2,0.6h1l-1.4-3.7h-1.1l-1.4,3.7h1l0.3-0.6
	H16.5L16.5,17.9z M16.2,17.2h-0.8l0.4-1.2l0,0L16.2,17.2L16.2,17.2z M21.9,15.7v-0.8h-2.1v3.7h1v-1.5h1.1v-0.8h-1.1v-0.6H21.9
	L21.9,15.7z M24.4,17.9l0.2,0.6h1l-1.4-3.7h-1.1l-1.4,3.7h1l0.3-0.6H24.4L24.4,17.9z M24.2,17.2h-0.8l0.4-1.2l0,0L24.2,17.2
	L24.2,17.2z M26.9,14.8h-1v3.7h1V14.8z M27.4,18.6h1l0.3-2.1l0,0l0.9,2.1H30l0.9-2.1l0,0l0.3,2.1h1l-0.6-3.7h-1l-0.8,2l-0.8-2h-1
	L27.4,18.6L27.4,18.6z"/>
<path class="st1" d="M5,11.8c-2.4,0-4.4,1.9-4.4,4.4s1.9,4.4,4.4,4.4s4.4-1.9,4.4-4.4S7.4,11.8,5,11.8z M5,18.6L5,18.6L5,18.6
	L5,18.6c-1.3,0-2.4-1-2.3-2.4c0.1-1.8,1.7-2,2.2-2.8L5,13.3c0,0,0.1,0,0.1,0.1l0,0c0.5,0.8,2.1,1.1,2.2,2.8
	C7.4,17.5,6.3,18.6,5,18.6L5,18.6z"/>
<path class="st2" d="M10,4.1L10,4.1L10,4.1C8.9,4.2,7.8,4.6,7,5.3C7,5.2,7,5.1,7,5c0-1.6-0.7-3.1-2-4.1l0,0l0,0C3.7,1.9,3,3.4,3,5
	c0,0.1,0,0.2,0,0.3C2.2,4.6,1.1,4.2,0.1,4H0v0.1c0,0.1,0,0.1,0,0.2c0,1.8,0.9,3.3,2.3,4.3c0.3,0.2,0.7,0.5,1,0.7
	c0.7,0.4,1.3,0.8,1.5,1.2c0,0.1,0.1,0.1,0.2,0.1s0.1,0,0.2-0.1c0.3-0.4,0.9-0.9,1.5-1.3C7,9,7.4,8.7,7.7,8.5c1.4-1,2.3-2.6,2.3-4.3
	V4.1L10,4.1z"/>
</svg>
