<?xml version="1.0" encoding="utf-8"?>
<!-- Generator: Adobe Illustrator 23.0.3, SVG Export Plug-In . SVG Version: 6.00 Build 0)  -->
<svg version="1.1" id="Layer_1" xmlns="http://www.w3.org/2000/svg" xmlns:xlink="http://www.w3.org/1999/xlink" x="0px" y="0px"
	 viewBox="0 0 45.2 42" style="enable-background:new 0 0 45.2 42;" xml:space="preserve">
<style type="text/css">
	.st0{fill:#407CCA;}
</style>
<g>
	<path class="st0" d="M17.4,14.1c0,0.1,0,0.2,0,0.2c0,0.1,0.1,0.2,0.1,0.1c0-0.1,0.1-0.2,0.1-0.3c0-0.1,0-0.2-0.1-0.3
		c0,0-0.1,0-0.1,0c0,0,0,0.1,0,0.1C17.3,14,17.4,14.1,17.4,14.1 M17.3,14.7c0,0.1,0.1,0,0.2,0c0,0,0-0.1,0-0.1c0,0-0.1,0-0.1,0
		c0,0,0,0-0.1,0C17.3,14.5,17.3,14.6,17.3,14.7C17.3,14.6,17.3,14.6,17.3,14.7 M17.6,15.2C17.6,15.2,17.6,15.2,17.6,15.2
		c0.1-0.2,0-0.3-0.1-0.3c0-0.1-0.1-0.2-0.2-0.1c-0.1,0.1,0,0.2,0.1,0.4c0,0,0,0.1,0,0.1C17.5,15.3,17.5,15.3,17.6,15.2 M17.2,14.3
		C17.2,14.3,17.2,14.3,17.2,14.3c-0.1,0-0.1,0-0.1,0.1c0,0.1,0,0.1,0.1,0.2c0,0,0.1,0,0.1,0C17.3,14.4,17.3,14.3,17.2,14.3
		 M17.6,14.8C17.6,14.7,17.6,14.7,17.6,14.8c0.1-0.1,0.1-0.1,0.1-0.1c0,0,0,0,0-0.1C17.6,14.6,17.6,14.6,17.6,14.8
		C17.5,14.7,17.6,14.8,17.6,14.8 M17.6,15.6c0,0,0-0.1,0-0.1c0,0,0,0,0,0C17.5,15.4,17.5,15.5,17.6,15.6
		C17.5,15.5,17.5,15.6,17.6,15.6C17.6,15.6,17.6,15.6,17.6,15.6 M17.6,15.9c0,0.1,0,0.1,0.1,0.1C17.7,16,17.8,16,17.6,15.9
		C17.7,15.9,17.6,15.9,17.6,15.9 M12.6,18.1c0,0,0,0.1,0,0.1c0,0,0.1,0,0.1,0C12.7,18.1,12.7,18,12.6,18.1 M13.1,18.6
		c0,0.1,0.1,0.2,0.2,0.2c0,0,0-0.1,0-0.1C13.3,18.6,13.2,18.5,13.1,18.6 M13.4,18.9c0,0.1,0,0.2,0.2,0.3
		C13.6,19,13.5,18.9,13.4,18.9 M22.9,14.2c0,0,0-0.1-0.1-0.1c0,0,0.1-0.1,0.1-0.1c0,0-0.1,0-0.1,0.1c0,0,0,0.1,0,0.2
		C22.8,14.2,22.9,14.2,22.9,14.2 M21.8,15c-0.1,0,0.1,0.1,0,0.2c0.1,0.1,0.4,0.1,0.4,0C22.2,15,22,14.9,21.8,15 M23.7,14.1
		c0,0,0-0.1,0-0.1c0,0-0.1,0-0.1,0c-0.1,0-0.1-0.1-0.1-0.1c0-0.1-0.1-0.1,0-0.2c-0.1,0-0.1,0.1-0.1,0.2
		C23.4,13.9,23.5,14.1,23.7,14.1 M21.7,13.1C21.7,13.1,21.6,13.1,21.7,13.1C21.7,13.2,21.8,13.1,21.7,13.1
		C21.8,13.1,21.8,13.1,21.7,13.1 M12.3,16.1C12.3,16.1,12.3,16.1,12.3,16.1c-0.1-0.1-0.1-0.1-0.2-0.1c0,0,0,0.1,0,0.1
		C12.2,16.2,12.2,16.2,12.3,16.1 M12.8,16.1c0.1,0,0.1,0,0.1-0.1c0,0,0,0,0,0c-0.1,0-0.2,0-0.2,0.1C12.7,16.1,12.8,16.2,12.8,16.1
		 M22,10.5c0-0.1,0.1-0.1,0.1-0.1c0,0-0.1,0-0.1,0C21.9,10.4,21.9,10.4,22,10.5C21.9,10.5,21.9,10.5,22,10.5
		C21.9,10.5,22,10.5,22,10.5 M22.2,10.4C22.3,10.4,22.3,10.4,22.2,10.4c0-0.1-0.1-0.1-0.1-0.1C22.1,10.4,22.2,10.5,22.2,10.4
		 M21.6,12.5c-0.1,0-0.2,0-0.2,0c0,0.1,0.1,0.2,0.2,0.2C21.7,12.7,21.6,12.5,21.6,12.5 M21.5,13.1c0,0-0.1,0-0.1,0c0,0,0,0,0,0
		c0,0,0,0.1,0,0.1C21.5,13.1,21.5,13.2,21.5,13.1C21.6,13.1,21.6,13.1,21.5,13.1 M21.3,13.3c0,0,0,0.1,0,0.2c0,0,0.1,0,0.1,0
		c0-0.1,0.1-0.1,0-0.2C21.4,13.2,21.4,13.3,21.3,13.3 M21.3,13.1C21.2,13.1,21.2,13.1,21.3,13.1c-0.1,0.1-0.1,0.1-0.1,0.2
		c0,0,0.1,0,0.1,0C21.3,13.3,21.2,13.2,21.3,13.1C21.3,13.2,21.3,13.1,21.3,13.1C21.3,13.1,21.3,13.1,21.3,13.1 M22.2,17.6
		L22.2,17.6L22.2,17.6L22.2,17.6z M23.2,17.2c0,0,0.1-0.1,0-0.1c0,0-0.1,0-0.1,0C23.1,17.1,23.1,17.2,23.2,17.2
		C23.1,17.2,23.2,17.2,23.2,17.2 M23.2,17C23.3,17,23.2,16.9,23.2,17C23.2,16.9,23.1,16.9,23.2,17C23.1,16.9,23.1,17,23.2,17
		 M23.5,17.3c0.1,0,0.1,0,0.2-0.1c0,0,0,0,0,0c0,0-0.1,0-0.1,0c0,0,0,0-0.1,0C23.5,17.2,23.4,17.3,23.5,17.3 M24.5,17.2
		C24.5,17.2,24.5,17.1,24.5,17.2c-0.1-0.1-0.1,0-0.2,0c0,0,0,0.1,0,0.1c0,0,0,0,0,0C24.3,17.3,24.4,17.2,24.5,17.2 M25,16.8
		c0-0.1-0.1-0.1-0.1,0C24.9,16.8,24.9,16.8,25,16.8c-0.1,0-0.2,0-0.2,0C24.8,17,25,16.9,25,16.8 M29,14.4c0-0.1-0.1-0.2-0.2-0.2
		c-0.1,0-0.1,0.1-0.1,0.2c0,0.1,0.1,0.1,0.2,0.1C28.9,14.4,29,14.4,29,14.4 M27.5,16.8c0,0,0.1,0,0.1-0.1c0,0,0-0.1,0-0.1
		c0,0-0.1,0-0.1,0C27.4,16.7,27.4,16.8,27.5,16.8 M29,12.9c0,0,0.1-0.1,0-0.1C29,12.7,28.9,12.7,29,12.9
		C28.9,12.8,28.9,12.9,29,12.9 M24,10.4c0.1,0,0.2,0,0.2,0v0C24.3,10.3,24.1,10.3,24,10.4C24,10.3,24,10.3,24,10.4
		C24,10.4,24,10.3,24,10.4C23.9,10.4,24,10.4,24,10.4 M24.3,11C24.3,11.1,24.3,11,24.3,11c0.2-0.2,0.3-0.3,0.4-0.3c0,0,0,0,0,0
		c0,0,0,0,0,0c0-0.1-0.1-0.1-0.1-0.1c0,0.1-0.1,0.1-0.1,0.1c-0.1,0-0.2,0.1-0.2,0.2C24.2,10.9,24.2,11,24.3,11 M23.1,10.2
		C23.1,10.2,23.1,10.2,23.1,10.2C23.2,10.3,23.2,10.2,23.1,10.2C23.1,10.1,23.1,10.1,23.1,10.2 M20.4,8.2L20.4,8.2
		c-0.1,0-0.2,0-0.2,0.1c0,0,0,0,0,0c0.1,0,0.2,0,0.3,0c0,0,0.1-0.1,0-0.1C20.5,8.3,20.5,8.3,20.4,8.2 M27.4,9.8c0.1,0.1,0.1,0,0.2,0
		c0,0,0,0,0,0c0,0,0.1-0.1,0.1,0c0,0,0,0.1,0,0.1c-0.1,0-0.1,0.1-0.1,0.1c0,0-0.1,0-0.1,0c0,0,0,0,0,0h0c0,0,0,0.1,0,0.1
		c-0.1,0.1-0.3,0.2-0.2,0.3c0.1,0.1,0.2,0.1,0.4,0.1c0,0,0,0,0,0c0-0.1,0.1-0.1,0.1-0.2c0,0,0-0.1-0.1-0.1c0,0,0-0.1,0-0.1
		c0,0,0-0.1,0.1,0V9.9c0.1,0,0.1,0,0.1-0.1c0-0.1-0.1-0.2-0.1-0.3c0,0,0-0.1,0.1-0.1c0,0,0,0,0-0.1c0,0,0,0,0,0c0,0,0,0,0,0
		c-0.1,0-0.2,0-0.2,0c-0.1,0,0,0.2-0.1,0.2C27.5,9.7,27.4,9.7,27.4,9.8C27.3,9.7,27.3,9.8,27.4,9.8 M26.8,10.5c0,0-0.1,0-0.1,0
		C26.7,10.6,26.8,10.5,26.8,10.5C26.8,10.5,26.8,10.5,26.8,10.5 M27.9,10.3c-0.1,0.1,0.1,0.1,0.2,0c0,0,0,0,0,0v0c0,0,0,0,0,0
		C28,10.3,27.9,10.3,27.9,10.3 M28.1,10C28.1,10,28.1,10,28.1,10C28.1,9.9,28.1,9.9,28.1,10C28.1,9.9,28.1,9.9,28.1,10
		C28.1,9.9,28.1,10,28.1,10 M24.3,3c-0.2,0.2-0.5,0.2-0.7,0.2c-0.2,0-0.7,0-0.7,0.3c0.3,0,0.6,0,0.7,0.3c0,0,0.1,0,0.2,0
		c-0.1-0.2-0.2-0.3-0.2-0.5c0.2,0.1,0.5,0,0.7,0c0.2,0,0.4,0,0.6-0.1c0,0,0-0.1,0-0.1C24.6,3.1,24.4,2.9,24.3,3 M24.8,5.1
		C24.7,5,24.6,5,24.5,5c0.1,0.1,0.2,0.2,0.3,0.2C24.9,5.1,24.8,5.1,24.8,5.1 M24.4,5.4c0,0,0,0.1,0,0.1C24.4,5.5,24.5,5.3,24.4,5.4
		 M24,5C24,5,24,5.1,24,5c0,0.1,0.1,0.1,0.1,0.2c0,0,0,0,0,0c0,0,0,0,0,0C24.2,5,24.1,5,24,5 M24.9,6C24.9,6,25,5.9,24.9,6
		C24.9,5.9,24.9,5.9,24.9,6C24.8,6,24.9,6,24.9,6C24.9,6.1,24.9,6.1,24.9,6C24.9,6.1,25,6,24.9,6L24.9,6z M25.2,6.2
		C25.2,6.1,25.2,6.1,25.2,6.2C25.2,6,25.1,6.1,25.2,6.2C25.1,6.1,25.1,6.1,25.2,6.2C25.2,6.2,25.2,6.2,25.2,6.2 M25.1,6.2
		C25.1,6.2,25.1,6.2,25.1,6.2c0,0-0.1-0.1-0.1,0C24.9,6.2,25,6.2,25.1,6.2C25,6.3,25.1,6.3,25.1,6.2C25.1,6.2,25.1,6.2,25.1,6.2
		C25.1,6.2,25.1,6.2,25.1,6.2C25.1,6.2,25.1,6.2,25.1,6.2 M25.2,6.3L25.2,6.3C25.1,6.3,25.1,6.3,25.2,6.3c0,0.1,0.1,0.1,0.1,0.1
		c0,0,0.1-0.1,0-0.1C25.3,6.3,25.2,6.3,25.2,6.3 M25.5,6.5C25.5,6.5,25.5,6.4,25.5,6.5c0-0.1,0-0.2-0.1-0.1
		C25.4,6.4,25.4,6.4,25.5,6.5C25.4,6.5,25.5,6.5,25.5,6.5 M25.6,6.7C25.6,6.7,25.7,6.7,25.6,6.7C25.7,6.7,25.7,6.6,25.6,6.7
		c0.1-0.1,0.1-0.1,0.1-0.1c0,0,0-0.1,0-0.1c0,0-0.1,0-0.1,0c0,0,0,0,0,0c0,0-0.1,0-0.1,0C25.5,6.5,25.5,6.6,25.6,6.7
		C25.6,6.6,25.6,6.7,25.6,6.7 M25.1,2.8c0,0,0.1,0.1,0.1,0c0,0,0,0,0,0c0,0,0,0,0,0C25.2,2.8,25.1,2.8,25.1,2.8 M27.9,4.8
		c0,0,0.1,0,0.2,0c0,0,0.1,0.1,0.2,0.1c0,0,0.1,0,0.1-0.1c0-0.1,0-0.3-0.2-0.3c-0.1,0-0.2,0-0.4,0c-0.1,0-0.1,0.1,0,0.1
		C27.8,4.8,27.8,4.8,27.9,4.8 M28,8.6C28,8.6,28,8.6,28,8.6L28,8.6L28,8.6z M29.7,10.7c0-0.1-0.1-0.1-0.1-0.2c0-0.1,0-0.1,0-0.2
		c0-0.1-0.1-0.1-0.2-0.1c0,0-0.1,0-0.1,0c0,0,0,0.1,0,0.2c0.2,0.2,0.2,0.5,0.2,0.8c0,0.1,0.2,0,0.2-0.1c0-0.1,0-0.1,0-0.2
		C29.7,10.8,29.7,10.8,29.7,10.7 M29.3,10.1L29.3,10.1C29.4,10.1,29.4,10,29.3,10.1c0-0.1,0-0.2,0-0.2c0,0,0,0,0,0
		C29.2,9.9,29.3,10,29.3,10.1 M29.3,9.6C29.3,9.6,29.3,9.6,29.3,9.6c0-0.1,0-0.1-0.1-0.1c0,0.1-0.1,0.1-0.1,0.1
		c-0.1,0,0,0.1,0.1,0.1c0,0,0,0,0,0C29.3,9.8,29.3,9.7,29.3,9.6 M29.2,9.4c0,0,0-0.1-0.1-0.1c0,0,0-0.1,0-0.1c0,0,0,0,0,0
		c-0.1-0.1,0.1-0.1,0-0.2c0,0,0,0,0,0c0,0-0.1,0-0.1,0c0,0,0,0.1,0,0.1c0,0-0.1,0.1-0.1,0.1c0.1,0.1,0,0.2,0.1,0.2
		C29,9.5,29.1,9.5,29.2,9.4 M28.8,8.9C28.8,8.9,28.8,8.8,28.8,8.9c0-0.1,0-0.1,0-0.1c0,0-0.1,0-0.2-0.1c0,0,0,0-0.1,0c0,0,0,0,0,0
		c0,0-0.1,0.1,0,0.1c0,0,0.1,0.1,0.1,0.1c0,0.1,0.1,0,0.1,0c0,0,0.1,0.1,0.1,0C28.9,9,28.8,8.9,28.8,8.9 M23.1,12.3
		C23.1,12.4,23.1,12.4,23.1,12.3L23.1,12.3C23.2,12.4,23.2,12.4,23.1,12.3C23.2,12.4,23.2,12.3,23.1,12.3
		C23.1,12.3,23.1,12.3,23.1,12.3L23.1,12.3z M25.5,26.5c-1,0-2,0.2-2.9,0.5c-0.9-0.3-1.9-0.5-2.9-0.5c-3.1,0-6.4,1.8-7.7,0.8
		c0,0,1.3,1.2,4.1,1.2c2.7,0,3.7-1.4,5.6-1.4c0.1,0,0.3,0,0.4,0c-1.7,0.6-3.1,1.6-3.7,2.5l0.5,0.3c0.7-1.1,2.2-2.3,3.7-2.7
		c1.6,0.4,3,1.6,3.7,2.7l0.5-0.3c-0.6-0.9-2-1.9-3.7-2.5c0.1,0,0.3,0,0.4,0c1.9,0,2.9,1.4,5.6,1.4s4.1-1.2,4.1-1.2
		C31.9,28.3,28.6,26.5,25.5,26.5 M35.2,24.2c-0.4,0.4-2,0.8-2.7,0.9c-0.6,0.1-2.5,0.8-2.9,0.9c-0.4,0.1-0.2-0.1-0.2-0.1
		c1.4-0.2,2.8-4.6,2.8-4.6c-1.2,1-2.5,2.5-2.9,3.5c-0.5,1-1.4,1.5-1.4,1.5c1.3,0.4,2.9,0.5,2.9,0.5c3.2,0,5-3,5-3
		S35.6,23.8,35.2,24.2 M36.6,20.9c-2.4,1.6-3.4,2.9-3.7,3.1c-0.2,0.2-0.1-0.1-0.1-0.1c1.7-2.1,1.5-5.6,1.5-5.6
		c-1.5,2.2-2.1,4.2-2.1,5.1c-0.1,0.9-0.4,1.4-0.4,1.4c5.2-0.3,6.1-5.3,6.1-5.3C37.8,19.9,36.6,20.9,36.6,20.9 M37.8,17
		c-0.9,0.9-1.5,1.8-1.8,2.3c-0.2,0.5-0.5,0.6-0.5,0.6c0.3-0.6,0.4-1.9,0.4-2c0-0.2-0.2-1.6-0.4-2c-0.2-0.4-0.2-1.2-0.2-1.2
		c-0.6,0.9-0.6,2.2-0.6,3c0,0.7,0.2,2.3,0.2,2.8c0,0.5-0.1,1-0.1,1c0.1,0,0.8-0.9,0.8-0.9c0.6-0.7,1.1-0.4,2.3-2.1
		c1.2-1.7,1-3.3,1-3.3S38.7,16.1,37.8,17 M38.9,10.3c0.1,0.8-0.6,1.9-1.2,3.1c-0.5,1.2-0.7,2.5-0.7,2.6c0,0.1-0.1,0-0.1,0
		s0-0.4-0.2-1.4c-0.2-1-0.6-1.3-1-2.2c-0.3-1-0.5-0.8-0.5-0.8c-0.2,2.5,0.8,4.4,1,4.7c0.2,0.3,0.2,1.3,0.2,1.3
		c2.2-2.5,2.6-4.7,2.6-6C39.3,10.3,38.9,10.3,38.9,10.3 M36.9,10.4c0.2,1.8,0.1,1.7,0.1,1.7c-0.1-1.1-1-2.1-1.2-2.2
		c-0.2-0.1-1.1-1-1.2-1.3c-0.2-0.3-0.3-0.2-0.3-0.2c0.2,1.2,2,3.9,2.3,4.2c0.3,0.3,0.7,1.2,0.7,1.2c0.1,0,0.3-0.8,0.3-0.8
		c0.7-1.6,0.7-2.9,0.7-2.9c-0.5-3.7-1.3-3.8-1.3-3.8C37.5,7.4,36.7,8.6,36.9,10.4 M35.7,7.6c0,0,0.1,0.4,0,0.4
		c-0.1,0-0.3-0.3-0.3-0.3c-1.3-1.6-1.7-1.3-2.1-1.9c-0.6-0.7-0.7-0.6-0.7-0.6c0.3,1.3,2.1,3.1,2.6,3.4c0.6,0.3,1.3,1.1,1.3,1.1
		c0.1-0.1,0.2-2.1,0.2-2.1c-0.2-2.8-2-3.8-2-3.8c0.2,0.2,0.7,2.1,0.7,2.5C35.4,6.6,35.7,7.6,35.7,7.6 M33.9,5.9
		C34.7,6.4,35,6.7,35,6.7s0.1-2.4-3.1-3.6C32,3,33.1,5.3,33.9,5.9 M17.2,26.3c0,0-0.9-0.5-1.4-1.5c-0.5-1-1.7-2.6-2.9-3.5
		c0,0,1.4,4.4,2.8,4.6c0,0,0.2,0.1-0.2,0.1c-0.4-0.1-2.2-0.7-2.9-0.9C12,25,10.4,24.6,10,24.2c-0.4-0.4-0.6-0.3-0.6-0.3s1.8,3,5,3
		C14.3,26.8,15.9,26.7,17.2,26.3 M13,23.4c-0.1-0.9-0.6-2.9-2.1-5.1c0,0-0.2,3.5,1.5,5.6c0,0,0.1,0.3-0.1,0.1
		c-0.2-0.2-1.3-1.5-3.7-3.1c0,0-1.2-1-1.3-1.3c0,0,1,4.9,6.1,5.3C13.4,24.8,13.1,24.3,13,23.4 M9.6,20.6c0,0,0.7,0.9,0.8,0.9
		c0,0-0.1-0.6-0.1-1c0-0.5,0.2-2.1,0.2-2.8c0-0.7-0.1-2.1-0.6-3c0,0,0,0.8-0.2,1.2c-0.2,0.4-0.4,1.8-0.4,2c0,0.2,0,1.4,0.4,2
		c0,0-0.2-0.1-0.5-0.6C9,18.8,8.4,17.9,7.5,17c-0.9-0.9-1.1-1.8-1.1-1.8s-0.2,1.6,1,3.3C8.5,20.2,9,19.9,9.6,20.6 M8.8,16.3
		c0.2-0.3,1.3-2.3,1-4.7c0,0-0.2-0.2-0.5,0.8s-0.8,1.3-1,2.2c-0.2,1-0.2,1.4-0.2,1.4s-0.1,0.1-0.1,0c0-0.1-0.1-1.4-0.6-2.6
		c-0.5-1.2-1.3-2.3-1.2-3.1c0,0-0.3,0-0.3,1.3c0,1.3,0.4,3.5,2.6,6C8.6,17.6,8.6,16.6,8.8,16.3 M8,13.7c0,0,0.4-0.9,0.7-1.2
		c0.3-0.3,2.1-3,2.3-4.2c0,0-0.2-0.1-0.3,0.2c-0.2,0.3-1.1,1.2-1.2,1.3S8.3,11,8.2,12.1c0,0-0.1,0.1,0.1-1.7c0.2-1.8-0.6-3,0-4.2
		c0,0-0.9,0.1-1.3,3.8c0,0,0,1.3,0.7,2.9C7.7,12.9,7.9,13.7,8,13.7 M9.9,8.6c0.6-0.3,2.3-2.1,2.6-3.4c0,0-0.1-0.2-0.7,0.6
		C11.5,6.4,11,6.1,9.7,7.7c0,0-0.2,0.4-0.3,0.3c-0.1,0,0-0.4,0-0.4s0.2-1,0.3-1.4c0-0.4,0.5-2.3,0.7-2.5c0,0-1.7,1-2,3.8
		c0,0,0.1,2,0.2,2.1C8.7,9.7,9.4,9,9.9,8.6 M10.2,6.7c0,0,0.3-0.3,1.1-0.9c0.8-0.5,1.9-2.8,1.9-2.8C10,4.3,10.2,6.7,10.2,6.7
		 M22.6,25.1c6.5,0,11.8-5.3,11.8-11.8S29.1,1.6,22.6,1.6S10.8,6.8,10.8,13.3C10.8,19.8,16.1,25.1,22.6,25.1 M11.2,13.5h2.1
		c0,0.9,0.2,1.8,0.4,2.7c0,0-0.1,0-0.1,0c0,0,0,0-0.1,0c-0.1,0-0.1-0.1-0.2-0.1c0,0-0.1-0.1-0.1-0.2c-0.1,0-0.2,0-0.3,0.1
		c0,0,0,0,0,0c-0.1,0-0.2,0.1-0.3,0.1c-0.1,0.1-0.1-0.1-0.1-0.2c0-0.1-0.1-0.1-0.2,0c0,0,0,0,0,0.1c0,0,0,0-0.1,0
		c-0.1,0.1,0.1,0.1,0.1,0.1c0,0,0,0,0,0.1c0,0-0.1,0-0.1,0c0,0.1,0,0.1-0.1,0.1c0,0,0,0,0,0c0,0,0,0,0,0c0,0-0.1,0-0.1,0
		c0,0,0-0.1,0-0.1c0,0,0,0,0,0c0,0.1,0,0.1-0.1,0.1c0,0,0,0.1,0,0.1c0,0,0.1,0,0.1,0c0.1,0.1,0.1,0.2,0.1,0.3c0,0,0,0,0,0
		c0,0,0,0.2,0,0.1c-0.1,0,0-0.2,0-0.2c0,0-0.1,0-0.1,0c0,0.1-0.1,0.3,0,0.4c0,0.1-0.1,0.1-0.1,0.2c0,0,0.1,0.1,0.2,0.1
		c0,0,0-0.1,0-0.1c0,0,0.1-0.1,0.1,0c0,0,0,0.1,0,0.1c0,0-0.1,0-0.1,0c0,0.1,0,0.1,0,0.2c0,0,0,0,0,0.1c0,0.1,0.1,0,0.2,0.1
		c0,0,0,0.1,0,0.1c0,0,0.1,0,0.1,0c0,0,0,0.1,0,0.1c0,0,0.1,0,0.1,0.1c0,0,0.1,0,0-0.1c0.1,0,0.1-0.1,0.1-0.2c0,0,0-0.1-0.1,0
		c0-0.1,0-0.1,0-0.2c0-0.1-0.1-0.1-0.1-0.1c0.1,0,0.1,0,0.2-0.1c0,0,0.1,0,0.1,0.1c0,0,0,0,0,0c0.1,0,0.1,0,0.1,0.1
		c0,0,0.1,0.1,0.1,0.1c0.1,0,0.2,0,0.3,0c0,0,0-0.1,0-0.1c0,0,0.1,0,0.1,0c0,0.1,0,0.2,0.1,0.2c0,0,0,0,0.1,0c0,0,0,0.1,0.1,0.1
		c0,0,0.1,0,0.1,0c0,0,0,0,0,0.1c0,0,0,0,0,0c0.1,0,0.2,0,0.2,0.1c0,0.1,0.1,0.2,0.2,0.3c0,0,0.1,0.1,0.1,0.1c0,0,0,0.1,0,0.1
		c0.1,0.1,0.1,0.1,0.2,0.1c0,0,0.1,0,0.1-0.1c0,0,0.1,0,0.1,0c0.1,0.1,0.1,0.3,0.2,0.4c0.1,0,0.1,0.1,0.1,0.1c0,0,0.1,0,0.1,0
		c0,0,0,0.1,0.1,0.1c0.1,0,0.2,0.1,0.2,0.2c0,0,0,0,0,0c0,0,0.1,0,0.1,0c0.1,0.2,0.3,0.3,0.4,0.5l-1.5,1.5
		C12.4,19.3,11.2,16.5,11.2,13.5 M21.8,10.6c-0.1,0-0.1,0.2-0.2,0.2c0,0,0,0,0,0c0,0,0,0,0,0c-0.3,0.1-0.5,0.3-0.7,0.4l-1.3-1.3
		c0.8-0.7,1.7-1.1,2.9-1.2v1.8c-0.2,0-0.4,0-0.6,0.1C21.8,10.8,21.8,10.7,21.8,10.6C21.8,10.7,21.8,10.7,21.8,10.6
		C21.9,10.7,21.9,10.7,21.8,10.6C21.8,10.6,21.8,10.6,21.8,10.6 M17.5,17.6c0,0,0-0.1,0-0.2c0,0,0,0-0.1,0c0-0.1,0.1-0.2,0-0.3
		c-0.1-0.1-0.1-0.1-0.2-0.2c0,0,0,0,0,0c0-0.1,0-0.2,0-0.4c0,0-0.1-0.1,0-0.1c0,0,0.1,0,0.1-0.1c0.1,0,0.1-0.1,0.1-0.1s-0.1,0-0.2,0
		c0,0,0,0,0-0.1c0,0,0-0.1,0-0.2c0,0-0.1,0-0.1-0.1c0-0.1,0-0.1,0-0.2c0,0,0,0,0,0c0-0.1,0-0.1,0-0.2c0-0.1-0.1-0.1-0.1-0.1
		c0,0,0,0,0,0c0,0-0.1,0-0.1,0c0,0,0,0,0-0.1c0,0,0.1,0,0.1,0c0.1-0.1,0-0.1,0-0.2c-0.1-0.1-0.1-0.1-0.1-0.2c-0.1,0-0.2,0-0.2-0.2
		c0-0.1,0-0.2,0-0.4c0-0.1,0-0.2,0-0.2c0,0,0-0.1,0.1-0.1c0.1,0,0.3,0,0.4-0.1c0-0.1,0-0.2,0-0.3c0.1-0.1,0.2-0.1,0.4-0.1h0.4
		c0,0.2,0,0.3,0,0.5c-0.1,0-0.1,0-0.2,0c-0.1,0-0.1,0-0.1,0c0,0,0,0.1,0.1,0.1c0.1,0,0.2,0,0.2,0.1c0.2,0.9,0.6,1.8,1.2,2.5L17.8,18
		c0,0,0,0,0,0c0,0,0,0-0.1,0c-0.1-0.1-0.1-0.1-0.2-0.2c0,0,0.1,0,0.1,0C17.5,17.6,17.5,17.6,17.5,17.6 M16.4,14.4
		c0.1,0.1,0,0.2-0.1,0.2c-0.1,0-0.3,0-0.3-0.2c0,0,0,0,0,0c0-0.3-0.1-0.6-0.1-0.9h0.8c0,0.1-0.1,0.2-0.2,0.3
		C16.4,13.9,16.3,14.3,16.4,14.4 M16.3,19.4l-0.2,0.2c-0.1-0.1-0.1-0.1-0.2-0.2c0,0,0,0,0,0c0.1,0,0.1-0.1,0.1-0.1
		C16.2,19.2,16.2,19.3,16.3,19.4 M17.8,11.5c0,0.1,0,0.2-0.1,0.2c-0.1,0-0.2,0-0.3,0.1c0,0-0.1,0.1-0.1,0.1
		c-0.2,0.3-0.3,0.6-0.3,0.9v0c0,0,0,0,0,0c0,0.1-0.1,0.2-0.1,0.2h-1c0-1.7,0.7-3.3,1.9-4.5l1.4,1.4c-0.3,0.3-0.6,0.7-0.8,1.1
		c0,0-0.1,0-0.1,0c-0.1,0-0.1,0.1-0.2,0.1c0,0,0,0.1,0,0.1c0,0,0,0-0.1,0C17.9,11.4,17.8,11.4,17.8,11.5L17.8,11.5L17.8,11.5z
		 M17.8,12.8c0,0.1,0,0.2,0,0.3h-0.4c0,0,0,0,0,0c-0.1-0.1-0.2,0-0.2-0.1c0,0,0-0.1,0-0.1c0-0.1,0.1-0.1,0.1-0.2
		C17.5,12.7,17.6,12.7,17.8,12.8C17.8,12.8,17.8,12.8,17.8,12.8 M18.2,14.2c0,0,0.1,0,0.2,0c0.1,0,0.1,0.1,0.2,0.1
		c0.1,0,0.1,0,0.2,0c0,0,0.1,0,0.1,0c0,0.1,0,0.1,0.1,0.1c0.1,0,0.1,0.3,0.2,0.2c0.1,0,0.1,0,0.2,0c-0.1,0.1,0,0.2,0,0.3
		c0.1,0.1,0.1,0.1,0.2,0.2c0.1,0.1,0.1,0,0.2,0c0-0.1-0.1-0.2,0-0.3c0.1,0.2,0,0.4,0.1,0.5c0,0,0,0,0,0c0.1,0.1,0.1,0.1,0.2,0.1
		c0,0,0.1-0.1,0.1-0.1c0,0,0,0,0,0c0-0.1,0-0.1,0-0.1c0-0.1,0.1-0.1,0.1-0.2c0,0,0-0.1,0-0.1c0,0,0-0.1,0-0.1
		c0.1,0.2,0.2,0.3,0.3,0.4l-1.3,1.3C18.8,15.8,18.4,15,18.2,14.2 M19.8,13.7c0.1,0,0.1-0.1,0.2-0.1c0,0.1,0,0.1,0,0.2
		c0,0-0.1,0.1-0.1,0.1C19.8,13.8,19.7,13.7,19.8,13.7 M20,11.4c-0.1,0-0.1,0.1-0.2,0.1c0,0,0,0,0,0c0,0,0-0.1,0-0.1
		c0,0-0.1,0-0.1-0.1C19.6,11,19.2,11,18.9,11c-0.1,0-0.1,0.1-0.1,0.1c0,0,0,0-0.1,0c0.2-0.3,0.4-0.6,0.6-0.9l1.1,1.1
		C20.3,11.4,20.2,11.4,20,11.4 M19.3,9.8l-1.4-1.4c1.2-1.1,2.8-1.8,4.5-1.9v2C21.2,8.6,20.2,9.1,19.3,9.8 M17.7,8.2l-1.3-1.3
		c1.6-1.5,3.7-2.5,6.1-2.5v1.9C20.6,6.3,18.9,7,17.7,8.2 M17.5,8.4c-1.2,1.2-1.9,2.9-2,4.7h-1.9c0-2.4,1-4.5,2.5-6.1L17.5,8.4z
		 M15.5,13.5c0,0.3,0,0.5,0.1,0.8c-0.1,0-0.1,0-0.2,0c-0.1,0-0.2,0.2-0.2,0.3c0,0.1-0.2,0.1-0.3,0.2c0,0,0,0.1,0,0.2
		c0,0-0.1,0-0.1,0.1c0,0,0,0.1,0,0.1c0,0.1-0.1,0.3,0,0.4c0,0,0,0.1,0,0.1c0,0.1,0,0.3-0.1,0.4c-0.1,0.1-0.2,0.1-0.4,0.2
		c-0.1,0-0.1,0-0.2,0c0,0,0,0,0,0c-0.3-0.8-0.4-1.7-0.5-2.7L15.5,13.5L15.5,13.5z M22.4,24.8c-3,0-5.8-1.3-7.8-3.2l1.5-1.5
		c1.6,1.6,3.8,2.6,6.3,2.6L22.4,24.8L22.4,24.8z M22.4,22.3c-2.4,0-4.5-1-6.1-2.5l0.2-0.2c0.1,0,0.2,0.1,0.3,0.1
		c0.1,0,0.2,0,0.2,0.1c0,0,0.1,0,0.1,0c0,0,0.1,0,0.1-0.1c0.1-0.1,0.2-0.1,0.3-0.1c0,0,0,0,0.1-0.1c0.2-0.1,0.4,0.1,0.6,0
		c0,0,0.1,0,0.2-0.1c0.1-0.1,0.1-0.2,0.1-0.4c0,0,0,0,0,0c1.1,0.8,2.5,1.3,4,1.3V22.3z M22.4,20.1c-1.7,0-3.3-0.7-4.5-1.9l1.4-1.4
		c0.6,0.5,1.3,0.9,2,1.1c-0.1,0-0.3,0.2-0.3,0.4c0,0,0,0.1,0,0.1c-0.1,0.1-0.1,0.2-0.2,0.3c0,0,0,0,0,0.1c0.1,0.2,0.2,0.3,0.4,0.4
		c0,0,0.1,0,0.1,0.1c0,0.1,0.1,0.2,0.2,0.3c0.1,0.1,0.3,0.2,0.4,0.1c0.1,0,0.1,0,0.2,0.1c0.1,0,0.3,0,0.4,0V20.1z M22.4,16.4
		c-0.1,0-0.1,0-0.1,0c0,0.1,0.1,0.1,0.1,0.2c0,0,0,0.1-0.1,0.1c-0.1,0-0.2,0-0.3,0c0,0,0,0,0,0c0,0.1,0,0.2-0.1,0.2
		c0,0.1,0,0.1,0.1,0.2c0,0.1,0.1,0.1,0.1,0.2c0,0,0.1,0.1,0.1,0c0.1,0,0.2-0.1,0.2-0.2c0,0,0,0,0,0v0.2c-0.1,0-0.1,0-0.2,0
		c-0.1,0-0.2,0-0.2,0.1c-0.1,0-0.1,0-0.2,0.1c-0.9-0.2-1.6-0.6-2.2-1.1l1.3-1.3c0.4,0.3,0.9,0.6,1.4,0.6c-0.1,0.1-0.1,0.1-0.2,0.2
		c0,0,0.1,0,0.1,0c0.1,0,0.1-0.1,0.1-0.2c0,0,0.1,0,0.1,0c0,0,0,0.1,0,0.1c0,0,0,0-0.1,0.1c0,0,0,0.1,0,0.1c0,0,0.1,0,0.1,0
		L22.4,16.4L22.4,16.4z M22.8,24.8v-2.1c0.8,0,1.6-0.1,2.3-0.3c0,0,0,0,0,0c0.1,0.1,0.2,0.1,0.3,0.1c0,0,0.1,0,0.1,0
		c0.1,0,0.2,0,0.3,0c0.1,0,0.1-0.1,0.2-0.2c0.1-0.1,0.2-0.1,0.3-0.1c0,0,0.1,0,0.1,0c0-0.1,0.1-0.1,0.1-0.2c0.1,0,0.1,0,0.2-0.1
		c0.1-0.1,0.2-0.2,0.4-0.3c0.1-0.1,0.3-0.1,0.4-0.2c0,0,0-0.1,0-0.2c0.6-0.4,1.1-0.8,1.6-1.2l1.5,1.5C28.5,23.5,25.8,24.7,22.8,24.8
		 M23,16.8c0,0,0.1-0.1,0.2,0c0,0,0.1,0,0.1,0.1c0,0,0.1,0.1,0.1,0.1c0,0,0,0,0.1,0c0.1,0,0.1,0.1,0.2,0.2c0,0,0,0,0,0
		c0-0.1,0-0.2-0.1-0.2c-0.1-0.1-0.1-0.1-0.2-0.2c0,0,0-0.1,0-0.1c0,0,0,0,0,0c0,0,0.1,0,0.2,0.1c0.1,0,0.1,0.2,0.2,0.2
		c0.1,0,0.1,0.1,0.1,0.1c0.1,0,0.2,0,0.2-0.1c0-0.1,0-0.1-0.1-0.1c-0.1-0.1,0-0.1,0.1-0.1c0.1-0.1,0-0.1,0-0.2c0,0,0,0,0-0.1
		c0,0,0,0,0,0c0-0.1,0-0.2,0-0.3c0,0,0,0,0,0c0,0,0.1,0.1,0.1,0.1c0.1,0,0.1-0.1,0.2-0.1c0.1-0.1,0.2,0,0.2,0c0,0.1,0,0.1-0.1,0.2
		c-0.2,0-0.3,0.1-0.4,0.2c0,0,0,0,0,0c-0.1,0-0.1,0.1-0.1,0.2c0,0,0,0.1-0.1,0.1c0.1,0,0.1,0.1,0.1,0.1c0.1,0,0.2,0,0.3,0
		c0,0,0-0.1,0-0.1c0.1,0,0.1-0.1,0.2-0.1c0.1,0,0.2,0.1,0.2,0.3c0,0,0,0-0.1,0c0,0.1-0.1,0.2-0.2,0.2c0,0-0.1,0.1-0.1,0.1
		c-0.2,0.1-0.4,0.1-0.5,0.1c0,0-0.1,0.1-0.1,0.1c-0.1,0-0.1,0-0.2,0.1c0,0-0.1,0-0.1,0v0c0,0.1-0.2,0-0.3,0c0,0,0-0.1,0-0.1
		c0,0-0.1,0-0.1,0c0,0,0-0.1,0-0.1c-0.2,0-0.4,0-0.6,0V17C22.8,16.9,22.9,16.9,23,16.8 M22.8,16.1V16c0,0,0.1,0,0.1,0
		C22.8,16,22.8,16.1,22.8,16.1 M23.5,15.4C23.5,15.4,23.5,15.5,23.5,15.4c0,0.1-0.1,0.1-0.1,0.1c0,0,0,0,0,0c0-0.1-0.1-0.1-0.1-0.2
		c0-0.1,0-0.1,0.1-0.2c0,0,0.1,0,0.1,0c0,0,0,0.1,0,0.2C23.5,15.3,23.5,15.4,23.5,15.4 M23.4,15.9C23.4,15.9,23.4,15.9,23.4,15.9
		c-0.1,0-0.1,0-0.2,0C23.3,15.9,23.3,15.9,23.4,15.9 M23.4,19.9c0,0,0,0.1,0.1,0.1c-0.2,0-0.5,0-0.7,0.1v-0.3
		C23,19.8,23.2,19.8,23.4,19.9 M23.7,20.3c0.1,0.1,0.2,0.1,0.3,0.1c0,0,0,0.1,0.1,0.1c0,0,0,0.1,0.1,0.2c0.1,0.1,0.1,0.1,0.1,0.2
		c0,0.1-0.1,0.2,0,0.3c0,0,0,0.1,0,0.1c0.2,0.2,0.3,0.3,0.5,0.4c0,0,0,0,0,0.1c0.1,0,0.1,0.1,0.1,0.1c0,0,0,0,0,0
		c-0.7,0.2-1.4,0.3-2.1,0.3v-1.9C23.1,20.4,23.4,20.4,23.7,20.3 M28.7,18.4c0,0-0.1,0-0.1,0c0,0.1-0.1,0.3-0.2,0.5l-0.6-0.6
		c1.2-1.2,1.9-2.9,2-4.7h1.9c0,2.4-1,4.5-2.5,6.1l-0.1-0.1c0,0,0-0.1,0-0.1C29.1,19.1,29,18.6,28.7,18.4 M27.6,20.3
		c0-0.1-0.1-0.2-0.1-0.2c0-0.1,0.1-0.1,0.1-0.1c0-0.1,0.1-0.2,0.1-0.3c0,0,0,0,0.1,0c0,0,0-0.1,0-0.1c0,0-0.1-0.1-0.1-0.1
		c-0.1-0.2-0.2-0.3-0.4-0.4c0,0,0-0.1-0.1-0.1c0,0,0-0.1,0-0.1c0,0,0-0.1,0-0.1h0c0,0,0,0,0,0c0,0,0,0,0,0c0,0,0,0,0,0c0,0,0,0,0,0
		c0,0,0-0.1,0-0.1c0.1,0,0.1-0.1,0.2-0.2l0.8,0.8c0,0.1,0.1,0.2,0.2,0.3c0,0,0.1,0,0.1,0l0.2,0.2c-0.4,0.4-0.8,0.7-1.3,1
		c0,0,0-0.1,0-0.1C27.6,20.6,27.6,20.5,27.6,20.3 M27,17C27.1,17,27.1,17,27,17c0.1-0.2,0.1-0.3,0.1-0.4c0.1,0,0.1-0.1,0.1-0.1
		c0,0,0,0,0-0.1c0-0.1,0-0.1,0-0.2c0-0.1,0-0.3-0.1-0.4c0-0.1-0.1-0.1-0.2-0.1c0,0,0,0,0,0.1c-0.1,0-0.1,0-0.2,0.1
		c-0.1,0-0.1,0.1-0.1,0.2c-0.1,0.1-0.2,0.2-0.3,0.2c0,0,0,0,0,0c0.1-0.2,0.3-0.3,0.4-0.5c0,0,0.1,0,0.1,0c0,0,0.1-0.1,0.1-0.1
		c0,0,0-0.1,0-0.1c0-0.1,0.1-0.1,0.1-0.2c0.1-0.1,0.1-0.4,0.2-0.5c0.1-0.1,0,0.1,0.1,0.1c0,0.1,0.2,0.1,0.2,0c0,0,0-0.1,0.1-0.2
		c0,0,0.1,0,0.1,0c0.1,0,0.1,0.1,0.2,0.1c0,0,0.1-0.1,0.1-0.1c0.1,0,0.1,0,0.2,0c0.2-0.1,0.5,0,0.5-0.1c0-0.3-0.2-0.5-0.5-0.6
		c-0.2-0.1-0.1-0.3-0.3-0.5c0,0,0-0.1-0.1-0.1c0,0,0,0-0.1,0c0,0,0,0,0,0h1.5c0,1.7-0.7,3.3-1.8,4.5c0-0.1,0-0.2,0-0.2
		c0-0.2,0-0.4-0.1-0.6c0-0.1-0.1-0.1-0.2-0.1c0,0,0,0.1-0.1,0.1c0,0,0,0.1,0,0.1c0,0.1-0.1,0.1-0.2,0.2c0,0,0,0,0,0l-0.1-0.1
		c0-0.1,0.1-0.1,0.1-0.2C27,17.2,27,17.1,27,17 M28.2,12.5c0,0,0.1-0.1,0.1-0.1c0.2,0,0.4,0,0.6-0.1c0,0,0-0.1,0.1-0.1
		c0.1-0.1,0.2-0.2,0.2-0.3c0,0,0,0.1,0,0.1c-0.1,0.2-0.2,0.4-0.1,0.7c0,0,0,0,0,0c0.1,0,0.1-0.1,0.2-0.2c0,0.2,0,0.4,0,0.7h-1.5
		c0,0,0-0.1,0-0.1C27.9,13,28,13,28,13c0.1,0,0.2-0.1,0.2-0.2C28.2,12.7,28.2,12.6,28.2,12.5 M29.7,13.2c0-0.4,0-0.8-0.1-1.2
		c0-0.1,0.1-0.3,0.1-0.4c0-0.1,0-0.2-0.1-0.2c-0.1,0-0.1,0-0.1,0c0,0,0,0.1,0,0.2c0-0.1-0.1-0.3-0.1-0.4c0-0.1,0-0.2,0-0.3
		c0,0-0.1-0.1-0.1-0.2c0-0.2-0.1-0.4-0.2-0.6C29,10,28.9,9.9,28.8,9.9c0,0,0-0.1-0.1-0.1c0,0,0,0,0,0c0,0,0.1-0.1,0.1-0.1
		c0-0.1-0.1-0.2-0.1-0.3c0,0,0,0-0.1,0l0.1,0c-0.1,0-0.1,0-0.2,0c-0.1-0.1-0.1-0.2-0.2-0.2c0.1-0.1,0-0.2-0.1-0.3
		c-0.1-0.1-0.1-0.2-0.2-0.2c0,0,0,0-0.1,0c0-0.1-0.1-0.1-0.2-0.2c0,0,0-0.1,0-0.1l0.4-0.4c0,0,0.1,0.1,0.1,0.1c0,0,0,0.1,0.1,0.2
		c0,0,0,0.1,0.1,0c0,0,0-0.1,0.1-0.1c0,0,0.1,0,0.1,0c0.1,0.2,0.2,0.5,0.4,0.4c0,0,0,0.1,0,0.1c0.1,0,0.1-0.1,0.1,0
		c0,0.1,0.1,0.1,0.1,0.2c0.1,0,0.2,0,0.3,0c0.1,0,0.1,0.1,0.1,0.1c0,0,0.1,0.1,0.1,0.1c0.2,0.2,0.2,0.4,0.4,0.5
		c0.1,0,0.1,0.1,0.2,0.1c0,0,0,0,0,0c0.1,0,0.1-0.1,0.2-0.1c0,0,0,0,0.1-0.1c0.5,1.1,0.8,2.3,0.9,3.6L29.7,13.2L29.7,13.2z M27.8,9
		C27.8,9.1,27.8,9.1,27.8,9C27.8,9.1,27.9,9.1,27.8,9c0.2,0.3,0.4,0.6,0.6,0.8c0,0,0,0,0,0c0,0.1-0.1,0.1-0.2,0.1c0,0,0,0.1,0,0.2
		c0,0.1,0.1,0.1,0.2,0.1c0.2,0.1,0.3,0.2,0.4,0.4c0.1,0.2,0.2,0.5,0.3,0.8c0,0,0,0,0,0c-0.2,0.1-0.2,0.4-0.3,0.5
		c-0.1,0.1-0.2,0.1-0.3,0.1c0,0-0.1,0-0.1-0.1c0-0.1,0-0.1,0-0.2c0,0,0.1-0.1,0.1-0.1c0.1-0.1,0-0.2,0-0.3c0-0.2-0.2-0.3-0.4-0.2
		c-0.2,0-0.3,0.2-0.4,0.4c0,0,0,0,0,0c-0.1-0.1-0.1-0.1-0.2-0.2c0,0,0,0,0,0c0.1,0,0.1,0.1,0.2,0.1c0.1,0,0-0.1,0-0.2
		c-0.1,0-0.1-0.1-0.2-0.1c0,0-0.1-0.1-0.1-0.1c0-0.1,0-0.2-0.1-0.2c-0.1,0-0.2,0-0.2-0.1c0,0-0.1,0-0.1,0c0,0,0-0.1,0-0.1
		c0.1,0,0.2,0,0.2-0.1c0-0.1-0.1-0.1-0.2-0.1c0,0-0.1,0-0.1,0c0,0,0,0,0,0.1c0,0,0,0.1,0,0.2c0,0-0.1,0-0.1,0
		c-0.2-0.3-0.4-0.5-0.6-0.8l1.4-1.4C27.6,8.8,27.7,8.9,27.8,9 M26.3,10.8c0,0.1-0.1,0.1-0.1,0.1c0,0-0.1,0-0.2,0.1
		c-0.1,0,0,0.2,0,0.2c0,0,0,0.1,0,0.1c-0.1,0-0.1,0-0.1-0.1c0-0.1-0.1-0.2-0.1-0.3c0-0.1,0.1-0.2,0.1-0.2c0-0.1,0-0.1,0-0.2
		c0-0.1-0.1-0.1-0.2-0.1c-0.2,0-0.2,0.3-0.4,0.3l0,0l0.5-0.5C26,10.5,26.2,10.6,26.3,10.8 M25.4,17.2c0,0,0.1,0,0.1,0.1
		c0.2,0.1,0.4,0.1,0.6,0.1c0.2,0,0.3,0.1,0.4,0.2c0,0,0.1,0,0.1,0l0.1,0.1c0,0-0.1,0-0.1,0c-0.1,0-0.2,0-0.3,0
		c-0.4-0.1-0.7-0.2-1.1-0.4C25.3,17.3,25.4,17.2,25.4,17.2 M30.8,21.3l-1.5-1.5c1.6-1.6,2.6-3.9,2.6-6.3H34
		C34,16.5,32.8,19.3,30.8,21.3 M34,13.2h-2.1c0-1.4-0.3-2.7-0.9-3.9c0.1,0,0.1-0.1,0.2-0.1c0.1,0,0-0.2,0-0.2
		c-0.1-0.1-0.1-0.2-0.2-0.3c-0.1-0.1-0.2-0.1-0.2-0.2c0,0,0-0.1,0-0.2c0,0-0.1,0-0.1-0.1c0-0.1-0.1-0.2-0.2-0.2
		c0-0.1-0.1-0.2-0.2-0.2c0,0,0,0,0-0.1c0,0-0.1-0.1-0.1-0.1c0,0,0,0-0.1,0C30.1,7.6,30,7.5,30,7.4c0-0.1-0.2-0.2-0.2-0.2
		c0,0-0.1-0.1-0.1-0.1c0,0-0.1,0-0.1,0c0,0,0,0,0,0s0,0,0,0c0-0.1,0-0.1-0.1-0.2l1.4-1.4C32.8,7.4,34,10.1,34,13.2 M22.8,1.9
		c3,0,5.8,1.3,7.8,3.2l-1.4,1.4c0-0.1,0-0.3,0-0.4c0-0.1-0.1-0.1-0.2-0.1c0,0,0,0-0.1,0c-0.1-0.1,0-0.2-0.1-0.3
		c-0.1-0.2-0.2-0.3-0.4-0.4c-0.1-0.1-0.2-0.1-0.3-0.1c0,0,0,0-0.1,0c0,0,0-0.1-0.1-0.1c0-0.1-0.2-0.1-0.2-0.2
		c-0.2-0.1-0.3,0-0.5-0.1c-0.1,0-0.3,0-0.4,0.1c0,0-0.1,0-0.1,0.1c-1.2-0.6-2.6-1-4-1L22.8,1.9L22.8,1.9z M22.8,4.3
		c1.3,0,2.6,0.3,3.7,0.9c0,0.1-0.1,0.1-0.1,0.2c0,0,0,0,0,0c0,0,0.1,0,0.1,0c0.1,0,0.1,0.1,0.1,0.1c0.1,0.1,0.1,0.1,0.2,0.2
		c0,0,0,0.1,0,0.1c0.1,0.1,0.1,0.2,0.1,0.3c0,0,0.1,0,0.1,0c0.1,0.1,0.2,0.2,0.1,0.4c0,0.1,0,0.2,0,0.2c0.1,0.1,0.1,0.3,0.2,0.4
		c0,0,0.1-0.1,0.1-0.1c0.1,0,0.1-0.1,0.2-0.1c0.2-0.1,0.4,0.1,0.4,0.3c0,0.1,0,0.3,0.1,0.4L27.6,8c0,0,0-0.1,0-0.1
		c0-0.1-0.1,0-0.1-0.1c0-0.1-0.1-0.2,0.1-0.2c0,0,0,0,0-0.1c0,0-0.1,0-0.2,0c0,0,0-0.1,0-0.1c0-0.1,0-0.2,0-0.2
		c-0.1,0-0.2-0.1-0.2-0.1c-0.1,0-0.1-0.1-0.2-0.1c0,0-0.1,0-0.1,0c-0.1-0.1-0.2-0.3-0.3-0.5c0,0-0.1,0-0.2,0c0,0,0,0,0,0
		c0,0,0,0,0,0c0,0,0,0,0,0.1c0.1,0,0.1,0.1,0.1,0.2c0,0.1,0,0.2,0,0.3c0,0,0,0.1,0.1,0.1c0,0,0,0.1,0,0.2c0,0,0,0.1,0,0.1
		c-0.2-0.1-0.4-0.3-0.6-0.4c0,0,0,0,0,0c0.1-0.1,0.2,0,0.3-0.1c0,0.1,0,0.1,0.1,0.1c0-0.1,0-0.2,0-0.2c-0.1-0.1-0.1-0.1-0.1-0.2
		c0,0-0.1,0-0.1,0c0,0.1-0.1,0.1-0.2,0.2c0,0,0,0,0,0c0,0,0,0,0,0c0,0,0,0,0-0.1c0,0-0.1,0-0.1,0c0,0-0.1,0.1-0.1,0.1
		c-0.1,0-0.1-0.1-0.2-0.1c0,0,0,0,0-0.1c0,0,0,0,0,0c0,0,0,0,0,0.1c-0.8-0.3-1.7-0.5-2.6-0.5L22.8,4.3L22.8,4.3z M22.8,6.6
		c1.7,0,3.3,0.7,4.5,1.9l-1.4,1.4C25,9.1,24,8.6,22.8,8.5L22.8,6.6L22.8,6.6z M22.8,8.9c1.1,0,2.1,0.5,2.9,1.2l-0.1,0.1c0,0,0,0,0,0
		c-0.1,0-0.1-0.1-0.2-0.1c-0.2-0.1-0.4,0.1-0.5,0.3c0-0.1-0.2,0-0.3,0c0,0-0.1-0.1-0.1-0.1c0,0-0.1,0-0.1,0c-0.1,0,0,0.1,0,0.1
		c0,0,0.1-0.1,0.1,0c0,0.1,0,0.2,0.1,0.2c0.1,0,0.1-0.1,0.2-0.1c0.1,0,0.1-0.1,0.1-0.2c0.1,0,0.2-0.1,0.2,0c0,0,0,0.1,0.1,0.1
		l-0.2,0.2c0,0-0.1,0-0.1,0c-0.1,0.1-0.3,0.1-0.4,0.2c-0.1,0.1-0.2,0.2-0.3,0.3c0,0-0.1,0.1-0.1,0.1c-0.2-0.2-0.4-0.3-0.6-0.4
		c0,0,0.1,0,0.1-0.1c0.1,0,0.1-0.1,0.1-0.2c0,0,0,0,0-0.1c0,0,0-0.1,0-0.1c-0.2,0-0.4,0.2-0.5,0.3c-0.2,0-0.3-0.1-0.5-0.1L22.8,8.9
		L22.8,8.9z M23.4,11.2C23.4,11.2,23.4,11.2,23.4,11.2c-0.1,0-0.1,0-0.2-0.1l0,0C23.3,11.1,23.4,11.1,23.4,11.2 M22.6,11.3
		c0,0-0.1,0-0.2,0.1c0,0,0,0.1,0,0.1c0,0,0,0,0.1,0c0.1,0.1,0.1,0.2,0.2,0.3c0.1,0.1,0.3,0,0.4,0.1c0.1,0,0.2,0.1,0.2,0.2
		c0,0.1,0.1,0.1,0.1,0.2c0,0,0,0,0.1,0.1c0,0,0.1,0,0.1,0c0.1,0,0,0.1,0.1,0.2c0,0.1,0,0.2,0.1,0.3c0,0,0,0.1-0.1,0.2
		c0,0-0.1,0-0.1,0c0,0.1,0,0.2,0,0.2c0,0,0.1,0,0.1,0c0.1,0.1,0.1,0.2,0.2,0.3c0,0,0.1,0.1,0.1,0.1c0,0-0.1,0.1,0,0.1
		c0,0,0.1,0.1,0.1,0c0,0,0.1,0,0.2-0.1c0,0,0.1,0,0.1-0.1c0,0,0.1,0.1,0,0.1c-0.1,0.1-0.2,0-0.3,0.1c-0.1,0-0.1,0-0.2,0.1
		c0,0,0,0.1,0.1,0.1c0.2,0,0,0.3,0,0.4c0,0,0,0.1,0,0.1c0,0,0,0-0.1,0c-0.2,0-0.4,0-0.5,0c-0.1,0-0.1,0.1-0.1,0.2h0
		c0,0,0,0.1-0.1,0.1c0,0,0,0.1,0,0.1c-0.2,0.2-0.2,0.4-0.2,0.6c0,0.1,0.1,0.1,0.1,0.1c0,0,0.1,0,0.1,0c0,0,0.1,0,0.1,0.1
		c-0.2,0-0.3,0.1-0.5,0.1v0c0,0-0.1,0-0.1-0.1c0-0.1-0.1,0-0.1,0c0,0,0,0,0,0c-0.5,0-1-0.3-1.4-0.6c0.2,0,0.3-0.2,0.5-0.2
		c0.1,0,0.3-0.1,0.5-0.1c0.4,0,0.3-0.5,0.5-0.7c0-0.1,0-0.2-0.1-0.3c-0.1-0.2-0.5,0-0.6-0.2c0-0.1,0.2,0.1,0.3-0.1
		c0,0,0-0.1-0.1-0.1c0,0-0.1,0-0.2,0c-0.2,0.2-0.2,0.4-0.3,0.6c-0.2,0.3-0.5,0.6-0.7,0.9c-0.1-0.1-0.2-0.2-0.2-0.3c0,0,0-0.1,0-0.1
		c0,0,0.1-0.1,0.1-0.1c0,0,0-0.1,0-0.1c0,0,0-0.1,0.1-0.1c0.1,0,0.1,0.1,0.1,0.1c0,0,0,0,0,0c0.2-0.2,0.2-0.4,0.3-0.6c0,0,0,0,0,0
		c0-0.1-0.1-0.1-0.2-0.2c-0.1,0.2-0.2,0-0.3,0.1c0,0,0,0,0,0.1c0,0,0.1,0,0.1,0c0,0,0,0.1,0,0.2c0,0,0,0,0,0
		c-0.1-0.1-0.2-0.1-0.3-0.1c0,0,0,0,0,0c-0.1,0-0.2,0-0.3,0c0-0.1,0-0.2,0-0.4c0-0.1,0-0.1,0-0.2c0.1,0,0.2,0,0.3,0
		c0,0,0.1,0.1,0.1,0.1c0,0,0,0,0,0c-0.1,0.1-0.1,0.1-0.2,0.1c0,0.1,0,0.1,0,0.1c0.1,0,0.1-0.1,0.1-0.1c0,0,0.1,0,0.1,0c0,0,0,0,0,0
		c0.1,0,0.2,0,0.3,0c0.1,0,0-0.2,0-0.3c0,0,0-0.1,0-0.1c0,0,0,0,0,0c0-0.1,0.2-0.1,0.2,0c0,0,0,0,0,0.1c0,0,0,0.1,0.1,0c0,0,0,0,0,0
		c0,0,0-0.1,0-0.1c0,0,0.1,0.1,0.2,0.1c0.1,0,0.1,0,0.2,0c0,0,0-0.1,0-0.1c0,0,0,0-0.1,0c-0.1,0.1-0.1,0-0.2,0
		c-0.1,0-0.1-0.1-0.1-0.1c-0.1,0-0.1,0-0.2,0c-0.1,0-0.1-0.1-0.1-0.1c0,0,0.1-0.1,0.1-0.1c0.1,0,0.2,0,0.2-0.1c0-0.1,0-0.1,0.1-0.2
		c0,0,0,0,0.1,0c0.1,0,0.2,0,0.3,0c0.1,0,0.2-0.1,0.2-0.2c0,0,0.1,0,0.1-0.1c0,0,0,0,0-0.1c0-0.1,0-0.3,0-0.4c0,0,0.1-0.1,0-0.1
		c0,0-0.1,0-0.1,0c0,0-0.1-0.1,0-0.1c0,0,0.1,0,0.1-0.1c0,0,0,0,0,0c0.1,0,0.1,0,0.2,0C22.5,11.1,22.6,11.2,22.6,11.3 M22.4,1.9V4
		c-2.4,0-4.7,1-6.3,2.6l-1.5-1.5C16.7,3.2,19.4,2,22.4,1.9 M14.4,5.4l1.5,1.5c-1.6,1.6-2.6,3.9-2.6,6.3h-2.1
		C11.2,10.1,12.4,7.4,14.4,5.4"/>
	<path class="st0" d="M6,36.2c0-2.4,1.7-4.2,4.2-4.2s4.2,1.8,4.2,4.2c0,2.4-1.7,4.2-4.2,4.2S6,38.6,6,36.2 M13.2,36.2
		c0-1.8-1.2-3.2-3-3.2s-3,1.4-3,3.2s1.2,3.2,3,3.2S13.2,38,13.2,36.2"/>
	<path class="st0" d="M21.5,33.9C21,33.4,20.3,33,19.6,33c-1.8,0-3,1.4-3,3.3c0,1.7,1.1,3.1,3,3.1c0.9,0,1.6-0.4,2.1-1.1l0.9,0.7
		c-0.2,0.3-1.2,1.4-3,1.4c-2.6,0-4.1-2.1-4.1-4.1c0-2.5,1.7-4.3,4.2-4.3c1.1,0,2.2,0.4,2.8,1.2L21.5,33.9z"/>
	<polygon class="st0" points="23.9,32.2 25,32.2 25,35.5 29.1,35.5 29.1,32.2 30.2,32.2 30.2,40.2 29.1,40.2 29.1,36.6 25,36.6 
		25,40.2 23.9,40.2 	"/>
	<path class="st0" d="M34.8,32.2h1l3.4,8h-1.3l-0.8-2h-3.8l-0.8,2h-1.3L34.8,32.2z M36.7,37.3l-1.5-3.7h0l-1.5,3.7H36.7z"/>
</g>
</svg>
