<?xml version="1.0" encoding="utf-8"?>
<!-- Generator: Adobe Illustrator 23.0.3, SVG Export Plug-In . SVG Version: 6.00 Build 0)  -->
<svg version="1.1" id="Layer_1" xmlns="http://www.w3.org/2000/svg" xmlns:xlink="http://www.w3.org/1999/xlink" x="0px" y="0px"
	 viewBox="0 0 192.8 192.8" style="enable-background:new 0 0 192.8 192.8;" xml:space="preserve">
<style type="text/css">
	.st0{fill-rule:evenodd;clip-rule:evenodd;fill:#FFFFFF;}
	.st1{fill-rule:evenodd;clip-rule:evenodd;fill:#00ADEE;}
	.st2{fill:none;stroke:#FFFFFF;stroke-width:0.453;stroke-miterlimit:2.6131;}
	.st3{fill-rule:evenodd;clip-rule:evenodd;fill:#00ADEE;stroke:#FFFFFF;stroke-width:8.628764e-02;stroke-miterlimit:2.6131;}
	.st4{fill-rule:evenodd;clip-rule:evenodd;fill:#FFFFFF;stroke:#FFFFFF;stroke-width:8.628764e-02;stroke-miterlimit:2.6131;}
</style>
<g>
	<polygon class="st0" points="0,0.9 192.8,0.9 192.8,193.6 0,193.6 0,0.9 	"/>
	<polygon class="st1" points="53.2,9.4 139.6,9.4 139.6,95.8 53.2,95.8 53.2,9.4 	"/>
	<path class="st2" d="M96.3,23.6v45.5 M112.6,30.2L80.3,62.5 M73.7,46.6h45.1 M80.3,30.7l31.9,31.8"/>
	<path class="st0" d="M78.9,25.3c-0.6,0-1.3,0.5-2,0.8c-1.1,0.6-2.3,1.2-3.3,2.2c-1.4,1.4-1.9,4-2.3,5.3c-0.1,0.2,0.6-0.3,1.5-1.2
		c0.8-0.8,1.9-1.8,2.8-3C77.1,27.5,77.6,26.9,78.9,25.3L78.9,25.3z"/>
	<path class="st0" d="M72.9,28.4c-0.7,0.3-1.4,1.3-1.8,2.7c-0.2,0.5-0.3,1.3-0.5,1.8c-0.2,0.7-0.3,1.5-0.5,2.1
		c-0.2,1-0.5,1.8-0.7,2.5c-0.1,0.4,0.3-0.9,1.5-2.3c0.4-0.5,1.1-1,1.7-1.5c0.4-0.3,0.9-0.5,1.2-0.8c0.5-0.6,1.4-1.3,1.9-1.8
		c0.4-0.5,0.4-0.9,0.4-0.7c0,0.4,0,1.2-0.3,1.9c-0.2,0.6-0.6,1.1-0.8,1.4c-0.6,0.9-1,1.3-1.7,1.9c-1.2,1-2.2,1.9-2.5,2.1
		c-0.8,0.6-1.5,1.5-1.9,2.1c-0.2,0.3-0.3,0.6-0.3,0.4c0-0.9-0.2-2.3-0.2-4.7c0-1.4,0.2-2.8,0.7-3.9c0.3-0.6,0.6-1,1.2-1.6
		C71.1,29.1,72,28.4,72.9,28.4L72.9,28.4z"/>
	<path class="st0" d="M67.9,32.7c-0.1,0.3-0.4,1-0.5,1.9c-0.1,0.8-0.1,1.7-0.1,2.4c0,1.1,0.3,2.2,0.4,3.3c0.1,1.6,0,3-0.1,4.2
		c0,0.1,0.2-1.4,0.9-2.7c0.4-0.8,0.9-1.5,1.5-2.1c1.2-1.1,2.3-2.4,3.1-3c0,0-0.2,1.7-1,3.4c-0.7,1.5-2,2.9-2.1,3
		c-0.3,0.3-0.6,0.9-1,1.5c-0.4,0.6-0.8,1.3-1,1.9c-0.4,0.9-0.5,1.6-0.5,1.6c-0.4-1-0.4-1.9-0.7-2.8c-0.3-1.1-0.9-2.1-1.2-3.4
		c-0.1-0.8-0.3-1.6-0.3-2.5c0-1,0.2-2.3,0.5-3.1C66,35.8,67.3,33,67.9,32.7L67.9,32.7z"/>
	<path class="st0" d="M71.3,42.5c0,0.5,0.1,1,0.1,1.5c-0.1,2.3-0.7,4.1-1.2,5.8c-0.4,1.3-1.1,2.6-1.1,4.4c0,1.6,0.2,2.7,0,2.4
		c-0.1-0.2-0.9-1.4-1.7-2.4c-1.4-1.7-2.4-2.8-3.1-5.1c-0.5-1.7-0.6-3.5-0.5-5.2c0.1-1.1,0.5-2.1,0.7-2.9c0.1-0.3-0.2,0.8,0.1,2.2
		c0.1,0.6,0.5,1.3,0.7,2.1c0.3,1,1,1.9,1.4,2.9c0.4,1.1,0.6,2.4,0.8,3.2c0.4,1.3,0.6,2.1,0.6,2c0-0.7-0.2-1.4-0.3-1.9
		c-0.1-1.2,0.1-2.3,0.8-3.9c0.4-0.9,1-1.5,1.4-2.4C70.6,44.4,71.3,43.5,71.3,42.5L71.3,42.5z"/>
	<path class="st0" d="M63.9,50.7c0.3,0.8,0.6,2,1.5,3.2c1.1,1.4,3,2.9,4.1,4.3c0.5,0.7,0.9,1.4,1.2,1.9c0.4,0.5,0.7,0.8,0.9,1
		c0.3,0.4-1.2-1.6-1.3-3.9c-0.1-1.8,0.6-4,0.6-4.8c0.1-1.5,0.2-2.7,0.3-2.2c0.1,0.2,0.5,1.3,0.8,2.8c0.3,1.6,0.5,3.7,0.5,4.3
		c0,1.5,0.2,3.1,0.6,4.5c0.2,0.8,0.6,1.6,1,2.2c0.3,0.5-5.6-3.3-7-4.8c-1.5-1.7-2.8-3.4-3.2-5.7C63.7,52.6,63.9,51.7,63.9,50.7
		L63.9,50.7z"/>
	<path class="st0" d="M73.2,56.5c0.6,0.6,0.9,1.2,1.3,1.7c0.6,0.8,1.1,1.6,1.6,2.4c0.6,1.4,1.1,3,1.7,4.6c0.3,0.7,0.8,1.9,1.3,2.6
		c0.7,0.9,1.3,1.5,1.3,1.5c0,0-0.3-0.2-1.2-0.4c-2.2-0.4-3.7-0.6-5.1-1c-1.7-0.5-3.2-1.5-5.3-3.5c-1.9-1.8-2.9-5.3-2.8-5.2
		c0.3,0.2,0.9,1.6,2.8,3.1c0.7,0.5,1.7,0.9,2.6,1.3c1.3,0.6,2.3,1.2,3.3,1.8c0.6,0.4,1.2,0.9,1.9,1.4c0.7,0.5,1.2,0.7,1.3,0.7
		c0.4,0.5-1.2-0.8-2.1-2.4c-0.4-0.6-0.8-1.3-1.1-2.1c-0.4-1.3-0.4-2.8-0.7-4.2C73.7,58.2,73.4,57.3,73.2,56.5L73.2,56.5z"/>
	<path class="st0" d="M77.9,63.3c0.9,0.7,2.1,1.7,3.5,3c0.7,0.6,1.2,1.3,1.9,2c0.6,0.6,1.4,1.1,2,1.5c1.1,0.8,2.1,0.9,3.1,1.1
		c0.2,0-0.3,0.1-1.2,0.4c-0.9,0.3-2.2,0.7-4,1c-1.2,0.2-2.5,0.4-3.7,0.4c-2.2-0.1-4.5-0.7-6.2-2.1c-1.4-1.1-2-2.2-2.4-2.7
		c0,0,1.8,1.4,4.3,2c1.4,0.3,2.9,0.3,4.6,0.4c0.5,0.1,1.2,0,1.8,0.1c1.1,0.2,2,0.4,2.9,0.4c0,0-2.1-0.5-3.5-1.8
		C79.2,67.1,78.4,64.4,77.9,63.3L77.9,63.3z"/>
	<path class="st0" d="M76.4,72.9c0.6,0.6,1.1,1.1,1.7,1.5c4.8,3.3,8.7,1.4,11.5-0.5c1.2-0.8,1.7-1.4,2.7-1.8
		c0.4-0.2,0.8-0.3,1.5-0.4c0.9-0.1,2.4,0.3,3.4,0.8c0.2,0.1,1.8,1,3.3,2.2c1.4,1.1,2.8,2.6,3.5,3.4c0.1,0.1,1.5-1.1,1.4-1.1
		c-1-0.8-1.9-1.7-2.9-2.5c-0.8-0.6-1.8-1.2-2.6-1.7c-1-0.6-1.9-0.9-2.8-1.2c-0.8-0.3-1.7-0.5-2.7-0.6c-1.6-0.1-3.2-0.3-4.8,0.4
		l-6,2.5c-1.1-0.2-2.3,0.5-3.4,0.3C78.9,73.9,77.7,73.6,76.4,72.9L76.4,72.9z"/>
	<path class="st0" d="M114.1,25.3c0.6,0,1.3,0.5,2,0.8c1.1,0.6,2.3,1.2,3.3,2.2c1.4,1.4,1.9,4,2.3,5.3c0.1,0.2-0.6-0.3-1.5-1.2
		c-0.8-0.8-1.9-1.8-2.8-3C116,27.5,115.5,26.9,114.1,25.3L114.1,25.3z"/>
	<path class="st0" d="M120.1,28.4c0.7,0.3,1.4,1.3,1.8,2.7c0.2,0.5,0.3,1.3,0.5,1.8c0.2,0.7,0.3,1.5,0.5,2.1c0.2,1,0.5,1.8,0.7,2.5
		c0.1,0.4-0.3-0.9-1.5-2.3c-0.4-0.5-1.1-1-1.7-1.5c-0.4-0.3-0.9-0.5-1.2-0.8c-0.5-0.6-1.4-1.3-1.9-1.8c-0.4-0.5-0.4-0.9-0.4-0.7
		c0,0.4,0,1.2,0.3,1.9c0.2,0.6,0.6,1.1,0.8,1.4c0.6,0.9,1,1.3,1.7,1.9c1.2,1,2.2,1.9,2.5,2.1c0.8,0.6,1.5,1.5,1.9,2.1
		c0.2,0.3,0.3,0.6,0.3,0.4c0-0.9,0.2-2.3,0.2-4.7c0-1.4-0.2-2.8-0.7-3.9c-0.3-0.6-0.7-1-1.2-1.6C122,29.1,121.1,28.4,120.1,28.4
		L120.1,28.4z"/>
	<path class="st0" d="M125.2,32.7c0.1,0.3,0.4,1,0.5,1.9c0.1,0.8,0.1,1.7,0.1,2.4c0,1.1-0.3,2.2-0.4,3.3c-0.1,1.6,0,3,0.1,4.2
		c0,0.1-0.2-1.4-0.9-2.7c-0.4-0.8-0.9-1.5-1.5-2.1c-1.2-1.1-2.3-2.4-3.1-3c0,0,0.2,1.7,1,3.4c0.7,1.5,2,2.9,2.1,3
		c0.3,0.3,0.6,0.9,1,1.5c0.4,0.6,0.8,1.3,1,1.9c0.4,0.9,0.5,1.6,0.5,1.6c0.4-1,0.4-1.9,0.7-2.8c0.3-1.1,0.9-2.1,1.2-3.4
		c0.1-0.8,0.3-1.6,0.3-2.5c0-1-0.2-2.3-0.5-3.1C127,35.8,125.7,33,125.2,32.7L125.2,32.7z"/>
	<path class="st0" d="M121.7,42.5c0,0.5-0.1,1-0.1,1.5c0.1,2.3,0.7,4.1,1.2,5.8c0.4,1.3,1.1,2.6,1.1,4.4c0,1.6-0.2,2.7,0,2.4
		c0.1-0.2,0.9-1.4,1.7-2.4c1.4-1.7,2.4-2.8,3.1-5.1c0.5-1.7,0.6-3.5,0.5-5.2c-0.1-1.1-0.5-2.1-0.7-2.9c-0.1-0.3,0.2,0.8-0.1,2.2
		c-0.1,0.6-0.5,1.3-0.7,2.1c-0.3,1-1,1.9-1.4,2.9c-0.4,1.1-0.6,2.4-0.8,3.2c-0.4,1.3-0.6,2.1-0.6,2c0-0.7,0.2-1.4,0.3-1.9
		c0.1-1.2-0.1-2.3-0.8-3.9c-0.4-0.9-1-1.5-1.4-2.4C122.4,44.4,121.7,43.5,121.7,42.5L121.7,42.5z"/>
	<path class="st0" d="M129.2,50.7c-0.3,0.8-0.6,2-1.5,3.2c-1.1,1.4-3,2.9-4.1,4.3c-0.5,0.7-0.9,1.4-1.2,1.9c-0.4,0.5-0.7,0.8-0.9,1
		c-0.3,0.4,1.2-1.6,1.3-3.9c0.1-1.8-0.6-4-0.6-4.8c-0.1-1.5-0.2-2.7-0.3-2.2c-0.1,0.2-0.5,1.3-0.8,2.8c-0.3,1.6-0.5,3.7-0.5,4.3
		c0,1.5-0.2,3.1-0.6,4.5c-0.2,0.8-0.6,1.6-1,2.2c-0.3,0.5,5.6-3.3,7-4.8c1.5-1.7,2.8-3.4,3.2-5.7C129.3,52.6,129.1,51.7,129.2,50.7
		L129.2,50.7z"/>
	<path class="st0" d="M119.9,56.5c-0.6,0.6-0.9,1.2-1.3,1.7c-0.6,0.8-1.1,1.6-1.6,2.4c-0.6,1.4-1.1,3-1.7,4.6
		c-0.3,0.7-0.8,1.9-1.3,2.6c-0.7,0.9-1.3,1.5-1.3,1.5c0,0,0.3-0.2,1.2-0.4c2.2-0.4,3.7-0.6,5.1-1c1.7-0.5,3.2-1.5,5.3-3.5
		c1.9-1.8,2.9-5.3,2.8-5.2c-0.3,0.2-0.9,1.6-2.8,3.1c-0.7,0.5-1.7,0.9-2.6,1.3c-1.3,0.6-2.3,1.2-3.3,1.8c-0.6,0.4-1.2,0.9-1.9,1.4
		c-0.7,0.5-1.2,0.7-1.3,0.7c-0.4,0.5,1.2-0.8,2.1-2.4c0.4-0.6,0.8-1.3,1.1-2.1c0.4-1.3,0.4-2.8,0.7-4.2
		C119.3,58.2,119.6,57.3,119.9,56.5L119.9,56.5z"/>
	<path class="st0" d="M115.1,63.3c-0.9,0.7-2.1,1.7-3.5,3c-0.7,0.6-1.2,1.3-1.9,2c-0.6,0.6-1.4,1.1-2,1.5c-1.1,0.8-2.1,0.9-3.1,1.1
		c-0.2,0,0.3,0.1,1.2,0.4c0.9,0.3,2.2,0.7,4,1c1.2,0.2,2.5,0.4,3.7,0.4c2.2-0.1,4.5-0.7,6.2-2.1c1.4-1.1,2-2.2,2.4-2.7
		c0,0-1.8,1.4-4.3,2c-1.4,0.3-2.9,0.3-4.6,0.4c-0.5,0.1-1.2,0-1.8,0.1c-1.1,0.2-2,0.4-2.9,0.4c0,0,2.1-0.5,3.5-1.8
		C113.8,67.1,114.6,64.4,115.1,63.3L115.1,63.3z"/>
	<path class="st0" d="M116.6,72.9c-0.6,0.6-1.1,1.1-1.7,1.5c-4.8,3.3-8.7,1.4-11.5-0.5c-1.2-0.8-1.7-1.4-2.7-1.8
		c-0.4-0.2-0.8-0.3-1.5-0.4c-0.9-0.1-2.4,0.3-3.4,0.8c-0.2,0.1-1.8,1-3.3,2.2c-1.4,1.1-2.8,2.6-3.5,3.4c-0.1,0.1-1.5-1.1-1.4-1.1
		c1-0.8,1.9-1.7,2.9-2.5c0.8-0.6,1.8-1.2,2.6-1.7c1-0.6,1.9-0.9,2.8-1.2c0.8-0.3,1.7-0.5,2.7-0.6c1.6-0.1,3.2-0.3,4.8,0.4l6,2.5
		c1.1-0.2,2.3,0.5,3.4,0.3C114.1,73.9,115.4,73.6,116.6,72.9L116.6,72.9z"/>
	<path class="st2" d="M96.4,23.4c12.6,0,22.8,10.2,22.8,22.8C119.2,58.8,109,69,96.4,69c-12.6,0-22.8-10.2-22.8-22.8
		C73.6,33.7,83.9,23.4,96.4,23.4 M96.4,28c10,0,18.2,8.2,18.2,18.2c0,10-8.2,18.2-18.2,18.2s-18.2-8.2-18.2-18.2
		C78.2,36.2,86.4,28,96.4,28 M96.4,33.2c7.2,0,13.1,5.9,13.1,13c0,7.2-5.9,13-13.1,13c-7.2,0-13.1-5.9-13.1-13
		C83.4,39,89.2,33.2,96.4,33.2 M96.4,37.1c5,0,9.1,4.1,9.1,9.1c0,5-4.1,9.1-9.1,9.1c-5,0-9.1-4.1-9.1-9.1
		C87.3,41.2,91.4,37.1,96.4,37.1"/>
	<path class="st1" d="M96.4,41.6c2.5,0,4.6,2.1,4.6,4.6c0,2.5-2.1,4.6-4.6,4.6c-2.5,0-4.6-2.1-4.6-4.6
		C91.8,43.7,93.9,41.6,96.4,41.6L96.4,41.6z"/>
	<path class="st0" d="M99.2,27.1c0.4,0,1.3,0.1,1.6,0c0.7-0.3,1-0.6,0-0.9c-0.8-0.3-1.1-0.2-2-0.1c-0.5,0.1-0.7,0.5-1.2,0.5
		c-0.3,0-0.3,0.5-0.1,0.7C98.1,27.6,99.2,27.4,99.2,27.1L99.2,27.1z"/>
	<path class="st0" d="M107,28.6c-0.4,0-0.5,0.2-0.2,0.5c0.3,0.4,1.1,0.9,1.1,0.8c0-0.2-0.1-0.6,0-0.8c0.1-0.1-0.2-0.2-0.5-0.3
		C107.3,28.7,107.2,28.6,107,28.6L107,28.6z"/>
	<path class="st0" d="M106.4,29.4c-0.3,0-0.8,0.1-1.2,0.2c-0.2,0-0.4,0-0.4,0.1l-0.1,2.2c0,0.3,0.5,0.4,0.6,0.6
		c0,0.1-0.1,0.2-0.1,0.3c0,0.2,0.2,0.5,0.2,0.8c0,0.3-0.1,0.5,0,0.7c0,0,0.5-0.4,0.8-0.5c0.2-0.1,0.3,0.2,0.4,0.2
		c0.2,0,0.6,0.7,0.6,0.9c0,0.3-0.2,0.5-0.1,0.7c0.1,0.5,0.4,0.7,1.1,0.8c0.3,0,0.4,0.4,0.6,0.6c0.3,0.4,0.7,0.8,1.3,0.7
		c0.3,0,0.8,0.7,1,1.1c0.2,0.4,0.3,0.7,0.7,0.8c0.2,0,0.4-0.2,0.7,0c0.8,0.3,1.1,0.4,0.9-0.5c-0.2-1.4-0.7-1.8-1-2.3
		c-0.5-0.9-0.9-1.4-2-2.5c-0.7-0.8-1.4-2.1-1.7-3c-0.1-0.2-0.3-0.3-0.5-0.5c-0.3-0.3-0.6-0.6-0.9-0.7c-0.1,0-0.1-0.2-0.3-0.3
		C106.8,29.6,106.7,29.5,106.4,29.4L106.4,29.4z"/>
	<path class="st0" d="M104.5,33.7c-0.1-0.1-0.7-0.8-0.6-0.7l0.5,1.6c0.1,0.3,0,1,0,1.1c0,0.1-0.1,0.2-0.1,0.3c0.5,0.8,0.6,0.4,1,0.9
		c0.1,0.1,0.3,0.2,0.4,0.2c0.2,0,0.6,0.7,0.6,0.9c0,0.1,0.7,0.8,1.1,1.5c0.2,0.4-0.3,0.8-0.2,1.1c0.1,0.3,0.6,0.5,0.7,0.5
		c0.3,0.3,0.8,0.7,1,1.2c0.1,0.3,0,0.7,0,1.1c-0.2,0.9-1.3,1.6-0.7,1.6c0.6,0,1.4-0.7,1.7-1.7c0.1-0.5,0-1,0-1.6
		c0-0.1,0.2-0.5,0.2-0.6c0-0.3-0.2-0.8-0.4-1c-0.1-0.1-0.3-0.1-0.4-0.3c-0.1-0.2,0.3-0.5,0.3-0.6c-0.1-0.2-0.4,0-0.5-0.3
		c0-0.1,0.3-0.3,0.3-0.5c0-0.1-0.3-0.1-0.4-0.2c-0.1-0.1-0.6,0.3-0.7,0.3c-0.2-0.1-0.1-0.5-0.3-0.6c-0.6-0.5-1.1-1.3-1.4-1.9
		c-0.1-0.2-0.5-1.1-0.6-1.3c-0.1-0.1-0.1-0.3-0.1-0.4c-0.3-0.3-0.5-0.1-0.7-0.3C104.9,34.1,104.7,33.9,104.5,33.7L104.5,33.7z"/>
	<path class="st0" d="M98.6,61c0-0.2,0-0.4-0.2-0.4c-0.2-0.1-0.6,0-0.9,0c-0.9-0.2-1.9-0.3-2.2-0.6l-1.1-1.2c-0.5-0.5-1.2-1-1.2-1.7
		c0-0.3,0-0.2,0.2-0.6c0.1-0.2,0.1-0.4,0.2-0.6c0.2-0.3,0.4-0.2,0.6-0.4c0.4-0.4,1-1.3,1.4-1l0.3,0.3l0.5,0l0.5-0.3l0.8,0
		c0.3,0,1,0.7,1.4,0.6c0.4-0.1,0.5-0.4,0.8-0.6c0.3-0.3,0.9-0.5,1.2-0.4c0.3,0,0.6,0.4,0.9,0.5c0.5,0.2,0.9,0.1,1.2,0.4
		c0.8,0.5,1.4,1.2,2.3,1.4c0.3,0.1,0,0.5,0,0.8c0,0.2,0.2,0.4,0.4,0.4c0.2,0,0.4,0.1,0.5,0.2c0.2,0.1,0.3,0.3,0.3,0.6
		c0,0.4-0.5,0.4-0.7,1.1c-0.1,0.2,0.3,0.4,0.3,0.7c0,0.5-0.4,1.3-0.5,1.5c-0.3,0.7-0.8,1.2-1.3,1.8c-0.4,0.6-1,1.1-1.6,1.4
		c-0.4,0.2-0.8,0.3-1.1,0.1c-0.6-0.4-1.1-1.2-1.7-1.6c-0.4-0.2-0.7-0.5-1-0.8c-0.3-0.2-1-0.6-0.7-1.2L98.6,61L98.6,61z"/>
	<path class="st0" d="M108.7,56.3c0.1,0.2,0.2,0.5,0.3,0.7c0.2,0.5,0.5,0.9,0,1c-0.4,0.1-0.4,0.7-0.7,0.7c-0.3,0-0.3-0.2-0.4-0.3
		c-0.3-0.3-0.2-0.8,0-1.6c0-0.2,0.1-0.6,0.2-0.9C108.1,55.7,108.2,55.6,108.7,56.3L108.7,56.3z"/>
	<path class="st0" d="M80,51.2c0,0.1-0.8-0.1-1.6-0.2c-0.1,0-0.2-0.5-0.3-0.5c-0.4,0.1-0.3,0.3-0.7,0.5c-0.4,0.2-0.9-0.3-1.1,0.1
		c-0.2,0.3-0.5,0.8-0.4,1.4c0.1,0.6,0,1,0.5,1.5c0.3,0.3,0.2,0,0.7,0.3c0.1,0.1,0.2,0.3,0.3,0.4c0.2,0.1,0.4-0.2,0.6,0
		c0.2,0.1,0.3,0.3,0.5,0.4c0.3,0.2,0.6,0.3,1,0.5c0.2,0.1-0.1,0.3,0.1,0.5c0.3,0.2,0.5,0.4,0.8,0.6c0.1,0.1,0.2-0.2,0.3-0.2
		c0.2,0.1,0.1,0.4,0.4,0.5c0.2,0.1,0.2,0.4,0.4,0.4c0.2,0.1,1.3,1.2,1.5,1.3c0.8,0.3,1-0.2,1.6-0.3c0.3-0.1,0.5,0.5,0.9,0.5
		c0.4,0,0.9-0.4,1.2-0.4c0.2,0,1.4-0.1,1.5-0.1c0.4-0.3,0.1-0.1,0-0.9c-0.1-1-1.5-1-2-2.4c-0.1-0.3,0.7-0.5,0.6-0.9
		c-0.2-0.4-0.4-0.8-0.6-1.2c-0.2-0.4,0.1-1.2-0.1-1.5c-0.4-0.7-0.1-2-0.8-2.2c-0.3-0.1-0.5-1.5-0.8-1.5c-0.2-0.1-0.1,1.3-0.4,1.3
		c-0.6,0-1.3-1.3-1.9-1.2c-0.5,0-1.2,0.5-1.5,1.1C80.3,49.5,80.2,50.8,80,51.2L80,51.2z"/>
	<path class="st0" d="M84.4,47.9c0-0.4,0.7-0.4,1-0.3c0.2,0.1,0-0.3,0.1-0.5c0-0.4,0.3-1.8,0.6-2c0.3-0.1,0.8,0,1,0.1
		c0.5,0.3,0,1.4,0.1,2c0.1,0.6-0.9,0.2-0.5,0.4c0.2,0.1-0.2-0.5-0.5-0.3c-0.1,0.1,0,0.3,0,0.5c0,0.2-0.1,0.4,0.1,0.5
		c0.1,0-0.8,0.1-0.7,0.1c0.3,0.1,0.1,0.6,0.6,0.7c0.2,0,0.2-0.4,0.3-0.6c0.1-0.3-0.1-0.4,0.1-0.4c0.2,0,0,0,0.3,0
		c0.1,0,0.4,0,0.6,0.1c0.6,0.1,1.2,0.1,1.7,0.3c0.2,0.1,0.1,0.2,0.1,0.3c0.1,0.1,0.3,0.2,0.5,0.1c0.2-0.1,0.1,0.2,0.2,0.6
		c0,0.1,0.1,0.4,0.5,0.3c0.1,0-0.3-0.4,0.1-0.5c0.1,0,0.1,1,0.5,1c0.6,0,0.6-0.5,0.6-0.8c0-0.3,0.5,0.2,0.8,0.1
		c0.5-0.2,0.4-0.5,0.4-1.2c0-0.2,0.3,0.2,0.4,0.1c0.1-0.2,0.1-0.5,0.3-0.8c0.1-0.2,0.4-0.4,0.4-0.6c0-0.3-0.5-0.3-0.7-0.5
		c-0.2-0.2,0-0.4,0-0.6c0-0.4,0.1-0.8,0.4-1c0.4-0.3,0.9-0.9,1.2-1c0.3,0,0.5,0.1,0.7-0.3c0.2-0.4-0.1-0.6,0-1.2
		c0-0.4,0.2,0.5,0.5,0.8c0.3,0.5,0.7,0.5,0.8,0.4c0,0,0.2-0.3,0.4-0.2c0.3,0.1,0.5,0.8,0.9,1.1c0.1,0.1,0.2,0.4,0.2,0.7
		c0,0.1-0.5,0.5-0.4,0.6c0,0.2,0.2,0.2,0.4,0.3c0.1,0,0.3,0.3,0.4,0.6c0.1,0.4,0.1,1,0.2,0.8c0.1-0.1,0.3,0.7-0.1,0.9
		c-0.3,0.2-1.1,0.3-1.4,0.4c-0.8,0.5-0.5,0.9-0.4,0.9c0.1,0-0.5,0.3-0.8,0.3c-0.4,0.1-1.6-0.2-1.4-0.1c0.3,0.1,1,0.9,1,1.7
		c0,0.6-0.2,1.2,0.3,1.3c0.2,0.1,0.7,0,1.2-0.1c1-0.2,2.3-0.5,2.4-0.7c0.1-0.2,0.4-0.3,0.6-0.3c0.3-0.1,0.4-0.2,0.4,0.1
		c0,0.2-0.3,0.2-0.4,0.3c-0.2,0.1-0.5,0-1.7,0.4c-0.4,0.1-1.1,0.2-1.8,0.3c-0.6,0.1-1.2,0.2-1.6,0.3c-0.2,0.1,0,0.2-0.1,0.3
		c-0.5,0.2-0.2,0.8-0.2,0.8c-0.1,0.1-0.1,0.6,0.6,0.3c0.5-0.2,1.6-1.3,2-1.3c0.3-0.1,0.3,0.3,0.4,0.3c0.2,0.1,0.3,0.3,0.6,0.3
		c0.1,0,0.1-0.4,0.2-0.4c0.2,0,0.5,0.3,0.7,0.3c0.1,0,0.1-0.3,0.2-0.4c0.4-0.1,0.7-0.2,0.9-0.4c0.2-0.2,0.6,0,0.7,0.1
		c0.1,0.2-0.6,0.7-0.4,1c0.2,0.2,0.6,0,1.1,0c0.5,0,1,0.3,1.4,0.3c0.6,0,1,0.4,1.3,0.2c0.1-0.1,0.4-1.4,0.5-1.6
		c0.4-0.5,0.4-1.6-0.3-1.8c-0.3-0.1-0.6,0.7-1.1,1c-0.3,0.1-0.7,0-1-0.1c-0.2,0,0.3,0,0.5-0.1c0.3-0.1,0.5-0.2,0.5-0.2
		c0.1,0,0.8-0.4,1.2-0.9c0.3-0.3,0.5-0.7,0.6-0.7c0.2-0.1,0.4,0.1,0.5,0.1c0.1,0,0.2-0.3,0.3-0.3c2.3-0.1,3.4-0.1,4.1-0.4
		c0.8-0.4-0.2-1-0.8-1.1c-0.2,0-0.7,0.7-0.6,0.7c0.2-0.1-0.2-0.6-0.8-1.1c-0.2-0.3-0.4-0.6-0.7-1c-0.1-0.1-0.2-0.1-0.3-0.2
		c-0.1-0.5,0.8-0.9,0.7-1.6c-0.1-0.5-0.4-0.3-0.4-1c0-0.7-0.1-0.8,0.3-0.9c0.5-0.2,0.3-0.6,0.5-0.8c0.1-0.1-0.4-0.5-1-0.7
		c-0.2-0.1-0.5,0.3-0.7,0.3c-0.2,0-0.3-0.3-0.3-0.4c0-0.3,0-0.7-0.4-0.9c-0.1-0.1-0.3-0.4-0.6-0.4c-0.5-0.1-1.1,0.1-1.8-0.1
		c-0.8-0.2-1.7-0.8-2-0.9c-0.1,0-0.7,0.5-0.7,0.9c0,0.3,0.6,0.3,0.6,0.3c-0.2-0.2-0.9,0.4-1.5,0.9c-0.4,0.4-0.8,0.9-0.9,0.8
		c-0.4-0.3-0.6-0.6-0.7-0.6c-0.3,0-0.7,0.2-0.6,0.1c0.3-0.3,0.8-0.5,1-0.7c0.3-0.2,0.3-0.4,0.4-0.5c0.3-0.1,0-0.5-0.1-0.6
		c-0.1-0.1,0.1-0.4-0.1-0.3c-0.4,0.1-1.1,0.8-1.2,0.8c-0.8-0.3-2.2-0.2-2.7-0.1c-0.3,0.1-0.3-0.4-0.5-0.4c-0.9,0.3-0.2,0.7-0.7,1.2
		c-0.1,0.1-0.5,0.2-0.8,0.3c-0.1,0-0.3-0.1-0.3-0.1c-0.3,0.1-0.3-0.3-0.6-0.2c-0.3,0.1-0.1,0.3-0.3,0.3c-0.3-0.1-0.1-0.4-0.1-0.6
		c0-0.1-0.2-0.2-0.4-0.3c-0.7-0.2-0.5-0.2-1.3-0.5c-0.1-0.1-0.5-0.3-0.7-0.2c-0.3,0.1-0.5,0.6-0.8,0.8c-0.3,0.2-0.5,0.1-0.7,0.3
		c-0.2,0.2-0.3,0.5-0.5,0.7c-0.5,0.4-0.8,0-0.9,0.6c0,0.1-0.1,0.3-0.3,0.4c-0.2,0.1-0.3-0.1-0.5,0.1c-0.2,0.1-0.3,0.4-0.3,0.5
		C85,43.5,85,44.4,84.9,45c-0.1,0.6-0.4,1.2-0.4,1.6c0,0.1-0.4,0.5-0.4,0.8c-0.1,0.4-0.1,0.7,0,1c0.1,0.3,0.1,0.4,0.2,0.3
		C84.4,48.6,84.4,48.1,84.4,47.9L84.4,47.9z"/>
	<path class="st0" d="M94.3,47.3c0-0.2-0.1-0.5,0.1-0.6c0.4-0.3,1.2-0.2,1.4-0.1c0.2,0.1,0.5,0.4,0.4,0.7c0,0.3-0.3,0.6-0.4,0.9
		c-0.2,0.3-0.1,0.7-0.4,0.9c-0.2,0.1-0.9,0-1.1,0c-0.1,0,0.2,0.3,0.2,0.4c0.5,1.2-1.6-0.3-1.3-1.2c0-0.1,0.2,0,0.4-0.1
		C93.9,48,94.2,47.5,94.3,47.3L94.3,47.3z"/>
	<path class="st0" d="M104.8,55c0.9-1.2,0.5-1.2,0.9-1.3c0.1,0,0.1,0.1,0.2,0.4c0,0.1,0,0.4,0.1,0.5c0.1,0.1,0.3,0,0.5,0.1
		c0.2,0.1,0.3,0.3,0.6,0.3c0.1,0-0.6,0.3-0.7,0.6c-0.1,0.2,0.3,0.4-0.5,0.3C105.1,55.7,105.1,54.9,104.8,55L104.8,55z"/>
	<path class="st1" d="M91.7,45.9c-0.3,0.2-0.3,0.2-0.3,0.6c0,0.2-0.4,0.2-0.4,0.4c0,0.1-0.2,0.4-0.1,0.3c0.2-0.3,0.6-0.2,0.7-0.2
		c0.1,0.1,0.2,0,0.3,0c0.2,0,0.6,0.2,0.6-0.1c0-0.2,0.5-0.1,0.5,0c0,0.2,0.2,0.4,0.3,0.2c0.1-0.1,0.2-0.2,0.1-0.3
		c0-0.1-0.4-0.1-0.4-0.1c-0.3,0.1-0.2-0.3-0.3-0.5c-0.1-0.3-0.4,0-0.6-0.2C91.9,45.8,92,45.8,91.7,45.9
		C91.7,45.8,91.7,45.9,91.7,45.9L91.7,45.9z"/>
	<polygon class="st3" points="53,98.6 95.2,98.6 95.2,140.6 53,140.6 53,98.6 	"/>
	<polygon class="st3" points="53,143.1 95.2,143.1 95.2,185.1 53,185.1 53,143.1 	"/>
	<polygon class="st3" points="97.6,98.6 139.8,98.6 139.8,140.6 97.6,140.6 97.6,98.6 	"/>
	<polygon class="st3" points="97.6,143.1 139.8,143.1 139.8,185.1 97.6,185.1 97.6,143.1 	"/>
	<polygon class="st4" points="128.5,130.8 128.2,104.9 131.1,104.9 131.1,134.3 127.6,134.3 111.5,108.4 111.8,134.3 108.9,134.3 
		108.9,104.9 112.4,104.9 128.5,130.8 	"/>
	<path class="st4" d="M66.5,152.2v23.8h6c3.7,0,6.6-1,8.6-3.1c2-2.1,3-5.1,3-8.9c0-1.9-0.3-3.7-1-5.3c-0.7-1.6-1.7-3-3-4.1
		c-1-0.8-2-1.4-3.2-1.8c-1.2-0.4-2.9-0.5-5.2-0.5H66.5L66.5,152.2z M63.6,149.4H72c2.3,0,4.2,0.2,5.8,0.7c1.6,0.5,3,1.2,4.2,2.2
		c1.7,1.4,3,3.1,3.9,5.2c0.9,2,1.4,4.2,1.4,6.6c0,2.6-0.5,5-1.5,7.1c-1,2.1-2.5,3.9-4.3,5.2c-1.2,0.9-2.6,1.5-4,1.9
		c-1.4,0.4-3.7,0.6-6.7,0.6h-7.1V149.4L63.6,149.4z"/>
	<path class="st4" d="M114.1,152.3v11.2h4.3c2.4,0,4.1-0.4,5.3-1.4c1.1-0.9,1.7-2.3,1.7-4.2c0-2-0.6-3.4-1.7-4.3
		c-1.1-0.9-3-1.4-5.5-1.4H114.1L114.1,152.3z M111.3,149.4h6.2c1.8,0,3.2,0.1,4.3,0.3c1.1,0.2,2,0.5,2.7,0.9c1.3,0.8,2.3,1.8,3,3
		c0.7,1.2,1,2.6,1,4.2c0,1.5-0.3,2.8-0.9,4.1c-0.6,1.3-1.5,2.3-2.6,3c-0.8,0.5-1.7,0.9-2.8,1.1c-1.1,0.2-2.5,0.4-4.2,0.4h-3.9v12.4
		h-2.9V149.4L111.3,149.4z"/>
	<path class="st4" d="M65.8,104.6h2.9v18.6c0,1.4,0.1,2.5,0.2,3.2c0.1,0.7,0.3,1.3,0.6,1.9c0.5,1.1,1.3,2,2.3,2.6c1,0.6,2.2,1,3.4,1
		c2.2,0,3.9-0.8,4.9-2.3c1.1-1.5,1.6-3.9,1.6-7v-18h2.8v18.7c0,3.8-0.8,6.7-2.3,8.5c-1.5,1.9-3.8,2.8-6.9,2.8
		c-3.3,0-5.7-0.9-7.3-2.7c-1.6-1.8-2.3-4.7-2.3-8.6V104.6L65.8,104.6z"/>
</g>
</svg>
