<?xml version="1.0" encoding="utf-8"?>
<!-- Generator: Adobe Illustrator 23.0.1, SVG Export Plug-In . SVG Version: 6.00 Build 0)  -->
<svg version="1.1" id="Layer_1" xmlns="http://www.w3.org/2000/svg" xmlns:xlink="http://www.w3.org/1999/xlink" x="0px" y="0px"
	 viewBox="0 0 455.2 314.8" style="enable-background:new 0 0 455.2 314.8;" xml:space="preserve">
<style type="text/css">
	.st0{fill:#F8991C;}
	.st1{fill:#559FD3;}
	.st2{fill:#FFFFFF;}
</style>
<g>
	<path class="st0" d="M128.6,157.4c0,12.7-10.3,22.9-22.9,22.9c-12.7,0-23-10.3-23-22.9c0-12.7,10.3-22.9,23-22.9
		S128.6,144.8,128.6,157.4"/>
	<path class="st0" d="M128.6,239.2c0,12.7-10.3,22.9-22.9,22.9c-12.7,0-23-10.3-23-22.9c0-12.7,10.3-22.9,23-22.9
		C118.4,216.2,128.6,226.5,128.6,239.2"/>
	<path class="st0" d="M128.6,75.8c0,12.7-10.3,22.9-22.9,22.9c-12.7,0-23-10.3-23-22.9c0-12.7,10.3-23,23-23
		C118.4,52.8,128.6,63.1,128.6,75.8"/>
	<path class="st0" d="M45.9,157.4c0,12.7-10.3,22.9-22.9,22.9c-12.7,0-23-10.3-23-22.9c0-12.7,10.3-22.9,23-22.9
		C35.6,134.5,45.9,144.8,45.9,157.4"/>
	<path class="st0" d="M45.9,239.2c0,12.7-10.3,22.9-22.9,22.9c-12.7,0-23-10.3-23-22.9c0-12.7,10.3-22.9,23-22.9
		C35.7,216.2,45.9,226.5,45.9,239.2"/>
	<path class="st0" d="M45.9,75.8c0,12.7-10.3,22.9-22.9,22.9c-12.7,0-23-10.3-23-22.9c0-12.7,10.3-23,23-23
		C35.7,52.8,45.9,63.1,45.9,75.8"/>
	<path class="st0" d="M214.1,239.2c0,12.7-10.3,22.9-23,22.9s-22.9-10.3-22.9-22.9c0-12.7,10.3-22.9,22.9-22.9
		C203.8,216.2,214.1,226.5,214.1,239.2"/>
	<path class="st0" d="M214.1,75.8c0,12.7-10.3,22.9-23,22.9s-22.9-10.3-22.9-22.9c0-12.7,10.3-23,22.9-23
		C203.8,52.8,214.1,63.1,214.1,75.8"/>
	<path class="st1" d="M196.8,158.9c-0.4-0.2-0.6,0.1-0.6,0.1l-0.5,0.4c0,0-0.1,0.2,0,0.3s0.4-0.1,0.4-0.1l0.5-0.3l0.4-0.1
		C196.9,159.2,197.2,159,196.8,158.9 M209.8,152.4c0,0.9-0.2,1.7-0.3,2.6c0.1,0.3,0.6,0.6,0.7,0.9c0,0.3-0.5,0.7-0.7,0.4
		c-0.1-0.1-0.2-0.2-0.3-0.2c-0.8,3-2.3,5.8-4.4,8l1.5,1.5c0.1-0.2,0.1-0.3,0.1-0.5c-0.1-0.5,0.1-0.7,0.2-0.7c0.1,0,0.8,0,1,0.7
		c0.1,0.2,0.1,0,0.2,0.4c-0.1,0.2,0.1,0.7,0.1,0.7s0.1,0.2,0.1,0.4c0,0.1,0,0.2-0.1,0.5c3.7-3.9,6-9,6.2-14.7
		C214.1,152.4,209.8,152.4,209.8,152.4z M204.2,170.3c0.9-0.6,1.7-1.3,2.5-2l-0.1-0.1c-0.2,0-0.3,0-0.4-0.1
		c-0.1-0.1-0.2-0.3-0.2-0.5l-2.3-2.3c-0.2,0.3-0.5,0.5-0.5,0.5v0.6c1.4,0.7,1.8,1.3,1.8,1.6s-1,1.2-1,1.4c0,0.3,0.4,0.5,0.4,0.7
		C204.3,170.2,204.2,170.2,204.2,170.3 M192,170.4v3.9c1.2,0,2.3-0.2,3.4-0.4c-0.7-0.5-0.9-0.5-1.1-0.6c-0.2-0.2-0.4-0.5-0.7-1.1
		c-0.2-0.6,0.5-0.7,0.3-1.1c-0.2-0.5-1.6-0.3-1.6-0.3S192.6,171,192,170.4 M190.3,170c-4.4-0.2-8.4-1.8-11.5-4.5
		c0.2,0.2,0.3,0.4,0.5,0.5c0.9,0.8,1,1.2,0.9,1.6c-0.1,0.4-2,0.4-2,0.4l0,0c-0.7,0.3-1.7,0.5-2.1,0.5c-0.2,0-0.3-0.2-0.5-0.3
		l-0.2,0.2c3.9,3.5,9.1,5.7,14.8,5.9V170H190.3z M172.5,154c-0.1-0.5-0.1-1-0.2-1.6H168c0.1,2.1,0.4,4.2,1.1,6.1l0,0
		c0.2-0.1,0-0.2,0.1-0.4c0.1-0.2,0.3,0,0.3-0.2c0.1-0.2-0.1-0.2-0.1-0.4s0.2-0.2,0.2-0.4c0-0.2-0.1,0.1-0.2-0.3
		c0-0.4,0.2-0.8,0.2-0.8s0.2-0.3,0.3-0.7c0.2-0.4,0.9-0.6,1.2-0.9c0.1-0.1,0.2-0.5,0.7-0.6C172.2,153.8,172.3,153.9,172.5,154
		 M172.3,150.7c0.2-4.6,2.1-8.7,5-11.8l-3-3c-3.8,3.9-6.1,9.1-6.3,14.8H172.3z M178.5,137.8c3.1-2.8,7.2-4.6,11.8-4.7v-4.3
		c-5.7,0.2-10.9,2.4-14.8,5.9L178.5,137.8z M192,133.1c3.5,0.2,6.7,1.3,9.5,3.1c-0.1-0.2-0.3-0.5-0.3-0.6c-0.1-0.2,0.2-0.3,0.2-0.3
		c-0.5-0.7-0.6-1-0.4-1.1c0.2-0.1,0.7,0.3,0.9,0.7c0.3,0.4,0.6,0.9,0.8,0.9s0.7,0,0.8,0.4c0.1,0.4,0.3,0.5,0.4,1.1
		c0,0.1,0,0.2,0.1,0.3l1.3-1.3c-0.1-0.3-0.3-0.6-0.7-0.8l-0.9,0.3c0,0-0.3,0.2-0.4,0c-0.1-0.2-0.1-0.7-0.1-0.7s-0.3-0.2-0.3-0.4
		s0.2-0.8,0-1c-0.1-0.2-0.4-0.4-0.4-0.4s-0.1-0.7-0.3-1.1c-0.1-0.3-0.9-0.9-0.9-0.9v-0.1c-2.8-1.4-5.9-2.1-9.2-2.3v4.2H192z
		 M205,139.1c0.1,0.1,0.2,0.2,0.3,0.4c0.3,0.4,0.7,0.8,1,1.2c0.1,0.2,0.3,0.4,0.4,0.6c0.1,0,0.3-0.2,0.4-0.3c0.3-0.2,0.5,0,0.5,0.3
		c0.1,0.4-0.5,0.3-0.3,0.7c0.1,0.1,0.6,0,0.7,0c0.1,0,0.2,0.3-0.1,0.5c-0.1,0.1-0.3,0.2-0.3,0.4c0.1,0.1,0.1,0.2,0.2,0.3
		c0.3,0.1,0.7-0.1,0.7,0.3c0,0.5,0.3,0.8,0.4,1.2c0,0.3-0.1,0.4-0.2,0.6c0.2,0.5,0.3,0.9,0.4,1.4c0.1-0.1,0.3-0.1,0.4-0.1v0.1
		c0,0,0.1,0.4,0,0.6c0,0.2-0.1,0.5-0.1,0.7s0.1,0.4,0.1,0.7c0.1,0.3,0.1,0.6,0.2,0.9h-0.1c0.1,0.4,0.1,0.7,0.1,1.1h4.4
		c-0.1-2.9-0.8-5.6-1.9-8.2c-0.1,0-0.1,0-0.2,0c0,0-0.3,0.3-0.6,0.3s-0.4-0.4-0.4-0.4s-1.2-1.6-1.4-1.7c0,0-0.2-0.2-0.7-0.3
		c-0.5,0-0.4-0.3-0.4-0.3s-0.6-0.3-1-0.4l-0.3-0.7c0,0,0-0.2,0-0.4c-0.1-0.1-0.9-0.1-0.9-0.1s-0.4-0.2-0.6-0.4l-0.7,0.7
		C205,139,205,139,205,139.1 M222,151.6c0,16.8-13.8,30.5-30.9,30.5s-30.9-13.6-30.9-30.5c0-16.8,13.8-30.5,30.9-30.5
		C208.2,121.1,222,134.7,222,151.6 M191.2,146.4L191.2,146.4c-0.5,0-0.8,0-1.2,0.1c0.1,0,0.2,0.1,0.1,0.2c-0.1,0.2,0.2,0.9,0.2,0.9
		c-0.4,0.8-1.9,1-1.9,1c-0.2,0.2-0.1,0.5-0.5,0.7c-0.3,0.2-0.5,0.3-0.6,0.5c-0.1,0.3-0.1,0.5-0.2,0.8c-0.1,0.3,0.1,0.4,0,0.6
		s-0.2,0.8-0.3,1s-0.4-0.1-0.5-0.1c-0.2-0.1-0.3-0.9-0.4-1h-0.1c0,0.1,0,0.2,0,0.4c0,0.4,0,0.7,0.1,1c0.2-0.1,0.2-0.2,0.2-0.2
		c0.5,0,0.2,0.3,0.4,0.3s0.4-0.1,0.4-0.6s0.4-0.5,0.6-0.5c0.1,0,0,0.3,0.1,0.5c0.1,0.1,0.2,0,0.2,0.3s-0.5,0.6-0.6,1.1
		s-0.2,0.5-0.4,0.6c-0.3,0-0.2-0.5-0.4-0.3c-0.1,0.2,0.3,0.7,0.3,0.7c0.3-0.2,0.4-0.5,0.5-0.7s0.3-0.2,0.5-0.3
		c0.2-0.1,0.3-0.9,0.2-1c0-0.2,0.3-0.1,1.4-0.2c1.2-0.1,1.1,0.3,1,0.6c-0.1,0.4,0.2-0.1,0.2,0.3c0,0.4-0.4,0.7-0.6,1
		c-0.1,0.3,0.2,0.4,0,0.5c-0.1,0.1-0.2,0.3-0.2,0.3c-0.6,0.7-0.7,0.3-1,0.4c-0.4,0.2-0.8,0.1-0.8,0.1c-0.1,0-0.1,0-0.2,0.1
		c0.9,0.6,2,1,3.1,1c0.3,0,0.5,0,0.8-0.1c0.1-0.6,0.3-1.5,0.8-1.8s1,0.1,1.3,0c0.3-0.1,0.3-0.4,0.4-0.5c0.1-0.1,0.3-0.6,0.1-1
		c-0.1-0.3-0.4-0.2-0.4-0.4c-0.1-0.2,0.4-0.2,0.2-0.5c-0.4-0.5-0.3-0.9-0.5-1c-0.1-0.1-0.2,0-0.4-0.2s0.1-0.4,0.1-0.6
		c0-0.3,0.4-0.3,0.3-0.5c0-0.2-0.2,0-0.3-0.3c0-0.2,0.2-0.6,0.2-0.6s-0.6,0-0.7-0.2c-0.1-0.2-0.4-0.7-0.9-1
		c-0.4-0.2-1.1-0.1-1.1-0.1c-0.1-0.4-0.6-0.7-0.6-0.7c-0.4-0.5-0.2-0.5,0.1-0.7C190.7,146.3,191.1,146.6,191.2,146.4L191.2,146.4
		 M209.1,134.8c1,1,1.9,2.1,2.7,3.3c0.2,0.2,0.6,0.6,0.7,0.8c0,0.1,0,0.2,0.1,0.3c0.1,0.1,0.1,0.2,0.2,0.4l0.1,0.1
		c0.4,0.4,0.4,0.5,0.7,1c0.1,0.2,0.1,0.4,0.2,0.6c1.4,2.9,2.2,6.1,2.3,9.5h4.4c-0.2-7.4-3.2-14.1-8.1-19.1L209.1,134.8z
		 M192.6,127.1c3.6,0.2,7.1,1.2,10.1,2.8l0.9-0.4c0,0-0.3-0.1,0.1,0c0.4,0.1,0.3,0,0.8,0.2s0.5,0,0.7,0.1c0.2,0.1,0.3,0.4,0.5,0.6
		c0.3,0.2,0.2,0,0.5,0.2s0.8,0.6,0.9,0.9c0.1,0.2,0.3-0.1,0.5,1c0,0,0.4,0.4,0.6,0.7l2.8-2.8c-5-4.6-11.7-7.5-19-7.7v3.6
		c0,0,0.1,0,0.2,0c0.3,0.2,0.5,0.2,0.4,0.5V127.1z M174.3,133.5c4.3-3.9,9.8-6.2,16-6.4v-4.4c-7.4,0.2-14.1,3.1-19.1,7.7
		L174.3,133.5z M166.3,150.7c0.2-6.2,2.8-11.8,6.8-16l-3.1-3.1c-4.9,5-7.9,11.7-8.1,19.1H166.3z M173.1,168.4
		c-0.5-0.6-1-1.1-1.5-1.7c-0.4-0.2-0.4-0.3-0.9-0.6c-0.5-0.4-0.2-0.8-0.4-0.9c-0.1,0-0.1,0.2-0.2,0.3c0,0.1-0.3,0.1-0.6,0
		c-0.3-0.1-0.5-0.5-0.5-0.5c-0.5-0.4-0.4-0.8-0.5-1c-0.1-0.1-0.4,0-0.6,0c-0.2-0.1-0.2-0.3-0.3-0.4c-0.2-0.1-0.4,0-0.4,0
		c-0.1-0.2-0.6-0.8-0.6-0.9c0,0,0,0.4-0.4,0.4s-0.9-0.8-1.1-0.9c-0.2-0.1-0.2,0.2-0.5,0c-0.2-0.2-0.5-1-0.5-1.1
		c0-0.1-0.2-0.4-0.3-0.6s0-1.5,0.1-1.6c0.1-0.3,0.2,0,0.3-0.4c0.1-0.5,0.4-0.5,0.6-0.5c0.2,0,0.3,0.1,0.4,0.2c0.1,0.2,0.4,0,0.5,0
		c0.2-0.1,0-0.3,0-0.4c0-0.1,0.3-0.1,0.6-0.2c0.2-0.1,0.5-0.2,0.6,0v0.1c-0.4-1.7-0.7-3.4-0.7-5.1h-4.5c0.2,7.4,3.3,14.1,8.1,19.1
		L173.1,168.4z M190.3,176c-6.1-0.2-11.7-2.6-16-6.4l-3.1,3.1c5,4.6,11.7,7.5,19.1,7.7V176z M207.9,169.5c-1.4,1.3-2.9,2.4-4.5,3.3
		c0,0,0,0.1-0.1,0.1c-0.3,0.9-1,1.6-1.2,1.8c-0.2,0.3-0.3,0.1-0.6,0.4s-0.1,0.5-0.6,0.7c-0.4,0.1-0.7,0.3-0.7,0.3s-1.2,1.3-2.4-0.1
		c-0.2-0.1-0.6-0.2-0.9-0.5l-0.1-0.2c-1.6,0.4-3.2,0.6-4.9,0.6v4.4c7.3-0.2,14-3.1,19-7.7L207.9,169.5z M215.9,152.4
		c-0.2,6.2-2.8,11.7-6.8,15.9l3.1,3.1c4.8-5,7.9-11.7,8.1-19H215.9z M205.6,150.7h2.5c0-0.7-0.1-1.4-0.2-2c-0.1,0.2-0.2,0.4-0.4,0.6
		c-0.3,0.3-0.6,0.1-0.8,0.3c-0.3,0.1-0.1,0.4-0.1,0.6s0.2,0.1,0.1,0.4c-0.1,0.3-0.4,0.1-0.6,0.1C206,150.6,205.8,150.5,205.6,150.7
		 M200.6,143.3c0.2,0.2,0.4,0.5,0.6,0.7c0.1,0,0.2-0.1,0.5,0c0.5,0.1,1.3,0.2,1.7,0.3c0.5,0.1,0.6,1,0.9,1.1
		c0.3,0.1,0.2,0.2,0.2,0.5s-0.2,0.2-0.2,0.4c0.1,0.2,0.2,0.4,0.4,0.2s0.5-0.5,1-0.4c0.8,0.1,0.5,0.6,0.9,0.7
		c0.3,0.1,0.2,0.2,0.3,0.3c0.1,0.2,0,0.4-0.2,0.4c-0.2,0.1-0.2,0.2-0.2,0.4c0,0.1-0.2,0.3-0.2,0.5c0,0.1-0.2,0.5,0,0.5
		s0.3,0.2,0.5,0c0.1-0.2,0.8-0.8,0.8-1.2v-0.1c-0.2-0.7-0.4-1.3-0.7-2c-0.1-0.1-0.2-0.3-0.3-0.4c-0.3-0.2-1.4-0.8-1.6-1.1
		c-0.2-0.3,0-0.3,0.2-0.5c0.1-0.1,0.3-0.5,0.2-0.8c-0.1-0.1-0.2-0.3-0.3-0.5c-0.2-0.3-0.6-0.8-1-1.4c-0.2-0.2-0.4-0.5-0.6-0.7
		L200.6,143.3z M192,139c2.8,0.2,5.4,1.3,7.4,3.1l3.1-3.1c-2.8-2.5-6.5-4.1-10.5-4.3V139z M182.8,142.1c2-1.8,4.6-2.9,7.5-3v-4.3
		c-4.1,0.2-7.7,1.8-10.6,4.2L182.8,142.1z M180.7,144.3c0.3-0.4,0.6-0.7,0.9-1.1l-3.1-3.1c-2.6,2.8-4.3,6.5-4.5,10.6h1.9
		c-0.1-0.1-0.2-0.4-0.2-0.6s-0.1-1-0.1-1.1c0.1-0.1,0.2-0.3,0.3-0.4c0.1-0.2,0-0.4,0.1-0.5c0.1-0.1,0.2-0.3,0.4-0.5
		c0.1-0.2,0.1-0.6,0.5-0.8s0.5,0,0.8,0c0.3-0.1,0.3-0.4,0.3-0.4s-0.1-0.1,0.1-0.4c0.2-0.3,1.2-0.5,1.2-0.5s0-0.3,0.6-0.8
		C180.2,144.5,180.5,144.4,180.7,144.3 M178.4,150.7c0-0.2,0-0.4,0-0.6c-0.1-0.1-0.3-0.1-0.5-0.1c-0.5,0-0.9,0.3-0.9,0.7H178.4z
		 M175.4,152.4H174c0,1.1,0.2,2.1,0.4,3.1c0.2-0.1,0.2-0.3,0.2-0.4c0-0.2,0.2-0.1,0.3-0.3c0.1-0.1,0.1-0.1,0-0.2
		c-0.1-0.1-0.3-0.2-0.3-0.5c-0.1-0.3,0.1-0.5,0.2-0.7c0.1-0.3,0-0.4,0.1-0.7C175.1,152.5,175,152.7,175.4,152.4 M181.6,159.9
		c-1.5-1.6-2.5-3.6-3-5.8l-0.1-0.1c-0.2-0.3-0.5-0.2-0.5-0.2s-0.1,0.9-0.1,1c0,0-0.1,0.5-0.3,0.5s-0.3-0.3-0.3-0.3s-0.3,0-0.4-0.1
		c-0.1-0.1-0.4-0.4,0-0.7c0.3-0.3,0.3,0.2,0.5,0c0.2-0.3-0.3-1.5,0.1-1.5c0.3,0,0.6,0.5,0.7,0.6c0,0,0.2,0,0.3-0.1
		c0-0.3-0.1-0.6-0.1-0.9h-1.9c-0.1,0.2,0,0.9-0.2,1c-0.2,0.1-0.9-0.1-1,0.3c-0.1,0.6,0.2,0.3,0.2,0.8c0,0.4-0.2,0.2-0.1,0.6
		c0.1,0.4,0.8,0.6,0.9,1c0.1,0.5,0.3,0.7,0.4,0.9c0,0.1-0.3,0.4-0.1,0.7s0.4,0.9,0.4,1.1s0,0.8,0.2,1.7c0.2,0.9,0.2,0.3,0.5,0.9
		c0.1,0.3,0.2,0.6,0.2,0.9c0.2,0.2,0.4,0.4,0.5,0.6L181.6,159.9z M188.2,163.8c-2-0.5-3.8-1.4-5.4-2.7l-3.1,3.1
		c2.4,2.1,5.3,3.5,8.5,4c-0.5-0.3-0.8-0.5-0.9-0.5c0-0.1-0.2-0.4-0.7-1c-0.5-0.6-0.4-1-0.4-1c0.3-0.1,0.4-0.3,0.4-0.3
		s0.2-0.9,0.6-1.2C187.6,164,187.9,163.9,188.2,163.8 M198.1,162c-0.2,0.1-0.4,0.3-0.6,0.4c0,0,0,0,0.1,0c0.4,0.1,1.7,0.3,2.1,0.6
		c0.4,0.3,1.1,0.4,1.1,0.4c0.5-0.1,0.8-0.1,1-0.1l-0.6-0.6c-0.4-0.1-0.7-0.2-0.7-0.3c-0.6-0.3-0.4,0.1-0.9-0.1
		C199.2,162.2,198.5,162.1,198.1,162 M207.7,155.4c0.2-1,0.4-2,0.4-3h-2.6c0.2,0.2,0.4,0.3,0.5,0.4c0.3,0.3,0.2,0.6,0.2,0.8
		c0,0.3,0.3,0.2,0.7,0.6c0.4,0.4,0.4,0.8,0.6,1C207.6,155.4,207.6,155.4,207.7,155.4 M201.2,159.2c-0.1,0.1-0.2,0.2-0.3,0.4
		c0,0,0,0,0.1-0.1c0.3-0.1,0.4,0.1,0.6-0.1c0.2-0.3,0.2-0.5,0.3-0.7s0.6-0.2,0.9-0.2c0.3,0,0.3-0.1,0.4,0.4c0.2,0.5,0.1,0.9,0.1,0.9
		c0.1,0.1-0.3,0.5-0.3,1.3c0,0.4-0.2,0.1-0.2,0.7l-0.1,0.1l0.3,0.3c0,0,0.1-0.1,0.1-0.2c0.2-0.4,0.5-0.6,0.6-0.4
		c0.1,0.1,0.2,0.6,0.3,1.1c1.6-1.7,2.7-3.8,3.4-6.1h-0.1c-0.2,0-0.7,0.1-1.3,0.2c-0.5,0.1-1,0-1,0s-0.3-0.3-0.4-0.1
		c-0.1,0.2-0.2,0.7-0.7,0.6c-0.4-0.1-0.2-0.6-0.4-0.6c-0.1-0.1,0,0.2-0.1,0.4c-0.2,0.2-0.6,0.9-0.7,1c-0.1,0.1-0.9,0.2-1.1,0.4
		C201.5,158.7,201.4,159,201.2,159.2 M197.5,156.7l1.2,1.2c0.1-0.2-0.1-0.7-0.1-0.7l-0.6-0.3l-0.2-0.2l0.1-0.3l-0.2-0.1L197.5,156.7
		z M196.7,160.9c0.2-0.1,0.4-0.2,0.6-0.3c-0.2,0-0.4,0-0.5,0.2C196.8,160.8,196.7,160.9,196.7,160.9 M184,159.9
		c1.5,1.3,3.4,2.1,5.5,2.4c0,0.1,0,0.1,0,0.2c0,0,0.1,0.1,0.3,0.1s0.6,0,0.8-0.3c0.3-0.3,0.2-0.1,0.4-0.1c0,0,0.2-0.3,0.4-0.6
		c0.2-0.1,0.3-0.4,0.4-0.4v1.2c1.5-0.1,2.9-0.5,4.1-1.2c-0.2,0-0.5-0.4-0.6-0.4s0.1,0.4,0.1,0.5c0,0.1-0.7,0.3-0.7,0.3
		c-0.2-0.4-0.5-0.4-0.6-0.4c-0.1,0.6-0.3,0.4-0.3,0.4c-0.6-0.8-0.8-0.3-1-0.6c-0.3-0.3-0.4-0.2-0.4-0.2c-0.2,0-0.4,0.2-0.6,0.3
		c-0.1,0-0.2,0.3-0.4,0.4c-0.2,0.3-0.4,0.6-0.4,0.6c-0.2,0-0.1-0.2-0.4,0.1c-0.3,0.3-0.6,0.3-0.8,0.3s-0.3-0.1-0.3-0.1
		c0-0.1,0-0.1,0-0.2c0-0.2,0-0.3,0-0.4c0-0.8,0.1-1,0.2-1.1c0.1-0.1,0.4-0.1,0.6-0.1v-1v-0.1c0-0.1,0-0.1,0-0.2v-1.1
		c-1.3-0.1-2.5-0.6-3.4-1.3L184,159.9z M184.3,152.9c0-0.1,0-0.2,0-0.3c-0.1,0.1-0.5,0.1-0.5,0.3C183.8,152.9,184,152.9,184.3,152.9
		 M180.4,154.3c0.4,1.6,1.3,3.2,2.4,4.4l2.9-2.9c-0.1-0.2-0.2-0.3-0.4-0.5l0,0c-0.2,0.1-0.1,0.5-0.2,0.6c-0.1,0.1-0.3,0.3-0.4,0.5
		c-0.1,0.2-0.5,0.6-0.8,0.4c-0.2-0.2,0-1.3-0.4-1.3c-0.1,0-0.1,0.1,0,0.5c0.1,0.4-0.2,0.2-0.3,0.2c-0.2-0.1-0.3-0.2-0.6-0.5
		c-0.4-0.3-0.1-0.5-0.1-0.5s-0.3-0.3-0.4-0.2c-0.1,0,0,0.2-0.3,0.1c-0.2-0.1-0.2-0.5-0.2-0.5s-0.2,0-0.8-0.2
		C180.7,154.3,180.5,154.3,180.4,154.3 M190.3,140.7c-2.4,0.2-4.6,1.1-6.3,2.5l1.7,1.7c0.3,0,0.2,0.3,0.6,0.4
		c0.3,0.1,0.3-0.1,0.6-0.1s0.1,0.2,0.2,0.3c0.1,0.1,0.3-0.1,0.3-0.1c0.3-0.1,0.2,0.1,0.5,0c0.4-0.1,0.1-0.3,0.3-0.5s0.1-0.3,0.1-0.6
		c0-0.2,0.3-0.5,0.4-0.6c0.1-0.1,0.3-0.1,0.4,0c0.1,0.2-0.1,0.3-0.1,0.5c0.1,0.1,0.6-0.1,1.3-0.2V140.7z M197.9,143.1
		c-1.6-1.3-3.7-2.2-6-2.3v3.2c0.6,0.1,1.2,0.3,1.2,0.3h0.1c0.4-0.7,0.9-0.6,1-0.7c0.1-0.1,0.1-0.2,0.3-0.4s0.5,0,0.5,0.2
		c0.1,0.2,0.1,0.9-0.3,1.5c-0.2,0.3-0.5,0.5-0.8,0.6c0.5,0.2,1,0.5,1.4,0.8l0.3-0.3c0-0.1,0.1-0.2,0.1-0.2s0.1-0.1,0.3-0.2l1.4-1.4
		c0,0-0.1,0-0.1-0.1c-0.1-0.1-0.6-0.2,0.2-0.7C197.7,143.2,197.8,143.1,197.9,143.1 M199.7,144.8c-0.1-0.1-0.2-0.2-0.3-0.3l-0.3,0.3
		c0.2,0.2,0.5,0.5,0.4,0.4C199.4,145,199.6,145,199.7,144.8 M204.9,128.7c0.2-0.2,0.3,0,0.5,0.1c0.2,0,0.2-0.2,0.5,0
		c0.3,0.1,0.4,0.4,0.4,0.6c0.1,0.2,0.2,0.4,0.3,0.6c0,0.2-0.4,0.4-0.6,0.3c-0.2-0.1-0.5-0.6-0.5-0.6l-0.7-0.5
		C204.8,129.2,204.7,128.9,204.9,128.7 M192.4,126c0,0,0.2-0.2,0.3-0.2c0.2,0.1,0.6,0.1,0.6,0.1l1-0.4l0.8-0.3l0.3-0.1
		c0,0,1.1-0.2,2.2,0.7c0.1,0.1,0.2,0.2,0.3,0.2l-0.3-0.3c0,0,0.8,0.7,0.3,0.3l-0.1,0.3c0,0-0.7,0.4-0.9,0.5c-0.3,0-0.7-0.1-0.7-0.1
		l-0.6-0.1l-1.3,0.3c0,0-0.8,0.1-1.2-0.2c-0.4-0.3-0.6-0.4-0.6-0.4L192.4,126z M205.3,139.5c0.2,0.2,0.7,0.8,0.9,1l0.1,0.1
		C206,140.2,205.6,139.9,205.3,139.5"/>
	<path class="st1" d="M207,183.8c0.2,0,2.4-0.4,5.9-0.8c3.5-0.4,4.9-0.2,7.4-0.9c2.8-0.7,4.2-2.2,4.9-3c0,0,0.2-0.1,0.1,0.1
		c0,0.2-1.8,3.5-5.8,5.5s-8.3,1.5-9.4,1.3c-1.1-0.2-2.6-0.7-4.1-1.1c-1.6-0.4-3.6-0.8-4.6-0.8c0,0-0.1-0.2,0.2-0.3
		c0.5-0.1,2.5-0.5,3.7-1.1c2.2-1,4-3.2,5.5-4.5c1.4-1.4,3.9-3.8,5.3-4.4c0,0,0.1,0,0,0.2c-0.1,0.1-1.1,1.6-1.7,2.9
		c-0.5,1.3-1.2,2.8-2.3,4c-1,1.2-2.4,2.2-5.2,2.8C207,183.6,206.8,183.8,207,183.8 M231.8,168.5c0,0-0.5,4.1-4.5,7.8
		c-3,2.7-5.5,3.8-7,4.1c-1.4,0.3-2.9,0.5-4.2,0.8c-1.3,0.2-3.2,0.8-3.6,0.9c0,0-0.1,0.1-0.1-0.1c0.1-0.1,0.6-0.3,2-2.2
		c1.4-1.9,2.6-6.1,2.6-6.1s0.7-2.2,1.4-3.7s3-4.8,3.5-5.1c0,0,0.2-0.1,0.2,0c0,0.1-0.5,1-0.8,2.5c-0.5,2.4-0.6,4.9-0.9,5.8
		c-0.3,1-0.8,2.7-2,4.2c-1.4,1.7-1.4,1.4-2.4,2.4c-0.2,0.1,0,0.1,0,0.1s1.1-0.6,1.9-1.2c0.8-0.6,1.7-1.4,3.1-2.3
		c1.4-0.9,3-1.3,5.9-3s4-3.6,4.6-4.9C231.7,168.5,231.8,168.2,231.8,168.5 M225,156.2c0,0-0.2,1.3-0.1,2.2c0.1,1,1.2,4.8,1.1,7
		c0,2.1-0.6,3.9-1.9,5.8l0.1,0.1c0,0,2.2-3.1,3.3-4.5c1.1-1.4,3.3-3.4,4.3-4.6c1.1-1.2,2-3,2.4-5.3h0.1c0,0,0.6,3.5-0.9,6.9
		c-1.5,3.4-3,4.6-4.1,5.6s-4.2,3.1-5.8,4c-1.5,0.9-2.7,1.9-2.7,1.9s-0.1,0-0.1-0.1c0-0.1,1.2-2.3,1.5-3.7c0.3-1.4,0.6-3.6,0.7-5.4
		c0.1-1.7,0.6-8,1.8-9.9H225z M224.5,146.4c0-0.1-0.2-0.3-0.3,0c0,0.3,0,3.1,0.8,6.5c0.6,2.3,2,7,2.2,7.7c0.3,1.1,0.2,3.7,0,4.6
		c0,0,0,0.3,0.1,0.1c0.1-0.2,1.5-2.5,2.3-3.4c0.8-0.9,2.7-3.2,3.2-4.5c0.5-1.2,1.7-3.9,1.5-7.8c-0.1-3.5-1.2-5.5-1.2-5.5
		s-0.1-0.1-0.1,0c0,0.1,0.2,1.7,0,3.1c-0.2,1.4-0.5,2.3-1.3,4.1c-0.8,1.7-1.6,3.7-1.8,4.4s-0.5,2.3-0.6,3.4c-0.2,1.1-0.7,2-0.7,2
		l-0.1-0.1c0,0,0.5-0.9,0.6-2.9c0.1-2.1-0.7-4.2-1.3-5.2C227,151.5,224.6,148,224.5,146.4 M228.6,133.2
		C228.4,133,228.5,133.2,228.6,133.2c-0.1,0.1,1.1,1.8,1.1,4.7s-0.5,3.1-0.5,5.7c-0.1,2.6,0.3,5.8,0.3,5.8h-0.1c0,0-0.1-1.6-0.9-3.6
		c-1-2.2-5.1-5.4-5.1-5.4s-1.4-1.3-1.5-2.1c-0.1-0.2-0.2,0-0.2,0s0.3,2.1,1.5,4.7c1.1,2.6,3.8,5.2,4.6,6.7s1.2,1.7,1.8,4.6h0.1
		c0,0,0-1.3,0.9-3.9c0.9-2.7,1.1-2.4,1.6-4.9s0.1-5,0-5.5C231.9,139.3,231,135.8,228.6,133.2 M228.1,143.7c0,0-0.5-1.1-1.5-2.2
		c-0.5-0.5-1.4-1.5-2.5-2.3c-1.1-0.9-2.3-1.7-3.1-2.4c-1.6-1.5-3.3-4.2-3.2-6.6c0,0,0.8,1.5,1.8,2.5s3.5,2.4,4.6,3.4
		c1.1,0.9,2.2,2.2,2.6,3.7h0.2c0,0-1.1-3-1.4-4.1c-0.3-1.1-0.5-2.9-1.2-4.7c-0.6-1.7-1.4-2.6-2.5-3.3l0.1-0.1c0,0,4.4,0.7,6,6.4
		c0.5,1.7,0,5.5,0.1,7s0.2,2.5,0.2,2.5h-0.2V143.7z M213.4,123.7c0,0,1.4,0.5,2.8,1c1.5,0.6,3.2,1.4,4.4,2.8c2,2.2,2.5,4.2,3,5.9
		c0.2,0.6,0.5,1.5,0.6,1.4c0.1,0-0.1,0.1-0.1,0.1s-3.8-3-5-4.3c-1.1-1.3-2.5-3.6-3.5-4.6C214.8,125.1,213.4,123.7,213.4,123.7
		 M164.3,186.6c0,0,3.7,4.3,9.3,4.3c4.4,0,7.5-2.4,7.5-2.4s3.2-2.3,4.9-3.1c1.4-0.7,3.5-0.1,3.5-0.1s-2.3,0.9-4.5,2.5
		c-2.3,1.6-3.1,2.2-5.3,4.4l1.9,1.6c0,0,1.4-1.9,4-4.2s4.1-3.1,5.8-3.7c0,0,5.3,2.4,9.7,7.9l1.9-1.6c0,0-4.4-4.5-9.8-6.8
		c0,0,0.5-0.3,2.8-0.1c1,0.1,1.9,0.9,3.1,1.7c1.1,0.8,3.3,2.3,4.7,2.9c1.5,0.6,3.4,1,5,1.1c1.6,0,6.2-0.6,9.4-4.5c0,0,0-0.1-0.1-0.1
		c-2,1-3.1,1.8-6.4,1.7c-1.8-0.1-4.1-0.6-7-1.9c-2.9-1.3-4.8-2.2-8.2-2.2s-5,0.6-5.3,0.7c0,0-1.5-0.7-4.6-0.7s-5.8,0.9-7.5,1.7
		s-5,2.7-8.8,2.6C166.7,188.3,164.4,186.6,164.3,186.6C164.4,186.5,164.3,186.6,164.3,186.6 M175.7,183.9c-0.2,0-2.5-0.5-5.9-0.8
		c-3.5-0.4-5-0.2-7.6-0.8c-2.8-0.7-4.1-2.1-4.9-2.9c0,0-0.2-0.1-0.1,0.1c0.1,0.2,1.8,3.5,5.8,5.5s8.5,1.4,9.6,1.2
		c1-0.2,2.6-0.7,4.1-1.1c1.5-0.4,3.6-0.8,4.6-0.8c0,0,0.1-0.2-0.2-0.2c-0.5-0.1-1.9-0.1-3.7-1.1c-3-1.6-4.2-3.1-5.6-4.4
		c-1.4-1.4-3.9-3.8-5.3-4.4c0,0-0.1,0,0,0.2c0.1,0.1,1.1,1.5,1.7,2.9c0.5,1.4,1.2,2.7,2.3,3.9c1,1.1,2.6,2.2,5.3,2.8
		C175.7,183.8,175.8,183.9,175.7,183.9 M150.6,168.8c0,0,0.5,4.2,4.5,7.8c3,2.7,5.8,3.8,7.2,4.1s2.9,0.5,4.2,0.7
		c1.3,0.3,3.1,0.7,3.4,0.9c0,0,0.1,0,0.1-0.1c-0.1-0.1-0.6-0.3-2-2.2c-1.4-1.9-2.7-6.1-2.7-6.1s-0.6-1.7-1.3-3.2s-3.3-5.2-3.7-5.5
		c0,0-0.2-0.1-0.2,0c0,0.1,0.5,0.9,0.8,2.4c0.3,1.4,0.7,4.8,1,5.8c0.3,0.9,0.8,2.8,2,4.2c1.3,1.7,1.3,1.5,2.4,2.4
		c0.2,0.1,0,0.1,0,0.1s-1.2-0.6-1.9-1.3c-0.8-0.6-1.1-1-2.6-1.9c-1.5-0.9-3.5-1.6-6.4-3.3c-2.9-1.7-4.1-3.6-4.7-4.8
		C150.7,168.8,150.6,168.5,150.6,168.8 M157.2,156.4c0,0,0.2,1.3,0.1,2.3c-0.1,1-1.1,4.8-1,6.9c0.1,2.1,0.6,3.9,1.9,5.8l-0.1,0.1
		c0,0-2.2-3.1-3.3-4.5c-1-1.4-3.3-3.4-4.4-4.6c-1-1.3-2.2-2.9-2.5-5.2h-0.1c0,0-0.5,3.5,1,6.8s3.1,4.6,4.1,5.6
		c1.1,1,4.2,3.1,5.8,3.9c1.6,0.9,2.7,1.9,2.7,1.9s0.1,0,0.1-0.1c0-0.1-1.2-2.3-1.5-3.7c-0.3-1.4-0.6-3.6-0.7-5.4
		c-0.1-1.7-0.8-8-1.9-10L157.2,156.4z M157.7,146.6c0-0.1,0.2-0.3,0.2,0s-0.2,4.2-0.7,6.5s-2,7-2.2,7.7c-0.1,0.7-0.2,3.7,0,4.6
		c0,0,0,0.3-0.2,0.1c-0.1-0.1-1.6-2.4-2.4-3.2c-0.8-0.9-2.7-3.3-3.3-4.5c-0.5-1.3-1.8-4.6-1.6-8.5c0.3-3.8,1.1-4.8,1.1-4.8
		s0.2-0.1,0.1,0c0,0.2-0.2,1.7,0,3.1c0.2,1.4,0.7,2.9,1.6,4.5c0.9,1.7,1.5,3.4,1.7,4.1s0.6,2.1,0.8,3.2c0.2,1.1,0.6,2,0.6,2h0.1
		c0,0-0.5-0.9-0.5-2.9c-0.1-2.1,0.4-3.6,1.3-5.2C155.3,151.6,157.6,148.1,157.7,146.6 M153.4,133.4c0.1-0.1,0.2,0,0.2,0
		s-1.2,1.5-1.2,4.4c0.1,2.9,0.6,3.4,0.6,6c0.1,2.6-0.3,5.7-0.3,5.7h0.1c0,0,0-1.7,1-3.8s5.1-5.5,5.1-5.5s1.2-1.3,1.3-2
		c0.1-0.2,0.2,0,0.2,0s-0.2,1.9-1.4,4.5c-1.2,2.6-3.6,5.1-4.4,6.6c-0.8,1.5-1.4,2.1-2,5h-0.1c0,0-0.1-1.3-1-4s-1.2-2.3-1.6-4.8
		c-0.5-2.4-0.1-5.3,0-5.8C150.2,139.4,150.9,136.1,153.4,133.4 M154.1,143.9c0,0,0.5-1.1,1.5-2.2c0.5-0.5,1.4-1.5,2.4-2.3
		c1.1-0.9,2.3-1.7,3.1-2.5c1.6-1.4,3-4.1,3-6.5c0,0-0.6,1.4-1.6,2.4s-3.6,2.5-4.6,3.5s-2.2,2.3-2.6,3.8h-0.1c0,0,1.1-3,1.3-4.1
		c0.3-1.1,0.5-2.9,1.2-4.7c0.7-1.7,1.3-2.5,2.5-3.2V128c0,0-4.4,0.7-6.1,6.4c-0.5,1.7,0.1,5.6,0,7.1S154,144,154,144h0.1V143.9z
		 M168.4,124c0,0-1,0.4-2.6,0.9c-1.5,0.6-3.3,1.5-4.5,2.8c-2.1,2.2-2.6,4.3-3,6c-0.3,0.9-0.5,1.6-0.5,1.6s3.8-3.1,5-4.3
		c1.1-1.3,2.4-3.7,3.4-4.7C167.1,125.3,168.4,124,168.4,124"/>
	<path class="st0" d="M247,185.4L247,185.4"/>
	<path class="st2" d="M455.2,157.4c0,58.7-47.6,106.3-106.4,106.3s-106.4-47.6-106.4-106.3C242.4,98.7,290,51,348.8,51
		C407.5,51,455.2,98.7,455.2,157.4"/>
	<path class="st0" d="M446,174.3h-16.2l-3.9,16.3h-13.3l18.1-67.5h15.5l8.9,33.7C454.8,98.3,407.3,51,348.8,51
		C302,51,262.2,81.3,248,123.3h7.6v46.8c0,6.9,3,10.5,8.3,10.5s8.3-3.6,8.3-10.5v-46.8h13.5V170c0,14.9-9.1,21.7-21.8,21.7
		c-8.1,0-14.7-2.8-18.5-8.7c11.5,46.4,53.3,80.8,103.3,80.8c47.2,0,87.3-30.8,101.1-73.4L446,174.3z M335,190.5h-10.9l-20-41v41
		h-12.3v-67.2h12.8l18.1,39.1v-39.1H335V190.5z M373.2,135h-18.8v16.3H369v12h-14.6v27.4H341v-67.4h32.1V135H373.2z M392.4,166.5
		v24.1h-13.3v-67.3h16c14.3,0,23.5,7.2,23.5,21.3c0,14.3-9.3,21.7-24.2,21.9C394.4,166.5,392.4,166.5,392.4,166.5z"/>
	<path class="st0" d="M394.7,155.7h-2.4V134h2.6c7.2,0,11,3.6,11,10.8C405.9,152.3,402,155.7,394.7,155.7"/>
	<polygon class="st0" points="432.2,163.5 438,138.8 443.8,163.5 	"/>
</g>
</svg>
