<?xml version="1.0" encoding="utf-8"?>
<!-- Generator: Adobe Illustrator 23.0.3, SVG Export Plug-In . SVG Version: 6.00 Build 0)  -->
<svg version="1.1" id="Layer_1" xmlns="http://www.w3.org/2000/svg" xmlns:xlink="http://www.w3.org/1999/xlink" x="0px" y="0px"
	 viewBox="0 0 45.2 42" style="enable-background:new 0 0 45.2 42;" xml:space="preserve">
<style type="text/css">
	.st0{fill:#00ADEE;}
	.st1{fill-rule:evenodd;clip-rule:evenodd;fill:#00ADEE;}
</style>
<g>
	<g>
		<path class="st0" d="M20,1.9C19.3,2,18.6,2.2,18,2.4c0.1,0.1,0.3,0.3,0.4,0.4C18.9,2.5,19.4,2.2,20,1.9z M30.9,6.5
			c-0.6-0.8-1.2-1.5-2-2.1c-0.4,0.3-0.8,0.6-1.2,0.9c0.6,0.7,1,1.4,1.5,2.2C29.8,7.2,30.4,6.9,30.9,6.5z M28.5,4
			C27.8,3.5,26.9,3,26,2.6c-0.1,0.2-0.3,0.3-0.5,0.5c0.7,0.5,1.3,1.1,1.9,1.7C27.8,4.6,28.2,4.3,28.5,4z M25.5,2.4
			c-0.6-0.2-1.3-0.4-1.9-0.5c0.5,0.3,1,0.5,1.5,0.9C25.2,2.7,25.4,2.5,25.5,2.4z M21.8,1.2c6.6,0,11.9,5.4,11.9,12s-5.3,12-11.9,12
			s-11.9-5.4-11.9-12C9.9,6.5,15.2,1.2,21.8,1.2z M23.7,3.6c0.3-0.1,0.6-0.3,0.9-0.5c-0.6-0.4-1.3-0.8-2-1C23,2.6,23.4,3.1,23.7,3.6
			z M22,4c0.4,0,0.8-0.1,1.2-0.2c-0.4-0.5-0.8-1.1-1.2-1.6V4z M23.5,4.2c-0.5,0.1-1,0.2-1.5,0.3v1.9c0.9,0,1.7-0.1,2.5-0.3
			C24.2,5.5,23.9,4.8,23.5,4.2z M25.1,3.5c-0.3,0.2-0.7,0.4-1.1,0.6c0.4,0.6,0.7,1.2,1,1.9c0.7-0.2,1.3-0.5,1.9-0.8
			C26.4,4.5,25.8,3.9,25.1,3.5z M19.8,3.6c0.3-0.5,0.7-1,1.1-1.5c-0.7,0.3-1.4,0.6-2,1C19.2,3.3,19.5,3.5,19.8,3.6z M21.5,2.2
			c-0.4,0.5-0.8,1-1.2,1.6C20.7,3.9,21.1,4,21.5,4V2.2z M15.1,22.3c0.3,0.1,0.6,0.2,1.1,0.2c0.6,0,1.4-0.3,2.2-0.6s2.8-0.8,3.2-0.9
			c0.5-0.1,0.6-0.3,0.7-0.5c0.1-0.2,0-0.5,0-0.9c-0.1-0.4-0.2-0.9-0.2-1.5c0-0.5,0-1-0.9-1.5c-0.8-0.5-1.4-1.2-1.3-1.6
			s0.6-0.9,0.6-0.9s-0.1-0.4-0.1-0.6c0.1-0.2,0.6-0.1,0.6-0.1s-0.1-0.6,0-0.7c0-0.2,0.3-0.1,0.3-0.1l0.2-0.2c0,0-0.2-0.4-0.3-0.7
			s0.1-0.5,0.4-0.5s0.7,0,1.6-0.2c0.9-0.2,1.3-2,3.5-2.3c2.1-0.3,3.8,1.3,3.8,1.3s3.4,3.2,1.2,6.9c-1.9,3.2-4.4,2.4-4.4,2.4
			s-0.4,0.2-0.2,1.1c0.2,0.9,1.5,1.7,1.5,1.7l0.1,0.1c2.7-2.1,4.4-5.3,4.4-9c0-2.3-0.7-4.4-1.8-6.2c-0.6,0.4-1.1,0.7-1.8,1
			c0.2,0.4,0.3,0.7,0.4,1.1c-0.2-0.1-0.5-0.2-0.7-0.3c-0.1-0.2-0.1-0.3-0.2-0.5c-0.2,0.1-0.4,0.2-0.6,0.2c-0.4-0.1-0.7-0.1-1.1-0.1
			c0.5-0.2,1-0.4,1.5-0.6c-0.4-0.8-0.9-1.5-1.4-2.2c-0.6,0.4-1.3,0.7-2.1,0.9c0.3,0.7,0.5,1.3,0.7,2c-0.2,0.1-0.4,0.1-0.5,0.2
			C25.3,8,25,7.3,24.8,6.6C23.9,6.9,23,7,22.1,7v2.2c1,0,2.1-0.1,3-0.3c-0.3,0.2-0.5,0.4-0.7,0.7c-0.7,0.1-1.5,0.2-2.3,0.2v0.8
			c-0.1,0-0.2,0-0.4,0c-0.1,0-0.1,0-0.2,0V7c-0.4,0-0.8,0-1.2-0.1c-0.1-0.2-0.3-0.4-0.4-0.6c0.5,0.1,1.1,0.2,1.7,0.2V4.5
			c-0.5,0-1-0.1-1.5-0.3c-0.3,0.5-0.6,0.9-0.8,1.4c-0.1-0.1-0.3-0.2-0.4-0.3C19,4.9,19.3,4.5,19.5,4c-0.4-0.2-0.7-0.4-1.1-0.6
			c-0.5,0.3-0.9,0.7-1.3,1.1c-0.2-0.1-0.4-0.1-0.6-0.1c0.5-0.5,1-0.9,1.5-1.4c-0.2-0.2-0.3-0.3-0.5-0.5C16.6,3,15.8,3.5,15,4
			c-2.6,2-4.4,5.1-4.5,8.7c0.1-0.1,1.1-1,1.6-1.1c0.5-0.1,0.9-1,0.9-1.2c0-0.2-1-2.5,0.2-4.1c1-1.4,2.6-2.1,5.1-0.7s2,3.4,1.5,4
			c-0.5,0.6-0.7,0.9-0.6,1.2c0.1,0.3,0.3,0.5,0.2,0.7c-0.1,0.2-0.6,0.2-0.6,0.2s0.1,0.3,0.1,0.4c0,0.1-0.3,0.1-0.3,0.1
			s0.1,0.2,0,0.3c0,0.1-0.5,0.1-0.5,0.1s0.1,0.8-1,0.7s-1.3-0.5-1.6-0.2c-0.3,0.2-0.3,0.6,0,1.5s0.3,3.1,0.3,3.1l0.7,0.5
			c0,0,1,0,1.2,0.1c0.2,0,0.5,0.1,0.7,0.1s0.8-0.5,1.1-0.6c0.3-0.1,0.4,0,0.4,0.1c0,0.1-0.1,0.3-0.1,0.3s0.5-0.2,0.7-0.2
			c0.2,0,0.3,0.2,0.2,0.9c-0.1,0.7-0.4,1.1-1,1.2s-1-0.2-1.4-0.2c-0.4,0-1.7,0.6-2.7,0.5S14.4,20,14.4,20S14,20.6,14,20.9
			c0,0.2,0,0.4,0,0.5C14.3,21.7,14.7,22,15.1,22.3z"/>
		<path class="st0" d="M16.1,26.1c-0.6,0.1-2.2-0.1-3.1-1.2c-0.8-0.9-1.2-3.2-1.1-3.3c0.1-0.1,1.3,0.8,2.5,1.9
			C15.6,24.6,16.7,26,16.1,26.1z M13.2,26.3c-0.1,0.1-1.8,0.6-3.6-0.4c-1.8-1.1-2.7-3-2.7-3.1c0.1-0.2,1.3,0.1,3.6,1.4
			C12.9,25.4,13.4,26.2,13.2,26.3z M11.7,24.1c-0.1,0.1-1.8-0.7-2.2-2.8c-0.5-2,0.1-3.4,0.3-3.5c0.2-0.1,1,1.1,1.5,3
			C11.7,22.6,11.9,24,11.7,24.1z M9.6,23.2c-0.2,0.1-2-0.7-3.3-2.2c-1.1-1.3-1.6-3.5-1.5-3.6s1.6,1.2,2.8,2.6S9.8,23.1,9.6,23.2z
			 M8.5,20.2c-0.3-0.1-1-0.9-0.9-3.1c0.1-1.4,1.2-3.2,1.3-3.2c0.3,0,0.4,1.3,0.3,3C9.1,18.6,8.8,20.3,8.5,20.2z M4.4,12.1
			c0.2-0.2,1.1,1.4,1.7,2.7c0.5,1.1,1.1,3.5,0.9,3.6c-0.2,0.1-1.5-0.8-2.2-2.8C4.2,14,4.3,12.1,4.4,12.1z M8.9,10.4
			c0.2,0,0.1,1.5-0.4,3c-0.5,1.5-1.3,2.8-1.4,2.7c-0.2-0.1-0.5-1.9,0-3.2C7.6,11.6,8.7,10.4,8.9,10.4z M7,11.6
			c-0.1-0.2-0.2-1.8,0.9-3.2c1-1.3,2-1.8,2.1-1.7c0.2,0.1-0.4,1.6-1.1,2.7C8.2,10.5,7.1,11.7,7,11.6z M6.7,8.9
			C6.4,8.8,6.4,7.5,7.1,6.3C7.6,5.2,8.8,4.1,9,4.1c0.2,0.1-0.2,1.7-0.7,2.7C7.9,7.7,6.9,9,6.7,8.9z M5.7,7.1c0.2,0,0.7,1.4,0.8,3.3
			s-0.1,3.4-0.2,3.4c-0.1,0-1.1-0.8-1.2-2.8C5,8.9,5.5,7.1,5.7,7.1z M25.5,31.6c-0.3,0.1-0.4-1.1-2.8-2.8c-0.4-0.3-0.7-0.5-1.1-0.7
			c-0.3,0.2-0.6,0.3-0.9,0.6c-2.4,1.6-2.5,2.9-2.8,2.8c-0.3-0.1-0.7-0.6-0.7-0.6s1.6-2,3.6-3.1c-1.1-0.5-1.8-0.5-1.8-0.5
			s-0.8,1.4-3.4,1.2c-2.6-0.2-3.9-0.7-4.3-1c-0.1-0.1-0.5-0.5,2.7-0.8c3-0.3,5.4-0.1,7.5,0.7c2.2-0.9,4.6-1.1,7.8-0.8
			c3.2,0.3,2.8,0.7,2.7,0.8c-0.4,0.3-1.8,0.9-4.3,1c-2.5,0.2-3.4-1.2-3.4-1.2s-0.7,0-2,0.6c2,1.1,3.8,3.2,3.8,3.2
			S25.8,31.5,25.5,31.6z M27.4,26c-0.6-0.1,0.5-1.5,1.7-2.6c1.2-1.1,2.4-2,2.5-1.9c0.1,0.1-0.3,2.4-1.1,3.3
			C29.6,26,28.1,26.1,27.4,26z M30.3,26.2c-0.1-0.1,0.4-0.9,2.7-2.2c2.3-1.3,3.5-1.6,3.6-1.4c0,0.1-0.9,2.1-2.7,3.1
			C32,26.8,30.4,26.4,30.3,26.2z M31.8,24c-0.2-0.1-0.1-1.5,0.5-3.3c0.5-1.8,1.3-3,1.5-3c0.1,0.1,0.8,1.5,0.3,3.5
			C33.6,23.2,32,24,31.8,24z M33.9,23.1c-0.2-0.1,0.7-1.8,1.9-3.2c1.2-1.4,2.7-2.7,2.8-2.6c0.1,0.1-0.4,2.3-1.5,3.6
			C35.9,22.4,34.1,23.2,33.9,23.1z M35,20.1c-0.3,0.1-0.6-1.6-0.7-3.3c-0.1-1.7,0-3,0.3-3c0.2,0,1.3,1.8,1.3,3.2
			C36.1,19.2,35.3,20.1,35,20.1z M39.1,12c0.1,0.1,0.3,2-0.3,3.6c-0.7,2-2.1,2.8-2.2,2.8c-0.3-0.1,0.4-2.5,0.9-3.6
			C38,13.4,38.9,11.8,39.1,12z M34.6,10.3c0.2,0,1.3,1.2,1.8,2.5c0.5,1.3,0.2,3.1,0,3.2c-0.2,0.1-0.9-1.2-1.4-2.7
			C34.5,11.8,34.4,10.4,34.6,10.3z M36.5,11.5c-0.1,0.1-1.2-1.1-1.9-2.1s-1.3-2.6-1.1-2.7c0.2-0.1,1.1,0.3,2.1,1.7
			C36.7,9.7,36.7,11.3,36.5,11.5z M36.8,8.8c-0.2,0.1-1.2-1.2-1.6-2.1c-0.5-1-0.9-2.6-0.7-2.7c0.2-0.1,1.4,1,1.9,2.1
			C37.1,7.5,37.1,8.7,36.8,8.8z M37.8,7c0.2,0,0.7,1.8,0.6,3.8s-1,2.8-1.2,2.8s-0.3-1.5-0.2-3.4C37.1,8.3,37.6,6.9,37.8,7z"/>
	</g>
	<g>
		<path class="st1" d="M10.9,37.1c0,0.2,0,1-0.3,1.7c-0.3,0.7-1,1-1.6,1c-1.3,0-1.6-0.9-1.6-2.2v-4.3H6v4.8c0,1.5,0.9,2.6,2.4,2.6
			c1,0,1.9-0.4,2.5-1.3h0v1.1h1.3v-7.2h-1.4V37.1z"/>
		<path class="st1" d="M14.8,33.4h-1.3v7.2h1.4v-3.9c0-1.4,0.4-1.7,0.6-1.9c0.6-0.6,1.3-0.5,1.3-0.5c1.2,0,1.6,0.6,1.6,1.8v4.5h1.4
			v-5c0-2.3-2.2-2.4-2.7-2.4c-0.7,0-1.7,0.4-2.2,1.3h0L14.8,33.4L14.8,33.4z"/>
		<path class="st1" d="M22.3,40.6v-7.2h-1.4v7.2H22.3z M20.8,31.7h1.6v-1.5h-1.6V31.7z"/>
		<path class="st1" d="M29.2,35.7c-0.1-1.6-1.2-2.5-2.7-2.5c-2.3,0-3.3,1.8-3.3,3.9c0,2.1,0.9,3.8,3.2,3.8c1.6,0,2.8-1,2.9-2.6h-1.4
			c-0.1,1-0.6,1.6-1.5,1.6c-1.3,0-1.8-1.1-1.8-2.8s0.5-2.8,1.8-2.8c1,0,1.4,0.6,1.5,1.5L29.2,35.7L29.2,35.7z"/>
		<path class="st1" d="M36.2,37.3v-0.7c0-2-1-3.4-3.2-3.4c-2.3,0-3.3,1.8-3.3,3.9c0,2.1,0.9,3.8,3.2,3.8c1.7,0,3-0.8,3.2-2.5h-1.4
			c-0.2,1-0.7,1.5-1.8,1.5c-1.4,0-1.9-1.3-1.8-2.6H36.2L36.2,37.3z M31.2,36.3c0-1.2,0.7-2.1,1.8-2.1c1.3,0,1.9,0.9,1.8,2.1H31.2z"
			/>
		<path class="st1" d="M39,40.6v-6.3h1.7v-0.9H39v-1.2c0-0.8,0.4-1,1.2-1c0.2,0,0.5,0,0.7,0v-1.1c-0.3-0.1-0.6-0.1-1-0.1
			c-1,0-2.2,0.4-2.3,2v1.4h-1.4v1h1.4v6.3H39z"/>
	</g>
</g>
</svg>
