<?xml version="1.0" encoding="utf-8"?>
<!-- Generator: Adobe Illustrator 23.0.1, SVG Export Plug-In . SVG Version: 6.00 Build 0)  -->
<svg version="1.1" id="Layer_1" xmlns="http://www.w3.org/2000/svg" xmlns:xlink="http://www.w3.org/1999/xlink" x="0px" y="0px"
	 width="473px" height="495.5px" viewBox="0 0 473 495.5" style="enable-background:new 0 0 473 495.5;" xml:space="preserve">
<style type="text/css">
	.st0{fill:#0081C3;}
</style>
<path class="st0" d="M353.5,91c-0.4,0-0.5,0.6-0.2,0.8c18.8,12.1,16.9,23,51.6,48.5c0.1,0.1,0.3,0,0.3-0.2
	C397.2,113.1,378.7,91.8,353.5,91z M401.8,103.7c-0.3-0.2-0.6,0.1-0.4,0.4c6.3,10.1,8.4,21,10.9,32.3l5.6,26.7
	c0,0.2-0.2,0.3-0.3,0.1c-4.9-8.2-27.8-19.5-42.8-31.2c-0.2-0.2-0.6,0.1-0.5,0.4c8.5,24.8,35.9,35.4,52.7,53.6
	c0.2,0.2,0.5,0.1,0.5-0.2C426.2,159,430.3,126.3,401.8,103.7z M450.7,189.9c-0.6-17.4-4.4-33.6-15.6-47.4c-0.2-0.3-0.7,0-0.6,0.3
	c7.4,27.2-0.5,50.9,2.5,71.4c0,0.3-0.3,0.4-0.4,0.1c-7.5-18.3-28-27.2-37.1-39.9c-0.2-0.3-0.7-0.1-0.6,0.3
	c8.4,36.1,35.4,47.6,40.7,66.6c0.1,0.3,0.5,0.4,0.6,0C443.9,227,451.4,211.4,450.7,189.9z M460.3,209.7c-0.1-0.4-0.7-0.3-0.7,0.1
	c-0.7,26.6-16.3,47.2-19.4,65.6c0,0.2-0.3,0.2-0.3,0c-0.6-23.8-17.8-38.2-27.4-56.2c-0.2-0.3-0.7-0.2-0.7,0.2
	c-1.4,34.5,23.4,55.9,22.6,84.6c0,0.4,0.4,0.5,0.7,0.3C454.6,277.1,473.1,244.3,460.3,209.7z M466.4,280.9c0-0.4-0.6-0.5-0.7-0.1
	c-12,24.3-26.4,29.8-44.6,56.4c-0.1,0.2-0.4,0.1-0.3-0.1c7.1-21.4-4.6-49.8-5.1-68.7c0-0.4-0.6-0.5-0.7-0.1
	c-14.3,34.8,0.8,70.6-11.9,94c-0.1,0.3,0.1,0.6,0.4,0.4c17.9-8.9,34.9-22.3,48.1-39.2C459.9,310.9,467.2,297.4,466.4,280.9z
	 M448.5,345.5c-12.6,17.5-40.8,24-68.3,45.6c-0.2,0.1-0.4-0.1-0.2-0.3c13.9-18.5,12.4-43.8,17.5-66c0.1-0.3-0.3-0.5-0.5-0.3
	c-26.6,30.2-23.3,63.2-35,78.7c-0.1,0.2,0,0.5,0.2,0.5c40.3-0.1,83.8-35.4,86.9-58C449.1,345.4,448.7,345.3,448.5,345.5z
	 M410.2,405.9c-35.4,16-49.6,7-83.4,13.5c-0.2,0.1-0.3-0.2-0.1-0.3c23.6-12.7,28-33.3,36.2-46.8c0.2-0.3-0.1-0.6-0.4-0.4
	c-25.9,12.6-34.4,41.7-65.5,49.3c-0.3,0.1-0.3,0.5,0,0.6c13.1,3.1,23,8.8,36.6,10c37.9,3.2,65.5-8.4,77.1-25.3
	C410.8,406.1,410.5,405.8,410.2,405.9z M119.5,91c-25.2,0.8-43.7,22-51.7,49.1c0,0.2,0.2,0.3,0.3,0.2c34.7-25.5,32.8-36.4,51.6-48.5
	C120.1,91.6,119.9,91,119.5,91z M98.3,132c-15,11.7-37.9,23.1-42.8,31.2c-0.1,0.2-0.3,0-0.3-0.1l5.6-26.7
	c2.5-11.3,4.6-22.2,10.9-32.3c0.2-0.3-0.2-0.6-0.4-0.4c-28.5,22.6-24.4,55.3-25.6,82c0,0.3,0.3,0.4,0.5,0.2
	c16.8-18.2,44.2-28.8,52.7-53.6C98.8,132.1,98.5,131.8,98.3,132z M73.6,174.6c-9.1,12.7-29.6,21.6-37.1,39.9
	c-0.1,0.3-0.4,0.2-0.4-0.1c3-20.5-4.9-44.2,2.5-71.4c0.1-0.4-0.4-0.6-0.6-0.3c-11.2,13.8-15,29.9-15.6,47.4
	c-0.8,21.4,6.8,37.1,10.5,51.6c0.1,0.3,0.5,0.3,0.6,0c5.4-19.1,32.3-30.5,40.7-66.6C74.3,174.5,73.8,174.2,73.6,174.6z M61.3,219.3
	c0-0.4-0.5-0.5-0.7-0.2c-9.6,18-26.8,32.4-27.4,56.2c0,0.2-0.3,0.3-0.3,0c-3.1-18.4-18.7-39-19.4-65.6c0-0.4-0.6-0.5-0.7-0.1
	c-12.8,34.6,5.6,67.4,25.3,94.6c0.2,0.3,0.6,0.1,0.6-0.3C37.8,275.3,62.7,253.8,61.3,219.3z M69.9,362.2
	c-12.6-23.5,2.5-59.2-11.9-94c-0.1-0.4-0.7-0.3-0.7,0.1c-0.4,19-12.2,47.3-5.1,68.7c0.1,0.2-0.2,0.3-0.3,0.1
	c-18.2-26.5-32.6-32.1-44.6-56.4c-0.2-0.4-0.7-0.3-0.7,0.1c-0.8,16.5,6.5,30,14.8,42.5c13.2,16.9,30.1,30.3,48.1,39.2
	C69.7,362.7,70,362.5,69.9,362.2z M111.1,403.3c-11.8-15.5-8.4-48.5-35.1-78.7c-0.2-0.2-0.6,0-0.5,0.3c5.1,22.2,3.6,47.5,17.5,66
	c0.1,0.2-0.1,0.4-0.3,0.3c-27.5-21.6-55.7-28.1-68.3-45.6c-0.2-0.2-0.6-0.1-0.5,0.2c3.1,22.7,46.6,58,86.9,58
	C111.1,403.7,111.3,403.5,111.1,403.3z M176.1,421.1c-31-7.5-39.5-36.6-65.5-49.3c-0.3-0.2-0.6,0.2-0.4,0.4
	c8.2,13.5,12.6,34.1,36.2,46.8c0.2,0.1,0.1,0.4-0.1,0.3c-33.8-6.5-48,2.5-83.4-13.5c-0.3-0.1-0.6,0.2-0.4,0.5
	c11.6,16.9,39.3,28.5,77.1,25.3c13.6-1.2,23.5-6.9,36.6-10C176.5,421.6,176.5,421.2,176.1,421.1z M371.9,441.6
	c-12.2,4.8-28.1,5.2-41,1.8c-29.7-9.2-62.7-26.8-94.3-12.2c-31.7-14.6-64.6,3-94.3,12.2c-13,3.4-28.8,3-41-1.8
	c-0.3-0.1-0.6,0.3-0.3,0.5c17.5,13.6,42.1,19.8,64.2,11.8c21.2-6.6,39.2-29.1,64.3-19.5c-19.9,7.8-38.5,22.1-52.9,35.7l10.5,8.6
	c13.1-15.2,27.7-30.4,44.4-39.6c2.3-1.3,3.6-1.9,5.2-2c1.6,0.1,3,0.6,5.2,2c16.6,9.2,31.3,24.4,44.4,39.6l10.5-8.6
	c-14.4-13.6-33-27.9-52.9-35.7c25.1-9.6,43.1,12.9,64.3,19.5c22.1,8,46.6,1.7,64.2-11.8C372.4,441.9,372.2,441.5,371.9,441.6z
	 M250.6,359.1h-48.2c-3.3,0-6.2-0.3-9-0.8c0,0,0,0,0,0c7.9,11.8,20.3,20.7,32.9,26.7c1.9,10.7,4.4,20.7,5.2,21.4
	c0.9,0.8,13.2-2.8,13.6-3.9c0.4-1.1-5-19.5-5-19.5C246.6,371.9,248.6,365.3,250.6,359.1z M334.6,108.9c-1.2-0.9-5.1,8.7-9.6,11.2
	c-0.9,0.5-1.7,1.3-2.2,2.4c-0.6,1.1-0.8,2.3-0.6,3.4c0.1,1,0.6,1.9,1.3,2.3c0.8,0.5,1.7,0.4,2.6,0c0.9-0.5,1.7-1.3,2.3-2.4
	c0.6-1.1,0.8-2.3,0.6-3.3C328.5,117,335.4,109.5,334.6,108.9z M338.1,122.6c-0.7-0.8-6.6,9.1-12,7.9c-1-0.3-2.2-0.2-3.2,0.3
	c-0.5,0.2-1,0.6-1.4,0.9c0-0.2,0.1-0.5,0.1-0.7c-0.1-1.3-0.6-2.4-1.4-3.2c-3.6-4.4,1.4-14.8,0.4-15.1c-1-0.3-2.7,10.7-5.7,15.4
	c-0.6,0.9-0.9,2.1-0.8,3.3c0.1,1.3,0.6,2.4,1.4,3.2c0.8,0.8,1.7,1.2,2.7,1.2c0.8,0,1.4-0.4,2-1c0,0.4,0.1,0.9,0.3,1.4
	c0.5,1,1.3,1.7,2.3,2c1,0.3,2.2,0.2,3.3-0.3c1.1-0.5,1.9-1.4,2.3-2.4C330.8,130.4,338.8,123.4,338.1,122.6z M336.1,134.6
	c-0.7-0.9-8.9,8.6-14.5,6.3c-1.1-0.5-2.4-0.7-3.7-0.3c-0.7,0.2-1.3,0.6-1.9,1.1c0-0.4,0-0.7-0.1-1.1c-0.3-1.4-1.1-2.5-2.1-3.2
	c-4.7-4.1-1-16.6-2.1-16.7c-1.1-0.1-1.1,12.3-3.5,18.1c-0.5,1.1-0.7,2.4-0.3,3.8c0.3,1.4,1.1,2.5,2.1,3.3c1,0.7,2.1,1,3.2,0.8
	c0.5-0.1,0.9-0.4,1.3-0.7c0,0.1,0,0.2,0,0.2c0.3,1.2,1.1,2.1,2.2,2.7c1.1,0.5,2.4,0.7,3.6,0.3c1.3-0.3,2.3-1.1,3-2.1
	C326.8,141.7,336.8,135.6,336.1,134.6z M316.3,152.2c-1.1-0.5-2.5-0.6-3.9-0.3c-1.1,0.3-1.9,0.8-2.6,1.4c0.1-0.9,0.1-1.8-0.1-2.8
	c-0.3-1.6-1.1-2.8-2-3.6c-4.6-4.6-1.4-18.6-2.5-18.8c-1.1-0.2-0.7,13.8-2.9,20.3c-0.4,1.2-0.5,2.7-0.1,4.3c0.4,1.5,1.1,2.8,2.1,3.7
	c0.9,0.8,2,1.2,3.1,0.8c0.3,0,0.6-0.2,0.8-0.3c0,0.2,0,0.3,0,0.5c0.2,1.1,1,2,2.2,2.5c1.1,0.5,2.5,0.7,4,0.3
	c1.5-0.3,2.7-1.1,3.5-2.1c4.4-5.1,14.6-12.3,14-13.3C330.9,143.8,322.2,154.5,316.3,152.2z M262.2,180.6
	c5.3-8.7,13.1-15.3,19.8-23.3c0.2-0.3,0.2-0.8-0.1-1c-0.3-0.3-0.7-0.3-1,0c-1.5,1.6-3.1,3.1-4.7,4.6c-0.7-0.3-2.5,0.3-4.3,1.8
	c-1.4,1.1-2.4,2.4-2.8,3.3c-0.9-0.2-2.6,0.9-4.2,2.8c-1.3,1.7-2,3.4-2,4.5c-1,0.1-2.4,1.3-3.6,3.3c-0.8,1.3-1.3,2.6-1.5,3.6
	c-0.8,0.5-1.7,1.6-2.5,2.9c-1.1,1.8-1.6,3.6-1.5,4.7c-0.3,0.5-0.5,0.9-0.7,1.3c0-0.4,0.1-0.7,0.1-1.1c1.6-12.3,3.8-24.4,7.2-36.1
	c3.4-11.7,7.6-23.5,14.7-32.9l0,0c0.4-0.5,0.3-1.2-0.1-1.7c-0.4-0.5-1.2-0.5-1.7,0c-2.4,2.6-4.5,5.5-6.4,8.5
	c-0.8-0.4-2.5,1.2-3.8,3.7c-1.2,2.3-1.6,4.4-1.2,5.2c0,0,0,0.1-0.1,0c-0.9-0.4-2.4,1.5-3.4,4.1c-0.9,2.4-1.1,4.6-0.5,5.3
	c0,0,0,0.1-0.1,0.1c-1-0.3-2.5,1.8-3.5,4.9c-0.8,2.6-0.9,4.9-0.3,5.8c0,0,0,0.2,0,0.1c-1-0.3-2.5,1.9-3.3,5c-0.9,3-0.8,5.6,0,6.1
	c-1-0.1-2.3,2.1-3,5.2c-0.6,2.6-0.6,4.9,0,5.8c-0.9,0.3-2,2.5-2.5,5.3c-0.5,2.8-0.3,5.1,0.4,5.8c-0.9,0.5-1.8,2.7-2.1,5.5
	c-0.3,2.8,0.1,5.1,0.8,5.8c-0.7,0.8-1.4,2.8-1.7,5.1c-0.3,2.2-0.1,4.1,0.3,5.2c-0.8,0.7-1.4,2.9-1.4,5.6c-0.1,2.2,0.3,4,0.8,5
	c-0.4,1.1-0.7,2.7-0.7,4.4c0,2.3,0.3,4.2,0.9,5.2c-0.2,8-0.1,16.4,0.4,24.4h17.2c0.1-6.2,0.5-13,1.1-19.1c1.2-11,3-22.1,8.5-31.4
	l0-0.1c0.2-0.3,0.1-0.7-0.1-1c-0.3-0.3-0.8-0.3-1.1,0.1c-7.4,8.6-10.7,20.3-12.6,31.6c-0.3,2.2-0.6,4.4-0.9,6.6
	c0.5-9,1.3-18,3.4-26.5c2.4-10.4,7.1-20.3,16.1-25.8c0.3-0.2,0.4-0.5,0.3-0.9c-0.1-0.4-0.5-0.6-0.9-0.5c-0.6,0.2-1.1,0.5-1.7,0.7
	c-0.6-0.7-2.8-0.2-5,1.3c-2.2,1.4-3.6,3.1-3.4,4.1c0,0-0.1,0.1-0.1,0c0-0.1,0-0.2-0.1-0.3c-0.8-0.7-3,0.8-4.8,3.4
	c-1.9,2.6-2.6,5.2-1.8,5.9c0,0,0,0.1,0,0.1c-1-0.4-2.6,1.8-3.6,4.8c-0.7,2.1-0.9,4.1-0.6,5.2c0,0,0,0.1,0,0.1
	c-0.7,2.5-1.4,4.9-1.9,7.5c0.2-3.6,0.5-7.1,1-10.7C253.7,199,256.8,189.1,262.2,180.6z M305.6,229.6c-0.4-0.6-1.4-0.7-1.9-0.2
	c-9.6,10.1-15.4,20.9-17.4,24.9h5.7c2.9-6.7,9.3-18.5,13.4-22.8l0,0C306,230.9,306,230.1,305.6,229.6z M297.7,399.2L297.7,399.2
	c-1.8-5-4.3-9.4-6.2-14.2c-2.1-4.7-4.1-9.4-5.7-14.3c-1.4-3.6-2.9-7.8-4-11.6h-5.3c1.5,4.4,3.4,9.2,5.2,13.5
	c4,9.6,8.6,19.1,14.4,27.5c0.2,0.3,0.6,0.4,1,0.3C297.7,400.2,297.9,399.6,297.7,399.2z M295.9,378.4c-1.5-5.9-3-13.1-4.3-19.3h-5.5
	c2.1,6.6,5,13.9,7.6,20.1c0.3,0.6,0.8,0.9,1.4,0.8C295.7,379.8,296.1,379.1,295.9,378.4z M281.4,394.4l-8.5-35.3h-14.4
	c2.3,9,5.5,18.1,9.8,26.1c0.3,0.5,0.8,0.8,1.3,0.7c0.7-0.1,1.2-0.8,1.1-1.5c-1-7.5-2.2-14.7-3.3-21.9c3,11.3,7.2,22.4,12.7,32.5
	c0.1,0.3,0.5,0.5,0.8,0.4C281.3,395.2,281.5,394.8,281.4,394.4z M356.5,165.4c-5.3-1.4-39-7.4-76.8,62.2
	c5.5-25.9,22.3-57.2,26.9-66.3v-0.1c0.3-0.5,0.1-1.2-0.3-1.6c-0.5-0.3-1.2-0.2-1.5,0.3c-25,41.6-33.7,65.6-38.9,94.3h15.6
	c2.7-27.7,37.6-92.9,74.9-88h0c0.2,0,0.4-0.1,0.4-0.3C356.9,165.7,356.7,165.4,356.5,165.4z M219.9,130c-0.2-0.3-0.7-0.5-1.1-0.4
	c-0.5,0.2-0.9,0.7-0.7,1.2c9.8,26.3-2.7,39.2-7.9,57.6c-6.3-14.9,14.5-29,3.8-56.2c-0.1-0.3-0.4-0.6-0.8-0.7c-0.5-0.1-1,0.2-1.1,0.9
	c-0.3,1.9-1.5,17-13.8,25.8c-1.3-2.9-3.1-5.9-5.7-8.3c-1.1-5.1-4.4-12.1-11.4-14.1c-1-2.6-3.2-6.4-7.2-8.4
	c-3.8-1.9-8.2-1.7-13.1,0.5c-5.9,0.7-10,3-12.1,6.9c-2,3.6-1.7,7.6-1,10.3c-5,5.3-5.2,13.2-5.1,16.3c-3,7.1-1.3,15.4-0.4,18.9
	c-3.5,9.7-0.1,19,1.3,22.1c0,0.8,0,1.6,0.1,2.4c-11.6-12.7-37.9-28.4-48-34.4c-0.5-0.3-1.1-0.2-1.5,0.2c-0.5,0.5-0.5,1.3-0.1,1.8
	c22.5,21.9,42.5,48.9,61.7,105c9.6-10,27-23.1,51.7-23.1h28.9C218.1,185.9,244.8,161.4,219.9,130z M203.4,184.1
	c2.4,3,1.5,8.3-2.7,8.6c-2.2,0.1-5.2-0.1-6.7-2c-2.4-2.9-1.5-8.4,2.8-8.6C199,182,201.9,182.3,203.4,184.1z M197.3,167.7
	c3.9,1.6,5.2,6.2,2.5,8.8c-1.5,1.3-4.2,1.1-6,0.7c-3.6-0.7-6-6.2-2.8-8.7C192.6,167.2,195.5,167,197.3,167.7z M181.2,182.9
	c3.2-0.3,6.4-1.1,8.4,2.2c2,3.5,0.5,8.3-3.6,9.2c-2.7,0.6-5.9,0.8-7.9-1.6C175.7,189.6,176.7,183.3,181.2,182.9z M174.2,174.2
	c-2-6.8,9.6-9.8,11.3-3.1C187.3,177.9,175.7,181,174.2,174.2z M189.6,154.7c3.2,0,4.8,4.7,3,7.1c-1.1,1.4-3.6,1.5-5.2,1.3
	c-3.1-0.5-5-4.4-3-7.1C185.6,154.3,187.8,154.7,189.6,154.7z M181.1,142.3c1.8-0.5,3.6-0.3,5,1.1c2,2.2,1.3,5.9-1.7,6.5
	c-1.4,0.3-3.6,0.2-4.7-0.8C177.6,147.4,177.7,143.2,181.1,142.3z M180.6,158.2c2,5.9-8,9.1-9.8,3.2
	C168.9,155.4,178.9,152.3,180.6,158.2z M166.4,148.7c-1.5-5.2,6.9-7.8,8.5-2.8C176.6,151,167.9,153.8,166.4,148.7z M166.4,175.3
	c-2.4,0.6-4.9,1.5-6.9-0.5c-2.5-2.6-1.8-7.2,1.6-8.4c2.2-0.8,5-1.3,6.8,0.5C170.3,169.3,170.1,174.4,166.4,175.3z M168,131.7
	c1.7-0.7,3.8-1.4,5.7,0c2.3,1.7,1.8,5.7-0.9,6.9c-1.8,0.8-4,1.3-5.6-0.1C165.2,136.7,165.1,132.8,168,131.7z M166.8,157.1
	c1.9,5.2-6.9,8.2-8.7,3C156.4,154.9,165.3,151.9,166.8,157.1z M153.7,148.6c-1.3-4.8,6.8-7.1,8.2-2.2
	C163.4,151.2,155,153.6,153.7,148.6z M155,134c1.6-0.9,3.9-1.2,5.4,0.4c1.7,1.9,1.1,4.8-1.1,5.9c-1.7,0.9-4,1.2-5.4-0.4
	C152.4,138.2,152.7,135.2,155,134z M147.8,153.3c1.3-0.9,3-1.7,4.5-1.1c2.7,1.1,2.6,5,0.4,6.6c-1,0.7-2.8,1.6-4,1.3
	C146,159.4,145.3,155,147.8,153.3z M147.4,166.8c1.6-1.4,3.4-2.2,5.3-1.3c3,1.4,3.1,5.9,0.5,7.7c-1.2,0.8-3.2,1.8-4.7,1.5
	C145.3,174,144.6,169.3,147.4,166.8z M156.4,181.5c3.6,6.3-7.2,13.4-10.2,6.6C143.5,182.3,153,175.4,156.4,181.5z M146.9,203.1
	c-3.1-6.8,8.2-14.2,11.6-6.9C161.6,203,150.4,210.6,146.9,203.1z M158.8,218.4c-0.6,0.4-0.9,0.6-1.1,0.6l-6.2-6.8
	c0.1-0.2,2-1.6,2.6-2C159.3,207.4,163.6,215.6,158.8,218.4z M160.1,187.1c-2.3-7.7,10.9-11.1,12.9-3.5
	C175.1,191.3,161.9,194.7,160.1,187.1z M162.1,203.4c-2.4-8.3,11.6-11.9,13.8-3.8C178.1,208,164,211.5,162.1,203.4z M164.1,219.9
	c-2.3-8.3,11.6-11.9,13.7-3.8C180.1,224.5,166,228.1,164.1,219.9z M180.4,235.3c-0.9,3-3.3,3.4-5.9,4.1c-1.7-2.1-6.3-7.4-6.4-8
	c0-0.2,0-0.4,0.1-0.7c0.2-0.6,0.9-1.2,1.5-1.6c1.6-1,4.9-1.8,6.7-1.4C179.6,228.4,181.3,232.3,180.4,235.3z M183.5,199.3
	c3.3-0.8,6.7-2,9.2,1.2c2.6,3.4,1.7,8.8-2.5,10.2c-2.8,0.9-6.2,1.7-8.6-0.5C178.4,207.2,178.7,200.4,183.5,199.3z M186.5,216
	c3.1-0.8,6.3-1.9,8.7,1.1c2.5,3.2,1.7,8.4-2.4,9.7c-2.7,0.9-5.9,1.7-8.2-0.5C181.7,223.5,181.9,217,186.5,216z M199.2,241.3
	c-0.3,1.5-2.3,1.7-3.7,2.1c-4,1.2-7.8,0.7-9.1-4.1c-1.3-5.2,2.6-7.3,6.7-8.3c2.3-0.5,4.4-0.1,5.9,1.8c0.4,0.5,0.9,0.9,1,1.4
	C200,234.2,199.4,239.9,199.2,241.3z M202.2,219.4c-0.1,0.7-0.2,1.3-0.3,2c-2.1-1.3-3.4-4.4-2.4-6.8c0.8-1.8,2.7-2.3,4.2-2.4
	C203.2,214.6,202.7,217,202.2,219.4z M206.2,201.7c-0.2,0.8-1.7,6.6-1.7,6.6c-0.4,0.2-2.2-0.2-2.7-0.2c-3.4-0.3-6.5-3.3-5.2-6.9
	c1.1-2.9,3.3-3.2,6.1-3.3c1.2-0.1,3.2,0.2,4.3,0.9C207,198.9,206.6,200.2,206.2,201.7z M349.7,191.4c-0.8-1.2-7.8,6.4-12.9,7.1
	c-1,0.1-2,0.6-2.9,1.4c-1,0.9-1.6,1.9-1.8,2.9c-0.2,1-0.1,2,0.4,2.6c0.6,0.7,1.4,1,2.4,0.9c1-0.1,2-0.6,3-1.5
	c0.9-0.8,1.5-1.9,1.7-2.9C341.2,196.8,350.3,192.2,349.7,191.4z M334.3,208.7c-0.8-0.6-2-1-3.2-0.8c-0.6,0-1.1,0.2-1.6,0.4
	c0.1-0.2,0.2-0.4,0.3-0.7c0.3-1.2,0.2-2.5-0.2-3.5c-1.9-5.4,6.4-13.4,5.6-14c-0.8-0.6-6.2,9.1-10.6,12.5c-0.9,0.6-1.5,1.6-1.9,2.9
	c-0.4,1.2-0.3,2.5,0.2,3.5c0.4,1,1.2,1.8,2.1,2.1c0.7,0.2,1.5,0.1,2.2-0.2c-0.1,0.4-0.2,0.9-0.2,1.4c0.1,1.1,0.6,2,1.5,2.7
	c0.8,0.6,2,1,3.1,0.9c1.2-0.1,2.3-0.6,3-1.4c4-4,13.9-7.8,13.5-8.8C347.9,204.5,338.9,211.7,334.3,208.7z M326.5,216.8
	c-0.8-0.9-2-1.5-3.3-1.6c-0.8,0-1.5,0.1-2.2,0.3c0.1-0.4,0.3-0.7,0.3-1.1c0.1-1.4-0.2-2.7-0.8-3.8c-3-5.5,4.8-15.9,3.8-16.4
	s-5.2,11.1-9.5,15.7c-0.9,0.8-1.4,2-1.6,3.4c-0.1,1.4,0.2,2.8,0.8,3.8c0.7,1,1.6,1.7,2.7,1.9c0.5,0,1,0,1.4-0.2
	c0,0.1-0.1,0.2-0.1,0.2c-0.1,1.2,0.3,2.4,1.1,3.2c0.8,0.9,2,1.5,3.3,1.6c1.3,0.1,2.6-0.2,3.5-0.9c5-3.6,16.5-5.8,16.2-6.9
	C342,214.9,331,221,326.5,216.8z M317.6,225.5c-0.9-0.9-2.1-1.5-3.6-1.7c-1.1-0.2-2.1,0-2.9,0.3c0.4-0.8,0.7-1.7,0.8-2.7
	c0.2-1.6-0.1-3-0.7-4.2c-2.7-6,5.1-17.9,4.1-18.5c-0.9-0.5-5.4,12.7-9.7,18c-0.8,1-1.4,2.4-1.6,4c-0.1,1.6,0.1,3.1,0.7,4.2
	c0.6,1.1,1.5,1.8,2.6,1.9c0.3,0,0.6,0,0.9,0c-0.1,0.2-0.1,0.3-0.1,0.5c-0.2,1.2,0.3,2.3,1.1,3.1c0.9,0.9,2.1,1.5,3.6,1.7
	c1.5,0.2,2.9-0.1,4-0.8c5.8-3.2,17.9-6.3,17.7-7.5C334.2,222.8,322.4,229.7,317.6,225.5z M196.4,279.2c-22,0-40.3,9.6-44.6,12
	c-0.2,0.1-0.5-0.1-0.3-0.4c3.6-5.3,22.9-31.1,56.1-31.1c7.7,0,84.5,0,84.5,0c4.6,0,8.3,4.4,8.3,9.7s-3.7,9.7-8.3,9.7
	C292.1,279.2,217.5,279.2,196.4,279.2z M202.3,353.7c-27.4,0-29.6-20.2-70.1-24.7c-0.3,0-0.3-0.4,0-0.5c33.3-8.3,45.7,5.8,65.2,5.8
	c7.7,0,94.7,0,94.7,0c4.6,0,8.3,4.4,8.3,9.7s-3.7,9.7-8.3,9.7C292.1,353.7,223.5,353.7,202.3,353.7z M200.4,329.1
	c-26.7,0-34.4-15.2-74.8-5.1c-0.3,0.1-0.5-0.3-0.2-0.5c22.5-15.4,47-14,56.9-14c7.7,0,109.8,0,109.8,0c4.6,0,8.3,4.4,8.3,9.7
	s-3.7,9.7-8.3,9.7C292.1,328.9,221.6,329.1,200.4,329.1z M180,304.1c-24.7,0-40.6,5.9-45,7.7c-0.3,0.1-0.5-0.2-0.3-0.5
	c27.2-28.3,59-26.7,66.7-26.7c7.7,0,90.5,0,90.5,0c4.6,0,8.3,4.4,8.3,9.7s-3.7,9.7-8.3,9.7C292.1,304.1,201.2,304.1,180,304.1z
	 M213.1,82.5h-15.4L189.1,49c-0.3-1.2-0.9-3.7-1.6-7.4c-0.8-3.7-1.2-6.2-1.3-7.5c-0.2,1.6-0.6,4.1-1.3,7.6c-0.7,3.5-1.2,6-1.6,7.4
	l-8.6,33.4h-15.3L143,18.8h13.3l8.1,34.8c1.4,6.4,2.5,12,3.1,16.7c0.2-1.7,0.6-4.2,1.2-7.7c0.6-3.5,1.2-6.2,1.8-8.1l9.3-35.7h12.8
	l9.3,35.7c0.4,1.6,0.9,4,1.5,7.3c0.6,3.3,1.1,6.1,1.4,8.5c0.3-2.3,0.8-5.1,1.4-8.5c0.6-3.4,1.2-6.1,1.7-8.2l8.1-34.8h13.3
	L213.1,82.5z M249.8,82.5h-13.3V18.8H273v11.1h-23.2v16.4h21.6v11h-21.6V82.5z M327.2,38.7c0,6.9-2.1,12.1-6.4,15.7
	c-4.3,3.6-10.4,5.4-18.3,5.4h-5.8v22.7h-13.5V18.8h20.3c7.7,0,13.6,1.7,17.6,5C325.1,27.1,327.2,32.1,327.2,38.7z M296.7,48.8h4.4
	c4.2,0,7.3-0.8,9.3-2.5c2.1-1.6,3.1-4,3.1-7.2c0-3.2-0.9-5.5-2.6-7c-1.7-1.5-4.4-2.3-8.1-2.3h-6.1V48.8z"/>
</svg>
